%TF.GenerationSoftware,KiCad,Pcbnew,8.0.1*%
%TF.CreationDate,2024-03-29T13:37:13+01:00*%
%TF.ProjectId,EHealth_PCB,45486561-6c74-4685-9f50-43422e6b6963,rev?*%
%TF.SameCoordinates,Original*%
%TF.FileFunction,Legend,Top*%
%TF.FilePolarity,Positive*%
%FSLAX46Y46*%
G04 Gerber Fmt 4.6, Leading zero omitted, Abs format (unit mm)*
G04 Created by KiCad (PCBNEW 8.0.1) date 2024-03-29 13:37:13*
%MOMM*%
%LPD*%
G01*
G04 APERTURE LIST*
%ADD10C,0.150000*%
%ADD11C,0.200000*%
%ADD12C,0.120000*%
%ADD13C,0.100000*%
G04 APERTURE END LIST*
D10*
X208001092Y-67775278D02*
X208000000Y-80811168D01*
X217798693Y-101512864D02*
X221798693Y-101512864D01*
X221798693Y-103823313D01*
X217798693Y-103823313D01*
X217798693Y-101512864D01*
X222800000Y-72800000D02*
X222800000Y-72600000D01*
X180590000Y-61600000D02*
X193400000Y-61600000D01*
X193400000Y-62880000D01*
X180590000Y-62880000D01*
X180590000Y-61600000D01*
X217798693Y-96897711D02*
X221798693Y-96897711D01*
X221798693Y-99208160D01*
X217798693Y-99208160D01*
X217798693Y-96897711D01*
X194800000Y-73600000D02*
X199000000Y-73600000D01*
X208944659Y-80811722D02*
X208000000Y-80811168D01*
X196000000Y-57400000D02*
X197400000Y-57400000D01*
X210934817Y-56809386D02*
X224329991Y-56809386D01*
X224329991Y-62299576D01*
X210934817Y-62299576D01*
X210934817Y-56809386D01*
X208800000Y-85600000D02*
X208800000Y-87000000D01*
X207000000Y-90000000D02*
X210000000Y-90000000D01*
X194800000Y-67200000D02*
X194800000Y-73000000D01*
X208943262Y-67764539D02*
X208001092Y-67775278D01*
X194800000Y-67200000D02*
X194800000Y-60600000D01*
X203500000Y-60078166D02*
X209081195Y-60078166D01*
X209081195Y-63000000D01*
X203500000Y-63000000D01*
X203500000Y-60078166D01*
X204600000Y-96000000D02*
X213600000Y-96000000D01*
X213600000Y-105710000D01*
X204600000Y-105710000D01*
X204600000Y-96000000D01*
X194800000Y-83370000D02*
X194800000Y-91400000D01*
X208943262Y-67764539D02*
X227400000Y-67800000D01*
X197000000Y-57800000D02*
X197400000Y-57400000D01*
X214344659Y-73211722D02*
X214344659Y-80811722D01*
X205000000Y-85600000D02*
X208800000Y-85600000D01*
X179180000Y-69602869D02*
X194800000Y-69602869D01*
X194800000Y-93200000D01*
X179180000Y-93200000D01*
X179180000Y-69602869D01*
X190200000Y-73000000D02*
X192200000Y-73000000D01*
X192200000Y-92800000D01*
X190200000Y-92800000D01*
X190200000Y-73000000D01*
X199000000Y-73600000D02*
X199000000Y-67200000D01*
X180570797Y-68077843D02*
X193390797Y-68077843D01*
X193390797Y-69369226D01*
X180570797Y-69369226D01*
X180570797Y-68077843D01*
X207000000Y-89000000D02*
X207000000Y-90000000D01*
X180595631Y-60391804D02*
X193400000Y-60391804D01*
X193400000Y-61600000D01*
X180595631Y-61600000D01*
X180595631Y-60391804D01*
X199000000Y-67200000D02*
X199000000Y-60600000D01*
X214344659Y-80811722D02*
X208944659Y-80811722D01*
X210000000Y-96000000D02*
X198400000Y-96000000D01*
X199000000Y-67200000D02*
X202190000Y-67200000D01*
X202190000Y-73600000D01*
X199000000Y-73600000D01*
X199000000Y-67200000D01*
X208800000Y-87000000D02*
X207000000Y-87000000D01*
X207000000Y-87000000D02*
X207000000Y-87000000D01*
X180580000Y-70990000D02*
X180581118Y-69601801D01*
X194800000Y-72800000D02*
X194800000Y-80968084D01*
X198400000Y-96000000D02*
X198400000Y-87000000D01*
X222800000Y-81800000D02*
X222800000Y-72800000D01*
X214344659Y-73211722D02*
X214343262Y-72604728D01*
X227400000Y-72800000D02*
X227400000Y-67800000D01*
X199000000Y-67200000D02*
X194800000Y-67200000D01*
X186200000Y-73000000D02*
X188200000Y-73000000D01*
X188200000Y-92800000D01*
X186200000Y-92800000D01*
X186200000Y-73000000D01*
X194800000Y-60600000D02*
X199000000Y-60600000D01*
X217800000Y-92289551D02*
X221800000Y-92289551D01*
X221800000Y-94600000D01*
X217800000Y-94600000D01*
X217800000Y-92289551D01*
X207000000Y-87000000D02*
X207000000Y-89000000D01*
X217794145Y-99208785D02*
X221794145Y-99208785D01*
X221794145Y-101519234D01*
X217794145Y-101519234D01*
X217794145Y-99208785D01*
X227400000Y-72800000D02*
X227400000Y-81800000D01*
X188200000Y-73000000D02*
X190200000Y-73000000D01*
X190200000Y-92800000D01*
X188200000Y-92800000D01*
X188200000Y-73000000D01*
X214343262Y-72604728D02*
X222800000Y-72604728D01*
X222800000Y-81800000D01*
X214343262Y-81800000D01*
X214343262Y-72604728D01*
X198400000Y-85600000D02*
X205000000Y-85600000D01*
X217798693Y-94594142D02*
X221798693Y-94594142D01*
X221798693Y-96904591D01*
X217798693Y-96904591D01*
X217798693Y-94594142D01*
X194800000Y-80968084D02*
X194800000Y-83370000D01*
X198400000Y-87000000D02*
X198400000Y-85600000D01*
X227400000Y-81800000D02*
X222800000Y-81800000D01*
X199000000Y-60600000D02*
X202190000Y-60600000D01*
X202190000Y-67200000D01*
X199000000Y-67200000D01*
X199000000Y-60600000D01*
X185785724Y-90950000D02*
X185784239Y-91400000D01*
X213600000Y-89900000D02*
X228005000Y-89900000D01*
X228005000Y-105710000D01*
X213600000Y-105710000D01*
X213600000Y-89900000D01*
X210000000Y-90000000D02*
X210000000Y-96000000D01*
X197400000Y-57400000D02*
X197000000Y-57000000D01*
X222800000Y-81800000D02*
X227400000Y-81800000D01*
X227400000Y-83450000D01*
X222800000Y-83450000D01*
X222800000Y-81800000D01*
X214706900Y-99981377D02*
X214630710Y-99943282D01*
X214630710Y-99943282D02*
X214516424Y-99943282D01*
X214516424Y-99943282D02*
X214402138Y-99981377D01*
X214402138Y-99981377D02*
X214325948Y-100057567D01*
X214325948Y-100057567D02*
X214287853Y-100133758D01*
X214287853Y-100133758D02*
X214249757Y-100286139D01*
X214249757Y-100286139D02*
X214249757Y-100400425D01*
X214249757Y-100400425D02*
X214287853Y-100552806D01*
X214287853Y-100552806D02*
X214325948Y-100628996D01*
X214325948Y-100628996D02*
X214402138Y-100705187D01*
X214402138Y-100705187D02*
X214516424Y-100743282D01*
X214516424Y-100743282D02*
X214592615Y-100743282D01*
X214592615Y-100743282D02*
X214706900Y-100705187D01*
X214706900Y-100705187D02*
X214744996Y-100667091D01*
X214744996Y-100667091D02*
X214744996Y-100400425D01*
X214744996Y-100400425D02*
X214592615Y-100400425D01*
X215087853Y-100743282D02*
X215087853Y-99943282D01*
X215087853Y-99943282D02*
X215392615Y-99943282D01*
X215392615Y-99943282D02*
X215468805Y-99981377D01*
X215468805Y-99981377D02*
X215506900Y-100019472D01*
X215506900Y-100019472D02*
X215544996Y-100095663D01*
X215544996Y-100095663D02*
X215544996Y-100209948D01*
X215544996Y-100209948D02*
X215506900Y-100286139D01*
X215506900Y-100286139D02*
X215468805Y-100324234D01*
X215468805Y-100324234D02*
X215392615Y-100362329D01*
X215392615Y-100362329D02*
X215087853Y-100362329D01*
X215887853Y-100743282D02*
X215887853Y-99943282D01*
X216421186Y-99943282D02*
X216573567Y-99943282D01*
X216573567Y-99943282D02*
X216649757Y-99981377D01*
X216649757Y-99981377D02*
X216725948Y-100057567D01*
X216725948Y-100057567D02*
X216764043Y-100209948D01*
X216764043Y-100209948D02*
X216764043Y-100476615D01*
X216764043Y-100476615D02*
X216725948Y-100628996D01*
X216725948Y-100628996D02*
X216649757Y-100705187D01*
X216649757Y-100705187D02*
X216573567Y-100743282D01*
X216573567Y-100743282D02*
X216421186Y-100743282D01*
X216421186Y-100743282D02*
X216344995Y-100705187D01*
X216344995Y-100705187D02*
X216268805Y-100628996D01*
X216268805Y-100628996D02*
X216230709Y-100476615D01*
X216230709Y-100476615D02*
X216230709Y-100209948D01*
X216230709Y-100209948D02*
X216268805Y-100057567D01*
X216268805Y-100057567D02*
X216344995Y-99981377D01*
X216344995Y-99981377D02*
X216421186Y-99943282D01*
X217068804Y-100019472D02*
X217106900Y-99981377D01*
X217106900Y-99981377D02*
X217183090Y-99943282D01*
X217183090Y-99943282D02*
X217373566Y-99943282D01*
X217373566Y-99943282D02*
X217449757Y-99981377D01*
X217449757Y-99981377D02*
X217487852Y-100019472D01*
X217487852Y-100019472D02*
X217525947Y-100095663D01*
X217525947Y-100095663D02*
X217525947Y-100171853D01*
X217525947Y-100171853D02*
X217487852Y-100286139D01*
X217487852Y-100286139D02*
X217030709Y-100743282D01*
X217030709Y-100743282D02*
X217525947Y-100743282D01*
X204885890Y-101765102D02*
X205152557Y-102565102D01*
X205152557Y-102565102D02*
X205419223Y-101765102D01*
X205685890Y-102565102D02*
X205685890Y-101765102D01*
X205685890Y-101765102D02*
X205876366Y-101765102D01*
X205876366Y-101765102D02*
X205990652Y-101803197D01*
X205990652Y-101803197D02*
X206066842Y-101879387D01*
X206066842Y-101879387D02*
X206104937Y-101955578D01*
X206104937Y-101955578D02*
X206143033Y-102107959D01*
X206143033Y-102107959D02*
X206143033Y-102222245D01*
X206143033Y-102222245D02*
X206104937Y-102374626D01*
X206104937Y-102374626D02*
X206066842Y-102450816D01*
X206066842Y-102450816D02*
X205990652Y-102527007D01*
X205990652Y-102527007D02*
X205876366Y-102565102D01*
X205876366Y-102565102D02*
X205685890Y-102565102D01*
X206485890Y-102565102D02*
X206485890Y-101765102D01*
X206485890Y-101765102D02*
X206676366Y-101765102D01*
X206676366Y-101765102D02*
X206790652Y-101803197D01*
X206790652Y-101803197D02*
X206866842Y-101879387D01*
X206866842Y-101879387D02*
X206904937Y-101955578D01*
X206904937Y-101955578D02*
X206943033Y-102107959D01*
X206943033Y-102107959D02*
X206943033Y-102222245D01*
X206943033Y-102222245D02*
X206904937Y-102374626D01*
X206904937Y-102374626D02*
X206866842Y-102450816D01*
X206866842Y-102450816D02*
X206790652Y-102527007D01*
X206790652Y-102527007D02*
X206676366Y-102565102D01*
X206676366Y-102565102D02*
X206485890Y-102565102D01*
X207819223Y-101765102D02*
X208314461Y-101765102D01*
X208314461Y-101765102D02*
X208047795Y-102069864D01*
X208047795Y-102069864D02*
X208162080Y-102069864D01*
X208162080Y-102069864D02*
X208238271Y-102107959D01*
X208238271Y-102107959D02*
X208276366Y-102146054D01*
X208276366Y-102146054D02*
X208314461Y-102222245D01*
X208314461Y-102222245D02*
X208314461Y-102412721D01*
X208314461Y-102412721D02*
X208276366Y-102488911D01*
X208276366Y-102488911D02*
X208238271Y-102527007D01*
X208238271Y-102527007D02*
X208162080Y-102565102D01*
X208162080Y-102565102D02*
X207933509Y-102565102D01*
X207933509Y-102565102D02*
X207857318Y-102527007D01*
X207857318Y-102527007D02*
X207819223Y-102488911D01*
X208657319Y-102488911D02*
X208695414Y-102527007D01*
X208695414Y-102527007D02*
X208657319Y-102565102D01*
X208657319Y-102565102D02*
X208619223Y-102527007D01*
X208619223Y-102527007D02*
X208657319Y-102488911D01*
X208657319Y-102488911D02*
X208657319Y-102565102D01*
X208962080Y-101765102D02*
X209457318Y-101765102D01*
X209457318Y-101765102D02*
X209190652Y-102069864D01*
X209190652Y-102069864D02*
X209304937Y-102069864D01*
X209304937Y-102069864D02*
X209381128Y-102107959D01*
X209381128Y-102107959D02*
X209419223Y-102146054D01*
X209419223Y-102146054D02*
X209457318Y-102222245D01*
X209457318Y-102222245D02*
X209457318Y-102412721D01*
X209457318Y-102412721D02*
X209419223Y-102488911D01*
X209419223Y-102488911D02*
X209381128Y-102527007D01*
X209381128Y-102527007D02*
X209304937Y-102565102D01*
X209304937Y-102565102D02*
X209076366Y-102565102D01*
X209076366Y-102565102D02*
X209000175Y-102527007D01*
X209000175Y-102527007D02*
X208962080Y-102488911D01*
X209685890Y-101765102D02*
X209952557Y-102565102D01*
X209952557Y-102565102D02*
X210219223Y-101765102D01*
X211514461Y-101803197D02*
X211438271Y-101765102D01*
X211438271Y-101765102D02*
X211323985Y-101765102D01*
X211323985Y-101765102D02*
X211209699Y-101803197D01*
X211209699Y-101803197D02*
X211133509Y-101879387D01*
X211133509Y-101879387D02*
X211095414Y-101955578D01*
X211095414Y-101955578D02*
X211057318Y-102107959D01*
X211057318Y-102107959D02*
X211057318Y-102222245D01*
X211057318Y-102222245D02*
X211095414Y-102374626D01*
X211095414Y-102374626D02*
X211133509Y-102450816D01*
X211133509Y-102450816D02*
X211209699Y-102527007D01*
X211209699Y-102527007D02*
X211323985Y-102565102D01*
X211323985Y-102565102D02*
X211400176Y-102565102D01*
X211400176Y-102565102D02*
X211514461Y-102527007D01*
X211514461Y-102527007D02*
X211552557Y-102488911D01*
X211552557Y-102488911D02*
X211552557Y-102222245D01*
X211552557Y-102222245D02*
X211400176Y-102222245D01*
X211895414Y-102565102D02*
X211895414Y-101765102D01*
X211895414Y-101765102D02*
X212352557Y-102565102D01*
X212352557Y-102565102D02*
X212352557Y-101765102D01*
X212733509Y-102565102D02*
X212733509Y-101765102D01*
X212733509Y-101765102D02*
X212923985Y-101765102D01*
X212923985Y-101765102D02*
X213038271Y-101803197D01*
X213038271Y-101803197D02*
X213114461Y-101879387D01*
X213114461Y-101879387D02*
X213152556Y-101955578D01*
X213152556Y-101955578D02*
X213190652Y-102107959D01*
X213190652Y-102107959D02*
X213190652Y-102222245D01*
X213190652Y-102222245D02*
X213152556Y-102374626D01*
X213152556Y-102374626D02*
X213114461Y-102450816D01*
X213114461Y-102450816D02*
X213038271Y-102527007D01*
X213038271Y-102527007D02*
X212923985Y-102565102D01*
X212923985Y-102565102D02*
X212733509Y-102565102D01*
X216353864Y-61061871D02*
X216849102Y-61061871D01*
X216849102Y-61061871D02*
X216582436Y-61366633D01*
X216582436Y-61366633D02*
X216696721Y-61366633D01*
X216696721Y-61366633D02*
X216772912Y-61404728D01*
X216772912Y-61404728D02*
X216811007Y-61442823D01*
X216811007Y-61442823D02*
X216849102Y-61519014D01*
X216849102Y-61519014D02*
X216849102Y-61709490D01*
X216849102Y-61709490D02*
X216811007Y-61785680D01*
X216811007Y-61785680D02*
X216772912Y-61823776D01*
X216772912Y-61823776D02*
X216696721Y-61861871D01*
X216696721Y-61861871D02*
X216468150Y-61861871D01*
X216468150Y-61861871D02*
X216391959Y-61823776D01*
X216391959Y-61823776D02*
X216353864Y-61785680D01*
X217191960Y-61785680D02*
X217230055Y-61823776D01*
X217230055Y-61823776D02*
X217191960Y-61861871D01*
X217191960Y-61861871D02*
X217153864Y-61823776D01*
X217153864Y-61823776D02*
X217191960Y-61785680D01*
X217191960Y-61785680D02*
X217191960Y-61861871D01*
X217496721Y-61061871D02*
X217991959Y-61061871D01*
X217991959Y-61061871D02*
X217725293Y-61366633D01*
X217725293Y-61366633D02*
X217839578Y-61366633D01*
X217839578Y-61366633D02*
X217915769Y-61404728D01*
X217915769Y-61404728D02*
X217953864Y-61442823D01*
X217953864Y-61442823D02*
X217991959Y-61519014D01*
X217991959Y-61519014D02*
X217991959Y-61709490D01*
X217991959Y-61709490D02*
X217953864Y-61785680D01*
X217953864Y-61785680D02*
X217915769Y-61823776D01*
X217915769Y-61823776D02*
X217839578Y-61861871D01*
X217839578Y-61861871D02*
X217611007Y-61861871D01*
X217611007Y-61861871D02*
X217534816Y-61823776D01*
X217534816Y-61823776D02*
X217496721Y-61785680D01*
X218220531Y-61061871D02*
X218487198Y-61861871D01*
X218487198Y-61861871D02*
X218753864Y-61061871D01*
X180256200Y-89148935D02*
X180294295Y-89034649D01*
X180294295Y-89034649D02*
X180294295Y-88844173D01*
X180294295Y-88844173D02*
X180256200Y-88767982D01*
X180256200Y-88767982D02*
X180218104Y-88729887D01*
X180218104Y-88729887D02*
X180141914Y-88691792D01*
X180141914Y-88691792D02*
X180065723Y-88691792D01*
X180065723Y-88691792D02*
X179989533Y-88729887D01*
X179989533Y-88729887D02*
X179951438Y-88767982D01*
X179951438Y-88767982D02*
X179913342Y-88844173D01*
X179913342Y-88844173D02*
X179875247Y-88996554D01*
X179875247Y-88996554D02*
X179837152Y-89072744D01*
X179837152Y-89072744D02*
X179799057Y-89110839D01*
X179799057Y-89110839D02*
X179722866Y-89148935D01*
X179722866Y-89148935D02*
X179646676Y-89148935D01*
X179646676Y-89148935D02*
X179570485Y-89110839D01*
X179570485Y-89110839D02*
X179532390Y-89072744D01*
X179532390Y-89072744D02*
X179494295Y-88996554D01*
X179494295Y-88996554D02*
X179494295Y-88806077D01*
X179494295Y-88806077D02*
X179532390Y-88691792D01*
X180218104Y-87891791D02*
X180256200Y-87929887D01*
X180256200Y-87929887D02*
X180294295Y-88044172D01*
X180294295Y-88044172D02*
X180294295Y-88120363D01*
X180294295Y-88120363D02*
X180256200Y-88234649D01*
X180256200Y-88234649D02*
X180180009Y-88310839D01*
X180180009Y-88310839D02*
X180103819Y-88348934D01*
X180103819Y-88348934D02*
X179951438Y-88387030D01*
X179951438Y-88387030D02*
X179837152Y-88387030D01*
X179837152Y-88387030D02*
X179684771Y-88348934D01*
X179684771Y-88348934D02*
X179608580Y-88310839D01*
X179608580Y-88310839D02*
X179532390Y-88234649D01*
X179532390Y-88234649D02*
X179494295Y-88120363D01*
X179494295Y-88120363D02*
X179494295Y-88044172D01*
X179494295Y-88044172D02*
X179532390Y-87929887D01*
X179532390Y-87929887D02*
X179570485Y-87891791D01*
X180294295Y-87167982D02*
X180294295Y-87548934D01*
X180294295Y-87548934D02*
X179494295Y-87548934D01*
X180256200Y-77948935D02*
X180294295Y-77834649D01*
X180294295Y-77834649D02*
X180294295Y-77644173D01*
X180294295Y-77644173D02*
X180256200Y-77567982D01*
X180256200Y-77567982D02*
X180218104Y-77529887D01*
X180218104Y-77529887D02*
X180141914Y-77491792D01*
X180141914Y-77491792D02*
X180065723Y-77491792D01*
X180065723Y-77491792D02*
X179989533Y-77529887D01*
X179989533Y-77529887D02*
X179951438Y-77567982D01*
X179951438Y-77567982D02*
X179913342Y-77644173D01*
X179913342Y-77644173D02*
X179875247Y-77796554D01*
X179875247Y-77796554D02*
X179837152Y-77872744D01*
X179837152Y-77872744D02*
X179799057Y-77910839D01*
X179799057Y-77910839D02*
X179722866Y-77948935D01*
X179722866Y-77948935D02*
X179646676Y-77948935D01*
X179646676Y-77948935D02*
X179570485Y-77910839D01*
X179570485Y-77910839D02*
X179532390Y-77872744D01*
X179532390Y-77872744D02*
X179494295Y-77796554D01*
X179494295Y-77796554D02*
X179494295Y-77606077D01*
X179494295Y-77606077D02*
X179532390Y-77491792D01*
X180218104Y-76691791D02*
X180256200Y-76729887D01*
X180256200Y-76729887D02*
X180294295Y-76844172D01*
X180294295Y-76844172D02*
X180294295Y-76920363D01*
X180294295Y-76920363D02*
X180256200Y-77034649D01*
X180256200Y-77034649D02*
X180180009Y-77110839D01*
X180180009Y-77110839D02*
X180103819Y-77148934D01*
X180103819Y-77148934D02*
X179951438Y-77187030D01*
X179951438Y-77187030D02*
X179837152Y-77187030D01*
X179837152Y-77187030D02*
X179684771Y-77148934D01*
X179684771Y-77148934D02*
X179608580Y-77110839D01*
X179608580Y-77110839D02*
X179532390Y-77034649D01*
X179532390Y-77034649D02*
X179494295Y-76920363D01*
X179494295Y-76920363D02*
X179494295Y-76844172D01*
X179494295Y-76844172D02*
X179532390Y-76729887D01*
X179532390Y-76729887D02*
X179570485Y-76691791D01*
X180294295Y-75967982D02*
X180294295Y-76348934D01*
X180294295Y-76348934D02*
X179494295Y-76348934D01*
X180256200Y-91948935D02*
X180294295Y-91834649D01*
X180294295Y-91834649D02*
X180294295Y-91644173D01*
X180294295Y-91644173D02*
X180256200Y-91567982D01*
X180256200Y-91567982D02*
X180218104Y-91529887D01*
X180218104Y-91529887D02*
X180141914Y-91491792D01*
X180141914Y-91491792D02*
X180065723Y-91491792D01*
X180065723Y-91491792D02*
X179989533Y-91529887D01*
X179989533Y-91529887D02*
X179951438Y-91567982D01*
X179951438Y-91567982D02*
X179913342Y-91644173D01*
X179913342Y-91644173D02*
X179875247Y-91796554D01*
X179875247Y-91796554D02*
X179837152Y-91872744D01*
X179837152Y-91872744D02*
X179799057Y-91910839D01*
X179799057Y-91910839D02*
X179722866Y-91948935D01*
X179722866Y-91948935D02*
X179646676Y-91948935D01*
X179646676Y-91948935D02*
X179570485Y-91910839D01*
X179570485Y-91910839D02*
X179532390Y-91872744D01*
X179532390Y-91872744D02*
X179494295Y-91796554D01*
X179494295Y-91796554D02*
X179494295Y-91606077D01*
X179494295Y-91606077D02*
X179532390Y-91491792D01*
X180294295Y-91148934D02*
X179494295Y-91148934D01*
X179494295Y-91148934D02*
X179494295Y-90958458D01*
X179494295Y-90958458D02*
X179532390Y-90844172D01*
X179532390Y-90844172D02*
X179608580Y-90767982D01*
X179608580Y-90767982D02*
X179684771Y-90729887D01*
X179684771Y-90729887D02*
X179837152Y-90691791D01*
X179837152Y-90691791D02*
X179951438Y-90691791D01*
X179951438Y-90691791D02*
X180103819Y-90729887D01*
X180103819Y-90729887D02*
X180180009Y-90767982D01*
X180180009Y-90767982D02*
X180256200Y-90844172D01*
X180256200Y-90844172D02*
X180294295Y-90958458D01*
X180294295Y-90958458D02*
X180294295Y-91148934D01*
X180065723Y-90387030D02*
X180065723Y-90006077D01*
X180294295Y-90463220D02*
X179494295Y-90196553D01*
X179494295Y-90196553D02*
X180294295Y-89929887D01*
X187222825Y-70363170D02*
X187375206Y-70363170D01*
X187375206Y-70363170D02*
X187451396Y-70401265D01*
X187451396Y-70401265D02*
X187527587Y-70477455D01*
X187527587Y-70477455D02*
X187565682Y-70629836D01*
X187565682Y-70629836D02*
X187565682Y-70896503D01*
X187565682Y-70896503D02*
X187527587Y-71048884D01*
X187527587Y-71048884D02*
X187451396Y-71125075D01*
X187451396Y-71125075D02*
X187375206Y-71163170D01*
X187375206Y-71163170D02*
X187222825Y-71163170D01*
X187222825Y-71163170D02*
X187146634Y-71125075D01*
X187146634Y-71125075D02*
X187070444Y-71048884D01*
X187070444Y-71048884D02*
X187032348Y-70896503D01*
X187032348Y-70896503D02*
X187032348Y-70629836D01*
X187032348Y-70629836D02*
X187070444Y-70477455D01*
X187070444Y-70477455D02*
X187146634Y-70401265D01*
X187146634Y-70401265D02*
X187222825Y-70363170D01*
X187794253Y-70629836D02*
X188099015Y-70629836D01*
X187908539Y-71163170D02*
X187908539Y-70477455D01*
X187908539Y-70477455D02*
X187946634Y-70401265D01*
X187946634Y-70401265D02*
X188022824Y-70363170D01*
X188022824Y-70363170D02*
X188099015Y-70363170D01*
X188251396Y-70629836D02*
X188556158Y-70629836D01*
X188365682Y-71163170D02*
X188365682Y-70477455D01*
X188365682Y-70477455D02*
X188403777Y-70401265D01*
X188403777Y-70401265D02*
X188479967Y-70363170D01*
X188479967Y-70363170D02*
X188556158Y-70363170D01*
X189318063Y-70629836D02*
X189622825Y-70629836D01*
X189432349Y-70363170D02*
X189432349Y-71048884D01*
X189432349Y-71048884D02*
X189470444Y-71125075D01*
X189470444Y-71125075D02*
X189546634Y-71163170D01*
X189546634Y-71163170D02*
X189622825Y-71163170D01*
X189889492Y-71163170D02*
X189889492Y-70363170D01*
X190232349Y-71163170D02*
X190232349Y-70744122D01*
X190232349Y-70744122D02*
X190194254Y-70667932D01*
X190194254Y-70667932D02*
X190118063Y-70629836D01*
X190118063Y-70629836D02*
X190003777Y-70629836D01*
X190003777Y-70629836D02*
X189927587Y-70667932D01*
X189927587Y-70667932D02*
X189889492Y-70706027D01*
X190918064Y-71125075D02*
X190841873Y-71163170D01*
X190841873Y-71163170D02*
X190689492Y-71163170D01*
X190689492Y-71163170D02*
X190613302Y-71125075D01*
X190613302Y-71125075D02*
X190575206Y-71048884D01*
X190575206Y-71048884D02*
X190575206Y-70744122D01*
X190575206Y-70744122D02*
X190613302Y-70667932D01*
X190613302Y-70667932D02*
X190689492Y-70629836D01*
X190689492Y-70629836D02*
X190841873Y-70629836D01*
X190841873Y-70629836D02*
X190918064Y-70667932D01*
X190918064Y-70667932D02*
X190956159Y-70744122D01*
X190956159Y-70744122D02*
X190956159Y-70820313D01*
X190956159Y-70820313D02*
X190575206Y-70896503D01*
X191870444Y-71125075D02*
X191946635Y-71163170D01*
X191946635Y-71163170D02*
X192099016Y-71163170D01*
X192099016Y-71163170D02*
X192175206Y-71125075D01*
X192175206Y-71125075D02*
X192213302Y-71048884D01*
X192213302Y-71048884D02*
X192213302Y-71010789D01*
X192213302Y-71010789D02*
X192175206Y-70934598D01*
X192175206Y-70934598D02*
X192099016Y-70896503D01*
X192099016Y-70896503D02*
X191984730Y-70896503D01*
X191984730Y-70896503D02*
X191908540Y-70858408D01*
X191908540Y-70858408D02*
X191870444Y-70782217D01*
X191870444Y-70782217D02*
X191870444Y-70744122D01*
X191870444Y-70744122D02*
X191908540Y-70667932D01*
X191908540Y-70667932D02*
X191984730Y-70629836D01*
X191984730Y-70629836D02*
X192099016Y-70629836D01*
X192099016Y-70629836D02*
X192175206Y-70667932D01*
X192556159Y-71163170D02*
X192556159Y-70363170D01*
X192899016Y-71163170D02*
X192899016Y-70744122D01*
X192899016Y-70744122D02*
X192860921Y-70667932D01*
X192860921Y-70667932D02*
X192784730Y-70629836D01*
X192784730Y-70629836D02*
X192670444Y-70629836D01*
X192670444Y-70629836D02*
X192594254Y-70667932D01*
X192594254Y-70667932D02*
X192556159Y-70706027D01*
X193584731Y-71125075D02*
X193508540Y-71163170D01*
X193508540Y-71163170D02*
X193356159Y-71163170D01*
X193356159Y-71163170D02*
X193279969Y-71125075D01*
X193279969Y-71125075D02*
X193241873Y-71048884D01*
X193241873Y-71048884D02*
X193241873Y-70744122D01*
X193241873Y-70744122D02*
X193279969Y-70667932D01*
X193279969Y-70667932D02*
X193356159Y-70629836D01*
X193356159Y-70629836D02*
X193508540Y-70629836D01*
X193508540Y-70629836D02*
X193584731Y-70667932D01*
X193584731Y-70667932D02*
X193622826Y-70744122D01*
X193622826Y-70744122D02*
X193622826Y-70820313D01*
X193622826Y-70820313D02*
X193241873Y-70896503D01*
X194079968Y-71163170D02*
X194003778Y-71125075D01*
X194003778Y-71125075D02*
X193965683Y-71048884D01*
X193965683Y-71048884D02*
X193965683Y-70363170D01*
X194270445Y-70629836D02*
X194575207Y-70629836D01*
X194384731Y-71163170D02*
X194384731Y-70477455D01*
X194384731Y-70477455D02*
X194422826Y-70401265D01*
X194422826Y-70401265D02*
X194499016Y-70363170D01*
X194499016Y-70363170D02*
X194575207Y-70363170D01*
X187032348Y-72413030D02*
X187108539Y-72451125D01*
X187108539Y-72451125D02*
X187260920Y-72451125D01*
X187260920Y-72451125D02*
X187337110Y-72413030D01*
X187337110Y-72413030D02*
X187375206Y-72336839D01*
X187375206Y-72336839D02*
X187375206Y-72298744D01*
X187375206Y-72298744D02*
X187337110Y-72222553D01*
X187337110Y-72222553D02*
X187260920Y-72184458D01*
X187260920Y-72184458D02*
X187146634Y-72184458D01*
X187146634Y-72184458D02*
X187070444Y-72146363D01*
X187070444Y-72146363D02*
X187032348Y-72070172D01*
X187032348Y-72070172D02*
X187032348Y-72032077D01*
X187032348Y-72032077D02*
X187070444Y-71955887D01*
X187070444Y-71955887D02*
X187146634Y-71917791D01*
X187146634Y-71917791D02*
X187260920Y-71917791D01*
X187260920Y-71917791D02*
X187337110Y-71955887D01*
X188022825Y-72413030D02*
X187946634Y-72451125D01*
X187946634Y-72451125D02*
X187794253Y-72451125D01*
X187794253Y-72451125D02*
X187718063Y-72413030D01*
X187718063Y-72413030D02*
X187679967Y-72336839D01*
X187679967Y-72336839D02*
X187679967Y-72032077D01*
X187679967Y-72032077D02*
X187718063Y-71955887D01*
X187718063Y-71955887D02*
X187794253Y-71917791D01*
X187794253Y-71917791D02*
X187946634Y-71917791D01*
X187946634Y-71917791D02*
X188022825Y-71955887D01*
X188022825Y-71955887D02*
X188060920Y-72032077D01*
X188060920Y-72032077D02*
X188060920Y-72108268D01*
X188060920Y-72108268D02*
X187679967Y-72184458D01*
X188403777Y-71917791D02*
X188403777Y-72451125D01*
X188403777Y-71993982D02*
X188441872Y-71955887D01*
X188441872Y-71955887D02*
X188518062Y-71917791D01*
X188518062Y-71917791D02*
X188632348Y-71917791D01*
X188632348Y-71917791D02*
X188708539Y-71955887D01*
X188708539Y-71955887D02*
X188746634Y-72032077D01*
X188746634Y-72032077D02*
X188746634Y-72451125D01*
X189089491Y-72413030D02*
X189165682Y-72451125D01*
X189165682Y-72451125D02*
X189318063Y-72451125D01*
X189318063Y-72451125D02*
X189394253Y-72413030D01*
X189394253Y-72413030D02*
X189432349Y-72336839D01*
X189432349Y-72336839D02*
X189432349Y-72298744D01*
X189432349Y-72298744D02*
X189394253Y-72222553D01*
X189394253Y-72222553D02*
X189318063Y-72184458D01*
X189318063Y-72184458D02*
X189203777Y-72184458D01*
X189203777Y-72184458D02*
X189127587Y-72146363D01*
X189127587Y-72146363D02*
X189089491Y-72070172D01*
X189089491Y-72070172D02*
X189089491Y-72032077D01*
X189089491Y-72032077D02*
X189127587Y-71955887D01*
X189127587Y-71955887D02*
X189203777Y-71917791D01*
X189203777Y-71917791D02*
X189318063Y-71917791D01*
X189318063Y-71917791D02*
X189394253Y-71955887D01*
X189889491Y-72451125D02*
X189813301Y-72413030D01*
X189813301Y-72413030D02*
X189775206Y-72374934D01*
X189775206Y-72374934D02*
X189737110Y-72298744D01*
X189737110Y-72298744D02*
X189737110Y-72070172D01*
X189737110Y-72070172D02*
X189775206Y-71993982D01*
X189775206Y-71993982D02*
X189813301Y-71955887D01*
X189813301Y-71955887D02*
X189889491Y-71917791D01*
X189889491Y-71917791D02*
X190003777Y-71917791D01*
X190003777Y-71917791D02*
X190079968Y-71955887D01*
X190079968Y-71955887D02*
X190118063Y-71993982D01*
X190118063Y-71993982D02*
X190156158Y-72070172D01*
X190156158Y-72070172D02*
X190156158Y-72298744D01*
X190156158Y-72298744D02*
X190118063Y-72374934D01*
X190118063Y-72374934D02*
X190079968Y-72413030D01*
X190079968Y-72413030D02*
X190003777Y-72451125D01*
X190003777Y-72451125D02*
X189889491Y-72451125D01*
X190499016Y-72451125D02*
X190499016Y-71917791D01*
X190499016Y-72070172D02*
X190537111Y-71993982D01*
X190537111Y-71993982D02*
X190575206Y-71955887D01*
X190575206Y-71955887D02*
X190651397Y-71917791D01*
X190651397Y-71917791D02*
X190727587Y-71917791D01*
X191603778Y-71917791D02*
X191603778Y-72717791D01*
X191603778Y-71955887D02*
X191679968Y-71917791D01*
X191679968Y-71917791D02*
X191832349Y-71917791D01*
X191832349Y-71917791D02*
X191908540Y-71955887D01*
X191908540Y-71955887D02*
X191946635Y-71993982D01*
X191946635Y-71993982D02*
X191984730Y-72070172D01*
X191984730Y-72070172D02*
X191984730Y-72298744D01*
X191984730Y-72298744D02*
X191946635Y-72374934D01*
X191946635Y-72374934D02*
X191908540Y-72413030D01*
X191908540Y-72413030D02*
X191832349Y-72451125D01*
X191832349Y-72451125D02*
X191679968Y-72451125D01*
X191679968Y-72451125D02*
X191603778Y-72413030D01*
X192327588Y-72451125D02*
X192327588Y-71917791D01*
X192327588Y-71651125D02*
X192289492Y-71689220D01*
X192289492Y-71689220D02*
X192327588Y-71727315D01*
X192327588Y-71727315D02*
X192365683Y-71689220D01*
X192365683Y-71689220D02*
X192327588Y-71651125D01*
X192327588Y-71651125D02*
X192327588Y-71727315D01*
X192708540Y-71917791D02*
X192708540Y-72451125D01*
X192708540Y-71993982D02*
X192746635Y-71955887D01*
X192746635Y-71955887D02*
X192822825Y-71917791D01*
X192822825Y-71917791D02*
X192937111Y-71917791D01*
X192937111Y-71917791D02*
X193013302Y-71955887D01*
X193013302Y-71955887D02*
X193051397Y-72032077D01*
X193051397Y-72032077D02*
X193051397Y-72451125D01*
X193394254Y-72413030D02*
X193470445Y-72451125D01*
X193470445Y-72451125D02*
X193622826Y-72451125D01*
X193622826Y-72451125D02*
X193699016Y-72413030D01*
X193699016Y-72413030D02*
X193737112Y-72336839D01*
X193737112Y-72336839D02*
X193737112Y-72298744D01*
X193737112Y-72298744D02*
X193699016Y-72222553D01*
X193699016Y-72222553D02*
X193622826Y-72184458D01*
X193622826Y-72184458D02*
X193508540Y-72184458D01*
X193508540Y-72184458D02*
X193432350Y-72146363D01*
X193432350Y-72146363D02*
X193394254Y-72070172D01*
X193394254Y-72070172D02*
X193394254Y-72032077D01*
X193394254Y-72032077D02*
X193432350Y-71955887D01*
X193432350Y-71955887D02*
X193508540Y-71917791D01*
X193508540Y-71917791D02*
X193622826Y-71917791D01*
X193622826Y-71917791D02*
X193699016Y-71955887D01*
X179494295Y-83987030D02*
X179494295Y-83491792D01*
X179494295Y-83491792D02*
X179799057Y-83758458D01*
X179799057Y-83758458D02*
X179799057Y-83644173D01*
X179799057Y-83644173D02*
X179837152Y-83567982D01*
X179837152Y-83567982D02*
X179875247Y-83529887D01*
X179875247Y-83529887D02*
X179951438Y-83491792D01*
X179951438Y-83491792D02*
X180141914Y-83491792D01*
X180141914Y-83491792D02*
X180218104Y-83529887D01*
X180218104Y-83529887D02*
X180256200Y-83567982D01*
X180256200Y-83567982D02*
X180294295Y-83644173D01*
X180294295Y-83644173D02*
X180294295Y-83872744D01*
X180294295Y-83872744D02*
X180256200Y-83948935D01*
X180256200Y-83948935D02*
X180218104Y-83987030D01*
X180218104Y-83148934D02*
X180256200Y-83110839D01*
X180256200Y-83110839D02*
X180294295Y-83148934D01*
X180294295Y-83148934D02*
X180256200Y-83187030D01*
X180256200Y-83187030D02*
X180218104Y-83148934D01*
X180218104Y-83148934D02*
X180294295Y-83148934D01*
X179494295Y-82844173D02*
X179494295Y-82348935D01*
X179494295Y-82348935D02*
X179799057Y-82615601D01*
X179799057Y-82615601D02*
X179799057Y-82501316D01*
X179799057Y-82501316D02*
X179837152Y-82425125D01*
X179837152Y-82425125D02*
X179875247Y-82387030D01*
X179875247Y-82387030D02*
X179951438Y-82348935D01*
X179951438Y-82348935D02*
X180141914Y-82348935D01*
X180141914Y-82348935D02*
X180218104Y-82387030D01*
X180218104Y-82387030D02*
X180256200Y-82425125D01*
X180256200Y-82425125D02*
X180294295Y-82501316D01*
X180294295Y-82501316D02*
X180294295Y-82729887D01*
X180294295Y-82729887D02*
X180256200Y-82806078D01*
X180256200Y-82806078D02*
X180218104Y-82844173D01*
X179494295Y-82120363D02*
X180294295Y-81853696D01*
X180294295Y-81853696D02*
X179494295Y-81587030D01*
X215839160Y-79344295D02*
X215839160Y-78544295D01*
X215839160Y-78544295D02*
X216105826Y-79115723D01*
X216105826Y-79115723D02*
X216372493Y-78544295D01*
X216372493Y-78544295D02*
X216372493Y-79344295D01*
X217096303Y-78810961D02*
X217096303Y-79344295D01*
X216753446Y-78810961D02*
X216753446Y-79230009D01*
X216753446Y-79230009D02*
X216791541Y-79306200D01*
X216791541Y-79306200D02*
X216867731Y-79344295D01*
X216867731Y-79344295D02*
X216982017Y-79344295D01*
X216982017Y-79344295D02*
X217058208Y-79306200D01*
X217058208Y-79306200D02*
X217096303Y-79268104D01*
X217591541Y-79344295D02*
X217515351Y-79306200D01*
X217515351Y-79306200D02*
X217477256Y-79230009D01*
X217477256Y-79230009D02*
X217477256Y-78544295D01*
X217782018Y-78810961D02*
X218086780Y-78810961D01*
X217896304Y-78544295D02*
X217896304Y-79230009D01*
X217896304Y-79230009D02*
X217934399Y-79306200D01*
X217934399Y-79306200D02*
X218010589Y-79344295D01*
X218010589Y-79344295D02*
X218086780Y-79344295D01*
X218353447Y-79344295D02*
X218353447Y-78810961D01*
X218353447Y-78544295D02*
X218315351Y-78582390D01*
X218315351Y-78582390D02*
X218353447Y-78620485D01*
X218353447Y-78620485D02*
X218391542Y-78582390D01*
X218391542Y-78582390D02*
X218353447Y-78544295D01*
X218353447Y-78544295D02*
X218353447Y-78620485D01*
X218734399Y-78810961D02*
X218734399Y-79610961D01*
X218734399Y-78849057D02*
X218810589Y-78810961D01*
X218810589Y-78810961D02*
X218962970Y-78810961D01*
X218962970Y-78810961D02*
X219039161Y-78849057D01*
X219039161Y-78849057D02*
X219077256Y-78887152D01*
X219077256Y-78887152D02*
X219115351Y-78963342D01*
X219115351Y-78963342D02*
X219115351Y-79191914D01*
X219115351Y-79191914D02*
X219077256Y-79268104D01*
X219077256Y-79268104D02*
X219039161Y-79306200D01*
X219039161Y-79306200D02*
X218962970Y-79344295D01*
X218962970Y-79344295D02*
X218810589Y-79344295D01*
X218810589Y-79344295D02*
X218734399Y-79306200D01*
X219572494Y-79344295D02*
X219496304Y-79306200D01*
X219496304Y-79306200D02*
X219458209Y-79230009D01*
X219458209Y-79230009D02*
X219458209Y-78544295D01*
X220182019Y-79306200D02*
X220105828Y-79344295D01*
X220105828Y-79344295D02*
X219953447Y-79344295D01*
X219953447Y-79344295D02*
X219877257Y-79306200D01*
X219877257Y-79306200D02*
X219839161Y-79230009D01*
X219839161Y-79230009D02*
X219839161Y-78925247D01*
X219839161Y-78925247D02*
X219877257Y-78849057D01*
X219877257Y-78849057D02*
X219953447Y-78810961D01*
X219953447Y-78810961D02*
X220105828Y-78810961D01*
X220105828Y-78810961D02*
X220182019Y-78849057D01*
X220182019Y-78849057D02*
X220220114Y-78925247D01*
X220220114Y-78925247D02*
X220220114Y-79001438D01*
X220220114Y-79001438D02*
X219839161Y-79077628D01*
X220486780Y-79344295D02*
X220905828Y-78810961D01*
X220486780Y-78810961D02*
X220905828Y-79344295D01*
X221515352Y-79306200D02*
X221439161Y-79344295D01*
X221439161Y-79344295D02*
X221286780Y-79344295D01*
X221286780Y-79344295D02*
X221210590Y-79306200D01*
X221210590Y-79306200D02*
X221172494Y-79230009D01*
X221172494Y-79230009D02*
X221172494Y-78925247D01*
X221172494Y-78925247D02*
X221210590Y-78849057D01*
X221210590Y-78849057D02*
X221286780Y-78810961D01*
X221286780Y-78810961D02*
X221439161Y-78810961D01*
X221439161Y-78810961D02*
X221515352Y-78849057D01*
X221515352Y-78849057D02*
X221553447Y-78925247D01*
X221553447Y-78925247D02*
X221553447Y-79001438D01*
X221553447Y-79001438D02*
X221172494Y-79077628D01*
X221896304Y-79344295D02*
X221896304Y-78810961D01*
X221896304Y-78963342D02*
X221934399Y-78887152D01*
X221934399Y-78887152D02*
X221972494Y-78849057D01*
X221972494Y-78849057D02*
X222048685Y-78810961D01*
X222048685Y-78810961D02*
X222124875Y-78810961D01*
X184346303Y-69018104D02*
X184308207Y-69056200D01*
X184308207Y-69056200D02*
X184193922Y-69094295D01*
X184193922Y-69094295D02*
X184117731Y-69094295D01*
X184117731Y-69094295D02*
X184003445Y-69056200D01*
X184003445Y-69056200D02*
X183927255Y-68980009D01*
X183927255Y-68980009D02*
X183889160Y-68903819D01*
X183889160Y-68903819D02*
X183851064Y-68751438D01*
X183851064Y-68751438D02*
X183851064Y-68637152D01*
X183851064Y-68637152D02*
X183889160Y-68484771D01*
X183889160Y-68484771D02*
X183927255Y-68408580D01*
X183927255Y-68408580D02*
X184003445Y-68332390D01*
X184003445Y-68332390D02*
X184117731Y-68294295D01*
X184117731Y-68294295D02*
X184193922Y-68294295D01*
X184193922Y-68294295D02*
X184308207Y-68332390D01*
X184308207Y-68332390D02*
X184346303Y-68370485D01*
X184651064Y-69056200D02*
X184765350Y-69094295D01*
X184765350Y-69094295D02*
X184955826Y-69094295D01*
X184955826Y-69094295D02*
X185032017Y-69056200D01*
X185032017Y-69056200D02*
X185070112Y-69018104D01*
X185070112Y-69018104D02*
X185108207Y-68941914D01*
X185108207Y-68941914D02*
X185108207Y-68865723D01*
X185108207Y-68865723D02*
X185070112Y-68789533D01*
X185070112Y-68789533D02*
X185032017Y-68751438D01*
X185032017Y-68751438D02*
X184955826Y-68713342D01*
X184955826Y-68713342D02*
X184803445Y-68675247D01*
X184803445Y-68675247D02*
X184727255Y-68637152D01*
X184727255Y-68637152D02*
X184689160Y-68599057D01*
X184689160Y-68599057D02*
X184651064Y-68522866D01*
X184651064Y-68522866D02*
X184651064Y-68446676D01*
X184651064Y-68446676D02*
X184689160Y-68370485D01*
X184689160Y-68370485D02*
X184727255Y-68332390D01*
X184727255Y-68332390D02*
X184803445Y-68294295D01*
X184803445Y-68294295D02*
X184993922Y-68294295D01*
X184993922Y-68294295D02*
X185108207Y-68332390D01*
X198740188Y-86597232D02*
X198740188Y-86063898D01*
X198740188Y-86216279D02*
X198778283Y-86140089D01*
X198778283Y-86140089D02*
X198816378Y-86101994D01*
X198816378Y-86101994D02*
X198892569Y-86063898D01*
X198892569Y-86063898D02*
X198968759Y-86063898D01*
X199540188Y-86559137D02*
X199463997Y-86597232D01*
X199463997Y-86597232D02*
X199311616Y-86597232D01*
X199311616Y-86597232D02*
X199235426Y-86559137D01*
X199235426Y-86559137D02*
X199197330Y-86482946D01*
X199197330Y-86482946D02*
X199197330Y-86178184D01*
X199197330Y-86178184D02*
X199235426Y-86101994D01*
X199235426Y-86101994D02*
X199311616Y-86063898D01*
X199311616Y-86063898D02*
X199463997Y-86063898D01*
X199463997Y-86063898D02*
X199540188Y-86101994D01*
X199540188Y-86101994D02*
X199578283Y-86178184D01*
X199578283Y-86178184D02*
X199578283Y-86254375D01*
X199578283Y-86254375D02*
X199197330Y-86330565D01*
X199844949Y-86063898D02*
X200035425Y-86597232D01*
X200035425Y-86597232D02*
X200225902Y-86063898D01*
X200835426Y-86559137D02*
X200759235Y-86597232D01*
X200759235Y-86597232D02*
X200606854Y-86597232D01*
X200606854Y-86597232D02*
X200530664Y-86559137D01*
X200530664Y-86559137D02*
X200492568Y-86482946D01*
X200492568Y-86482946D02*
X200492568Y-86178184D01*
X200492568Y-86178184D02*
X200530664Y-86101994D01*
X200530664Y-86101994D02*
X200606854Y-86063898D01*
X200606854Y-86063898D02*
X200759235Y-86063898D01*
X200759235Y-86063898D02*
X200835426Y-86101994D01*
X200835426Y-86101994D02*
X200873521Y-86178184D01*
X200873521Y-86178184D02*
X200873521Y-86254375D01*
X200873521Y-86254375D02*
X200492568Y-86330565D01*
X201216378Y-86597232D02*
X201216378Y-86063898D01*
X201216378Y-86216279D02*
X201254473Y-86140089D01*
X201254473Y-86140089D02*
X201292568Y-86101994D01*
X201292568Y-86101994D02*
X201368759Y-86063898D01*
X201368759Y-86063898D02*
X201444949Y-86063898D01*
X201673520Y-86559137D02*
X201749711Y-86597232D01*
X201749711Y-86597232D02*
X201902092Y-86597232D01*
X201902092Y-86597232D02*
X201978282Y-86559137D01*
X201978282Y-86559137D02*
X202016378Y-86482946D01*
X202016378Y-86482946D02*
X202016378Y-86444851D01*
X202016378Y-86444851D02*
X201978282Y-86368660D01*
X201978282Y-86368660D02*
X201902092Y-86330565D01*
X201902092Y-86330565D02*
X201787806Y-86330565D01*
X201787806Y-86330565D02*
X201711616Y-86292470D01*
X201711616Y-86292470D02*
X201673520Y-86216279D01*
X201673520Y-86216279D02*
X201673520Y-86178184D01*
X201673520Y-86178184D02*
X201711616Y-86101994D01*
X201711616Y-86101994D02*
X201787806Y-86063898D01*
X201787806Y-86063898D02*
X201902092Y-86063898D01*
X201902092Y-86063898D02*
X201978282Y-86101994D01*
X202663997Y-86559137D02*
X202587806Y-86597232D01*
X202587806Y-86597232D02*
X202435425Y-86597232D01*
X202435425Y-86597232D02*
X202359235Y-86559137D01*
X202359235Y-86559137D02*
X202321139Y-86482946D01*
X202321139Y-86482946D02*
X202321139Y-86178184D01*
X202321139Y-86178184D02*
X202359235Y-86101994D01*
X202359235Y-86101994D02*
X202435425Y-86063898D01*
X202435425Y-86063898D02*
X202587806Y-86063898D01*
X202587806Y-86063898D02*
X202663997Y-86101994D01*
X202663997Y-86101994D02*
X202702092Y-86178184D01*
X202702092Y-86178184D02*
X202702092Y-86254375D01*
X202702092Y-86254375D02*
X202321139Y-86330565D01*
X203387806Y-86597232D02*
X203387806Y-85797232D01*
X203387806Y-86559137D02*
X203311615Y-86597232D01*
X203311615Y-86597232D02*
X203159234Y-86597232D01*
X203159234Y-86597232D02*
X203083044Y-86559137D01*
X203083044Y-86559137D02*
X203044949Y-86521041D01*
X203044949Y-86521041D02*
X203006853Y-86444851D01*
X203006853Y-86444851D02*
X203006853Y-86216279D01*
X203006853Y-86216279D02*
X203044949Y-86140089D01*
X203044949Y-86140089D02*
X203083044Y-86101994D01*
X203083044Y-86101994D02*
X203159234Y-86063898D01*
X203159234Y-86063898D02*
X203311615Y-86063898D01*
X203311615Y-86063898D02*
X203387806Y-86101994D01*
X204378283Y-86063898D02*
X204378283Y-86863898D01*
X204378283Y-86101994D02*
X204454473Y-86063898D01*
X204454473Y-86063898D02*
X204606854Y-86063898D01*
X204606854Y-86063898D02*
X204683045Y-86101994D01*
X204683045Y-86101994D02*
X204721140Y-86140089D01*
X204721140Y-86140089D02*
X204759235Y-86216279D01*
X204759235Y-86216279D02*
X204759235Y-86444851D01*
X204759235Y-86444851D02*
X204721140Y-86521041D01*
X204721140Y-86521041D02*
X204683045Y-86559137D01*
X204683045Y-86559137D02*
X204606854Y-86597232D01*
X204606854Y-86597232D02*
X204454473Y-86597232D01*
X204454473Y-86597232D02*
X204378283Y-86559137D01*
X205216378Y-86597232D02*
X205140188Y-86559137D01*
X205140188Y-86559137D02*
X205102093Y-86521041D01*
X205102093Y-86521041D02*
X205063997Y-86444851D01*
X205063997Y-86444851D02*
X205063997Y-86216279D01*
X205063997Y-86216279D02*
X205102093Y-86140089D01*
X205102093Y-86140089D02*
X205140188Y-86101994D01*
X205140188Y-86101994D02*
X205216378Y-86063898D01*
X205216378Y-86063898D02*
X205330664Y-86063898D01*
X205330664Y-86063898D02*
X205406855Y-86101994D01*
X205406855Y-86101994D02*
X205444950Y-86140089D01*
X205444950Y-86140089D02*
X205483045Y-86216279D01*
X205483045Y-86216279D02*
X205483045Y-86444851D01*
X205483045Y-86444851D02*
X205444950Y-86521041D01*
X205444950Y-86521041D02*
X205406855Y-86559137D01*
X205406855Y-86559137D02*
X205330664Y-86597232D01*
X205330664Y-86597232D02*
X205216378Y-86597232D01*
X205940188Y-86597232D02*
X205863998Y-86559137D01*
X205863998Y-86559137D02*
X205825903Y-86482946D01*
X205825903Y-86482946D02*
X205825903Y-85797232D01*
X206587808Y-86597232D02*
X206587808Y-86178184D01*
X206587808Y-86178184D02*
X206549713Y-86101994D01*
X206549713Y-86101994D02*
X206473522Y-86063898D01*
X206473522Y-86063898D02*
X206321141Y-86063898D01*
X206321141Y-86063898D02*
X206244951Y-86101994D01*
X206587808Y-86559137D02*
X206511617Y-86597232D01*
X206511617Y-86597232D02*
X206321141Y-86597232D01*
X206321141Y-86597232D02*
X206244951Y-86559137D01*
X206244951Y-86559137D02*
X206206855Y-86482946D01*
X206206855Y-86482946D02*
X206206855Y-86406756D01*
X206206855Y-86406756D02*
X206244951Y-86330565D01*
X206244951Y-86330565D02*
X206321141Y-86292470D01*
X206321141Y-86292470D02*
X206511617Y-86292470D01*
X206511617Y-86292470D02*
X206587808Y-86254375D01*
X206968761Y-86597232D02*
X206968761Y-86063898D01*
X206968761Y-86216279D02*
X207006856Y-86140089D01*
X207006856Y-86140089D02*
X207044951Y-86101994D01*
X207044951Y-86101994D02*
X207121142Y-86063898D01*
X207121142Y-86063898D02*
X207197332Y-86063898D01*
X207463999Y-86597232D02*
X207463999Y-86063898D01*
X207463999Y-85797232D02*
X207425903Y-85835327D01*
X207425903Y-85835327D02*
X207463999Y-85873422D01*
X207463999Y-85873422D02*
X207502094Y-85835327D01*
X207502094Y-85835327D02*
X207463999Y-85797232D01*
X207463999Y-85797232D02*
X207463999Y-85873422D01*
X207730665Y-86063898D02*
X208035427Y-86063898D01*
X207844951Y-85797232D02*
X207844951Y-86482946D01*
X207844951Y-86482946D02*
X207883046Y-86559137D01*
X207883046Y-86559137D02*
X207959236Y-86597232D01*
X207959236Y-86597232D02*
X208035427Y-86597232D01*
X208225903Y-86063898D02*
X208416379Y-86597232D01*
X208606856Y-86063898D02*
X208416379Y-86597232D01*
X208416379Y-86597232D02*
X208340189Y-86787708D01*
X208340189Y-86787708D02*
X208302094Y-86825803D01*
X208302094Y-86825803D02*
X208225903Y-86863898D01*
X198740188Y-87351853D02*
X198740188Y-88151853D01*
X198740188Y-87389949D02*
X198816378Y-87351853D01*
X198816378Y-87351853D02*
X198968759Y-87351853D01*
X198968759Y-87351853D02*
X199044950Y-87389949D01*
X199044950Y-87389949D02*
X199083045Y-87428044D01*
X199083045Y-87428044D02*
X199121140Y-87504234D01*
X199121140Y-87504234D02*
X199121140Y-87732806D01*
X199121140Y-87732806D02*
X199083045Y-87808996D01*
X199083045Y-87808996D02*
X199044950Y-87847092D01*
X199044950Y-87847092D02*
X198968759Y-87885187D01*
X198968759Y-87885187D02*
X198816378Y-87885187D01*
X198816378Y-87885187D02*
X198740188Y-87847092D01*
X199463998Y-87885187D02*
X199463998Y-87351853D01*
X199463998Y-87504234D02*
X199502093Y-87428044D01*
X199502093Y-87428044D02*
X199540188Y-87389949D01*
X199540188Y-87389949D02*
X199616379Y-87351853D01*
X199616379Y-87351853D02*
X199692569Y-87351853D01*
X200073521Y-87885187D02*
X199997331Y-87847092D01*
X199997331Y-87847092D02*
X199959236Y-87808996D01*
X199959236Y-87808996D02*
X199921140Y-87732806D01*
X199921140Y-87732806D02*
X199921140Y-87504234D01*
X199921140Y-87504234D02*
X199959236Y-87428044D01*
X199959236Y-87428044D02*
X199997331Y-87389949D01*
X199997331Y-87389949D02*
X200073521Y-87351853D01*
X200073521Y-87351853D02*
X200187807Y-87351853D01*
X200187807Y-87351853D02*
X200263998Y-87389949D01*
X200263998Y-87389949D02*
X200302093Y-87428044D01*
X200302093Y-87428044D02*
X200340188Y-87504234D01*
X200340188Y-87504234D02*
X200340188Y-87732806D01*
X200340188Y-87732806D02*
X200302093Y-87808996D01*
X200302093Y-87808996D02*
X200263998Y-87847092D01*
X200263998Y-87847092D02*
X200187807Y-87885187D01*
X200187807Y-87885187D02*
X200073521Y-87885187D01*
X200568760Y-87351853D02*
X200873522Y-87351853D01*
X200683046Y-87085187D02*
X200683046Y-87770901D01*
X200683046Y-87770901D02*
X200721141Y-87847092D01*
X200721141Y-87847092D02*
X200797331Y-87885187D01*
X200797331Y-87885187D02*
X200873522Y-87885187D01*
X201444951Y-87847092D02*
X201368760Y-87885187D01*
X201368760Y-87885187D02*
X201216379Y-87885187D01*
X201216379Y-87885187D02*
X201140189Y-87847092D01*
X201140189Y-87847092D02*
X201102093Y-87770901D01*
X201102093Y-87770901D02*
X201102093Y-87466139D01*
X201102093Y-87466139D02*
X201140189Y-87389949D01*
X201140189Y-87389949D02*
X201216379Y-87351853D01*
X201216379Y-87351853D02*
X201368760Y-87351853D01*
X201368760Y-87351853D02*
X201444951Y-87389949D01*
X201444951Y-87389949D02*
X201483046Y-87466139D01*
X201483046Y-87466139D02*
X201483046Y-87542330D01*
X201483046Y-87542330D02*
X201102093Y-87618520D01*
X202168760Y-87847092D02*
X202092569Y-87885187D01*
X202092569Y-87885187D02*
X201940188Y-87885187D01*
X201940188Y-87885187D02*
X201863998Y-87847092D01*
X201863998Y-87847092D02*
X201825903Y-87808996D01*
X201825903Y-87808996D02*
X201787807Y-87732806D01*
X201787807Y-87732806D02*
X201787807Y-87504234D01*
X201787807Y-87504234D02*
X201825903Y-87428044D01*
X201825903Y-87428044D02*
X201863998Y-87389949D01*
X201863998Y-87389949D02*
X201940188Y-87351853D01*
X201940188Y-87351853D02*
X202092569Y-87351853D01*
X202092569Y-87351853D02*
X202168760Y-87389949D01*
X202397331Y-87351853D02*
X202702093Y-87351853D01*
X202511617Y-87085187D02*
X202511617Y-87770901D01*
X202511617Y-87770901D02*
X202549712Y-87847092D01*
X202549712Y-87847092D02*
X202625902Y-87885187D01*
X202625902Y-87885187D02*
X202702093Y-87885187D01*
X202968760Y-87885187D02*
X202968760Y-87351853D01*
X202968760Y-87085187D02*
X202930664Y-87123282D01*
X202930664Y-87123282D02*
X202968760Y-87161377D01*
X202968760Y-87161377D02*
X203006855Y-87123282D01*
X203006855Y-87123282D02*
X202968760Y-87085187D01*
X202968760Y-87085187D02*
X202968760Y-87161377D01*
X203463997Y-87885187D02*
X203387807Y-87847092D01*
X203387807Y-87847092D02*
X203349712Y-87808996D01*
X203349712Y-87808996D02*
X203311616Y-87732806D01*
X203311616Y-87732806D02*
X203311616Y-87504234D01*
X203311616Y-87504234D02*
X203349712Y-87428044D01*
X203349712Y-87428044D02*
X203387807Y-87389949D01*
X203387807Y-87389949D02*
X203463997Y-87351853D01*
X203463997Y-87351853D02*
X203578283Y-87351853D01*
X203578283Y-87351853D02*
X203654474Y-87389949D01*
X203654474Y-87389949D02*
X203692569Y-87428044D01*
X203692569Y-87428044D02*
X203730664Y-87504234D01*
X203730664Y-87504234D02*
X203730664Y-87732806D01*
X203730664Y-87732806D02*
X203692569Y-87808996D01*
X203692569Y-87808996D02*
X203654474Y-87847092D01*
X203654474Y-87847092D02*
X203578283Y-87885187D01*
X203578283Y-87885187D02*
X203463997Y-87885187D01*
X204073522Y-87351853D02*
X204073522Y-87885187D01*
X204073522Y-87428044D02*
X204111617Y-87389949D01*
X204111617Y-87389949D02*
X204187807Y-87351853D01*
X204187807Y-87351853D02*
X204302093Y-87351853D01*
X204302093Y-87351853D02*
X204378284Y-87389949D01*
X204378284Y-87389949D02*
X204416379Y-87466139D01*
X204416379Y-87466139D02*
X204416379Y-87885187D01*
X179494295Y-72187030D02*
X179494295Y-71691792D01*
X179494295Y-71691792D02*
X179799057Y-71958458D01*
X179799057Y-71958458D02*
X179799057Y-71844173D01*
X179799057Y-71844173D02*
X179837152Y-71767982D01*
X179837152Y-71767982D02*
X179875247Y-71729887D01*
X179875247Y-71729887D02*
X179951438Y-71691792D01*
X179951438Y-71691792D02*
X180141914Y-71691792D01*
X180141914Y-71691792D02*
X180218104Y-71729887D01*
X180218104Y-71729887D02*
X180256200Y-71767982D01*
X180256200Y-71767982D02*
X180294295Y-71844173D01*
X180294295Y-71844173D02*
X180294295Y-72072744D01*
X180294295Y-72072744D02*
X180256200Y-72148935D01*
X180256200Y-72148935D02*
X180218104Y-72187030D01*
X180218104Y-71348934D02*
X180256200Y-71310839D01*
X180256200Y-71310839D02*
X180294295Y-71348934D01*
X180294295Y-71348934D02*
X180256200Y-71387030D01*
X180256200Y-71387030D02*
X180218104Y-71348934D01*
X180218104Y-71348934D02*
X180294295Y-71348934D01*
X179494295Y-71044173D02*
X179494295Y-70548935D01*
X179494295Y-70548935D02*
X179799057Y-70815601D01*
X179799057Y-70815601D02*
X179799057Y-70701316D01*
X179799057Y-70701316D02*
X179837152Y-70625125D01*
X179837152Y-70625125D02*
X179875247Y-70587030D01*
X179875247Y-70587030D02*
X179951438Y-70548935D01*
X179951438Y-70548935D02*
X180141914Y-70548935D01*
X180141914Y-70548935D02*
X180218104Y-70587030D01*
X180218104Y-70587030D02*
X180256200Y-70625125D01*
X180256200Y-70625125D02*
X180294295Y-70701316D01*
X180294295Y-70701316D02*
X180294295Y-70929887D01*
X180294295Y-70929887D02*
X180256200Y-71006078D01*
X180256200Y-71006078D02*
X180218104Y-71044173D01*
X179494295Y-70320363D02*
X180294295Y-70053696D01*
X180294295Y-70053696D02*
X179494295Y-69787030D01*
X210356200Y-75148935D02*
X210394295Y-75034649D01*
X210394295Y-75034649D02*
X210394295Y-74844173D01*
X210394295Y-74844173D02*
X210356200Y-74767982D01*
X210356200Y-74767982D02*
X210318104Y-74729887D01*
X210318104Y-74729887D02*
X210241914Y-74691792D01*
X210241914Y-74691792D02*
X210165723Y-74691792D01*
X210165723Y-74691792D02*
X210089533Y-74729887D01*
X210089533Y-74729887D02*
X210051438Y-74767982D01*
X210051438Y-74767982D02*
X210013342Y-74844173D01*
X210013342Y-74844173D02*
X209975247Y-74996554D01*
X209975247Y-74996554D02*
X209937152Y-75072744D01*
X209937152Y-75072744D02*
X209899057Y-75110839D01*
X209899057Y-75110839D02*
X209822866Y-75148935D01*
X209822866Y-75148935D02*
X209746676Y-75148935D01*
X209746676Y-75148935D02*
X209670485Y-75110839D01*
X209670485Y-75110839D02*
X209632390Y-75072744D01*
X209632390Y-75072744D02*
X209594295Y-74996554D01*
X209594295Y-74996554D02*
X209594295Y-74806077D01*
X209594295Y-74806077D02*
X209632390Y-74691792D01*
X210394295Y-74348934D02*
X209594295Y-74348934D01*
X209594295Y-74348934D02*
X209594295Y-74158458D01*
X209594295Y-74158458D02*
X209632390Y-74044172D01*
X209632390Y-74044172D02*
X209708580Y-73967982D01*
X209708580Y-73967982D02*
X209784771Y-73929887D01*
X209784771Y-73929887D02*
X209937152Y-73891791D01*
X209937152Y-73891791D02*
X210051438Y-73891791D01*
X210051438Y-73891791D02*
X210203819Y-73929887D01*
X210203819Y-73929887D02*
X210280009Y-73967982D01*
X210280009Y-73967982D02*
X210356200Y-74044172D01*
X210356200Y-74044172D02*
X210394295Y-74158458D01*
X210394295Y-74158458D02*
X210394295Y-74348934D01*
X210165723Y-73587030D02*
X210165723Y-73206077D01*
X210394295Y-73663220D02*
X209594295Y-73396553D01*
X209594295Y-73396553D02*
X210394295Y-73129887D01*
X183566283Y-99021199D02*
X183709140Y-99068818D01*
X183709140Y-99068818D02*
X183756759Y-99116437D01*
X183756759Y-99116437D02*
X183804378Y-99211675D01*
X183804378Y-99211675D02*
X183804378Y-99354532D01*
X183804378Y-99354532D02*
X183756759Y-99449770D01*
X183756759Y-99449770D02*
X183709140Y-99497390D01*
X183709140Y-99497390D02*
X183613902Y-99545009D01*
X183613902Y-99545009D02*
X183232950Y-99545009D01*
X183232950Y-99545009D02*
X183232950Y-98545009D01*
X183232950Y-98545009D02*
X183566283Y-98545009D01*
X183566283Y-98545009D02*
X183661521Y-98592628D01*
X183661521Y-98592628D02*
X183709140Y-98640247D01*
X183709140Y-98640247D02*
X183756759Y-98735485D01*
X183756759Y-98735485D02*
X183756759Y-98830723D01*
X183756759Y-98830723D02*
X183709140Y-98925961D01*
X183709140Y-98925961D02*
X183661521Y-98973580D01*
X183661521Y-98973580D02*
X183566283Y-99021199D01*
X183566283Y-99021199D02*
X183232950Y-99021199D01*
X184661521Y-98878342D02*
X184661521Y-99545009D01*
X184232950Y-98878342D02*
X184232950Y-99402151D01*
X184232950Y-99402151D02*
X184280569Y-99497390D01*
X184280569Y-99497390D02*
X184375807Y-99545009D01*
X184375807Y-99545009D02*
X184518664Y-99545009D01*
X184518664Y-99545009D02*
X184613902Y-99497390D01*
X184613902Y-99497390D02*
X184661521Y-99449770D01*
X185566283Y-99497390D02*
X185471045Y-99545009D01*
X185471045Y-99545009D02*
X185280569Y-99545009D01*
X185280569Y-99545009D02*
X185185331Y-99497390D01*
X185185331Y-99497390D02*
X185137712Y-99449770D01*
X185137712Y-99449770D02*
X185090093Y-99354532D01*
X185090093Y-99354532D02*
X185090093Y-99068818D01*
X185090093Y-99068818D02*
X185137712Y-98973580D01*
X185137712Y-98973580D02*
X185185331Y-98925961D01*
X185185331Y-98925961D02*
X185280569Y-98878342D01*
X185280569Y-98878342D02*
X185471045Y-98878342D01*
X185471045Y-98878342D02*
X185566283Y-98925961D01*
X185994855Y-99545009D02*
X185994855Y-98545009D01*
X186090093Y-99164056D02*
X186375807Y-99545009D01*
X186375807Y-98878342D02*
X185994855Y-99259294D01*
X188137712Y-99449770D02*
X188090093Y-99497390D01*
X188090093Y-99497390D02*
X187947236Y-99545009D01*
X187947236Y-99545009D02*
X187851998Y-99545009D01*
X187851998Y-99545009D02*
X187709141Y-99497390D01*
X187709141Y-99497390D02*
X187613903Y-99402151D01*
X187613903Y-99402151D02*
X187566284Y-99306913D01*
X187566284Y-99306913D02*
X187518665Y-99116437D01*
X187518665Y-99116437D02*
X187518665Y-98973580D01*
X187518665Y-98973580D02*
X187566284Y-98783104D01*
X187566284Y-98783104D02*
X187613903Y-98687866D01*
X187613903Y-98687866D02*
X187709141Y-98592628D01*
X187709141Y-98592628D02*
X187851998Y-98545009D01*
X187851998Y-98545009D02*
X187947236Y-98545009D01*
X187947236Y-98545009D02*
X188090093Y-98592628D01*
X188090093Y-98592628D02*
X188137712Y-98640247D01*
X188709141Y-99545009D02*
X188613903Y-99497390D01*
X188613903Y-99497390D02*
X188566284Y-99449770D01*
X188566284Y-99449770D02*
X188518665Y-99354532D01*
X188518665Y-99354532D02*
X188518665Y-99068818D01*
X188518665Y-99068818D02*
X188566284Y-98973580D01*
X188566284Y-98973580D02*
X188613903Y-98925961D01*
X188613903Y-98925961D02*
X188709141Y-98878342D01*
X188709141Y-98878342D02*
X188851998Y-98878342D01*
X188851998Y-98878342D02*
X188947236Y-98925961D01*
X188947236Y-98925961D02*
X188994855Y-98973580D01*
X188994855Y-98973580D02*
X189042474Y-99068818D01*
X189042474Y-99068818D02*
X189042474Y-99354532D01*
X189042474Y-99354532D02*
X188994855Y-99449770D01*
X188994855Y-99449770D02*
X188947236Y-99497390D01*
X188947236Y-99497390D02*
X188851998Y-99545009D01*
X188851998Y-99545009D02*
X188709141Y-99545009D01*
X189471046Y-98878342D02*
X189471046Y-99545009D01*
X189471046Y-98973580D02*
X189518665Y-98925961D01*
X189518665Y-98925961D02*
X189613903Y-98878342D01*
X189613903Y-98878342D02*
X189756760Y-98878342D01*
X189756760Y-98878342D02*
X189851998Y-98925961D01*
X189851998Y-98925961D02*
X189899617Y-99021199D01*
X189899617Y-99021199D02*
X189899617Y-99545009D01*
X190280570Y-98878342D02*
X190518665Y-99545009D01*
X190518665Y-99545009D02*
X190756760Y-98878342D01*
X191518665Y-99497390D02*
X191423427Y-99545009D01*
X191423427Y-99545009D02*
X191232951Y-99545009D01*
X191232951Y-99545009D02*
X191137713Y-99497390D01*
X191137713Y-99497390D02*
X191090094Y-99402151D01*
X191090094Y-99402151D02*
X191090094Y-99021199D01*
X191090094Y-99021199D02*
X191137713Y-98925961D01*
X191137713Y-98925961D02*
X191232951Y-98878342D01*
X191232951Y-98878342D02*
X191423427Y-98878342D01*
X191423427Y-98878342D02*
X191518665Y-98925961D01*
X191518665Y-98925961D02*
X191566284Y-99021199D01*
X191566284Y-99021199D02*
X191566284Y-99116437D01*
X191566284Y-99116437D02*
X191090094Y-99211675D01*
X191994856Y-99545009D02*
X191994856Y-98878342D01*
X191994856Y-99068818D02*
X192042475Y-98973580D01*
X192042475Y-98973580D02*
X192090094Y-98925961D01*
X192090094Y-98925961D02*
X192185332Y-98878342D01*
X192185332Y-98878342D02*
X192280570Y-98878342D01*
X192471047Y-98878342D02*
X192851999Y-98878342D01*
X192613904Y-98545009D02*
X192613904Y-99402151D01*
X192613904Y-99402151D02*
X192661523Y-99497390D01*
X192661523Y-99497390D02*
X192756761Y-99545009D01*
X192756761Y-99545009D02*
X192851999Y-99545009D01*
X193328190Y-99545009D02*
X193232952Y-99497390D01*
X193232952Y-99497390D02*
X193185333Y-99449770D01*
X193185333Y-99449770D02*
X193137714Y-99354532D01*
X193137714Y-99354532D02*
X193137714Y-99068818D01*
X193137714Y-99068818D02*
X193185333Y-98973580D01*
X193185333Y-98973580D02*
X193232952Y-98925961D01*
X193232952Y-98925961D02*
X193328190Y-98878342D01*
X193328190Y-98878342D02*
X193471047Y-98878342D01*
X193471047Y-98878342D02*
X193566285Y-98925961D01*
X193566285Y-98925961D02*
X193613904Y-98973580D01*
X193613904Y-98973580D02*
X193661523Y-99068818D01*
X193661523Y-99068818D02*
X193661523Y-99354532D01*
X193661523Y-99354532D02*
X193613904Y-99449770D01*
X193613904Y-99449770D02*
X193566285Y-99497390D01*
X193566285Y-99497390D02*
X193471047Y-99545009D01*
X193471047Y-99545009D02*
X193328190Y-99545009D01*
X194090095Y-99545009D02*
X194090095Y-98878342D01*
X194090095Y-99068818D02*
X194137714Y-98973580D01*
X194137714Y-98973580D02*
X194185333Y-98925961D01*
X194185333Y-98925961D02*
X194280571Y-98878342D01*
X194280571Y-98878342D02*
X194375809Y-98878342D01*
X209033000Y-80294139D02*
X208233000Y-80294139D01*
X208233000Y-80294139D02*
X208233000Y-79989377D01*
X208233000Y-79989377D02*
X208271095Y-79913187D01*
X208271095Y-79913187D02*
X208309190Y-79875092D01*
X208309190Y-79875092D02*
X208385381Y-79836996D01*
X208385381Y-79836996D02*
X208499666Y-79836996D01*
X208499666Y-79836996D02*
X208575857Y-79875092D01*
X208575857Y-79875092D02*
X208613952Y-79913187D01*
X208613952Y-79913187D02*
X208652047Y-79989377D01*
X208652047Y-79989377D02*
X208652047Y-80294139D01*
X208499666Y-79151282D02*
X209033000Y-79151282D01*
X208499666Y-79494139D02*
X208918714Y-79494139D01*
X208918714Y-79494139D02*
X208994905Y-79456044D01*
X208994905Y-79456044D02*
X209033000Y-79379854D01*
X209033000Y-79379854D02*
X209033000Y-79265568D01*
X209033000Y-79265568D02*
X208994905Y-79189377D01*
X208994905Y-79189377D02*
X208956809Y-79151282D01*
X209033000Y-78656044D02*
X208994905Y-78732234D01*
X208994905Y-78732234D02*
X208918714Y-78770329D01*
X208918714Y-78770329D02*
X208233000Y-78770329D01*
X209033000Y-78236996D02*
X208994905Y-78313186D01*
X208994905Y-78313186D02*
X208918714Y-78351281D01*
X208918714Y-78351281D02*
X208233000Y-78351281D01*
X208499666Y-76979852D02*
X209033000Y-76979852D01*
X208499666Y-77322709D02*
X208918714Y-77322709D01*
X208918714Y-77322709D02*
X208994905Y-77284614D01*
X208994905Y-77284614D02*
X209033000Y-77208424D01*
X209033000Y-77208424D02*
X209033000Y-77094138D01*
X209033000Y-77094138D02*
X208994905Y-77017947D01*
X208994905Y-77017947D02*
X208956809Y-76979852D01*
X208499666Y-76598899D02*
X209299666Y-76598899D01*
X208537762Y-76598899D02*
X208499666Y-76522709D01*
X208499666Y-76522709D02*
X208499666Y-76370328D01*
X208499666Y-76370328D02*
X208537762Y-76294137D01*
X208537762Y-76294137D02*
X208575857Y-76256042D01*
X208575857Y-76256042D02*
X208652047Y-76217947D01*
X208652047Y-76217947D02*
X208880619Y-76217947D01*
X208880619Y-76217947D02*
X208956809Y-76256042D01*
X208956809Y-76256042D02*
X208994905Y-76294137D01*
X208994905Y-76294137D02*
X209033000Y-76370328D01*
X209033000Y-76370328D02*
X209033000Y-76522709D01*
X209033000Y-76522709D02*
X208994905Y-76598899D01*
X209033000Y-75265565D02*
X208233000Y-75265565D01*
X208233000Y-75265565D02*
X208804428Y-74998899D01*
X208804428Y-74998899D02*
X208233000Y-74732232D01*
X208233000Y-74732232D02*
X209033000Y-74732232D01*
X208499666Y-74008422D02*
X209033000Y-74008422D01*
X208499666Y-74351279D02*
X208918714Y-74351279D01*
X208918714Y-74351279D02*
X208994905Y-74313184D01*
X208994905Y-74313184D02*
X209033000Y-74236994D01*
X209033000Y-74236994D02*
X209033000Y-74122708D01*
X209033000Y-74122708D02*
X208994905Y-74046517D01*
X208994905Y-74046517D02*
X208956809Y-74008422D01*
X209033000Y-73513184D02*
X208994905Y-73589374D01*
X208994905Y-73589374D02*
X208918714Y-73627469D01*
X208918714Y-73627469D02*
X208233000Y-73627469D01*
X208499666Y-73322707D02*
X208499666Y-73017945D01*
X208233000Y-73208421D02*
X208918714Y-73208421D01*
X208918714Y-73208421D02*
X208994905Y-73170326D01*
X208994905Y-73170326D02*
X209033000Y-73094136D01*
X209033000Y-73094136D02*
X209033000Y-73017945D01*
X209033000Y-72751278D02*
X208499666Y-72751278D01*
X208233000Y-72751278D02*
X208271095Y-72789374D01*
X208271095Y-72789374D02*
X208309190Y-72751278D01*
X208309190Y-72751278D02*
X208271095Y-72713183D01*
X208271095Y-72713183D02*
X208233000Y-72751278D01*
X208233000Y-72751278D02*
X208309190Y-72751278D01*
X208499666Y-72370326D02*
X209299666Y-72370326D01*
X208537762Y-72370326D02*
X208499666Y-72294136D01*
X208499666Y-72294136D02*
X208499666Y-72141755D01*
X208499666Y-72141755D02*
X208537762Y-72065564D01*
X208537762Y-72065564D02*
X208575857Y-72027469D01*
X208575857Y-72027469D02*
X208652047Y-71989374D01*
X208652047Y-71989374D02*
X208880619Y-71989374D01*
X208880619Y-71989374D02*
X208956809Y-72027469D01*
X208956809Y-72027469D02*
X208994905Y-72065564D01*
X208994905Y-72065564D02*
X209033000Y-72141755D01*
X209033000Y-72141755D02*
X209033000Y-72294136D01*
X209033000Y-72294136D02*
X208994905Y-72370326D01*
X209033000Y-71532231D02*
X208994905Y-71608421D01*
X208994905Y-71608421D02*
X208918714Y-71646516D01*
X208918714Y-71646516D02*
X208233000Y-71646516D01*
X208994905Y-70922706D02*
X209033000Y-70998897D01*
X209033000Y-70998897D02*
X209033000Y-71151278D01*
X209033000Y-71151278D02*
X208994905Y-71227468D01*
X208994905Y-71227468D02*
X208918714Y-71265564D01*
X208918714Y-71265564D02*
X208613952Y-71265564D01*
X208613952Y-71265564D02*
X208537762Y-71227468D01*
X208537762Y-71227468D02*
X208499666Y-71151278D01*
X208499666Y-71151278D02*
X208499666Y-70998897D01*
X208499666Y-70998897D02*
X208537762Y-70922706D01*
X208537762Y-70922706D02*
X208613952Y-70884611D01*
X208613952Y-70884611D02*
X208690143Y-70884611D01*
X208690143Y-70884611D02*
X208766333Y-71265564D01*
X209033000Y-70617945D02*
X208499666Y-70198897D01*
X208499666Y-70617945D02*
X209033000Y-70198897D01*
X208994905Y-69589373D02*
X209033000Y-69665564D01*
X209033000Y-69665564D02*
X209033000Y-69817945D01*
X209033000Y-69817945D02*
X208994905Y-69894135D01*
X208994905Y-69894135D02*
X208918714Y-69932231D01*
X208918714Y-69932231D02*
X208613952Y-69932231D01*
X208613952Y-69932231D02*
X208537762Y-69894135D01*
X208537762Y-69894135D02*
X208499666Y-69817945D01*
X208499666Y-69817945D02*
X208499666Y-69665564D01*
X208499666Y-69665564D02*
X208537762Y-69589373D01*
X208537762Y-69589373D02*
X208613952Y-69551278D01*
X208613952Y-69551278D02*
X208690143Y-69551278D01*
X208690143Y-69551278D02*
X208766333Y-69932231D01*
X209033000Y-69208421D02*
X208499666Y-69208421D01*
X208652047Y-69208421D02*
X208575857Y-69170326D01*
X208575857Y-69170326D02*
X208537762Y-69132231D01*
X208537762Y-69132231D02*
X208499666Y-69056040D01*
X208499666Y-69056040D02*
X208499666Y-68979850D01*
X191374874Y-68294295D02*
X191832017Y-68294295D01*
X191603445Y-69094295D02*
X191603445Y-68294295D01*
X192022493Y-68294295D02*
X192555827Y-69094295D01*
X192555827Y-68294295D02*
X192022493Y-69094295D01*
X201426200Y-66398935D02*
X201464295Y-66284649D01*
X201464295Y-66284649D02*
X201464295Y-66094173D01*
X201464295Y-66094173D02*
X201426200Y-66017982D01*
X201426200Y-66017982D02*
X201388104Y-65979887D01*
X201388104Y-65979887D02*
X201311914Y-65941792D01*
X201311914Y-65941792D02*
X201235723Y-65941792D01*
X201235723Y-65941792D02*
X201159533Y-65979887D01*
X201159533Y-65979887D02*
X201121438Y-66017982D01*
X201121438Y-66017982D02*
X201083342Y-66094173D01*
X201083342Y-66094173D02*
X201045247Y-66246554D01*
X201045247Y-66246554D02*
X201007152Y-66322744D01*
X201007152Y-66322744D02*
X200969057Y-66360839D01*
X200969057Y-66360839D02*
X200892866Y-66398935D01*
X200892866Y-66398935D02*
X200816676Y-66398935D01*
X200816676Y-66398935D02*
X200740485Y-66360839D01*
X200740485Y-66360839D02*
X200702390Y-66322744D01*
X200702390Y-66322744D02*
X200664295Y-66246554D01*
X200664295Y-66246554D02*
X200664295Y-66056077D01*
X200664295Y-66056077D02*
X200702390Y-65941792D01*
X201388104Y-65141791D02*
X201426200Y-65179887D01*
X201426200Y-65179887D02*
X201464295Y-65294172D01*
X201464295Y-65294172D02*
X201464295Y-65370363D01*
X201464295Y-65370363D02*
X201426200Y-65484649D01*
X201426200Y-65484649D02*
X201350009Y-65560839D01*
X201350009Y-65560839D02*
X201273819Y-65598934D01*
X201273819Y-65598934D02*
X201121438Y-65637030D01*
X201121438Y-65637030D02*
X201007152Y-65637030D01*
X201007152Y-65637030D02*
X200854771Y-65598934D01*
X200854771Y-65598934D02*
X200778580Y-65560839D01*
X200778580Y-65560839D02*
X200702390Y-65484649D01*
X200702390Y-65484649D02*
X200664295Y-65370363D01*
X200664295Y-65370363D02*
X200664295Y-65294172D01*
X200664295Y-65294172D02*
X200702390Y-65179887D01*
X200702390Y-65179887D02*
X200740485Y-65141791D01*
X201464295Y-64417982D02*
X201464295Y-64798934D01*
X201464295Y-64798934D02*
X200664295Y-64798934D01*
X201464295Y-63427506D02*
X201426200Y-63503696D01*
X201426200Y-63503696D02*
X201350009Y-63541791D01*
X201350009Y-63541791D02*
X200664295Y-63541791D01*
X201464295Y-63122743D02*
X200930961Y-63122743D01*
X200664295Y-63122743D02*
X200702390Y-63160839D01*
X200702390Y-63160839D02*
X200740485Y-63122743D01*
X200740485Y-63122743D02*
X200702390Y-63084648D01*
X200702390Y-63084648D02*
X200664295Y-63122743D01*
X200664295Y-63122743D02*
X200740485Y-63122743D01*
X200930961Y-62741791D02*
X201464295Y-62741791D01*
X201007152Y-62741791D02*
X200969057Y-62703696D01*
X200969057Y-62703696D02*
X200930961Y-62627506D01*
X200930961Y-62627506D02*
X200930961Y-62513220D01*
X200930961Y-62513220D02*
X200969057Y-62437029D01*
X200969057Y-62437029D02*
X201045247Y-62398934D01*
X201045247Y-62398934D02*
X201464295Y-62398934D01*
X201426200Y-61713219D02*
X201464295Y-61789410D01*
X201464295Y-61789410D02*
X201464295Y-61941791D01*
X201464295Y-61941791D02*
X201426200Y-62017981D01*
X201426200Y-62017981D02*
X201350009Y-62056077D01*
X201350009Y-62056077D02*
X201045247Y-62056077D01*
X201045247Y-62056077D02*
X200969057Y-62017981D01*
X200969057Y-62017981D02*
X200930961Y-61941791D01*
X200930961Y-61941791D02*
X200930961Y-61789410D01*
X200930961Y-61789410D02*
X200969057Y-61713219D01*
X200969057Y-61713219D02*
X201045247Y-61675124D01*
X201045247Y-61675124D02*
X201121438Y-61675124D01*
X201121438Y-61675124D02*
X201197628Y-62056077D01*
X179532390Y-86091792D02*
X179494295Y-86167982D01*
X179494295Y-86167982D02*
X179494295Y-86282268D01*
X179494295Y-86282268D02*
X179532390Y-86396554D01*
X179532390Y-86396554D02*
X179608580Y-86472744D01*
X179608580Y-86472744D02*
X179684771Y-86510839D01*
X179684771Y-86510839D02*
X179837152Y-86548935D01*
X179837152Y-86548935D02*
X179951438Y-86548935D01*
X179951438Y-86548935D02*
X180103819Y-86510839D01*
X180103819Y-86510839D02*
X180180009Y-86472744D01*
X180180009Y-86472744D02*
X180256200Y-86396554D01*
X180256200Y-86396554D02*
X180294295Y-86282268D01*
X180294295Y-86282268D02*
X180294295Y-86206077D01*
X180294295Y-86206077D02*
X180256200Y-86091792D01*
X180256200Y-86091792D02*
X180218104Y-86053696D01*
X180218104Y-86053696D02*
X179951438Y-86053696D01*
X179951438Y-86053696D02*
X179951438Y-86206077D01*
X180294295Y-85710839D02*
X179494295Y-85710839D01*
X179494295Y-85710839D02*
X180294295Y-85253696D01*
X180294295Y-85253696D02*
X179494295Y-85253696D01*
X180294295Y-84872744D02*
X179494295Y-84872744D01*
X179494295Y-84872744D02*
X179494295Y-84682268D01*
X179494295Y-84682268D02*
X179532390Y-84567982D01*
X179532390Y-84567982D02*
X179608580Y-84491792D01*
X179608580Y-84491792D02*
X179684771Y-84453697D01*
X179684771Y-84453697D02*
X179837152Y-84415601D01*
X179837152Y-84415601D02*
X179951438Y-84415601D01*
X179951438Y-84415601D02*
X180103819Y-84453697D01*
X180103819Y-84453697D02*
X180180009Y-84491792D01*
X180180009Y-84491792D02*
X180256200Y-84567982D01*
X180256200Y-84567982D02*
X180294295Y-84682268D01*
X180294295Y-84682268D02*
X180294295Y-84872744D01*
X181651064Y-68865723D02*
X182032017Y-68865723D01*
X181574874Y-69094295D02*
X181841541Y-68294295D01*
X181841541Y-68294295D02*
X182108207Y-69094295D01*
X182755826Y-68294295D02*
X182374874Y-68294295D01*
X182374874Y-68294295D02*
X182336778Y-68675247D01*
X182336778Y-68675247D02*
X182374874Y-68637152D01*
X182374874Y-68637152D02*
X182451064Y-68599057D01*
X182451064Y-68599057D02*
X182641540Y-68599057D01*
X182641540Y-68599057D02*
X182717731Y-68637152D01*
X182717731Y-68637152D02*
X182755826Y-68675247D01*
X182755826Y-68675247D02*
X182793921Y-68751438D01*
X182793921Y-68751438D02*
X182793921Y-68941914D01*
X182793921Y-68941914D02*
X182755826Y-69018104D01*
X182755826Y-69018104D02*
X182717731Y-69056200D01*
X182717731Y-69056200D02*
X182641540Y-69094295D01*
X182641540Y-69094295D02*
X182451064Y-69094295D01*
X182451064Y-69094295D02*
X182374874Y-69056200D01*
X182374874Y-69056200D02*
X182336778Y-69018104D01*
X179532390Y-74891792D02*
X179494295Y-74967982D01*
X179494295Y-74967982D02*
X179494295Y-75082268D01*
X179494295Y-75082268D02*
X179532390Y-75196554D01*
X179532390Y-75196554D02*
X179608580Y-75272744D01*
X179608580Y-75272744D02*
X179684771Y-75310839D01*
X179684771Y-75310839D02*
X179837152Y-75348935D01*
X179837152Y-75348935D02*
X179951438Y-75348935D01*
X179951438Y-75348935D02*
X180103819Y-75310839D01*
X180103819Y-75310839D02*
X180180009Y-75272744D01*
X180180009Y-75272744D02*
X180256200Y-75196554D01*
X180256200Y-75196554D02*
X180294295Y-75082268D01*
X180294295Y-75082268D02*
X180294295Y-75006077D01*
X180294295Y-75006077D02*
X180256200Y-74891792D01*
X180256200Y-74891792D02*
X180218104Y-74853696D01*
X180218104Y-74853696D02*
X179951438Y-74853696D01*
X179951438Y-74853696D02*
X179951438Y-75006077D01*
X180294295Y-74510839D02*
X179494295Y-74510839D01*
X179494295Y-74510839D02*
X180294295Y-74053696D01*
X180294295Y-74053696D02*
X179494295Y-74053696D01*
X180294295Y-73672744D02*
X179494295Y-73672744D01*
X179494295Y-73672744D02*
X179494295Y-73482268D01*
X179494295Y-73482268D02*
X179532390Y-73367982D01*
X179532390Y-73367982D02*
X179608580Y-73291792D01*
X179608580Y-73291792D02*
X179684771Y-73253697D01*
X179684771Y-73253697D02*
X179837152Y-73215601D01*
X179837152Y-73215601D02*
X179951438Y-73215601D01*
X179951438Y-73215601D02*
X180103819Y-73253697D01*
X180103819Y-73253697D02*
X180180009Y-73291792D01*
X180180009Y-73291792D02*
X180256200Y-73367982D01*
X180256200Y-73367982D02*
X180294295Y-73482268D01*
X180294295Y-73482268D02*
X180294295Y-73672744D01*
X213668150Y-61061871D02*
X213934817Y-61861871D01*
X213934817Y-61861871D02*
X214201483Y-61061871D01*
X214468150Y-61861871D02*
X214468150Y-61061871D01*
X214468150Y-61061871D02*
X214658626Y-61061871D01*
X214658626Y-61061871D02*
X214772912Y-61099966D01*
X214772912Y-61099966D02*
X214849102Y-61176156D01*
X214849102Y-61176156D02*
X214887197Y-61252347D01*
X214887197Y-61252347D02*
X214925293Y-61404728D01*
X214925293Y-61404728D02*
X214925293Y-61519014D01*
X214925293Y-61519014D02*
X214887197Y-61671395D01*
X214887197Y-61671395D02*
X214849102Y-61747585D01*
X214849102Y-61747585D02*
X214772912Y-61823776D01*
X214772912Y-61823776D02*
X214658626Y-61861871D01*
X214658626Y-61861871D02*
X214468150Y-61861871D01*
X215268150Y-61861871D02*
X215268150Y-61061871D01*
X215268150Y-61061871D02*
X215458626Y-61061871D01*
X215458626Y-61061871D02*
X215572912Y-61099966D01*
X215572912Y-61099966D02*
X215649102Y-61176156D01*
X215649102Y-61176156D02*
X215687197Y-61252347D01*
X215687197Y-61252347D02*
X215725293Y-61404728D01*
X215725293Y-61404728D02*
X215725293Y-61519014D01*
X215725293Y-61519014D02*
X215687197Y-61671395D01*
X215687197Y-61671395D02*
X215649102Y-61747585D01*
X215649102Y-61747585D02*
X215572912Y-61823776D01*
X215572912Y-61823776D02*
X215458626Y-61861871D01*
X215458626Y-61861871D02*
X215268150Y-61861871D01*
X214706900Y-102276532D02*
X214630710Y-102238437D01*
X214630710Y-102238437D02*
X214516424Y-102238437D01*
X214516424Y-102238437D02*
X214402138Y-102276532D01*
X214402138Y-102276532D02*
X214325948Y-102352722D01*
X214325948Y-102352722D02*
X214287853Y-102428913D01*
X214287853Y-102428913D02*
X214249757Y-102581294D01*
X214249757Y-102581294D02*
X214249757Y-102695580D01*
X214249757Y-102695580D02*
X214287853Y-102847961D01*
X214287853Y-102847961D02*
X214325948Y-102924151D01*
X214325948Y-102924151D02*
X214402138Y-103000342D01*
X214402138Y-103000342D02*
X214516424Y-103038437D01*
X214516424Y-103038437D02*
X214592615Y-103038437D01*
X214592615Y-103038437D02*
X214706900Y-103000342D01*
X214706900Y-103000342D02*
X214744996Y-102962246D01*
X214744996Y-102962246D02*
X214744996Y-102695580D01*
X214744996Y-102695580D02*
X214592615Y-102695580D01*
X215087853Y-103038437D02*
X215087853Y-102238437D01*
X215087853Y-102238437D02*
X215392615Y-102238437D01*
X215392615Y-102238437D02*
X215468805Y-102276532D01*
X215468805Y-102276532D02*
X215506900Y-102314627D01*
X215506900Y-102314627D02*
X215544996Y-102390818D01*
X215544996Y-102390818D02*
X215544996Y-102505103D01*
X215544996Y-102505103D02*
X215506900Y-102581294D01*
X215506900Y-102581294D02*
X215468805Y-102619389D01*
X215468805Y-102619389D02*
X215392615Y-102657484D01*
X215392615Y-102657484D02*
X215087853Y-102657484D01*
X215887853Y-103038437D02*
X215887853Y-102238437D01*
X216421186Y-102238437D02*
X216573567Y-102238437D01*
X216573567Y-102238437D02*
X216649757Y-102276532D01*
X216649757Y-102276532D02*
X216725948Y-102352722D01*
X216725948Y-102352722D02*
X216764043Y-102505103D01*
X216764043Y-102505103D02*
X216764043Y-102771770D01*
X216764043Y-102771770D02*
X216725948Y-102924151D01*
X216725948Y-102924151D02*
X216649757Y-103000342D01*
X216649757Y-103000342D02*
X216573567Y-103038437D01*
X216573567Y-103038437D02*
X216421186Y-103038437D01*
X216421186Y-103038437D02*
X216344995Y-103000342D01*
X216344995Y-103000342D02*
X216268805Y-102924151D01*
X216268805Y-102924151D02*
X216230709Y-102771770D01*
X216230709Y-102771770D02*
X216230709Y-102505103D01*
X216230709Y-102505103D02*
X216268805Y-102352722D01*
X216268805Y-102352722D02*
X216344995Y-102276532D01*
X216344995Y-102276532D02*
X216421186Y-102238437D01*
X217030709Y-102238437D02*
X217525947Y-102238437D01*
X217525947Y-102238437D02*
X217259281Y-102543199D01*
X217259281Y-102543199D02*
X217373566Y-102543199D01*
X217373566Y-102543199D02*
X217449757Y-102581294D01*
X217449757Y-102581294D02*
X217487852Y-102619389D01*
X217487852Y-102619389D02*
X217525947Y-102695580D01*
X217525947Y-102695580D02*
X217525947Y-102886056D01*
X217525947Y-102886056D02*
X217487852Y-102962246D01*
X217487852Y-102962246D02*
X217449757Y-103000342D01*
X217449757Y-103000342D02*
X217373566Y-103038437D01*
X217373566Y-103038437D02*
X217144995Y-103038437D01*
X217144995Y-103038437D02*
X217068804Y-103000342D01*
X217068804Y-103000342D02*
X217030709Y-102962246D01*
X189346303Y-69094295D02*
X189079636Y-68713342D01*
X188889160Y-69094295D02*
X188889160Y-68294295D01*
X188889160Y-68294295D02*
X189193922Y-68294295D01*
X189193922Y-68294295D02*
X189270112Y-68332390D01*
X189270112Y-68332390D02*
X189308207Y-68370485D01*
X189308207Y-68370485D02*
X189346303Y-68446676D01*
X189346303Y-68446676D02*
X189346303Y-68560961D01*
X189346303Y-68560961D02*
X189308207Y-68637152D01*
X189308207Y-68637152D02*
X189270112Y-68675247D01*
X189270112Y-68675247D02*
X189193922Y-68713342D01*
X189193922Y-68713342D02*
X188889160Y-68713342D01*
X189612969Y-68294295D02*
X190146303Y-69094295D01*
X190146303Y-68294295D02*
X189612969Y-69094295D01*
X180256200Y-80748935D02*
X180294295Y-80634649D01*
X180294295Y-80634649D02*
X180294295Y-80444173D01*
X180294295Y-80444173D02*
X180256200Y-80367982D01*
X180256200Y-80367982D02*
X180218104Y-80329887D01*
X180218104Y-80329887D02*
X180141914Y-80291792D01*
X180141914Y-80291792D02*
X180065723Y-80291792D01*
X180065723Y-80291792D02*
X179989533Y-80329887D01*
X179989533Y-80329887D02*
X179951438Y-80367982D01*
X179951438Y-80367982D02*
X179913342Y-80444173D01*
X179913342Y-80444173D02*
X179875247Y-80596554D01*
X179875247Y-80596554D02*
X179837152Y-80672744D01*
X179837152Y-80672744D02*
X179799057Y-80710839D01*
X179799057Y-80710839D02*
X179722866Y-80748935D01*
X179722866Y-80748935D02*
X179646676Y-80748935D01*
X179646676Y-80748935D02*
X179570485Y-80710839D01*
X179570485Y-80710839D02*
X179532390Y-80672744D01*
X179532390Y-80672744D02*
X179494295Y-80596554D01*
X179494295Y-80596554D02*
X179494295Y-80406077D01*
X179494295Y-80406077D02*
X179532390Y-80291792D01*
X180294295Y-79948934D02*
X179494295Y-79948934D01*
X179494295Y-79948934D02*
X179494295Y-79758458D01*
X179494295Y-79758458D02*
X179532390Y-79644172D01*
X179532390Y-79644172D02*
X179608580Y-79567982D01*
X179608580Y-79567982D02*
X179684771Y-79529887D01*
X179684771Y-79529887D02*
X179837152Y-79491791D01*
X179837152Y-79491791D02*
X179951438Y-79491791D01*
X179951438Y-79491791D02*
X180103819Y-79529887D01*
X180103819Y-79529887D02*
X180180009Y-79567982D01*
X180180009Y-79567982D02*
X180256200Y-79644172D01*
X180256200Y-79644172D02*
X180294295Y-79758458D01*
X180294295Y-79758458D02*
X180294295Y-79948934D01*
X180065723Y-79187030D02*
X180065723Y-78806077D01*
X180294295Y-79263220D02*
X179494295Y-78996553D01*
X179494295Y-78996553D02*
X180294295Y-78729887D01*
X189089160Y-92494295D02*
X189089160Y-91694295D01*
X189089160Y-91694295D02*
X189279636Y-91694295D01*
X189279636Y-91694295D02*
X189393922Y-91732390D01*
X189393922Y-91732390D02*
X189470112Y-91808580D01*
X189470112Y-91808580D02*
X189508207Y-91884771D01*
X189508207Y-91884771D02*
X189546303Y-92037152D01*
X189546303Y-92037152D02*
X189546303Y-92151438D01*
X189546303Y-92151438D02*
X189508207Y-92303819D01*
X189508207Y-92303819D02*
X189470112Y-92380009D01*
X189470112Y-92380009D02*
X189393922Y-92456200D01*
X189393922Y-92456200D02*
X189279636Y-92494295D01*
X189279636Y-92494295D02*
X189089160Y-92494295D01*
X214738406Y-95391069D02*
X214662216Y-95352974D01*
X214662216Y-95352974D02*
X214547930Y-95352974D01*
X214547930Y-95352974D02*
X214433644Y-95391069D01*
X214433644Y-95391069D02*
X214357454Y-95467259D01*
X214357454Y-95467259D02*
X214319359Y-95543450D01*
X214319359Y-95543450D02*
X214281263Y-95695831D01*
X214281263Y-95695831D02*
X214281263Y-95810117D01*
X214281263Y-95810117D02*
X214319359Y-95962498D01*
X214319359Y-95962498D02*
X214357454Y-96038688D01*
X214357454Y-96038688D02*
X214433644Y-96114879D01*
X214433644Y-96114879D02*
X214547930Y-96152974D01*
X214547930Y-96152974D02*
X214624121Y-96152974D01*
X214624121Y-96152974D02*
X214738406Y-96114879D01*
X214738406Y-96114879D02*
X214776502Y-96076783D01*
X214776502Y-96076783D02*
X214776502Y-95810117D01*
X214776502Y-95810117D02*
X214624121Y-95810117D01*
X215119359Y-96152974D02*
X215119359Y-95352974D01*
X215119359Y-95352974D02*
X215424121Y-95352974D01*
X215424121Y-95352974D02*
X215500311Y-95391069D01*
X215500311Y-95391069D02*
X215538406Y-95429164D01*
X215538406Y-95429164D02*
X215576502Y-95505355D01*
X215576502Y-95505355D02*
X215576502Y-95619640D01*
X215576502Y-95619640D02*
X215538406Y-95695831D01*
X215538406Y-95695831D02*
X215500311Y-95733926D01*
X215500311Y-95733926D02*
X215424121Y-95772021D01*
X215424121Y-95772021D02*
X215119359Y-95772021D01*
X215919359Y-96152974D02*
X215919359Y-95352974D01*
X216452692Y-95352974D02*
X216605073Y-95352974D01*
X216605073Y-95352974D02*
X216681263Y-95391069D01*
X216681263Y-95391069D02*
X216757454Y-95467259D01*
X216757454Y-95467259D02*
X216795549Y-95619640D01*
X216795549Y-95619640D02*
X216795549Y-95886307D01*
X216795549Y-95886307D02*
X216757454Y-96038688D01*
X216757454Y-96038688D02*
X216681263Y-96114879D01*
X216681263Y-96114879D02*
X216605073Y-96152974D01*
X216605073Y-96152974D02*
X216452692Y-96152974D01*
X216452692Y-96152974D02*
X216376501Y-96114879D01*
X216376501Y-96114879D02*
X216300311Y-96038688D01*
X216300311Y-96038688D02*
X216262215Y-95886307D01*
X216262215Y-95886307D02*
X216262215Y-95619640D01*
X216262215Y-95619640D02*
X216300311Y-95467259D01*
X216300311Y-95467259D02*
X216376501Y-95391069D01*
X216376501Y-95391069D02*
X216452692Y-95352974D01*
X217290787Y-95352974D02*
X217366977Y-95352974D01*
X217366977Y-95352974D02*
X217443168Y-95391069D01*
X217443168Y-95391069D02*
X217481263Y-95429164D01*
X217481263Y-95429164D02*
X217519358Y-95505355D01*
X217519358Y-95505355D02*
X217557453Y-95657736D01*
X217557453Y-95657736D02*
X217557453Y-95848212D01*
X217557453Y-95848212D02*
X217519358Y-96000593D01*
X217519358Y-96000593D02*
X217481263Y-96076783D01*
X217481263Y-96076783D02*
X217443168Y-96114879D01*
X217443168Y-96114879D02*
X217366977Y-96152974D01*
X217366977Y-96152974D02*
X217290787Y-96152974D01*
X217290787Y-96152974D02*
X217214596Y-96114879D01*
X217214596Y-96114879D02*
X217176501Y-96076783D01*
X217176501Y-96076783D02*
X217138406Y-96000593D01*
X217138406Y-96000593D02*
X217100310Y-95848212D01*
X217100310Y-95848212D02*
X217100310Y-95657736D01*
X217100310Y-95657736D02*
X217138406Y-95505355D01*
X217138406Y-95505355D02*
X217176501Y-95429164D01*
X217176501Y-95429164D02*
X217214596Y-95391069D01*
X217214596Y-95391069D02*
X217290787Y-95352974D01*
X201426200Y-72518935D02*
X201464295Y-72404649D01*
X201464295Y-72404649D02*
X201464295Y-72214173D01*
X201464295Y-72214173D02*
X201426200Y-72137982D01*
X201426200Y-72137982D02*
X201388104Y-72099887D01*
X201388104Y-72099887D02*
X201311914Y-72061792D01*
X201311914Y-72061792D02*
X201235723Y-72061792D01*
X201235723Y-72061792D02*
X201159533Y-72099887D01*
X201159533Y-72099887D02*
X201121438Y-72137982D01*
X201121438Y-72137982D02*
X201083342Y-72214173D01*
X201083342Y-72214173D02*
X201045247Y-72366554D01*
X201045247Y-72366554D02*
X201007152Y-72442744D01*
X201007152Y-72442744D02*
X200969057Y-72480839D01*
X200969057Y-72480839D02*
X200892866Y-72518935D01*
X200892866Y-72518935D02*
X200816676Y-72518935D01*
X200816676Y-72518935D02*
X200740485Y-72480839D01*
X200740485Y-72480839D02*
X200702390Y-72442744D01*
X200702390Y-72442744D02*
X200664295Y-72366554D01*
X200664295Y-72366554D02*
X200664295Y-72176077D01*
X200664295Y-72176077D02*
X200702390Y-72061792D01*
X201464295Y-71718934D02*
X200664295Y-71718934D01*
X200664295Y-71718934D02*
X200664295Y-71528458D01*
X200664295Y-71528458D02*
X200702390Y-71414172D01*
X200702390Y-71414172D02*
X200778580Y-71337982D01*
X200778580Y-71337982D02*
X200854771Y-71299887D01*
X200854771Y-71299887D02*
X201007152Y-71261791D01*
X201007152Y-71261791D02*
X201121438Y-71261791D01*
X201121438Y-71261791D02*
X201273819Y-71299887D01*
X201273819Y-71299887D02*
X201350009Y-71337982D01*
X201350009Y-71337982D02*
X201426200Y-71414172D01*
X201426200Y-71414172D02*
X201464295Y-71528458D01*
X201464295Y-71528458D02*
X201464295Y-71718934D01*
X201235723Y-70957030D02*
X201235723Y-70576077D01*
X201464295Y-71033220D02*
X200664295Y-70766553D01*
X200664295Y-70766553D02*
X201464295Y-70499887D01*
X201464295Y-69509411D02*
X201426200Y-69585601D01*
X201426200Y-69585601D02*
X201350009Y-69623696D01*
X201350009Y-69623696D02*
X200664295Y-69623696D01*
X201464295Y-69204648D02*
X200930961Y-69204648D01*
X200664295Y-69204648D02*
X200702390Y-69242744D01*
X200702390Y-69242744D02*
X200740485Y-69204648D01*
X200740485Y-69204648D02*
X200702390Y-69166553D01*
X200702390Y-69166553D02*
X200664295Y-69204648D01*
X200664295Y-69204648D02*
X200740485Y-69204648D01*
X200930961Y-68823696D02*
X201464295Y-68823696D01*
X201007152Y-68823696D02*
X200969057Y-68785601D01*
X200969057Y-68785601D02*
X200930961Y-68709411D01*
X200930961Y-68709411D02*
X200930961Y-68595125D01*
X200930961Y-68595125D02*
X200969057Y-68518934D01*
X200969057Y-68518934D02*
X201045247Y-68480839D01*
X201045247Y-68480839D02*
X201464295Y-68480839D01*
X201426200Y-67795124D02*
X201464295Y-67871315D01*
X201464295Y-67871315D02*
X201464295Y-68023696D01*
X201464295Y-68023696D02*
X201426200Y-68099886D01*
X201426200Y-68099886D02*
X201350009Y-68137982D01*
X201350009Y-68137982D02*
X201045247Y-68137982D01*
X201045247Y-68137982D02*
X200969057Y-68099886D01*
X200969057Y-68099886D02*
X200930961Y-68023696D01*
X200930961Y-68023696D02*
X200930961Y-67871315D01*
X200930961Y-67871315D02*
X200969057Y-67795124D01*
X200969057Y-67795124D02*
X201045247Y-67757029D01*
X201045247Y-67757029D02*
X201121438Y-67757029D01*
X201121438Y-67757029D02*
X201197628Y-68137982D01*
X222708207Y-90487827D02*
X222632017Y-90449732D01*
X222632017Y-90449732D02*
X222517731Y-90449732D01*
X222517731Y-90449732D02*
X222403445Y-90487827D01*
X222403445Y-90487827D02*
X222327255Y-90564017D01*
X222327255Y-90564017D02*
X222289160Y-90640208D01*
X222289160Y-90640208D02*
X222251064Y-90792589D01*
X222251064Y-90792589D02*
X222251064Y-90906875D01*
X222251064Y-90906875D02*
X222289160Y-91059256D01*
X222289160Y-91059256D02*
X222327255Y-91135446D01*
X222327255Y-91135446D02*
X222403445Y-91211637D01*
X222403445Y-91211637D02*
X222517731Y-91249732D01*
X222517731Y-91249732D02*
X222593922Y-91249732D01*
X222593922Y-91249732D02*
X222708207Y-91211637D01*
X222708207Y-91211637D02*
X222746303Y-91173541D01*
X222746303Y-91173541D02*
X222746303Y-90906875D01*
X222746303Y-90906875D02*
X222593922Y-90906875D01*
X223089160Y-91249732D02*
X223089160Y-90449732D01*
X223089160Y-90449732D02*
X223393922Y-90449732D01*
X223393922Y-90449732D02*
X223470112Y-90487827D01*
X223470112Y-90487827D02*
X223508207Y-90525922D01*
X223508207Y-90525922D02*
X223546303Y-90602113D01*
X223546303Y-90602113D02*
X223546303Y-90716398D01*
X223546303Y-90716398D02*
X223508207Y-90792589D01*
X223508207Y-90792589D02*
X223470112Y-90830684D01*
X223470112Y-90830684D02*
X223393922Y-90868779D01*
X223393922Y-90868779D02*
X223089160Y-90868779D01*
X223889160Y-91249732D02*
X223889160Y-90449732D01*
X224422493Y-90449732D02*
X224498683Y-90449732D01*
X224498683Y-90449732D02*
X224574874Y-90487827D01*
X224574874Y-90487827D02*
X224612969Y-90525922D01*
X224612969Y-90525922D02*
X224651064Y-90602113D01*
X224651064Y-90602113D02*
X224689159Y-90754494D01*
X224689159Y-90754494D02*
X224689159Y-90944970D01*
X224689159Y-90944970D02*
X224651064Y-91097351D01*
X224651064Y-91097351D02*
X224612969Y-91173541D01*
X224612969Y-91173541D02*
X224574874Y-91211637D01*
X224574874Y-91211637D02*
X224498683Y-91249732D01*
X224498683Y-91249732D02*
X224422493Y-91249732D01*
X224422493Y-91249732D02*
X224346302Y-91211637D01*
X224346302Y-91211637D02*
X224308207Y-91173541D01*
X224308207Y-91173541D02*
X224270112Y-91097351D01*
X224270112Y-91097351D02*
X224232016Y-90944970D01*
X224232016Y-90944970D02*
X224232016Y-90754494D01*
X224232016Y-90754494D02*
X224270112Y-90602113D01*
X224270112Y-90602113D02*
X224308207Y-90525922D01*
X224308207Y-90525922D02*
X224346302Y-90487827D01*
X224346302Y-90487827D02*
X224422493Y-90449732D01*
X226060588Y-90487827D02*
X225984398Y-90449732D01*
X225984398Y-90449732D02*
X225870112Y-90449732D01*
X225870112Y-90449732D02*
X225755826Y-90487827D01*
X225755826Y-90487827D02*
X225679636Y-90564017D01*
X225679636Y-90564017D02*
X225641541Y-90640208D01*
X225641541Y-90640208D02*
X225603445Y-90792589D01*
X225603445Y-90792589D02*
X225603445Y-90906875D01*
X225603445Y-90906875D02*
X225641541Y-91059256D01*
X225641541Y-91059256D02*
X225679636Y-91135446D01*
X225679636Y-91135446D02*
X225755826Y-91211637D01*
X225755826Y-91211637D02*
X225870112Y-91249732D01*
X225870112Y-91249732D02*
X225946303Y-91249732D01*
X225946303Y-91249732D02*
X226060588Y-91211637D01*
X226060588Y-91211637D02*
X226098684Y-91173541D01*
X226098684Y-91173541D02*
X226098684Y-90906875D01*
X226098684Y-90906875D02*
X225946303Y-90906875D01*
X226441541Y-91249732D02*
X226441541Y-90449732D01*
X226441541Y-90449732D02*
X226898684Y-91249732D01*
X226898684Y-91249732D02*
X226898684Y-90449732D01*
X227279636Y-91249732D02*
X227279636Y-90449732D01*
X227279636Y-90449732D02*
X227470112Y-90449732D01*
X227470112Y-90449732D02*
X227584398Y-90487827D01*
X227584398Y-90487827D02*
X227660588Y-90564017D01*
X227660588Y-90564017D02*
X227698683Y-90640208D01*
X227698683Y-90640208D02*
X227736779Y-90792589D01*
X227736779Y-90792589D02*
X227736779Y-90906875D01*
X227736779Y-90906875D02*
X227698683Y-91059256D01*
X227698683Y-91059256D02*
X227660588Y-91135446D01*
X227660588Y-91135446D02*
X227584398Y-91211637D01*
X227584398Y-91211637D02*
X227470112Y-91249732D01*
X227470112Y-91249732D02*
X227279636Y-91249732D01*
X210342337Y-77898935D02*
X210380432Y-77784649D01*
X210380432Y-77784649D02*
X210380432Y-77594173D01*
X210380432Y-77594173D02*
X210342337Y-77517982D01*
X210342337Y-77517982D02*
X210304241Y-77479887D01*
X210304241Y-77479887D02*
X210228051Y-77441792D01*
X210228051Y-77441792D02*
X210151860Y-77441792D01*
X210151860Y-77441792D02*
X210075670Y-77479887D01*
X210075670Y-77479887D02*
X210037575Y-77517982D01*
X210037575Y-77517982D02*
X209999479Y-77594173D01*
X209999479Y-77594173D02*
X209961384Y-77746554D01*
X209961384Y-77746554D02*
X209923289Y-77822744D01*
X209923289Y-77822744D02*
X209885194Y-77860839D01*
X209885194Y-77860839D02*
X209809003Y-77898935D01*
X209809003Y-77898935D02*
X209732813Y-77898935D01*
X209732813Y-77898935D02*
X209656622Y-77860839D01*
X209656622Y-77860839D02*
X209618527Y-77822744D01*
X209618527Y-77822744D02*
X209580432Y-77746554D01*
X209580432Y-77746554D02*
X209580432Y-77556077D01*
X209580432Y-77556077D02*
X209618527Y-77441792D01*
X210304241Y-76641791D02*
X210342337Y-76679887D01*
X210342337Y-76679887D02*
X210380432Y-76794172D01*
X210380432Y-76794172D02*
X210380432Y-76870363D01*
X210380432Y-76870363D02*
X210342337Y-76984649D01*
X210342337Y-76984649D02*
X210266146Y-77060839D01*
X210266146Y-77060839D02*
X210189956Y-77098934D01*
X210189956Y-77098934D02*
X210037575Y-77137030D01*
X210037575Y-77137030D02*
X209923289Y-77137030D01*
X209923289Y-77137030D02*
X209770908Y-77098934D01*
X209770908Y-77098934D02*
X209694717Y-77060839D01*
X209694717Y-77060839D02*
X209618527Y-76984649D01*
X209618527Y-76984649D02*
X209580432Y-76870363D01*
X209580432Y-76870363D02*
X209580432Y-76794172D01*
X209580432Y-76794172D02*
X209618527Y-76679887D01*
X209618527Y-76679887D02*
X209656622Y-76641791D01*
X210380432Y-75917982D02*
X210380432Y-76298934D01*
X210380432Y-76298934D02*
X209580432Y-76298934D01*
X214706900Y-97686223D02*
X214630710Y-97648128D01*
X214630710Y-97648128D02*
X214516424Y-97648128D01*
X214516424Y-97648128D02*
X214402138Y-97686223D01*
X214402138Y-97686223D02*
X214325948Y-97762413D01*
X214325948Y-97762413D02*
X214287853Y-97838604D01*
X214287853Y-97838604D02*
X214249757Y-97990985D01*
X214249757Y-97990985D02*
X214249757Y-98105271D01*
X214249757Y-98105271D02*
X214287853Y-98257652D01*
X214287853Y-98257652D02*
X214325948Y-98333842D01*
X214325948Y-98333842D02*
X214402138Y-98410033D01*
X214402138Y-98410033D02*
X214516424Y-98448128D01*
X214516424Y-98448128D02*
X214592615Y-98448128D01*
X214592615Y-98448128D02*
X214706900Y-98410033D01*
X214706900Y-98410033D02*
X214744996Y-98371937D01*
X214744996Y-98371937D02*
X214744996Y-98105271D01*
X214744996Y-98105271D02*
X214592615Y-98105271D01*
X215087853Y-98448128D02*
X215087853Y-97648128D01*
X215087853Y-97648128D02*
X215392615Y-97648128D01*
X215392615Y-97648128D02*
X215468805Y-97686223D01*
X215468805Y-97686223D02*
X215506900Y-97724318D01*
X215506900Y-97724318D02*
X215544996Y-97800509D01*
X215544996Y-97800509D02*
X215544996Y-97914794D01*
X215544996Y-97914794D02*
X215506900Y-97990985D01*
X215506900Y-97990985D02*
X215468805Y-98029080D01*
X215468805Y-98029080D02*
X215392615Y-98067175D01*
X215392615Y-98067175D02*
X215087853Y-98067175D01*
X215887853Y-98448128D02*
X215887853Y-97648128D01*
X216421186Y-97648128D02*
X216573567Y-97648128D01*
X216573567Y-97648128D02*
X216649757Y-97686223D01*
X216649757Y-97686223D02*
X216725948Y-97762413D01*
X216725948Y-97762413D02*
X216764043Y-97914794D01*
X216764043Y-97914794D02*
X216764043Y-98181461D01*
X216764043Y-98181461D02*
X216725948Y-98333842D01*
X216725948Y-98333842D02*
X216649757Y-98410033D01*
X216649757Y-98410033D02*
X216573567Y-98448128D01*
X216573567Y-98448128D02*
X216421186Y-98448128D01*
X216421186Y-98448128D02*
X216344995Y-98410033D01*
X216344995Y-98410033D02*
X216268805Y-98333842D01*
X216268805Y-98333842D02*
X216230709Y-98181461D01*
X216230709Y-98181461D02*
X216230709Y-97914794D01*
X216230709Y-97914794D02*
X216268805Y-97762413D01*
X216268805Y-97762413D02*
X216344995Y-97686223D01*
X216344995Y-97686223D02*
X216421186Y-97648128D01*
X217525947Y-98448128D02*
X217068804Y-98448128D01*
X217297376Y-98448128D02*
X217297376Y-97648128D01*
X217297376Y-97648128D02*
X217221185Y-97762413D01*
X217221185Y-97762413D02*
X217144995Y-97838604D01*
X217144995Y-97838604D02*
X217068804Y-97876699D01*
X181089200Y-61860233D02*
X181584438Y-61860233D01*
X181584438Y-61860233D02*
X181317772Y-62164995D01*
X181317772Y-62164995D02*
X181432057Y-62164995D01*
X181432057Y-62164995D02*
X181508248Y-62203090D01*
X181508248Y-62203090D02*
X181546343Y-62241185D01*
X181546343Y-62241185D02*
X181584438Y-62317376D01*
X181584438Y-62317376D02*
X181584438Y-62507852D01*
X181584438Y-62507852D02*
X181546343Y-62584042D01*
X181546343Y-62584042D02*
X181508248Y-62622138D01*
X181508248Y-62622138D02*
X181432057Y-62660233D01*
X181432057Y-62660233D02*
X181203486Y-62660233D01*
X181203486Y-62660233D02*
X181127295Y-62622138D01*
X181127295Y-62622138D02*
X181089200Y-62584042D01*
X181927296Y-62584042D02*
X181965391Y-62622138D01*
X181965391Y-62622138D02*
X181927296Y-62660233D01*
X181927296Y-62660233D02*
X181889200Y-62622138D01*
X181889200Y-62622138D02*
X181927296Y-62584042D01*
X181927296Y-62584042D02*
X181927296Y-62660233D01*
X182232057Y-61860233D02*
X182727295Y-61860233D01*
X182727295Y-61860233D02*
X182460629Y-62164995D01*
X182460629Y-62164995D02*
X182574914Y-62164995D01*
X182574914Y-62164995D02*
X182651105Y-62203090D01*
X182651105Y-62203090D02*
X182689200Y-62241185D01*
X182689200Y-62241185D02*
X182727295Y-62317376D01*
X182727295Y-62317376D02*
X182727295Y-62507852D01*
X182727295Y-62507852D02*
X182689200Y-62584042D01*
X182689200Y-62584042D02*
X182651105Y-62622138D01*
X182651105Y-62622138D02*
X182574914Y-62660233D01*
X182574914Y-62660233D02*
X182346343Y-62660233D01*
X182346343Y-62660233D02*
X182270152Y-62622138D01*
X182270152Y-62622138D02*
X182232057Y-62584042D01*
X182955867Y-61860233D02*
X183222534Y-62660233D01*
X183222534Y-62660233D02*
X183489200Y-61860233D01*
X184784438Y-61898328D02*
X184708248Y-61860233D01*
X184708248Y-61860233D02*
X184593962Y-61860233D01*
X184593962Y-61860233D02*
X184479676Y-61898328D01*
X184479676Y-61898328D02*
X184403486Y-61974518D01*
X184403486Y-61974518D02*
X184365391Y-62050709D01*
X184365391Y-62050709D02*
X184327295Y-62203090D01*
X184327295Y-62203090D02*
X184327295Y-62317376D01*
X184327295Y-62317376D02*
X184365391Y-62469757D01*
X184365391Y-62469757D02*
X184403486Y-62545947D01*
X184403486Y-62545947D02*
X184479676Y-62622138D01*
X184479676Y-62622138D02*
X184593962Y-62660233D01*
X184593962Y-62660233D02*
X184670153Y-62660233D01*
X184670153Y-62660233D02*
X184784438Y-62622138D01*
X184784438Y-62622138D02*
X184822534Y-62584042D01*
X184822534Y-62584042D02*
X184822534Y-62317376D01*
X184822534Y-62317376D02*
X184670153Y-62317376D01*
X185165391Y-62660233D02*
X185165391Y-61860233D01*
X185165391Y-61860233D02*
X185622534Y-62660233D01*
X185622534Y-62660233D02*
X185622534Y-61860233D01*
X186003486Y-62660233D02*
X186003486Y-61860233D01*
X186003486Y-61860233D02*
X186193962Y-61860233D01*
X186193962Y-61860233D02*
X186308248Y-61898328D01*
X186308248Y-61898328D02*
X186384438Y-61974518D01*
X186384438Y-61974518D02*
X186422533Y-62050709D01*
X186422533Y-62050709D02*
X186460629Y-62203090D01*
X186460629Y-62203090D02*
X186460629Y-62317376D01*
X186460629Y-62317376D02*
X186422533Y-62469757D01*
X186422533Y-62469757D02*
X186384438Y-62545947D01*
X186384438Y-62545947D02*
X186308248Y-62622138D01*
X186308248Y-62622138D02*
X186193962Y-62660233D01*
X186193962Y-62660233D02*
X186003486Y-62660233D01*
X187374914Y-62622138D02*
X187489200Y-62660233D01*
X187489200Y-62660233D02*
X187679676Y-62660233D01*
X187679676Y-62660233D02*
X187755867Y-62622138D01*
X187755867Y-62622138D02*
X187793962Y-62584042D01*
X187793962Y-62584042D02*
X187832057Y-62507852D01*
X187832057Y-62507852D02*
X187832057Y-62431661D01*
X187832057Y-62431661D02*
X187793962Y-62355471D01*
X187793962Y-62355471D02*
X187755867Y-62317376D01*
X187755867Y-62317376D02*
X187679676Y-62279280D01*
X187679676Y-62279280D02*
X187527295Y-62241185D01*
X187527295Y-62241185D02*
X187451105Y-62203090D01*
X187451105Y-62203090D02*
X187413010Y-62164995D01*
X187413010Y-62164995D02*
X187374914Y-62088804D01*
X187374914Y-62088804D02*
X187374914Y-62012614D01*
X187374914Y-62012614D02*
X187413010Y-61936423D01*
X187413010Y-61936423D02*
X187451105Y-61898328D01*
X187451105Y-61898328D02*
X187527295Y-61860233D01*
X187527295Y-61860233D02*
X187717772Y-61860233D01*
X187717772Y-61860233D02*
X187832057Y-61898328D01*
X188174915Y-62660233D02*
X188174915Y-61860233D01*
X188174915Y-61860233D02*
X188365391Y-61860233D01*
X188365391Y-61860233D02*
X188479677Y-61898328D01*
X188479677Y-61898328D02*
X188555867Y-61974518D01*
X188555867Y-61974518D02*
X188593962Y-62050709D01*
X188593962Y-62050709D02*
X188632058Y-62203090D01*
X188632058Y-62203090D02*
X188632058Y-62317376D01*
X188632058Y-62317376D02*
X188593962Y-62469757D01*
X188593962Y-62469757D02*
X188555867Y-62545947D01*
X188555867Y-62545947D02*
X188479677Y-62622138D01*
X188479677Y-62622138D02*
X188365391Y-62660233D01*
X188365391Y-62660233D02*
X188174915Y-62660233D01*
X188936819Y-62431661D02*
X189317772Y-62431661D01*
X188860629Y-62660233D02*
X189127296Y-61860233D01*
X189127296Y-61860233D02*
X189393962Y-62660233D01*
X190232057Y-62622138D02*
X190346343Y-62660233D01*
X190346343Y-62660233D02*
X190536819Y-62660233D01*
X190536819Y-62660233D02*
X190613010Y-62622138D01*
X190613010Y-62622138D02*
X190651105Y-62584042D01*
X190651105Y-62584042D02*
X190689200Y-62507852D01*
X190689200Y-62507852D02*
X190689200Y-62431661D01*
X190689200Y-62431661D02*
X190651105Y-62355471D01*
X190651105Y-62355471D02*
X190613010Y-62317376D01*
X190613010Y-62317376D02*
X190536819Y-62279280D01*
X190536819Y-62279280D02*
X190384438Y-62241185D01*
X190384438Y-62241185D02*
X190308248Y-62203090D01*
X190308248Y-62203090D02*
X190270153Y-62164995D01*
X190270153Y-62164995D02*
X190232057Y-62088804D01*
X190232057Y-62088804D02*
X190232057Y-62012614D01*
X190232057Y-62012614D02*
X190270153Y-61936423D01*
X190270153Y-61936423D02*
X190308248Y-61898328D01*
X190308248Y-61898328D02*
X190384438Y-61860233D01*
X190384438Y-61860233D02*
X190574915Y-61860233D01*
X190574915Y-61860233D02*
X190689200Y-61898328D01*
X191489201Y-62584042D02*
X191451105Y-62622138D01*
X191451105Y-62622138D02*
X191336820Y-62660233D01*
X191336820Y-62660233D02*
X191260629Y-62660233D01*
X191260629Y-62660233D02*
X191146343Y-62622138D01*
X191146343Y-62622138D02*
X191070153Y-62545947D01*
X191070153Y-62545947D02*
X191032058Y-62469757D01*
X191032058Y-62469757D02*
X190993962Y-62317376D01*
X190993962Y-62317376D02*
X190993962Y-62203090D01*
X190993962Y-62203090D02*
X191032058Y-62050709D01*
X191032058Y-62050709D02*
X191070153Y-61974518D01*
X191070153Y-61974518D02*
X191146343Y-61898328D01*
X191146343Y-61898328D02*
X191260629Y-61860233D01*
X191260629Y-61860233D02*
X191336820Y-61860233D01*
X191336820Y-61860233D02*
X191451105Y-61898328D01*
X191451105Y-61898328D02*
X191489201Y-61936423D01*
X192213010Y-62660233D02*
X191832058Y-62660233D01*
X191832058Y-62660233D02*
X191832058Y-61860233D01*
X219725293Y-61099966D02*
X219649103Y-61061871D01*
X219649103Y-61061871D02*
X219534817Y-61061871D01*
X219534817Y-61061871D02*
X219420531Y-61099966D01*
X219420531Y-61099966D02*
X219344341Y-61176156D01*
X219344341Y-61176156D02*
X219306246Y-61252347D01*
X219306246Y-61252347D02*
X219268150Y-61404728D01*
X219268150Y-61404728D02*
X219268150Y-61519014D01*
X219268150Y-61519014D02*
X219306246Y-61671395D01*
X219306246Y-61671395D02*
X219344341Y-61747585D01*
X219344341Y-61747585D02*
X219420531Y-61823776D01*
X219420531Y-61823776D02*
X219534817Y-61861871D01*
X219534817Y-61861871D02*
X219611008Y-61861871D01*
X219611008Y-61861871D02*
X219725293Y-61823776D01*
X219725293Y-61823776D02*
X219763389Y-61785680D01*
X219763389Y-61785680D02*
X219763389Y-61519014D01*
X219763389Y-61519014D02*
X219611008Y-61519014D01*
X220106246Y-61861871D02*
X220106246Y-61061871D01*
X220106246Y-61061871D02*
X220563389Y-61861871D01*
X220563389Y-61861871D02*
X220563389Y-61061871D01*
X220944341Y-61861871D02*
X220944341Y-61061871D01*
X220944341Y-61061871D02*
X221134817Y-61061871D01*
X221134817Y-61061871D02*
X221249103Y-61099966D01*
X221249103Y-61099966D02*
X221325293Y-61176156D01*
X221325293Y-61176156D02*
X221363388Y-61252347D01*
X221363388Y-61252347D02*
X221401484Y-61404728D01*
X221401484Y-61404728D02*
X221401484Y-61519014D01*
X221401484Y-61519014D02*
X221363388Y-61671395D01*
X221363388Y-61671395D02*
X221325293Y-61747585D01*
X221325293Y-61747585D02*
X221249103Y-61823776D01*
X221249103Y-61823776D02*
X221134817Y-61861871D01*
X221134817Y-61861871D02*
X220944341Y-61861871D01*
X193665600Y-89816631D02*
X193627505Y-89892821D01*
X193627505Y-89892821D02*
X193551314Y-89930916D01*
X193551314Y-89930916D02*
X192865600Y-89930916D01*
X193665600Y-89397583D02*
X193627505Y-89473773D01*
X193627505Y-89473773D02*
X193589409Y-89511868D01*
X193589409Y-89511868D02*
X193513219Y-89549964D01*
X193513219Y-89549964D02*
X193284647Y-89549964D01*
X193284647Y-89549964D02*
X193208457Y-89511868D01*
X193208457Y-89511868D02*
X193170362Y-89473773D01*
X193170362Y-89473773D02*
X193132266Y-89397583D01*
X193132266Y-89397583D02*
X193132266Y-89283297D01*
X193132266Y-89283297D02*
X193170362Y-89207106D01*
X193170362Y-89207106D02*
X193208457Y-89169011D01*
X193208457Y-89169011D02*
X193284647Y-89130916D01*
X193284647Y-89130916D02*
X193513219Y-89130916D01*
X193513219Y-89130916D02*
X193589409Y-89169011D01*
X193589409Y-89169011D02*
X193627505Y-89207106D01*
X193627505Y-89207106D02*
X193665600Y-89283297D01*
X193665600Y-89283297D02*
X193665600Y-89397583D01*
X193132266Y-88788058D02*
X193665600Y-88788058D01*
X193208457Y-88788058D02*
X193170362Y-88749963D01*
X193170362Y-88749963D02*
X193132266Y-88673773D01*
X193132266Y-88673773D02*
X193132266Y-88559487D01*
X193132266Y-88559487D02*
X193170362Y-88483296D01*
X193170362Y-88483296D02*
X193246552Y-88445201D01*
X193246552Y-88445201D02*
X193665600Y-88445201D01*
X193132266Y-87721391D02*
X193779885Y-87721391D01*
X193779885Y-87721391D02*
X193856076Y-87759486D01*
X193856076Y-87759486D02*
X193894171Y-87797582D01*
X193894171Y-87797582D02*
X193932266Y-87873772D01*
X193932266Y-87873772D02*
X193932266Y-87988058D01*
X193932266Y-87988058D02*
X193894171Y-88064248D01*
X193627505Y-87721391D02*
X193665600Y-87797582D01*
X193665600Y-87797582D02*
X193665600Y-87949963D01*
X193665600Y-87949963D02*
X193627505Y-88026153D01*
X193627505Y-88026153D02*
X193589409Y-88064248D01*
X193589409Y-88064248D02*
X193513219Y-88102344D01*
X193513219Y-88102344D02*
X193284647Y-88102344D01*
X193284647Y-88102344D02*
X193208457Y-88064248D01*
X193208457Y-88064248D02*
X193170362Y-88026153D01*
X193170362Y-88026153D02*
X193132266Y-87949963D01*
X193132266Y-87949963D02*
X193132266Y-87797582D01*
X193132266Y-87797582D02*
X193170362Y-87721391D01*
X193665600Y-86388057D02*
X192865600Y-86388057D01*
X193627505Y-86388057D02*
X193665600Y-86464248D01*
X193665600Y-86464248D02*
X193665600Y-86616629D01*
X193665600Y-86616629D02*
X193627505Y-86692819D01*
X193627505Y-86692819D02*
X193589409Y-86730914D01*
X193589409Y-86730914D02*
X193513219Y-86769010D01*
X193513219Y-86769010D02*
X193284647Y-86769010D01*
X193284647Y-86769010D02*
X193208457Y-86730914D01*
X193208457Y-86730914D02*
X193170362Y-86692819D01*
X193170362Y-86692819D02*
X193132266Y-86616629D01*
X193132266Y-86616629D02*
X193132266Y-86464248D01*
X193132266Y-86464248D02*
X193170362Y-86388057D01*
X193665600Y-86007104D02*
X193132266Y-86007104D01*
X192865600Y-86007104D02*
X192903695Y-86045200D01*
X192903695Y-86045200D02*
X192941790Y-86007104D01*
X192941790Y-86007104D02*
X192903695Y-85969009D01*
X192903695Y-85969009D02*
X192865600Y-86007104D01*
X192865600Y-86007104D02*
X192941790Y-86007104D01*
X193627505Y-85664248D02*
X193665600Y-85588057D01*
X193665600Y-85588057D02*
X193665600Y-85435676D01*
X193665600Y-85435676D02*
X193627505Y-85359486D01*
X193627505Y-85359486D02*
X193551314Y-85321390D01*
X193551314Y-85321390D02*
X193513219Y-85321390D01*
X193513219Y-85321390D02*
X193437028Y-85359486D01*
X193437028Y-85359486D02*
X193398933Y-85435676D01*
X193398933Y-85435676D02*
X193398933Y-85549962D01*
X193398933Y-85549962D02*
X193360838Y-85626152D01*
X193360838Y-85626152D02*
X193284647Y-85664248D01*
X193284647Y-85664248D02*
X193246552Y-85664248D01*
X193246552Y-85664248D02*
X193170362Y-85626152D01*
X193170362Y-85626152D02*
X193132266Y-85549962D01*
X193132266Y-85549962D02*
X193132266Y-85435676D01*
X193132266Y-85435676D02*
X193170362Y-85359486D01*
X193132266Y-85092819D02*
X193132266Y-84788057D01*
X192865600Y-84978533D02*
X193551314Y-84978533D01*
X193551314Y-84978533D02*
X193627505Y-84940438D01*
X193627505Y-84940438D02*
X193665600Y-84864248D01*
X193665600Y-84864248D02*
X193665600Y-84788057D01*
X193665600Y-84178533D02*
X193246552Y-84178533D01*
X193246552Y-84178533D02*
X193170362Y-84216628D01*
X193170362Y-84216628D02*
X193132266Y-84292819D01*
X193132266Y-84292819D02*
X193132266Y-84445200D01*
X193132266Y-84445200D02*
X193170362Y-84521390D01*
X193627505Y-84178533D02*
X193665600Y-84254724D01*
X193665600Y-84254724D02*
X193665600Y-84445200D01*
X193665600Y-84445200D02*
X193627505Y-84521390D01*
X193627505Y-84521390D02*
X193551314Y-84559486D01*
X193551314Y-84559486D02*
X193475124Y-84559486D01*
X193475124Y-84559486D02*
X193398933Y-84521390D01*
X193398933Y-84521390D02*
X193360838Y-84445200D01*
X193360838Y-84445200D02*
X193360838Y-84254724D01*
X193360838Y-84254724D02*
X193322743Y-84178533D01*
X193132266Y-83797580D02*
X193665600Y-83797580D01*
X193208457Y-83797580D02*
X193170362Y-83759485D01*
X193170362Y-83759485D02*
X193132266Y-83683295D01*
X193132266Y-83683295D02*
X193132266Y-83569009D01*
X193132266Y-83569009D02*
X193170362Y-83492818D01*
X193170362Y-83492818D02*
X193246552Y-83454723D01*
X193246552Y-83454723D02*
X193665600Y-83454723D01*
X193627505Y-82730913D02*
X193665600Y-82807104D01*
X193665600Y-82807104D02*
X193665600Y-82959485D01*
X193665600Y-82959485D02*
X193627505Y-83035675D01*
X193627505Y-83035675D02*
X193589409Y-83073770D01*
X193589409Y-83073770D02*
X193513219Y-83111866D01*
X193513219Y-83111866D02*
X193284647Y-83111866D01*
X193284647Y-83111866D02*
X193208457Y-83073770D01*
X193208457Y-83073770D02*
X193170362Y-83035675D01*
X193170362Y-83035675D02*
X193132266Y-82959485D01*
X193132266Y-82959485D02*
X193132266Y-82807104D01*
X193132266Y-82807104D02*
X193170362Y-82730913D01*
X193627505Y-82083294D02*
X193665600Y-82159485D01*
X193665600Y-82159485D02*
X193665600Y-82311866D01*
X193665600Y-82311866D02*
X193627505Y-82388056D01*
X193627505Y-82388056D02*
X193551314Y-82426152D01*
X193551314Y-82426152D02*
X193246552Y-82426152D01*
X193246552Y-82426152D02*
X193170362Y-82388056D01*
X193170362Y-82388056D02*
X193132266Y-82311866D01*
X193132266Y-82311866D02*
X193132266Y-82159485D01*
X193132266Y-82159485D02*
X193170362Y-82083294D01*
X193170362Y-82083294D02*
X193246552Y-82045199D01*
X193246552Y-82045199D02*
X193322743Y-82045199D01*
X193322743Y-82045199D02*
X193398933Y-82426152D01*
X193627505Y-80749961D02*
X193665600Y-80826152D01*
X193665600Y-80826152D02*
X193665600Y-80978533D01*
X193665600Y-80978533D02*
X193627505Y-81054723D01*
X193627505Y-81054723D02*
X193589409Y-81092818D01*
X193589409Y-81092818D02*
X193513219Y-81130914D01*
X193513219Y-81130914D02*
X193284647Y-81130914D01*
X193284647Y-81130914D02*
X193208457Y-81092818D01*
X193208457Y-81092818D02*
X193170362Y-81054723D01*
X193170362Y-81054723D02*
X193132266Y-80978533D01*
X193132266Y-80978533D02*
X193132266Y-80826152D01*
X193132266Y-80826152D02*
X193170362Y-80749961D01*
X193665600Y-80292819D02*
X193627505Y-80369009D01*
X193627505Y-80369009D02*
X193589409Y-80407104D01*
X193589409Y-80407104D02*
X193513219Y-80445200D01*
X193513219Y-80445200D02*
X193284647Y-80445200D01*
X193284647Y-80445200D02*
X193208457Y-80407104D01*
X193208457Y-80407104D02*
X193170362Y-80369009D01*
X193170362Y-80369009D02*
X193132266Y-80292819D01*
X193132266Y-80292819D02*
X193132266Y-80178533D01*
X193132266Y-80178533D02*
X193170362Y-80102342D01*
X193170362Y-80102342D02*
X193208457Y-80064247D01*
X193208457Y-80064247D02*
X193284647Y-80026152D01*
X193284647Y-80026152D02*
X193513219Y-80026152D01*
X193513219Y-80026152D02*
X193589409Y-80064247D01*
X193589409Y-80064247D02*
X193627505Y-80102342D01*
X193627505Y-80102342D02*
X193665600Y-80178533D01*
X193665600Y-80178533D02*
X193665600Y-80292819D01*
X193665600Y-79683294D02*
X193132266Y-79683294D01*
X193208457Y-79683294D02*
X193170362Y-79645199D01*
X193170362Y-79645199D02*
X193132266Y-79569009D01*
X193132266Y-79569009D02*
X193132266Y-79454723D01*
X193132266Y-79454723D02*
X193170362Y-79378532D01*
X193170362Y-79378532D02*
X193246552Y-79340437D01*
X193246552Y-79340437D02*
X193665600Y-79340437D01*
X193246552Y-79340437D02*
X193170362Y-79302342D01*
X193170362Y-79302342D02*
X193132266Y-79226151D01*
X193132266Y-79226151D02*
X193132266Y-79111866D01*
X193132266Y-79111866D02*
X193170362Y-79035675D01*
X193170362Y-79035675D02*
X193246552Y-78997580D01*
X193246552Y-78997580D02*
X193665600Y-78997580D01*
X193665600Y-77892818D02*
X193627505Y-77969008D01*
X193627505Y-77969008D02*
X193589409Y-78007103D01*
X193589409Y-78007103D02*
X193513219Y-78045199D01*
X193513219Y-78045199D02*
X193284647Y-78045199D01*
X193284647Y-78045199D02*
X193208457Y-78007103D01*
X193208457Y-78007103D02*
X193170362Y-77969008D01*
X193170362Y-77969008D02*
X193132266Y-77892818D01*
X193132266Y-77892818D02*
X193132266Y-77778532D01*
X193132266Y-77778532D02*
X193170362Y-77702341D01*
X193170362Y-77702341D02*
X193208457Y-77664246D01*
X193208457Y-77664246D02*
X193284647Y-77626151D01*
X193284647Y-77626151D02*
X193513219Y-77626151D01*
X193513219Y-77626151D02*
X193589409Y-77664246D01*
X193589409Y-77664246D02*
X193627505Y-77702341D01*
X193627505Y-77702341D02*
X193665600Y-77778532D01*
X193665600Y-77778532D02*
X193665600Y-77892818D01*
X193132266Y-77283293D02*
X193665600Y-77283293D01*
X193208457Y-77283293D02*
X193170362Y-77245198D01*
X193170362Y-77245198D02*
X193132266Y-77169008D01*
X193132266Y-77169008D02*
X193132266Y-77054722D01*
X193132266Y-77054722D02*
X193170362Y-76978531D01*
X193170362Y-76978531D02*
X193246552Y-76940436D01*
X193246552Y-76940436D02*
X193665600Y-76940436D01*
X193665600Y-75949959D02*
X193132266Y-75949959D01*
X193284647Y-75949959D02*
X193208457Y-75911864D01*
X193208457Y-75911864D02*
X193170362Y-75873769D01*
X193170362Y-75873769D02*
X193132266Y-75797578D01*
X193132266Y-75797578D02*
X193132266Y-75721388D01*
X193665600Y-75340436D02*
X193627505Y-75416626D01*
X193627505Y-75416626D02*
X193589409Y-75454721D01*
X193589409Y-75454721D02*
X193513219Y-75492817D01*
X193513219Y-75492817D02*
X193284647Y-75492817D01*
X193284647Y-75492817D02*
X193208457Y-75454721D01*
X193208457Y-75454721D02*
X193170362Y-75416626D01*
X193170362Y-75416626D02*
X193132266Y-75340436D01*
X193132266Y-75340436D02*
X193132266Y-75226150D01*
X193132266Y-75226150D02*
X193170362Y-75149959D01*
X193170362Y-75149959D02*
X193208457Y-75111864D01*
X193208457Y-75111864D02*
X193284647Y-75073769D01*
X193284647Y-75073769D02*
X193513219Y-75073769D01*
X193513219Y-75073769D02*
X193589409Y-75111864D01*
X193589409Y-75111864D02*
X193627505Y-75149959D01*
X193627505Y-75149959D02*
X193665600Y-75226150D01*
X193665600Y-75226150D02*
X193665600Y-75340436D01*
X193132266Y-74807102D02*
X193665600Y-74654721D01*
X193665600Y-74654721D02*
X193284647Y-74502340D01*
X193284647Y-74502340D02*
X193665600Y-74349959D01*
X193665600Y-74349959D02*
X193132266Y-74197578D01*
X193665600Y-73473769D02*
X193665600Y-73930912D01*
X193665600Y-73702340D02*
X192865600Y-73702340D01*
X192865600Y-73702340D02*
X192979885Y-73778531D01*
X192979885Y-73778531D02*
X193056076Y-73854721D01*
X193056076Y-73854721D02*
X193094171Y-73930912D01*
X191546303Y-92494295D02*
X191279636Y-92113342D01*
X191089160Y-92494295D02*
X191089160Y-91694295D01*
X191089160Y-91694295D02*
X191393922Y-91694295D01*
X191393922Y-91694295D02*
X191470112Y-91732390D01*
X191470112Y-91732390D02*
X191508207Y-91770485D01*
X191508207Y-91770485D02*
X191546303Y-91846676D01*
X191546303Y-91846676D02*
X191546303Y-91960961D01*
X191546303Y-91960961D02*
X191508207Y-92037152D01*
X191508207Y-92037152D02*
X191470112Y-92075247D01*
X191470112Y-92075247D02*
X191393922Y-92113342D01*
X191393922Y-92113342D02*
X191089160Y-92113342D01*
X200155753Y-61724235D02*
X199355753Y-61724235D01*
X199355753Y-61724235D02*
X199355753Y-61533759D01*
X199355753Y-61533759D02*
X199393848Y-61419473D01*
X199393848Y-61419473D02*
X199470038Y-61343283D01*
X199470038Y-61343283D02*
X199546229Y-61305188D01*
X199546229Y-61305188D02*
X199698610Y-61267092D01*
X199698610Y-61267092D02*
X199812896Y-61267092D01*
X199812896Y-61267092D02*
X199965277Y-61305188D01*
X199965277Y-61305188D02*
X200041467Y-61343283D01*
X200041467Y-61343283D02*
X200117658Y-61419473D01*
X200117658Y-61419473D02*
X200155753Y-61533759D01*
X200155753Y-61533759D02*
X200155753Y-61724235D01*
X200076109Y-72581238D02*
X199276109Y-72581238D01*
X199276109Y-72581238D02*
X199276109Y-72390762D01*
X199276109Y-72390762D02*
X199314204Y-72276476D01*
X199314204Y-72276476D02*
X199390394Y-72200286D01*
X199390394Y-72200286D02*
X199466585Y-72162191D01*
X199466585Y-72162191D02*
X199618966Y-72124095D01*
X199618966Y-72124095D02*
X199733252Y-72124095D01*
X199733252Y-72124095D02*
X199885633Y-72162191D01*
X199885633Y-72162191D02*
X199961823Y-72200286D01*
X199961823Y-72200286D02*
X200038014Y-72276476D01*
X200038014Y-72276476D02*
X200076109Y-72390762D01*
X200076109Y-72390762D02*
X200076109Y-72581238D01*
X217051064Y-105225723D02*
X217432017Y-105225723D01*
X216974874Y-105454295D02*
X217241541Y-104654295D01*
X217241541Y-104654295D02*
X217508207Y-105454295D01*
X217774874Y-105454295D02*
X217774874Y-104654295D01*
X217774874Y-104654295D02*
X218232017Y-105454295D01*
X218232017Y-105454295D02*
X218232017Y-104654295D01*
X218574873Y-105225723D02*
X218955826Y-105225723D01*
X218498683Y-105454295D02*
X218765350Y-104654295D01*
X218765350Y-104654295D02*
X219032016Y-105454295D01*
X219679635Y-105454295D02*
X219298683Y-105454295D01*
X219298683Y-105454295D02*
X219298683Y-104654295D01*
X220098683Y-104654295D02*
X220251064Y-104654295D01*
X220251064Y-104654295D02*
X220327254Y-104692390D01*
X220327254Y-104692390D02*
X220403445Y-104768580D01*
X220403445Y-104768580D02*
X220441540Y-104920961D01*
X220441540Y-104920961D02*
X220441540Y-105187628D01*
X220441540Y-105187628D02*
X220403445Y-105340009D01*
X220403445Y-105340009D02*
X220327254Y-105416200D01*
X220327254Y-105416200D02*
X220251064Y-105454295D01*
X220251064Y-105454295D02*
X220098683Y-105454295D01*
X220098683Y-105454295D02*
X220022492Y-105416200D01*
X220022492Y-105416200D02*
X219946302Y-105340009D01*
X219946302Y-105340009D02*
X219908206Y-105187628D01*
X219908206Y-105187628D02*
X219908206Y-104920961D01*
X219908206Y-104920961D02*
X219946302Y-104768580D01*
X219946302Y-104768580D02*
X220022492Y-104692390D01*
X220022492Y-104692390D02*
X220098683Y-104654295D01*
X221203444Y-104692390D02*
X221127254Y-104654295D01*
X221127254Y-104654295D02*
X221012968Y-104654295D01*
X221012968Y-104654295D02*
X220898682Y-104692390D01*
X220898682Y-104692390D02*
X220822492Y-104768580D01*
X220822492Y-104768580D02*
X220784397Y-104844771D01*
X220784397Y-104844771D02*
X220746301Y-104997152D01*
X220746301Y-104997152D02*
X220746301Y-105111438D01*
X220746301Y-105111438D02*
X220784397Y-105263819D01*
X220784397Y-105263819D02*
X220822492Y-105340009D01*
X220822492Y-105340009D02*
X220898682Y-105416200D01*
X220898682Y-105416200D02*
X221012968Y-105454295D01*
X221012968Y-105454295D02*
X221089159Y-105454295D01*
X221089159Y-105454295D02*
X221203444Y-105416200D01*
X221203444Y-105416200D02*
X221241540Y-105378104D01*
X221241540Y-105378104D02*
X221241540Y-105111438D01*
X221241540Y-105111438D02*
X221089159Y-105111438D01*
X222155825Y-105416200D02*
X222270111Y-105454295D01*
X222270111Y-105454295D02*
X222460587Y-105454295D01*
X222460587Y-105454295D02*
X222536778Y-105416200D01*
X222536778Y-105416200D02*
X222574873Y-105378104D01*
X222574873Y-105378104D02*
X222612968Y-105301914D01*
X222612968Y-105301914D02*
X222612968Y-105225723D01*
X222612968Y-105225723D02*
X222574873Y-105149533D01*
X222574873Y-105149533D02*
X222536778Y-105111438D01*
X222536778Y-105111438D02*
X222460587Y-105073342D01*
X222460587Y-105073342D02*
X222308206Y-105035247D01*
X222308206Y-105035247D02*
X222232016Y-104997152D01*
X222232016Y-104997152D02*
X222193921Y-104959057D01*
X222193921Y-104959057D02*
X222155825Y-104882866D01*
X222155825Y-104882866D02*
X222155825Y-104806676D01*
X222155825Y-104806676D02*
X222193921Y-104730485D01*
X222193921Y-104730485D02*
X222232016Y-104692390D01*
X222232016Y-104692390D02*
X222308206Y-104654295D01*
X222308206Y-104654295D02*
X222498683Y-104654295D01*
X222498683Y-104654295D02*
X222612968Y-104692390D01*
X222955826Y-105035247D02*
X223222492Y-105035247D01*
X223336778Y-105454295D02*
X222955826Y-105454295D01*
X222955826Y-105454295D02*
X222955826Y-104654295D01*
X222955826Y-104654295D02*
X223336778Y-104654295D01*
X223679636Y-105454295D02*
X223679636Y-104654295D01*
X223679636Y-104654295D02*
X224136779Y-105454295D01*
X224136779Y-105454295D02*
X224136779Y-104654295D01*
X224479635Y-105416200D02*
X224593921Y-105454295D01*
X224593921Y-105454295D02*
X224784397Y-105454295D01*
X224784397Y-105454295D02*
X224860588Y-105416200D01*
X224860588Y-105416200D02*
X224898683Y-105378104D01*
X224898683Y-105378104D02*
X224936778Y-105301914D01*
X224936778Y-105301914D02*
X224936778Y-105225723D01*
X224936778Y-105225723D02*
X224898683Y-105149533D01*
X224898683Y-105149533D02*
X224860588Y-105111438D01*
X224860588Y-105111438D02*
X224784397Y-105073342D01*
X224784397Y-105073342D02*
X224632016Y-105035247D01*
X224632016Y-105035247D02*
X224555826Y-104997152D01*
X224555826Y-104997152D02*
X224517731Y-104959057D01*
X224517731Y-104959057D02*
X224479635Y-104882866D01*
X224479635Y-104882866D02*
X224479635Y-104806676D01*
X224479635Y-104806676D02*
X224517731Y-104730485D01*
X224517731Y-104730485D02*
X224555826Y-104692390D01*
X224555826Y-104692390D02*
X224632016Y-104654295D01*
X224632016Y-104654295D02*
X224822493Y-104654295D01*
X224822493Y-104654295D02*
X224936778Y-104692390D01*
X225432017Y-104654295D02*
X225584398Y-104654295D01*
X225584398Y-104654295D02*
X225660588Y-104692390D01*
X225660588Y-104692390D02*
X225736779Y-104768580D01*
X225736779Y-104768580D02*
X225774874Y-104920961D01*
X225774874Y-104920961D02*
X225774874Y-105187628D01*
X225774874Y-105187628D02*
X225736779Y-105340009D01*
X225736779Y-105340009D02*
X225660588Y-105416200D01*
X225660588Y-105416200D02*
X225584398Y-105454295D01*
X225584398Y-105454295D02*
X225432017Y-105454295D01*
X225432017Y-105454295D02*
X225355826Y-105416200D01*
X225355826Y-105416200D02*
X225279636Y-105340009D01*
X225279636Y-105340009D02*
X225241540Y-105187628D01*
X225241540Y-105187628D02*
X225241540Y-104920961D01*
X225241540Y-104920961D02*
X225279636Y-104768580D01*
X225279636Y-104768580D02*
X225355826Y-104692390D01*
X225355826Y-104692390D02*
X225432017Y-104654295D01*
X226574874Y-105454295D02*
X226308207Y-105073342D01*
X226117731Y-105454295D02*
X226117731Y-104654295D01*
X226117731Y-104654295D02*
X226422493Y-104654295D01*
X226422493Y-104654295D02*
X226498683Y-104692390D01*
X226498683Y-104692390D02*
X226536778Y-104730485D01*
X226536778Y-104730485D02*
X226574874Y-104806676D01*
X226574874Y-104806676D02*
X226574874Y-104920961D01*
X226574874Y-104920961D02*
X226536778Y-104997152D01*
X226536778Y-104997152D02*
X226498683Y-105035247D01*
X226498683Y-105035247D02*
X226422493Y-105073342D01*
X226422493Y-105073342D02*
X226117731Y-105073342D01*
X226879635Y-105416200D02*
X226993921Y-105454295D01*
X226993921Y-105454295D02*
X227184397Y-105454295D01*
X227184397Y-105454295D02*
X227260588Y-105416200D01*
X227260588Y-105416200D02*
X227298683Y-105378104D01*
X227298683Y-105378104D02*
X227336778Y-105301914D01*
X227336778Y-105301914D02*
X227336778Y-105225723D01*
X227336778Y-105225723D02*
X227298683Y-105149533D01*
X227298683Y-105149533D02*
X227260588Y-105111438D01*
X227260588Y-105111438D02*
X227184397Y-105073342D01*
X227184397Y-105073342D02*
X227032016Y-105035247D01*
X227032016Y-105035247D02*
X226955826Y-104997152D01*
X226955826Y-104997152D02*
X226917731Y-104959057D01*
X226917731Y-104959057D02*
X226879635Y-104882866D01*
X226879635Y-104882866D02*
X226879635Y-104806676D01*
X226879635Y-104806676D02*
X226917731Y-104730485D01*
X226917731Y-104730485D02*
X226955826Y-104692390D01*
X226955826Y-104692390D02*
X227032016Y-104654295D01*
X227032016Y-104654295D02*
X227222493Y-104654295D01*
X227222493Y-104654295D02*
X227336778Y-104692390D01*
X203901674Y-62715931D02*
X203901674Y-62220693D01*
X203901674Y-62220693D02*
X204206436Y-62487359D01*
X204206436Y-62487359D02*
X204206436Y-62373074D01*
X204206436Y-62373074D02*
X204244531Y-62296883D01*
X204244531Y-62296883D02*
X204282626Y-62258788D01*
X204282626Y-62258788D02*
X204358817Y-62220693D01*
X204358817Y-62220693D02*
X204549293Y-62220693D01*
X204549293Y-62220693D02*
X204625483Y-62258788D01*
X204625483Y-62258788D02*
X204663579Y-62296883D01*
X204663579Y-62296883D02*
X204701674Y-62373074D01*
X204701674Y-62373074D02*
X204701674Y-62601645D01*
X204701674Y-62601645D02*
X204663579Y-62677836D01*
X204663579Y-62677836D02*
X204625483Y-62715931D01*
X204625483Y-61877835D02*
X204663579Y-61839740D01*
X204663579Y-61839740D02*
X204701674Y-61877835D01*
X204701674Y-61877835D02*
X204663579Y-61915931D01*
X204663579Y-61915931D02*
X204625483Y-61877835D01*
X204625483Y-61877835D02*
X204701674Y-61877835D01*
X203901674Y-61573074D02*
X203901674Y-61077836D01*
X203901674Y-61077836D02*
X204206436Y-61344502D01*
X204206436Y-61344502D02*
X204206436Y-61230217D01*
X204206436Y-61230217D02*
X204244531Y-61154026D01*
X204244531Y-61154026D02*
X204282626Y-61115931D01*
X204282626Y-61115931D02*
X204358817Y-61077836D01*
X204358817Y-61077836D02*
X204549293Y-61077836D01*
X204549293Y-61077836D02*
X204625483Y-61115931D01*
X204625483Y-61115931D02*
X204663579Y-61154026D01*
X204663579Y-61154026D02*
X204701674Y-61230217D01*
X204701674Y-61230217D02*
X204701674Y-61458788D01*
X204701674Y-61458788D02*
X204663579Y-61534979D01*
X204663579Y-61534979D02*
X204625483Y-61573074D01*
X203901674Y-60849264D02*
X204701674Y-60582597D01*
X204701674Y-60582597D02*
X203901674Y-60315931D01*
X205227724Y-62220693D02*
X205189629Y-62296883D01*
X205189629Y-62296883D02*
X205189629Y-62411169D01*
X205189629Y-62411169D02*
X205227724Y-62525455D01*
X205227724Y-62525455D02*
X205303914Y-62601645D01*
X205303914Y-62601645D02*
X205380105Y-62639740D01*
X205380105Y-62639740D02*
X205532486Y-62677836D01*
X205532486Y-62677836D02*
X205646772Y-62677836D01*
X205646772Y-62677836D02*
X205799153Y-62639740D01*
X205799153Y-62639740D02*
X205875343Y-62601645D01*
X205875343Y-62601645D02*
X205951534Y-62525455D01*
X205951534Y-62525455D02*
X205989629Y-62411169D01*
X205989629Y-62411169D02*
X205989629Y-62334978D01*
X205989629Y-62334978D02*
X205951534Y-62220693D01*
X205951534Y-62220693D02*
X205913438Y-62182597D01*
X205913438Y-62182597D02*
X205646772Y-62182597D01*
X205646772Y-62182597D02*
X205646772Y-62334978D01*
X205989629Y-61839740D02*
X205189629Y-61839740D01*
X205189629Y-61839740D02*
X205989629Y-61382597D01*
X205989629Y-61382597D02*
X205189629Y-61382597D01*
X205989629Y-61001645D02*
X205189629Y-61001645D01*
X205189629Y-61001645D02*
X205189629Y-60811169D01*
X205189629Y-60811169D02*
X205227724Y-60696883D01*
X205227724Y-60696883D02*
X205303914Y-60620693D01*
X205303914Y-60620693D02*
X205380105Y-60582598D01*
X205380105Y-60582598D02*
X205532486Y-60544502D01*
X205532486Y-60544502D02*
X205646772Y-60544502D01*
X205646772Y-60544502D02*
X205799153Y-60582598D01*
X205799153Y-60582598D02*
X205875343Y-60620693D01*
X205875343Y-60620693D02*
X205951534Y-60696883D01*
X205951534Y-60696883D02*
X205989629Y-60811169D01*
X205989629Y-60811169D02*
X205989629Y-61001645D01*
X207239489Y-62677836D02*
X207277584Y-62563550D01*
X207277584Y-62563550D02*
X207277584Y-62373074D01*
X207277584Y-62373074D02*
X207239489Y-62296883D01*
X207239489Y-62296883D02*
X207201393Y-62258788D01*
X207201393Y-62258788D02*
X207125203Y-62220693D01*
X207125203Y-62220693D02*
X207049012Y-62220693D01*
X207049012Y-62220693D02*
X206972822Y-62258788D01*
X206972822Y-62258788D02*
X206934727Y-62296883D01*
X206934727Y-62296883D02*
X206896631Y-62373074D01*
X206896631Y-62373074D02*
X206858536Y-62525455D01*
X206858536Y-62525455D02*
X206820441Y-62601645D01*
X206820441Y-62601645D02*
X206782346Y-62639740D01*
X206782346Y-62639740D02*
X206706155Y-62677836D01*
X206706155Y-62677836D02*
X206629965Y-62677836D01*
X206629965Y-62677836D02*
X206553774Y-62639740D01*
X206553774Y-62639740D02*
X206515679Y-62601645D01*
X206515679Y-62601645D02*
X206477584Y-62525455D01*
X206477584Y-62525455D02*
X206477584Y-62334978D01*
X206477584Y-62334978D02*
X206515679Y-62220693D01*
X207201393Y-61420692D02*
X207239489Y-61458788D01*
X207239489Y-61458788D02*
X207277584Y-61573073D01*
X207277584Y-61573073D02*
X207277584Y-61649264D01*
X207277584Y-61649264D02*
X207239489Y-61763550D01*
X207239489Y-61763550D02*
X207163298Y-61839740D01*
X207163298Y-61839740D02*
X207087108Y-61877835D01*
X207087108Y-61877835D02*
X206934727Y-61915931D01*
X206934727Y-61915931D02*
X206820441Y-61915931D01*
X206820441Y-61915931D02*
X206668060Y-61877835D01*
X206668060Y-61877835D02*
X206591869Y-61839740D01*
X206591869Y-61839740D02*
X206515679Y-61763550D01*
X206515679Y-61763550D02*
X206477584Y-61649264D01*
X206477584Y-61649264D02*
X206477584Y-61573073D01*
X206477584Y-61573073D02*
X206515679Y-61458788D01*
X206515679Y-61458788D02*
X206553774Y-61420692D01*
X207277584Y-60696883D02*
X207277584Y-61077835D01*
X207277584Y-61077835D02*
X206477584Y-61077835D01*
X208527444Y-62677836D02*
X208565539Y-62563550D01*
X208565539Y-62563550D02*
X208565539Y-62373074D01*
X208565539Y-62373074D02*
X208527444Y-62296883D01*
X208527444Y-62296883D02*
X208489348Y-62258788D01*
X208489348Y-62258788D02*
X208413158Y-62220693D01*
X208413158Y-62220693D02*
X208336967Y-62220693D01*
X208336967Y-62220693D02*
X208260777Y-62258788D01*
X208260777Y-62258788D02*
X208222682Y-62296883D01*
X208222682Y-62296883D02*
X208184586Y-62373074D01*
X208184586Y-62373074D02*
X208146491Y-62525455D01*
X208146491Y-62525455D02*
X208108396Y-62601645D01*
X208108396Y-62601645D02*
X208070301Y-62639740D01*
X208070301Y-62639740D02*
X207994110Y-62677836D01*
X207994110Y-62677836D02*
X207917920Y-62677836D01*
X207917920Y-62677836D02*
X207841729Y-62639740D01*
X207841729Y-62639740D02*
X207803634Y-62601645D01*
X207803634Y-62601645D02*
X207765539Y-62525455D01*
X207765539Y-62525455D02*
X207765539Y-62334978D01*
X207765539Y-62334978D02*
X207803634Y-62220693D01*
X208565539Y-61877835D02*
X207765539Y-61877835D01*
X207765539Y-61877835D02*
X207765539Y-61687359D01*
X207765539Y-61687359D02*
X207803634Y-61573073D01*
X207803634Y-61573073D02*
X207879824Y-61496883D01*
X207879824Y-61496883D02*
X207956015Y-61458788D01*
X207956015Y-61458788D02*
X208108396Y-61420692D01*
X208108396Y-61420692D02*
X208222682Y-61420692D01*
X208222682Y-61420692D02*
X208375063Y-61458788D01*
X208375063Y-61458788D02*
X208451253Y-61496883D01*
X208451253Y-61496883D02*
X208527444Y-61573073D01*
X208527444Y-61573073D02*
X208565539Y-61687359D01*
X208565539Y-61687359D02*
X208565539Y-61877835D01*
X208336967Y-61115931D02*
X208336967Y-60734978D01*
X208565539Y-61192121D02*
X207765539Y-60925454D01*
X207765539Y-60925454D02*
X208565539Y-60658788D01*
X181346303Y-70694295D02*
X181079636Y-70313342D01*
X180889160Y-70694295D02*
X180889160Y-69894295D01*
X180889160Y-69894295D02*
X181193922Y-69894295D01*
X181193922Y-69894295D02*
X181270112Y-69932390D01*
X181270112Y-69932390D02*
X181308207Y-69970485D01*
X181308207Y-69970485D02*
X181346303Y-70046676D01*
X181346303Y-70046676D02*
X181346303Y-70160961D01*
X181346303Y-70160961D02*
X181308207Y-70237152D01*
X181308207Y-70237152D02*
X181270112Y-70275247D01*
X181270112Y-70275247D02*
X181193922Y-70313342D01*
X181193922Y-70313342D02*
X180889160Y-70313342D01*
X181803445Y-70694295D02*
X181727255Y-70656200D01*
X181727255Y-70656200D02*
X181689160Y-70618104D01*
X181689160Y-70618104D02*
X181651064Y-70541914D01*
X181651064Y-70541914D02*
X181651064Y-70313342D01*
X181651064Y-70313342D02*
X181689160Y-70237152D01*
X181689160Y-70237152D02*
X181727255Y-70199057D01*
X181727255Y-70199057D02*
X181803445Y-70160961D01*
X181803445Y-70160961D02*
X181917731Y-70160961D01*
X181917731Y-70160961D02*
X181993922Y-70199057D01*
X181993922Y-70199057D02*
X182032017Y-70237152D01*
X182032017Y-70237152D02*
X182070112Y-70313342D01*
X182070112Y-70313342D02*
X182070112Y-70541914D01*
X182070112Y-70541914D02*
X182032017Y-70618104D01*
X182032017Y-70618104D02*
X181993922Y-70656200D01*
X181993922Y-70656200D02*
X181917731Y-70694295D01*
X181917731Y-70694295D02*
X181803445Y-70694295D01*
X182336779Y-70160961D02*
X182489160Y-70694295D01*
X182489160Y-70694295D02*
X182641541Y-70313342D01*
X182641541Y-70313342D02*
X182793922Y-70694295D01*
X182793922Y-70694295D02*
X182946303Y-70160961D01*
X183670112Y-70694295D02*
X183212969Y-70694295D01*
X183441541Y-70694295D02*
X183441541Y-69894295D01*
X183441541Y-69894295D02*
X183365350Y-70008580D01*
X183365350Y-70008580D02*
X183289160Y-70084771D01*
X183289160Y-70084771D02*
X183212969Y-70122866D01*
X186470112Y-69094295D02*
X186089160Y-69094295D01*
X186089160Y-69094295D02*
X186089160Y-68294295D01*
X186736779Y-68675247D02*
X187003445Y-68675247D01*
X187117731Y-69094295D02*
X186736779Y-69094295D01*
X186736779Y-69094295D02*
X186736779Y-68294295D01*
X186736779Y-68294295D02*
X187117731Y-68294295D01*
X187460589Y-69094295D02*
X187460589Y-68294295D01*
X187460589Y-68294295D02*
X187651065Y-68294295D01*
X187651065Y-68294295D02*
X187765351Y-68332390D01*
X187765351Y-68332390D02*
X187841541Y-68408580D01*
X187841541Y-68408580D02*
X187879636Y-68484771D01*
X187879636Y-68484771D02*
X187917732Y-68637152D01*
X187917732Y-68637152D02*
X187917732Y-68751438D01*
X187917732Y-68751438D02*
X187879636Y-68903819D01*
X187879636Y-68903819D02*
X187841541Y-68980009D01*
X187841541Y-68980009D02*
X187765351Y-69056200D01*
X187765351Y-69056200D02*
X187651065Y-69094295D01*
X187651065Y-69094295D02*
X187460589Y-69094295D01*
X214739713Y-93095915D02*
X214663523Y-93057820D01*
X214663523Y-93057820D02*
X214549237Y-93057820D01*
X214549237Y-93057820D02*
X214434951Y-93095915D01*
X214434951Y-93095915D02*
X214358761Y-93172105D01*
X214358761Y-93172105D02*
X214320666Y-93248296D01*
X214320666Y-93248296D02*
X214282570Y-93400677D01*
X214282570Y-93400677D02*
X214282570Y-93514963D01*
X214282570Y-93514963D02*
X214320666Y-93667344D01*
X214320666Y-93667344D02*
X214358761Y-93743534D01*
X214358761Y-93743534D02*
X214434951Y-93819725D01*
X214434951Y-93819725D02*
X214549237Y-93857820D01*
X214549237Y-93857820D02*
X214625428Y-93857820D01*
X214625428Y-93857820D02*
X214739713Y-93819725D01*
X214739713Y-93819725D02*
X214777809Y-93781629D01*
X214777809Y-93781629D02*
X214777809Y-93514963D01*
X214777809Y-93514963D02*
X214625428Y-93514963D01*
X215120666Y-93857820D02*
X215120666Y-93057820D01*
X215120666Y-93057820D02*
X215425428Y-93057820D01*
X215425428Y-93057820D02*
X215501618Y-93095915D01*
X215501618Y-93095915D02*
X215539713Y-93134010D01*
X215539713Y-93134010D02*
X215577809Y-93210201D01*
X215577809Y-93210201D02*
X215577809Y-93324486D01*
X215577809Y-93324486D02*
X215539713Y-93400677D01*
X215539713Y-93400677D02*
X215501618Y-93438772D01*
X215501618Y-93438772D02*
X215425428Y-93476867D01*
X215425428Y-93476867D02*
X215120666Y-93476867D01*
X215920666Y-93857820D02*
X215920666Y-93057820D01*
X216453999Y-93057820D02*
X216606380Y-93057820D01*
X216606380Y-93057820D02*
X216682570Y-93095915D01*
X216682570Y-93095915D02*
X216758761Y-93172105D01*
X216758761Y-93172105D02*
X216796856Y-93324486D01*
X216796856Y-93324486D02*
X216796856Y-93591153D01*
X216796856Y-93591153D02*
X216758761Y-93743534D01*
X216758761Y-93743534D02*
X216682570Y-93819725D01*
X216682570Y-93819725D02*
X216606380Y-93857820D01*
X216606380Y-93857820D02*
X216453999Y-93857820D01*
X216453999Y-93857820D02*
X216377808Y-93819725D01*
X216377808Y-93819725D02*
X216301618Y-93743534D01*
X216301618Y-93743534D02*
X216263522Y-93591153D01*
X216263522Y-93591153D02*
X216263522Y-93324486D01*
X216263522Y-93324486D02*
X216301618Y-93172105D01*
X216301618Y-93172105D02*
X216377808Y-93095915D01*
X216377808Y-93095915D02*
X216453999Y-93057820D01*
X217482570Y-93324486D02*
X217482570Y-93857820D01*
X217292094Y-93019725D02*
X217101617Y-93591153D01*
X217101617Y-93591153D02*
X217596856Y-93591153D01*
X184346303Y-70694295D02*
X184079636Y-70313342D01*
X183889160Y-70694295D02*
X183889160Y-69894295D01*
X183889160Y-69894295D02*
X184193922Y-69894295D01*
X184193922Y-69894295D02*
X184270112Y-69932390D01*
X184270112Y-69932390D02*
X184308207Y-69970485D01*
X184308207Y-69970485D02*
X184346303Y-70046676D01*
X184346303Y-70046676D02*
X184346303Y-70160961D01*
X184346303Y-70160961D02*
X184308207Y-70237152D01*
X184308207Y-70237152D02*
X184270112Y-70275247D01*
X184270112Y-70275247D02*
X184193922Y-70313342D01*
X184193922Y-70313342D02*
X183889160Y-70313342D01*
X184803445Y-70694295D02*
X184727255Y-70656200D01*
X184727255Y-70656200D02*
X184689160Y-70618104D01*
X184689160Y-70618104D02*
X184651064Y-70541914D01*
X184651064Y-70541914D02*
X184651064Y-70313342D01*
X184651064Y-70313342D02*
X184689160Y-70237152D01*
X184689160Y-70237152D02*
X184727255Y-70199057D01*
X184727255Y-70199057D02*
X184803445Y-70160961D01*
X184803445Y-70160961D02*
X184917731Y-70160961D01*
X184917731Y-70160961D02*
X184993922Y-70199057D01*
X184993922Y-70199057D02*
X185032017Y-70237152D01*
X185032017Y-70237152D02*
X185070112Y-70313342D01*
X185070112Y-70313342D02*
X185070112Y-70541914D01*
X185070112Y-70541914D02*
X185032017Y-70618104D01*
X185032017Y-70618104D02*
X184993922Y-70656200D01*
X184993922Y-70656200D02*
X184917731Y-70694295D01*
X184917731Y-70694295D02*
X184803445Y-70694295D01*
X185336779Y-70160961D02*
X185489160Y-70694295D01*
X185489160Y-70694295D02*
X185641541Y-70313342D01*
X185641541Y-70313342D02*
X185793922Y-70694295D01*
X185793922Y-70694295D02*
X185946303Y-70160961D01*
X186212969Y-69970485D02*
X186251065Y-69932390D01*
X186251065Y-69932390D02*
X186327255Y-69894295D01*
X186327255Y-69894295D02*
X186517731Y-69894295D01*
X186517731Y-69894295D02*
X186593922Y-69932390D01*
X186593922Y-69932390D02*
X186632017Y-69970485D01*
X186632017Y-69970485D02*
X186670112Y-70046676D01*
X186670112Y-70046676D02*
X186670112Y-70122866D01*
X186670112Y-70122866D02*
X186632017Y-70237152D01*
X186632017Y-70237152D02*
X186174874Y-70694295D01*
X186174874Y-70694295D02*
X186670112Y-70694295D01*
X210394295Y-79953696D02*
X210013342Y-80220363D01*
X210394295Y-80410839D02*
X209594295Y-80410839D01*
X209594295Y-80410839D02*
X209594295Y-80106077D01*
X209594295Y-80106077D02*
X209632390Y-80029887D01*
X209632390Y-80029887D02*
X209670485Y-79991792D01*
X209670485Y-79991792D02*
X209746676Y-79953696D01*
X209746676Y-79953696D02*
X209860961Y-79953696D01*
X209860961Y-79953696D02*
X209937152Y-79991792D01*
X209937152Y-79991792D02*
X209975247Y-80029887D01*
X209975247Y-80029887D02*
X210013342Y-80106077D01*
X210013342Y-80106077D02*
X210013342Y-80410839D01*
X210356200Y-79648935D02*
X210394295Y-79534649D01*
X210394295Y-79534649D02*
X210394295Y-79344173D01*
X210394295Y-79344173D02*
X210356200Y-79267982D01*
X210356200Y-79267982D02*
X210318104Y-79229887D01*
X210318104Y-79229887D02*
X210241914Y-79191792D01*
X210241914Y-79191792D02*
X210165723Y-79191792D01*
X210165723Y-79191792D02*
X210089533Y-79229887D01*
X210089533Y-79229887D02*
X210051438Y-79267982D01*
X210051438Y-79267982D02*
X210013342Y-79344173D01*
X210013342Y-79344173D02*
X209975247Y-79496554D01*
X209975247Y-79496554D02*
X209937152Y-79572744D01*
X209937152Y-79572744D02*
X209899057Y-79610839D01*
X209899057Y-79610839D02*
X209822866Y-79648935D01*
X209822866Y-79648935D02*
X209746676Y-79648935D01*
X209746676Y-79648935D02*
X209670485Y-79610839D01*
X209670485Y-79610839D02*
X209632390Y-79572744D01*
X209632390Y-79572744D02*
X209594295Y-79496554D01*
X209594295Y-79496554D02*
X209594295Y-79306077D01*
X209594295Y-79306077D02*
X209632390Y-79191792D01*
X209594295Y-78963220D02*
X209594295Y-78506077D01*
X210394295Y-78734649D02*
X209594295Y-78734649D01*
X186955826Y-92075247D02*
X186689160Y-92075247D01*
X186689160Y-92494295D02*
X186689160Y-91694295D01*
X186689160Y-91694295D02*
X187070112Y-91694295D01*
X187641540Y-92075247D02*
X187755826Y-92113342D01*
X187755826Y-92113342D02*
X187793921Y-92151438D01*
X187793921Y-92151438D02*
X187832017Y-92227628D01*
X187832017Y-92227628D02*
X187832017Y-92341914D01*
X187832017Y-92341914D02*
X187793921Y-92418104D01*
X187793921Y-92418104D02*
X187755826Y-92456200D01*
X187755826Y-92456200D02*
X187679636Y-92494295D01*
X187679636Y-92494295D02*
X187374874Y-92494295D01*
X187374874Y-92494295D02*
X187374874Y-91694295D01*
X187374874Y-91694295D02*
X187641540Y-91694295D01*
X187641540Y-91694295D02*
X187717731Y-91732390D01*
X187717731Y-91732390D02*
X187755826Y-91770485D01*
X187755826Y-91770485D02*
X187793921Y-91846676D01*
X187793921Y-91846676D02*
X187793921Y-91922866D01*
X187793921Y-91922866D02*
X187755826Y-91999057D01*
X187755826Y-91999057D02*
X187717731Y-92037152D01*
X187717731Y-92037152D02*
X187641540Y-92075247D01*
X187641540Y-92075247D02*
X187374874Y-92075247D01*
X223089160Y-82868318D02*
X223089160Y-82068318D01*
X223089160Y-82068318D02*
X223393922Y-82068318D01*
X223393922Y-82068318D02*
X223470112Y-82106413D01*
X223470112Y-82106413D02*
X223508207Y-82144508D01*
X223508207Y-82144508D02*
X223546303Y-82220699D01*
X223546303Y-82220699D02*
X223546303Y-82334984D01*
X223546303Y-82334984D02*
X223508207Y-82411175D01*
X223508207Y-82411175D02*
X223470112Y-82449270D01*
X223470112Y-82449270D02*
X223393922Y-82487365D01*
X223393922Y-82487365D02*
X223089160Y-82487365D01*
X224232017Y-82334984D02*
X224232017Y-82868318D01*
X223889160Y-82334984D02*
X223889160Y-82754032D01*
X223889160Y-82754032D02*
X223927255Y-82830223D01*
X223927255Y-82830223D02*
X224003445Y-82868318D01*
X224003445Y-82868318D02*
X224117731Y-82868318D01*
X224117731Y-82868318D02*
X224193922Y-82830223D01*
X224193922Y-82830223D02*
X224232017Y-82792127D01*
X224727255Y-82868318D02*
X224651065Y-82830223D01*
X224651065Y-82830223D02*
X224612970Y-82754032D01*
X224612970Y-82754032D02*
X224612970Y-82068318D01*
X225146303Y-82868318D02*
X225070113Y-82830223D01*
X225070113Y-82830223D02*
X225032018Y-82754032D01*
X225032018Y-82754032D02*
X225032018Y-82068318D01*
X226403447Y-82334984D02*
X226403447Y-82868318D01*
X226060590Y-82334984D02*
X226060590Y-82754032D01*
X226060590Y-82754032D02*
X226098685Y-82830223D01*
X226098685Y-82830223D02*
X226174875Y-82868318D01*
X226174875Y-82868318D02*
X226289161Y-82868318D01*
X226289161Y-82868318D02*
X226365352Y-82830223D01*
X226365352Y-82830223D02*
X226403447Y-82792127D01*
X226784400Y-82334984D02*
X226784400Y-83134984D01*
X226784400Y-82373080D02*
X226860590Y-82334984D01*
X226860590Y-82334984D02*
X227012971Y-82334984D01*
X227012971Y-82334984D02*
X227089162Y-82373080D01*
X227089162Y-82373080D02*
X227127257Y-82411175D01*
X227127257Y-82411175D02*
X227165352Y-82487365D01*
X227165352Y-82487365D02*
X227165352Y-82715937D01*
X227165352Y-82715937D02*
X227127257Y-82792127D01*
X227127257Y-82792127D02*
X227089162Y-82830223D01*
X227089162Y-82830223D02*
X227012971Y-82868318D01*
X227012971Y-82868318D02*
X226860590Y-82868318D01*
X226860590Y-82868318D02*
X226784400Y-82830223D01*
X186756759Y-101295009D02*
X186185331Y-101295009D01*
X186471045Y-101295009D02*
X186471045Y-100295009D01*
X186471045Y-100295009D02*
X186375807Y-100437866D01*
X186375807Y-100437866D02*
X186280569Y-100533104D01*
X186280569Y-100533104D02*
X186185331Y-100580723D01*
X187328188Y-100723580D02*
X187232950Y-100675961D01*
X187232950Y-100675961D02*
X187185331Y-100628342D01*
X187185331Y-100628342D02*
X187137712Y-100533104D01*
X187137712Y-100533104D02*
X187137712Y-100485485D01*
X187137712Y-100485485D02*
X187185331Y-100390247D01*
X187185331Y-100390247D02*
X187232950Y-100342628D01*
X187232950Y-100342628D02*
X187328188Y-100295009D01*
X187328188Y-100295009D02*
X187518664Y-100295009D01*
X187518664Y-100295009D02*
X187613902Y-100342628D01*
X187613902Y-100342628D02*
X187661521Y-100390247D01*
X187661521Y-100390247D02*
X187709140Y-100485485D01*
X187709140Y-100485485D02*
X187709140Y-100533104D01*
X187709140Y-100533104D02*
X187661521Y-100628342D01*
X187661521Y-100628342D02*
X187613902Y-100675961D01*
X187613902Y-100675961D02*
X187518664Y-100723580D01*
X187518664Y-100723580D02*
X187328188Y-100723580D01*
X187328188Y-100723580D02*
X187232950Y-100771199D01*
X187232950Y-100771199D02*
X187185331Y-100818818D01*
X187185331Y-100818818D02*
X187137712Y-100914056D01*
X187137712Y-100914056D02*
X187137712Y-101104532D01*
X187137712Y-101104532D02*
X187185331Y-101199770D01*
X187185331Y-101199770D02*
X187232950Y-101247390D01*
X187232950Y-101247390D02*
X187328188Y-101295009D01*
X187328188Y-101295009D02*
X187518664Y-101295009D01*
X187518664Y-101295009D02*
X187613902Y-101247390D01*
X187613902Y-101247390D02*
X187661521Y-101199770D01*
X187661521Y-101199770D02*
X187709140Y-101104532D01*
X187709140Y-101104532D02*
X187709140Y-100914056D01*
X187709140Y-100914056D02*
X187661521Y-100818818D01*
X187661521Y-100818818D02*
X187613902Y-100771199D01*
X187613902Y-100771199D02*
X187518664Y-100723580D01*
X188042474Y-101295009D02*
X188566283Y-100628342D01*
X188042474Y-100628342D02*
X188566283Y-101295009D01*
X189471045Y-101295009D02*
X188899617Y-101295009D01*
X189185331Y-101295009D02*
X189185331Y-100295009D01*
X189185331Y-100295009D02*
X189090093Y-100437866D01*
X189090093Y-100437866D02*
X188994855Y-100533104D01*
X188994855Y-100533104D02*
X188899617Y-100580723D01*
X189851998Y-100390247D02*
X189899617Y-100342628D01*
X189899617Y-100342628D02*
X189994855Y-100295009D01*
X189994855Y-100295009D02*
X190232950Y-100295009D01*
X190232950Y-100295009D02*
X190328188Y-100342628D01*
X190328188Y-100342628D02*
X190375807Y-100390247D01*
X190375807Y-100390247D02*
X190423426Y-100485485D01*
X190423426Y-100485485D02*
X190423426Y-100580723D01*
X190423426Y-100580723D02*
X190375807Y-100723580D01*
X190375807Y-100723580D02*
X189804379Y-101295009D01*
X189804379Y-101295009D02*
X190423426Y-101295009D01*
X200102295Y-65922380D02*
X199721342Y-66189047D01*
X200102295Y-66379523D02*
X199302295Y-66379523D01*
X199302295Y-66379523D02*
X199302295Y-66074761D01*
X199302295Y-66074761D02*
X199340390Y-65998571D01*
X199340390Y-65998571D02*
X199378485Y-65960476D01*
X199378485Y-65960476D02*
X199454676Y-65922380D01*
X199454676Y-65922380D02*
X199568961Y-65922380D01*
X199568961Y-65922380D02*
X199645152Y-65960476D01*
X199645152Y-65960476D02*
X199683247Y-65998571D01*
X199683247Y-65998571D02*
X199721342Y-66074761D01*
X199721342Y-66074761D02*
X199721342Y-66379523D01*
D11*
X187634266Y-96877409D02*
X187634266Y-97686932D01*
X187634266Y-97686932D02*
X187681885Y-97782170D01*
X187681885Y-97782170D02*
X187729504Y-97829790D01*
X187729504Y-97829790D02*
X187824742Y-97877409D01*
X187824742Y-97877409D02*
X188015218Y-97877409D01*
X188015218Y-97877409D02*
X188110456Y-97829790D01*
X188110456Y-97829790D02*
X188158075Y-97782170D01*
X188158075Y-97782170D02*
X188205694Y-97686932D01*
X188205694Y-97686932D02*
X188205694Y-96877409D01*
X188634266Y-96972647D02*
X188681885Y-96925028D01*
X188681885Y-96925028D02*
X188777123Y-96877409D01*
X188777123Y-96877409D02*
X189015218Y-96877409D01*
X189015218Y-96877409D02*
X189110456Y-96925028D01*
X189110456Y-96925028D02*
X189158075Y-96972647D01*
X189158075Y-96972647D02*
X189205694Y-97067885D01*
X189205694Y-97067885D02*
X189205694Y-97163123D01*
X189205694Y-97163123D02*
X189158075Y-97305980D01*
X189158075Y-97305980D02*
X188586647Y-97877409D01*
X188586647Y-97877409D02*
X189205694Y-97877409D01*
D10*
X218038095Y-76054819D02*
X218038095Y-76864342D01*
X218038095Y-76864342D02*
X218085714Y-76959580D01*
X218085714Y-76959580D02*
X218133333Y-77007200D01*
X218133333Y-77007200D02*
X218228571Y-77054819D01*
X218228571Y-77054819D02*
X218419047Y-77054819D01*
X218419047Y-77054819D02*
X218514285Y-77007200D01*
X218514285Y-77007200D02*
X218561904Y-76959580D01*
X218561904Y-76959580D02*
X218609523Y-76864342D01*
X218609523Y-76864342D02*
X218609523Y-76054819D01*
X219609523Y-77054819D02*
X219038095Y-77054819D01*
X219323809Y-77054819D02*
X219323809Y-76054819D01*
X219323809Y-76054819D02*
X219228571Y-76197676D01*
X219228571Y-76197676D02*
X219133333Y-76292914D01*
X219133333Y-76292914D02*
X219038095Y-76340533D01*
X180778571Y-61362295D02*
X180778571Y-60562295D01*
X180778571Y-60562295D02*
X181045237Y-61133723D01*
X181045237Y-61133723D02*
X181311904Y-60562295D01*
X181311904Y-60562295D02*
X181311904Y-61362295D01*
X182035714Y-61362295D02*
X182035714Y-60943247D01*
X182035714Y-60943247D02*
X181997619Y-60867057D01*
X181997619Y-60867057D02*
X181921428Y-60828961D01*
X181921428Y-60828961D02*
X181769047Y-60828961D01*
X181769047Y-60828961D02*
X181692857Y-60867057D01*
X182035714Y-61324200D02*
X181959523Y-61362295D01*
X181959523Y-61362295D02*
X181769047Y-61362295D01*
X181769047Y-61362295D02*
X181692857Y-61324200D01*
X181692857Y-61324200D02*
X181654761Y-61248009D01*
X181654761Y-61248009D02*
X181654761Y-61171819D01*
X181654761Y-61171819D02*
X181692857Y-61095628D01*
X181692857Y-61095628D02*
X181769047Y-61057533D01*
X181769047Y-61057533D02*
X181959523Y-61057533D01*
X181959523Y-61057533D02*
X182035714Y-61019438D01*
X182759524Y-60828961D02*
X182759524Y-61476580D01*
X182759524Y-61476580D02*
X182721429Y-61552771D01*
X182721429Y-61552771D02*
X182683333Y-61590866D01*
X182683333Y-61590866D02*
X182607143Y-61628961D01*
X182607143Y-61628961D02*
X182492857Y-61628961D01*
X182492857Y-61628961D02*
X182416667Y-61590866D01*
X182759524Y-61324200D02*
X182683333Y-61362295D01*
X182683333Y-61362295D02*
X182530952Y-61362295D01*
X182530952Y-61362295D02*
X182454762Y-61324200D01*
X182454762Y-61324200D02*
X182416667Y-61286104D01*
X182416667Y-61286104D02*
X182378571Y-61209914D01*
X182378571Y-61209914D02*
X182378571Y-60981342D01*
X182378571Y-60981342D02*
X182416667Y-60905152D01*
X182416667Y-60905152D02*
X182454762Y-60867057D01*
X182454762Y-60867057D02*
X182530952Y-60828961D01*
X182530952Y-60828961D02*
X182683333Y-60828961D01*
X182683333Y-60828961D02*
X182759524Y-60867057D01*
X183140477Y-60828961D02*
X183140477Y-61362295D01*
X183140477Y-60905152D02*
X183178572Y-60867057D01*
X183178572Y-60867057D02*
X183254762Y-60828961D01*
X183254762Y-60828961D02*
X183369048Y-60828961D01*
X183369048Y-60828961D02*
X183445239Y-60867057D01*
X183445239Y-60867057D02*
X183483334Y-60943247D01*
X183483334Y-60943247D02*
X183483334Y-61362295D01*
X184169049Y-61324200D02*
X184092858Y-61362295D01*
X184092858Y-61362295D02*
X183940477Y-61362295D01*
X183940477Y-61362295D02*
X183864287Y-61324200D01*
X183864287Y-61324200D02*
X183826191Y-61248009D01*
X183826191Y-61248009D02*
X183826191Y-60943247D01*
X183826191Y-60943247D02*
X183864287Y-60867057D01*
X183864287Y-60867057D02*
X183940477Y-60828961D01*
X183940477Y-60828961D02*
X184092858Y-60828961D01*
X184092858Y-60828961D02*
X184169049Y-60867057D01*
X184169049Y-60867057D02*
X184207144Y-60943247D01*
X184207144Y-60943247D02*
X184207144Y-61019438D01*
X184207144Y-61019438D02*
X183826191Y-61095628D01*
X184435715Y-60828961D02*
X184740477Y-60828961D01*
X184550001Y-60562295D02*
X184550001Y-61248009D01*
X184550001Y-61248009D02*
X184588096Y-61324200D01*
X184588096Y-61324200D02*
X184664286Y-61362295D01*
X184664286Y-61362295D02*
X184740477Y-61362295D01*
X185007144Y-61362295D02*
X185007144Y-60828961D01*
X185007144Y-60562295D02*
X184969048Y-60600390D01*
X184969048Y-60600390D02*
X185007144Y-60638485D01*
X185007144Y-60638485D02*
X185045239Y-60600390D01*
X185045239Y-60600390D02*
X185007144Y-60562295D01*
X185007144Y-60562295D02*
X185007144Y-60638485D01*
X185730953Y-61324200D02*
X185654762Y-61362295D01*
X185654762Y-61362295D02*
X185502381Y-61362295D01*
X185502381Y-61362295D02*
X185426191Y-61324200D01*
X185426191Y-61324200D02*
X185388096Y-61286104D01*
X185388096Y-61286104D02*
X185350000Y-61209914D01*
X185350000Y-61209914D02*
X185350000Y-60981342D01*
X185350000Y-60981342D02*
X185388096Y-60905152D01*
X185388096Y-60905152D02*
X185426191Y-60867057D01*
X185426191Y-60867057D02*
X185502381Y-60828961D01*
X185502381Y-60828961D02*
X185654762Y-60828961D01*
X185654762Y-60828961D02*
X185730953Y-60867057D01*
X186073810Y-61362295D02*
X186073810Y-60562295D01*
X186454762Y-60828961D02*
X186454762Y-61362295D01*
X186454762Y-60905152D02*
X186492857Y-60867057D01*
X186492857Y-60867057D02*
X186569047Y-60828961D01*
X186569047Y-60828961D02*
X186683333Y-60828961D01*
X186683333Y-60828961D02*
X186759524Y-60867057D01*
X186759524Y-60867057D02*
X186797619Y-60943247D01*
X186797619Y-60943247D02*
X186797619Y-61362295D01*
X187064286Y-60828961D02*
X187369048Y-60828961D01*
X187178572Y-60562295D02*
X187178572Y-61248009D01*
X187178572Y-61248009D02*
X187216667Y-61324200D01*
X187216667Y-61324200D02*
X187292857Y-61362295D01*
X187292857Y-61362295D02*
X187369048Y-61362295D01*
X187940477Y-61324200D02*
X187864286Y-61362295D01*
X187864286Y-61362295D02*
X187711905Y-61362295D01*
X187711905Y-61362295D02*
X187635715Y-61324200D01*
X187635715Y-61324200D02*
X187597619Y-61248009D01*
X187597619Y-61248009D02*
X187597619Y-60943247D01*
X187597619Y-60943247D02*
X187635715Y-60867057D01*
X187635715Y-60867057D02*
X187711905Y-60828961D01*
X187711905Y-60828961D02*
X187864286Y-60828961D01*
X187864286Y-60828961D02*
X187940477Y-60867057D01*
X187940477Y-60867057D02*
X187978572Y-60943247D01*
X187978572Y-60943247D02*
X187978572Y-61019438D01*
X187978572Y-61019438D02*
X187597619Y-61095628D01*
X188321429Y-61362295D02*
X188321429Y-60828961D01*
X188321429Y-60981342D02*
X188359524Y-60905152D01*
X188359524Y-60905152D02*
X188397619Y-60867057D01*
X188397619Y-60867057D02*
X188473810Y-60828961D01*
X188473810Y-60828961D02*
X188550000Y-60828961D01*
X189159524Y-61324200D02*
X189083333Y-61362295D01*
X189083333Y-61362295D02*
X188930952Y-61362295D01*
X188930952Y-61362295D02*
X188854762Y-61324200D01*
X188854762Y-61324200D02*
X188816667Y-61286104D01*
X188816667Y-61286104D02*
X188778571Y-61209914D01*
X188778571Y-61209914D02*
X188778571Y-60981342D01*
X188778571Y-60981342D02*
X188816667Y-60905152D01*
X188816667Y-60905152D02*
X188854762Y-60867057D01*
X188854762Y-60867057D02*
X188930952Y-60828961D01*
X188930952Y-60828961D02*
X189083333Y-60828961D01*
X189083333Y-60828961D02*
X189159524Y-60867057D01*
X189616666Y-61362295D02*
X189540476Y-61324200D01*
X189540476Y-61324200D02*
X189502381Y-61286104D01*
X189502381Y-61286104D02*
X189464285Y-61209914D01*
X189464285Y-61209914D02*
X189464285Y-60981342D01*
X189464285Y-60981342D02*
X189502381Y-60905152D01*
X189502381Y-60905152D02*
X189540476Y-60867057D01*
X189540476Y-60867057D02*
X189616666Y-60828961D01*
X189616666Y-60828961D02*
X189730952Y-60828961D01*
X189730952Y-60828961D02*
X189807143Y-60867057D01*
X189807143Y-60867057D02*
X189845238Y-60905152D01*
X189845238Y-60905152D02*
X189883333Y-60981342D01*
X189883333Y-60981342D02*
X189883333Y-61209914D01*
X189883333Y-61209914D02*
X189845238Y-61286104D01*
X189845238Y-61286104D02*
X189807143Y-61324200D01*
X189807143Y-61324200D02*
X189730952Y-61362295D01*
X189730952Y-61362295D02*
X189616666Y-61362295D01*
X190226191Y-60828961D02*
X190226191Y-61362295D01*
X190226191Y-60905152D02*
X190264286Y-60867057D01*
X190264286Y-60867057D02*
X190340476Y-60828961D01*
X190340476Y-60828961D02*
X190454762Y-60828961D01*
X190454762Y-60828961D02*
X190530953Y-60867057D01*
X190530953Y-60867057D02*
X190569048Y-60943247D01*
X190569048Y-60943247D02*
X190569048Y-61362295D01*
X190950001Y-60828961D02*
X190950001Y-61362295D01*
X190950001Y-60905152D02*
X190988096Y-60867057D01*
X190988096Y-60867057D02*
X191064286Y-60828961D01*
X191064286Y-60828961D02*
X191178572Y-60828961D01*
X191178572Y-60828961D02*
X191254763Y-60867057D01*
X191254763Y-60867057D02*
X191292858Y-60943247D01*
X191292858Y-60943247D02*
X191292858Y-61362295D01*
X191978573Y-61324200D02*
X191902382Y-61362295D01*
X191902382Y-61362295D02*
X191750001Y-61362295D01*
X191750001Y-61362295D02*
X191673811Y-61324200D01*
X191673811Y-61324200D02*
X191635715Y-61248009D01*
X191635715Y-61248009D02*
X191635715Y-60943247D01*
X191635715Y-60943247D02*
X191673811Y-60867057D01*
X191673811Y-60867057D02*
X191750001Y-60828961D01*
X191750001Y-60828961D02*
X191902382Y-60828961D01*
X191902382Y-60828961D02*
X191978573Y-60867057D01*
X191978573Y-60867057D02*
X192016668Y-60943247D01*
X192016668Y-60943247D02*
X192016668Y-61019438D01*
X192016668Y-61019438D02*
X191635715Y-61095628D01*
X192702382Y-61324200D02*
X192626191Y-61362295D01*
X192626191Y-61362295D02*
X192473810Y-61362295D01*
X192473810Y-61362295D02*
X192397620Y-61324200D01*
X192397620Y-61324200D02*
X192359525Y-61286104D01*
X192359525Y-61286104D02*
X192321429Y-61209914D01*
X192321429Y-61209914D02*
X192321429Y-60981342D01*
X192321429Y-60981342D02*
X192359525Y-60905152D01*
X192359525Y-60905152D02*
X192397620Y-60867057D01*
X192397620Y-60867057D02*
X192473810Y-60828961D01*
X192473810Y-60828961D02*
X192626191Y-60828961D01*
X192626191Y-60828961D02*
X192702382Y-60867057D01*
X192930953Y-60828961D02*
X193235715Y-60828961D01*
X193045239Y-60562295D02*
X193045239Y-61248009D01*
X193045239Y-61248009D02*
X193083334Y-61324200D01*
X193083334Y-61324200D02*
X193159524Y-61362295D01*
X193159524Y-61362295D02*
X193235715Y-61362295D01*
X207023809Y-97254819D02*
X207023809Y-96254819D01*
X207023809Y-96254819D02*
X207404761Y-96254819D01*
X207404761Y-96254819D02*
X207499999Y-96302438D01*
X207499999Y-96302438D02*
X207547618Y-96350057D01*
X207547618Y-96350057D02*
X207595237Y-96445295D01*
X207595237Y-96445295D02*
X207595237Y-96588152D01*
X207595237Y-96588152D02*
X207547618Y-96683390D01*
X207547618Y-96683390D02*
X207499999Y-96731009D01*
X207499999Y-96731009D02*
X207404761Y-96778628D01*
X207404761Y-96778628D02*
X207023809Y-96778628D01*
X208166666Y-97254819D02*
X208071428Y-97207200D01*
X208071428Y-97207200D02*
X208023809Y-97159580D01*
X208023809Y-97159580D02*
X207976190Y-97064342D01*
X207976190Y-97064342D02*
X207976190Y-96778628D01*
X207976190Y-96778628D02*
X208023809Y-96683390D01*
X208023809Y-96683390D02*
X208071428Y-96635771D01*
X208071428Y-96635771D02*
X208166666Y-96588152D01*
X208166666Y-96588152D02*
X208309523Y-96588152D01*
X208309523Y-96588152D02*
X208404761Y-96635771D01*
X208404761Y-96635771D02*
X208452380Y-96683390D01*
X208452380Y-96683390D02*
X208499999Y-96778628D01*
X208499999Y-96778628D02*
X208499999Y-97064342D01*
X208499999Y-97064342D02*
X208452380Y-97159580D01*
X208452380Y-97159580D02*
X208404761Y-97207200D01*
X208404761Y-97207200D02*
X208309523Y-97254819D01*
X208309523Y-97254819D02*
X208166666Y-97254819D01*
X208833333Y-96588152D02*
X209023809Y-97254819D01*
X209023809Y-97254819D02*
X209214285Y-96778628D01*
X209214285Y-96778628D02*
X209404761Y-97254819D01*
X209404761Y-97254819D02*
X209595237Y-96588152D01*
X210357142Y-97207200D02*
X210261904Y-97254819D01*
X210261904Y-97254819D02*
X210071428Y-97254819D01*
X210071428Y-97254819D02*
X209976190Y-97207200D01*
X209976190Y-97207200D02*
X209928571Y-97111961D01*
X209928571Y-97111961D02*
X209928571Y-96731009D01*
X209928571Y-96731009D02*
X209976190Y-96635771D01*
X209976190Y-96635771D02*
X210071428Y-96588152D01*
X210071428Y-96588152D02*
X210261904Y-96588152D01*
X210261904Y-96588152D02*
X210357142Y-96635771D01*
X210357142Y-96635771D02*
X210404761Y-96731009D01*
X210404761Y-96731009D02*
X210404761Y-96826247D01*
X210404761Y-96826247D02*
X209928571Y-96921485D01*
X210833333Y-97254819D02*
X210833333Y-96588152D01*
X210833333Y-96778628D02*
X210880952Y-96683390D01*
X210880952Y-96683390D02*
X210928571Y-96635771D01*
X210928571Y-96635771D02*
X211023809Y-96588152D01*
X211023809Y-96588152D02*
X211119047Y-96588152D01*
X212026896Y-57905023D02*
X211988800Y-57943119D01*
X211988800Y-57943119D02*
X211874515Y-57981214D01*
X211874515Y-57981214D02*
X211798324Y-57981214D01*
X211798324Y-57981214D02*
X211684038Y-57943119D01*
X211684038Y-57943119D02*
X211607848Y-57866928D01*
X211607848Y-57866928D02*
X211569753Y-57790738D01*
X211569753Y-57790738D02*
X211531657Y-57638357D01*
X211531657Y-57638357D02*
X211531657Y-57524071D01*
X211531657Y-57524071D02*
X211569753Y-57371690D01*
X211569753Y-57371690D02*
X211607848Y-57295499D01*
X211607848Y-57295499D02*
X211684038Y-57219309D01*
X211684038Y-57219309D02*
X211798324Y-57181214D01*
X211798324Y-57181214D02*
X211874515Y-57181214D01*
X211874515Y-57181214D02*
X211988800Y-57219309D01*
X211988800Y-57219309D02*
X212026896Y-57257404D01*
X212788800Y-57981214D02*
X212331657Y-57981214D01*
X212560229Y-57981214D02*
X212560229Y-57181214D01*
X212560229Y-57181214D02*
X212484038Y-57295499D01*
X212484038Y-57295499D02*
X212407848Y-57371690D01*
X212407848Y-57371690D02*
X212331657Y-57409785D01*
X206271428Y-89062295D02*
X206728571Y-89062295D01*
X206499999Y-89862295D02*
X206499999Y-89062295D01*
X199683247Y-70575714D02*
X199683247Y-70842380D01*
X200102295Y-70842380D02*
X199302295Y-70842380D01*
X199302295Y-70842380D02*
X199302295Y-70461428D01*
X199683247Y-69890000D02*
X199721342Y-69775714D01*
X199721342Y-69775714D02*
X199759438Y-69737619D01*
X199759438Y-69737619D02*
X199835628Y-69699523D01*
X199835628Y-69699523D02*
X199949914Y-69699523D01*
X199949914Y-69699523D02*
X200026104Y-69737619D01*
X200026104Y-69737619D02*
X200064200Y-69775714D01*
X200064200Y-69775714D02*
X200102295Y-69851904D01*
X200102295Y-69851904D02*
X200102295Y-70156666D01*
X200102295Y-70156666D02*
X199302295Y-70156666D01*
X199302295Y-70156666D02*
X199302295Y-69890000D01*
X199302295Y-69890000D02*
X199340390Y-69813809D01*
X199340390Y-69813809D02*
X199378485Y-69775714D01*
X199378485Y-69775714D02*
X199454676Y-69737619D01*
X199454676Y-69737619D02*
X199530866Y-69737619D01*
X199530866Y-69737619D02*
X199607057Y-69775714D01*
X199607057Y-69775714D02*
X199645152Y-69813809D01*
X199645152Y-69813809D02*
X199683247Y-69890000D01*
X199683247Y-69890000D02*
X199683247Y-70156666D01*
X200102295Y-68212380D02*
X199721342Y-68479047D01*
X200102295Y-68669523D02*
X199302295Y-68669523D01*
X199302295Y-68669523D02*
X199302295Y-68364761D01*
X199302295Y-68364761D02*
X199340390Y-68288571D01*
X199340390Y-68288571D02*
X199378485Y-68250476D01*
X199378485Y-68250476D02*
X199454676Y-68212380D01*
X199454676Y-68212380D02*
X199568961Y-68212380D01*
X199568961Y-68212380D02*
X199645152Y-68250476D01*
X199645152Y-68250476D02*
X199683247Y-68288571D01*
X199683247Y-68288571D02*
X199721342Y-68364761D01*
X199721342Y-68364761D02*
X199721342Y-68669523D01*
X208569580Y-99616666D02*
X208617200Y-99664285D01*
X208617200Y-99664285D02*
X208664819Y-99807142D01*
X208664819Y-99807142D02*
X208664819Y-99902380D01*
X208664819Y-99902380D02*
X208617200Y-100045237D01*
X208617200Y-100045237D02*
X208521961Y-100140475D01*
X208521961Y-100140475D02*
X208426723Y-100188094D01*
X208426723Y-100188094D02*
X208236247Y-100235713D01*
X208236247Y-100235713D02*
X208093390Y-100235713D01*
X208093390Y-100235713D02*
X207902914Y-100188094D01*
X207902914Y-100188094D02*
X207807676Y-100140475D01*
X207807676Y-100140475D02*
X207712438Y-100045237D01*
X207712438Y-100045237D02*
X207664819Y-99902380D01*
X207664819Y-99902380D02*
X207664819Y-99807142D01*
X207664819Y-99807142D02*
X207712438Y-99664285D01*
X207712438Y-99664285D02*
X207760057Y-99616666D01*
X208664819Y-98664285D02*
X208664819Y-99235713D01*
X208664819Y-98949999D02*
X207664819Y-98949999D01*
X207664819Y-98949999D02*
X207807676Y-99045237D01*
X207807676Y-99045237D02*
X207902914Y-99140475D01*
X207902914Y-99140475D02*
X207950533Y-99235713D01*
X207443988Y-80860576D02*
X207443988Y-81336766D01*
X207443988Y-81336766D02*
X206443988Y-81336766D01*
X206443988Y-80336766D02*
X206443988Y-80146290D01*
X206443988Y-80146290D02*
X206491607Y-80051052D01*
X206491607Y-80051052D02*
X206586845Y-79955814D01*
X206586845Y-79955814D02*
X206777321Y-79908195D01*
X206777321Y-79908195D02*
X207110654Y-79908195D01*
X207110654Y-79908195D02*
X207301130Y-79955814D01*
X207301130Y-79955814D02*
X207396369Y-80051052D01*
X207396369Y-80051052D02*
X207443988Y-80146290D01*
X207443988Y-80146290D02*
X207443988Y-80336766D01*
X207443988Y-80336766D02*
X207396369Y-80432004D01*
X207396369Y-80432004D02*
X207301130Y-80527242D01*
X207301130Y-80527242D02*
X207110654Y-80574861D01*
X207110654Y-80574861D02*
X206777321Y-80574861D01*
X206777321Y-80574861D02*
X206586845Y-80527242D01*
X206586845Y-80527242D02*
X206491607Y-80432004D01*
X206491607Y-80432004D02*
X206443988Y-80336766D01*
X207443988Y-79003433D02*
X207443988Y-79479623D01*
X207443988Y-79479623D02*
X206443988Y-79479623D01*
X207443988Y-78670099D02*
X206443988Y-78670099D01*
X207443988Y-78193909D02*
X206443988Y-78193909D01*
X206443988Y-78193909D02*
X207443988Y-77622481D01*
X207443988Y-77622481D02*
X206443988Y-77622481D01*
X207539226Y-77384386D02*
X207539226Y-76622481D01*
X207348749Y-75812957D02*
X207396369Y-75860576D01*
X207396369Y-75860576D02*
X207443988Y-76003433D01*
X207443988Y-76003433D02*
X207443988Y-76098671D01*
X207443988Y-76098671D02*
X207396369Y-76241528D01*
X207396369Y-76241528D02*
X207301130Y-76336766D01*
X207301130Y-76336766D02*
X207205892Y-76384385D01*
X207205892Y-76384385D02*
X207015416Y-76432004D01*
X207015416Y-76432004D02*
X206872559Y-76432004D01*
X206872559Y-76432004D02*
X206682083Y-76384385D01*
X206682083Y-76384385D02*
X206586845Y-76336766D01*
X206586845Y-76336766D02*
X206491607Y-76241528D01*
X206491607Y-76241528D02*
X206443988Y-76098671D01*
X206443988Y-76098671D02*
X206443988Y-76003433D01*
X206443988Y-76003433D02*
X206491607Y-75860576D01*
X206491607Y-75860576D02*
X206539226Y-75812957D01*
X206443988Y-75479623D02*
X206443988Y-74860576D01*
X206443988Y-74860576D02*
X206824940Y-75193909D01*
X206824940Y-75193909D02*
X206824940Y-75051052D01*
X206824940Y-75051052D02*
X206872559Y-74955814D01*
X206872559Y-74955814D02*
X206920178Y-74908195D01*
X206920178Y-74908195D02*
X207015416Y-74860576D01*
X207015416Y-74860576D02*
X207253511Y-74860576D01*
X207253511Y-74860576D02*
X207348749Y-74908195D01*
X207348749Y-74908195D02*
X207396369Y-74955814D01*
X207396369Y-74955814D02*
X207443988Y-75051052D01*
X207443988Y-75051052D02*
X207443988Y-75336766D01*
X207443988Y-75336766D02*
X207396369Y-75432004D01*
X207396369Y-75432004D02*
X207348749Y-75479623D01*
X207539226Y-74670100D02*
X207539226Y-73908195D01*
X207443988Y-73670099D02*
X206443988Y-73670099D01*
X206443988Y-73670099D02*
X206443988Y-73289147D01*
X206443988Y-73289147D02*
X206491607Y-73193909D01*
X206491607Y-73193909D02*
X206539226Y-73146290D01*
X206539226Y-73146290D02*
X206634464Y-73098671D01*
X206634464Y-73098671D02*
X206777321Y-73098671D01*
X206777321Y-73098671D02*
X206872559Y-73146290D01*
X206872559Y-73146290D02*
X206920178Y-73193909D01*
X206920178Y-73193909D02*
X206967797Y-73289147D01*
X206967797Y-73289147D02*
X206967797Y-73670099D01*
X207443988Y-72670099D02*
X206443988Y-72670099D01*
X207348749Y-71622481D02*
X207396369Y-71670100D01*
X207396369Y-71670100D02*
X207443988Y-71812957D01*
X207443988Y-71812957D02*
X207443988Y-71908195D01*
X207443988Y-71908195D02*
X207396369Y-72051052D01*
X207396369Y-72051052D02*
X207301130Y-72146290D01*
X207301130Y-72146290D02*
X207205892Y-72193909D01*
X207205892Y-72193909D02*
X207015416Y-72241528D01*
X207015416Y-72241528D02*
X206872559Y-72241528D01*
X206872559Y-72241528D02*
X206682083Y-72193909D01*
X206682083Y-72193909D02*
X206586845Y-72146290D01*
X206586845Y-72146290D02*
X206491607Y-72051052D01*
X206491607Y-72051052D02*
X206443988Y-71908195D01*
X206443988Y-71908195D02*
X206443988Y-71812957D01*
X206443988Y-71812957D02*
X206491607Y-71670100D01*
X206491607Y-71670100D02*
X206539226Y-71622481D01*
X206443988Y-71003433D02*
X206443988Y-70812957D01*
X206443988Y-70812957D02*
X206491607Y-70717719D01*
X206491607Y-70717719D02*
X206586845Y-70622481D01*
X206586845Y-70622481D02*
X206777321Y-70574862D01*
X206777321Y-70574862D02*
X207110654Y-70574862D01*
X207110654Y-70574862D02*
X207301130Y-70622481D01*
X207301130Y-70622481D02*
X207396369Y-70717719D01*
X207396369Y-70717719D02*
X207443988Y-70812957D01*
X207443988Y-70812957D02*
X207443988Y-71003433D01*
X207443988Y-71003433D02*
X207396369Y-71098671D01*
X207396369Y-71098671D02*
X207301130Y-71193909D01*
X207301130Y-71193909D02*
X207110654Y-71241528D01*
X207110654Y-71241528D02*
X206777321Y-71241528D01*
X206777321Y-71241528D02*
X206586845Y-71193909D01*
X206586845Y-71193909D02*
X206491607Y-71098671D01*
X206491607Y-71098671D02*
X206443988Y-71003433D01*
X207443988Y-69622481D02*
X207443988Y-70193909D01*
X207443988Y-69908195D02*
X206443988Y-69908195D01*
X206443988Y-69908195D02*
X206586845Y-70003433D01*
X206586845Y-70003433D02*
X206682083Y-70098671D01*
X206682083Y-70098671D02*
X206729702Y-70193909D01*
X223026896Y-57786104D02*
X222988800Y-57824200D01*
X222988800Y-57824200D02*
X222874515Y-57862295D01*
X222874515Y-57862295D02*
X222798324Y-57862295D01*
X222798324Y-57862295D02*
X222684038Y-57824200D01*
X222684038Y-57824200D02*
X222607848Y-57748009D01*
X222607848Y-57748009D02*
X222569753Y-57671819D01*
X222569753Y-57671819D02*
X222531657Y-57519438D01*
X222531657Y-57519438D02*
X222531657Y-57405152D01*
X222531657Y-57405152D02*
X222569753Y-57252771D01*
X222569753Y-57252771D02*
X222607848Y-57176580D01*
X222607848Y-57176580D02*
X222684038Y-57100390D01*
X222684038Y-57100390D02*
X222798324Y-57062295D01*
X222798324Y-57062295D02*
X222874515Y-57062295D01*
X222874515Y-57062295D02*
X222988800Y-57100390D01*
X222988800Y-57100390D02*
X223026896Y-57138485D01*
X223788800Y-57862295D02*
X223331657Y-57862295D01*
X223560229Y-57862295D02*
X223560229Y-57062295D01*
X223560229Y-57062295D02*
X223484038Y-57176580D01*
X223484038Y-57176580D02*
X223407848Y-57252771D01*
X223407848Y-57252771D02*
X223331657Y-57290866D01*
X199247619Y-94362295D02*
X198980952Y-93981342D01*
X198790476Y-94362295D02*
X198790476Y-93562295D01*
X198790476Y-93562295D02*
X199095238Y-93562295D01*
X199095238Y-93562295D02*
X199171428Y-93600390D01*
X199171428Y-93600390D02*
X199209523Y-93638485D01*
X199209523Y-93638485D02*
X199247619Y-93714676D01*
X199247619Y-93714676D02*
X199247619Y-93828961D01*
X199247619Y-93828961D02*
X199209523Y-93905152D01*
X199209523Y-93905152D02*
X199171428Y-93943247D01*
X199171428Y-93943247D02*
X199095238Y-93981342D01*
X199095238Y-93981342D02*
X198790476Y-93981342D01*
X216114277Y-57781214D02*
X216114277Y-56981214D01*
X216114277Y-56981214D02*
X216419039Y-56981214D01*
X216419039Y-56981214D02*
X216495229Y-57019309D01*
X216495229Y-57019309D02*
X216533324Y-57057404D01*
X216533324Y-57057404D02*
X216571420Y-57133595D01*
X216571420Y-57133595D02*
X216571420Y-57247880D01*
X216571420Y-57247880D02*
X216533324Y-57324071D01*
X216533324Y-57324071D02*
X216495229Y-57362166D01*
X216495229Y-57362166D02*
X216419039Y-57400261D01*
X216419039Y-57400261D02*
X216114277Y-57400261D01*
X217028562Y-57781214D02*
X216952372Y-57743119D01*
X216952372Y-57743119D02*
X216914277Y-57705023D01*
X216914277Y-57705023D02*
X216876181Y-57628833D01*
X216876181Y-57628833D02*
X216876181Y-57400261D01*
X216876181Y-57400261D02*
X216914277Y-57324071D01*
X216914277Y-57324071D02*
X216952372Y-57285976D01*
X216952372Y-57285976D02*
X217028562Y-57247880D01*
X217028562Y-57247880D02*
X217142848Y-57247880D01*
X217142848Y-57247880D02*
X217219039Y-57285976D01*
X217219039Y-57285976D02*
X217257134Y-57324071D01*
X217257134Y-57324071D02*
X217295229Y-57400261D01*
X217295229Y-57400261D02*
X217295229Y-57628833D01*
X217295229Y-57628833D02*
X217257134Y-57705023D01*
X217257134Y-57705023D02*
X217219039Y-57743119D01*
X217219039Y-57743119D02*
X217142848Y-57781214D01*
X217142848Y-57781214D02*
X217028562Y-57781214D01*
X217561896Y-57247880D02*
X217714277Y-57781214D01*
X217714277Y-57781214D02*
X217866658Y-57400261D01*
X217866658Y-57400261D02*
X218019039Y-57781214D01*
X218019039Y-57781214D02*
X218171420Y-57247880D01*
X218780944Y-57743119D02*
X218704753Y-57781214D01*
X218704753Y-57781214D02*
X218552372Y-57781214D01*
X218552372Y-57781214D02*
X218476182Y-57743119D01*
X218476182Y-57743119D02*
X218438086Y-57666928D01*
X218438086Y-57666928D02*
X218438086Y-57362166D01*
X218438086Y-57362166D02*
X218476182Y-57285976D01*
X218476182Y-57285976D02*
X218552372Y-57247880D01*
X218552372Y-57247880D02*
X218704753Y-57247880D01*
X218704753Y-57247880D02*
X218780944Y-57285976D01*
X218780944Y-57285976D02*
X218819039Y-57362166D01*
X218819039Y-57362166D02*
X218819039Y-57438357D01*
X218819039Y-57438357D02*
X218438086Y-57514547D01*
X219161896Y-57781214D02*
X219161896Y-57247880D01*
X219161896Y-57400261D02*
X219199991Y-57324071D01*
X219199991Y-57324071D02*
X219238086Y-57285976D01*
X219238086Y-57285976D02*
X219314277Y-57247880D01*
X219314277Y-57247880D02*
X219390467Y-57247880D01*
X199683247Y-64265714D02*
X199683247Y-64532380D01*
X200102295Y-64532380D02*
X199302295Y-64532380D01*
X199302295Y-64532380D02*
X199302295Y-64151428D01*
X199683247Y-63580000D02*
X199721342Y-63465714D01*
X199721342Y-63465714D02*
X199759438Y-63427619D01*
X199759438Y-63427619D02*
X199835628Y-63389523D01*
X199835628Y-63389523D02*
X199949914Y-63389523D01*
X199949914Y-63389523D02*
X200026104Y-63427619D01*
X200026104Y-63427619D02*
X200064200Y-63465714D01*
X200064200Y-63465714D02*
X200102295Y-63541904D01*
X200102295Y-63541904D02*
X200102295Y-63846666D01*
X200102295Y-63846666D02*
X199302295Y-63846666D01*
X199302295Y-63846666D02*
X199302295Y-63580000D01*
X199302295Y-63580000D02*
X199340390Y-63503809D01*
X199340390Y-63503809D02*
X199378485Y-63465714D01*
X199378485Y-63465714D02*
X199454676Y-63427619D01*
X199454676Y-63427619D02*
X199530866Y-63427619D01*
X199530866Y-63427619D02*
X199607057Y-63465714D01*
X199607057Y-63465714D02*
X199645152Y-63503809D01*
X199645152Y-63503809D02*
X199683247Y-63580000D01*
X199683247Y-63580000D02*
X199683247Y-63846666D01*
X221633333Y-86759580D02*
X221585714Y-86807200D01*
X221585714Y-86807200D02*
X221442857Y-86854819D01*
X221442857Y-86854819D02*
X221347619Y-86854819D01*
X221347619Y-86854819D02*
X221204762Y-86807200D01*
X221204762Y-86807200D02*
X221109524Y-86711961D01*
X221109524Y-86711961D02*
X221061905Y-86616723D01*
X221061905Y-86616723D02*
X221014286Y-86426247D01*
X221014286Y-86426247D02*
X221014286Y-86283390D01*
X221014286Y-86283390D02*
X221061905Y-86092914D01*
X221061905Y-86092914D02*
X221109524Y-85997676D01*
X221109524Y-85997676D02*
X221204762Y-85902438D01*
X221204762Y-85902438D02*
X221347619Y-85854819D01*
X221347619Y-85854819D02*
X221442857Y-85854819D01*
X221442857Y-85854819D02*
X221585714Y-85902438D01*
X221585714Y-85902438D02*
X221633333Y-85950057D01*
X222014286Y-85950057D02*
X222061905Y-85902438D01*
X222061905Y-85902438D02*
X222157143Y-85854819D01*
X222157143Y-85854819D02*
X222395238Y-85854819D01*
X222395238Y-85854819D02*
X222490476Y-85902438D01*
X222490476Y-85902438D02*
X222538095Y-85950057D01*
X222538095Y-85950057D02*
X222585714Y-86045295D01*
X222585714Y-86045295D02*
X222585714Y-86140533D01*
X222585714Y-86140533D02*
X222538095Y-86283390D01*
X222538095Y-86283390D02*
X221966667Y-86854819D01*
X221966667Y-86854819D02*
X222585714Y-86854819D01*
X202114285Y-88943247D02*
X201847619Y-88943247D01*
X201847619Y-89362295D02*
X201847619Y-88562295D01*
X201847619Y-88562295D02*
X202228571Y-88562295D01*
X210179580Y-99616666D02*
X210227200Y-99664285D01*
X210227200Y-99664285D02*
X210274819Y-99807142D01*
X210274819Y-99807142D02*
X210274819Y-99902380D01*
X210274819Y-99902380D02*
X210227200Y-100045237D01*
X210227200Y-100045237D02*
X210131961Y-100140475D01*
X210131961Y-100140475D02*
X210036723Y-100188094D01*
X210036723Y-100188094D02*
X209846247Y-100235713D01*
X209846247Y-100235713D02*
X209703390Y-100235713D01*
X209703390Y-100235713D02*
X209512914Y-100188094D01*
X209512914Y-100188094D02*
X209417676Y-100140475D01*
X209417676Y-100140475D02*
X209322438Y-100045237D01*
X209322438Y-100045237D02*
X209274819Y-99902380D01*
X209274819Y-99902380D02*
X209274819Y-99807142D01*
X209274819Y-99807142D02*
X209322438Y-99664285D01*
X209322438Y-99664285D02*
X209370057Y-99616666D01*
X210274819Y-98664285D02*
X210274819Y-99235713D01*
X210274819Y-98949999D02*
X209274819Y-98949999D01*
X209274819Y-98949999D02*
X209417676Y-99045237D01*
X209417676Y-99045237D02*
X209512914Y-99140475D01*
X209512914Y-99140475D02*
X209560533Y-99235713D01*
D12*
%TO.C,R16*%
X219998680Y-99616675D02*
X219544552Y-99616675D01*
X219998680Y-101086675D02*
X219544552Y-101086675D01*
%TO.C,R25*%
X225265000Y-70272936D02*
X225265000Y-70727064D01*
X226735000Y-70272936D02*
X226735000Y-70727064D01*
%TO.C,R8*%
X190515000Y-74798095D02*
X190515000Y-75252223D01*
X191985000Y-74798095D02*
X191985000Y-75252223D01*
%TO.C,J1*%
X222405000Y-104320000D02*
X222405000Y-91500000D01*
X225005000Y-104320000D02*
X222405000Y-104320000D01*
X227605000Y-91500000D02*
X222405000Y-91500000D01*
X227605000Y-101720000D02*
X227605000Y-91500000D01*
X227605000Y-101720000D02*
X227605000Y-104320000D01*
X227605000Y-102990000D02*
X227605000Y-104320000D01*
X227605000Y-104320000D02*
X225005000Y-104320000D01*
X227605000Y-104320000D02*
X226275000Y-104320000D01*
%TO.C,R17*%
X220038573Y-101963100D02*
X219584445Y-101963100D01*
X220038573Y-103433100D02*
X219584445Y-103433100D01*
%TO.C,R4*%
X212172936Y-74065000D02*
X212627064Y-74065000D01*
X212172936Y-75535000D02*
X212627064Y-75535000D01*
%TO.C,R27*%
X220765000Y-70272936D02*
X220765000Y-70727064D01*
X222235000Y-70272936D02*
X222235000Y-70727064D01*
%TO.C,D5*%
X188727500Y-89754724D02*
X188727500Y-89245276D01*
X189772500Y-89754724D02*
X189772500Y-89245276D01*
%TO.C,R10*%
X225227064Y-75665000D02*
X224772936Y-75665000D01*
X225227064Y-77135000D02*
X224772936Y-77135000D01*
%TO.C,R*%
X196645488Y-65417898D02*
X197099616Y-65417898D01*
X196645488Y-66887898D02*
X197099616Y-66887898D01*
D13*
%TO.C,U2*%
X179750000Y-93250000D02*
X181750000Y-93250000D01*
X179750000Y-95250000D02*
X179750000Y-93250000D01*
X179750000Y-103250000D02*
X179750000Y-105250000D01*
X179750000Y-105250000D02*
X181750000Y-105250000D01*
X181750000Y-93250000D02*
X181750000Y-95250000D01*
X181750000Y-95250000D02*
X179750000Y-95250000D01*
X181750000Y-103250000D02*
X179750000Y-103250000D01*
X181750000Y-105250000D02*
X181750000Y-103250000D01*
X195750000Y-93250000D02*
X195750000Y-95250000D01*
X195750000Y-95250000D02*
X197750000Y-95250000D01*
X195750000Y-103250000D02*
X197750000Y-103250000D01*
X195750000Y-105250000D02*
X195750000Y-103250000D01*
X197750000Y-93250000D02*
X195750000Y-93250000D01*
X197750000Y-95250000D02*
X197750000Y-93250000D01*
X197750000Y-103250000D02*
X197750000Y-105250000D01*
X197750000Y-105250000D02*
X195750000Y-105250000D01*
X179750000Y-93250000D02*
X197750000Y-93250000D01*
X197750000Y-105250000D01*
X179750000Y-105250000D01*
X179750000Y-93250000D01*
D12*
%TO.C,U1*%
X214565000Y-77600000D02*
X214565000Y-75400000D01*
X214565000Y-77600000D02*
X214565000Y-79800000D01*
X222635000Y-77600000D02*
X222635000Y-75400000D01*
X222635000Y-77600000D02*
X222635000Y-79800000D01*
X215265000Y-81790000D02*
X214785000Y-81790000D01*
X215025000Y-81460000D01*
X215265000Y-81790000D01*
G36*
X215265000Y-81790000D02*
G01*
X214785000Y-81790000D01*
X215025000Y-81460000D01*
X215265000Y-81790000D01*
G37*
%TO.C,R21*%
X216265000Y-70272936D02*
X216265000Y-70727064D01*
X217735000Y-70272936D02*
X217735000Y-70727064D01*
%TO.C,R18*%
X225227064Y-77665000D02*
X224772936Y-77665000D01*
X225227064Y-79135000D02*
X224772936Y-79135000D01*
%TO.C,J4-OffTheShelf-Digital1*%
X180590000Y-62880000D02*
X193410000Y-62880000D01*
X180590000Y-65480000D02*
X180590000Y-62880000D01*
X180590000Y-68080000D02*
X180590000Y-66750000D01*
X181920000Y-68080000D02*
X180590000Y-68080000D01*
X183190000Y-65480000D02*
X180590000Y-65480000D01*
X183190000Y-68080000D02*
X183190000Y-65480000D01*
X183190000Y-68080000D02*
X193410000Y-68080000D01*
X193410000Y-68080000D02*
X193410000Y-62880000D01*
%TO.C,R24*%
X223015000Y-70272936D02*
X223015000Y-70727064D01*
X224485000Y-70272936D02*
X224485000Y-70727064D01*
%TO.C,R23*%
X211765000Y-70272936D02*
X211765000Y-70727064D01*
X213235000Y-70272936D02*
X213235000Y-70727064D01*
%TO.C,MagneticInterconnect*%
X179810000Y-58490000D02*
X180410000Y-58790000D01*
X179810000Y-59090000D02*
X179810000Y-58490000D01*
X180410000Y-58790000D02*
X179810000Y-59090000D01*
X180617212Y-57183280D02*
X191773952Y-57189770D01*
X180618881Y-60391804D02*
X180617212Y-57183280D01*
X191768638Y-60376802D02*
X180618881Y-60391804D01*
D13*
X191773952Y-57189770D02*
X191768638Y-60376802D01*
D12*
%TO.C,Power*%
X205130000Y-102920000D02*
X206460000Y-102920000D01*
X205130000Y-104250000D02*
X205130000Y-102920000D01*
X207730000Y-102920000D02*
X212870000Y-102920000D01*
X207730000Y-105580000D02*
X207730000Y-102920000D01*
X207730000Y-105580000D02*
X212870000Y-105580000D01*
X212870000Y-105580000D02*
X212870000Y-102920000D01*
%TO.C,R9*%
X225227064Y-73665000D02*
X224772936Y-73665000D01*
X225227064Y-75135000D02*
X224772936Y-75135000D01*
%TO.C,R26*%
X218515000Y-70272936D02*
X218515000Y-70727064D01*
X219985000Y-70272936D02*
X219985000Y-70727064D01*
%TO.C,D2*%
X197121673Y-71840500D02*
X196612225Y-71840500D01*
X197121673Y-72885500D02*
X196612225Y-72885500D01*
%TO.C,R7*%
X190515000Y-79227064D02*
X190515000Y-78772936D01*
X191985000Y-79227064D02*
X191985000Y-78772936D01*
%TO.C,J4*%
X180580000Y-70990000D02*
X181910000Y-70990000D01*
X180580000Y-72320000D02*
X180580000Y-70990000D01*
X180580000Y-73590000D02*
X180580000Y-91430000D01*
X180580000Y-73590000D02*
X183180000Y-73590000D01*
X180580000Y-91430000D02*
X185780000Y-91430000D01*
X183180000Y-70990000D02*
X185780000Y-70990000D01*
X183180000Y-73590000D02*
X183180000Y-70990000D01*
X185780000Y-70990000D02*
X185780000Y-91430000D01*
%TO.C,C1*%
X211449817Y-60560828D02*
X211449817Y-60038324D01*
X212919817Y-60560828D02*
X212919817Y-60038324D01*
%TO.C,R14*%
X220038573Y-95097038D02*
X219584445Y-95097038D01*
X220038573Y-96567038D02*
X219584445Y-96567038D01*
%TO.C,FB*%
X197094013Y-69660157D02*
X196639885Y-69660157D01*
X197094013Y-71130157D02*
X196639885Y-71130157D01*
%TO.C,R*%
X196645488Y-67689265D02*
X197099616Y-67689265D01*
X196645488Y-69159265D02*
X197099616Y-69159265D01*
%TO.C,C1*%
X205795000Y-99188748D02*
X205795000Y-99711252D01*
X207265000Y-99188748D02*
X207265000Y-99711252D01*
%TO.C,D3*%
X188720028Y-74781855D02*
X188720028Y-75291303D01*
X189765028Y-74781855D02*
X189765028Y-75291303D01*
%TO.C,D4*%
X188727500Y-79254724D02*
X188727500Y-78745276D01*
X189772500Y-79254724D02*
X189772500Y-78745276D01*
%TO.C,R13*%
X220025757Y-92669591D02*
X219571629Y-92669591D01*
X220025757Y-94139591D02*
X219571629Y-94139591D01*
%TO.C,D1*%
X197127276Y-61151765D02*
X196617828Y-61151765D01*
X197127276Y-62196765D02*
X196617828Y-62196765D01*
%TO.C,R15*%
X220025344Y-97323578D02*
X219571216Y-97323578D01*
X220025344Y-98793578D02*
X219571216Y-98793578D01*
%TO.C,FB5*%
X186515000Y-89727064D02*
X186515000Y-89272936D01*
X187985000Y-89727064D02*
X187985000Y-89272936D01*
%TO.C,FB6*%
X186515000Y-85272936D02*
X186515000Y-85727064D01*
X187985000Y-85272936D02*
X187985000Y-85727064D01*
%TO.C,LOLIN_C3_PICO1*%
D13*
X205151092Y-67775278D02*
X208001092Y-67775278D01*
X208001092Y-83015278D01*
X205151092Y-83015278D01*
X205151092Y-67775278D01*
D12*
%TO.C,C1*%
X222467941Y-60160828D02*
X222467941Y-59638324D01*
X223937941Y-60160828D02*
X223937941Y-59638324D01*
%TO.C,R1*%
X212167595Y-76665000D02*
X212621723Y-76665000D01*
X212167595Y-78135000D02*
X212621723Y-78135000D01*
%TO.C,R*%
X199879669Y-93638920D02*
X199879669Y-94093048D01*
X201349669Y-93638920D02*
X201349669Y-94093048D01*
%TO.C,R11*%
X190515000Y-89727064D02*
X190515000Y-89272936D01*
X191985000Y-89727064D02*
X191985000Y-89272936D01*
%TO.C,FB4*%
X186515000Y-79227064D02*
X186515000Y-78772936D01*
X187985000Y-79227064D02*
X187985000Y-78772936D01*
%TO.C,R12*%
X190515000Y-85272936D02*
X190515000Y-85727064D01*
X191985000Y-85272936D02*
X191985000Y-85727064D01*
%TO.C,R19*%
X225227064Y-79665000D02*
X224772936Y-79665000D01*
X225227064Y-81135000D02*
X224772936Y-81135000D01*
%TO.C,Power*%
X213814817Y-57994976D02*
X215144817Y-57994976D01*
X213814817Y-59324976D02*
X213814817Y-57994976D01*
X216414817Y-57994976D02*
X221554817Y-57994976D01*
X216414817Y-60654976D02*
X216414817Y-57994976D01*
X216414817Y-60654976D02*
X221554817Y-60654976D01*
X221554817Y-60654976D02*
X221554817Y-57994976D01*
%TO.C,FB3*%
X186507528Y-74809515D02*
X186507528Y-75263643D01*
X187977528Y-74809515D02*
X187977528Y-75263643D01*
%TO.C,J3*%
X197922860Y-57420000D02*
X209081195Y-57418166D01*
X197922860Y-60080000D02*
X197922860Y-57420000D01*
X197922860Y-60080000D02*
X209081195Y-60078166D01*
X209081195Y-60078166D02*
X209081195Y-57418166D01*
%TO.C,FB*%
X196645488Y-63189265D02*
X197099616Y-63189265D01*
X196645488Y-64659265D02*
X197099616Y-64659265D01*
%TO.C,C2*%
X221065000Y-84061252D02*
X221065000Y-83538748D01*
X222535000Y-84061252D02*
X222535000Y-83538748D01*
%TO.C,R22*%
X209515000Y-70272936D02*
X209515000Y-70727064D01*
X210985000Y-70272936D02*
X210985000Y-70727064D01*
%TO.C,D6*%
X188727500Y-85245276D02*
X188727500Y-85754724D01*
X189772500Y-85245276D02*
X189772500Y-85754724D01*
%TO.C,F*%
X199904669Y-89837794D02*
X199904669Y-90360298D01*
X201324669Y-89837794D02*
X201324669Y-90360298D01*
%TO.C,R5*%
X212167595Y-78665000D02*
X212621723Y-78665000D01*
X212167595Y-80135000D02*
X212621723Y-80135000D01*
%TO.C,C1*%
X210835000Y-99188748D02*
X210835000Y-99711252D01*
X212305000Y-99188748D02*
X212305000Y-99711252D01*
%TO.C,R20*%
X214015000Y-70272936D02*
X214015000Y-70727064D01*
X215485000Y-70272936D02*
X215485000Y-70727064D01*
%TD*%
M02*
