%TF.GenerationSoftware,KiCad,Pcbnew,8.0.1*%
%TF.CreationDate,2024-04-28T21:45:25+02:00*%
%TF.ProjectId,EHealth_PCB,45486561-6c74-4685-9f50-43422e6b6963,rev?*%
%TF.SameCoordinates,Original*%
%TF.FileFunction,Legend,Top*%
%TF.FilePolarity,Positive*%
%FSLAX46Y46*%
G04 Gerber Fmt 4.6, Leading zero omitted, Abs format (unit mm)*
G04 Created by KiCad (PCBNEW 8.0.1) date 2024-04-28 21:45:25*
%MOMM*%
%LPD*%
G01*
G04 APERTURE LIST*
%ADD10C,0.200000*%
%ADD11C,0.150000*%
%ADD12C,0.120000*%
%ADD13C,0.100000*%
G04 APERTURE END LIST*
D10*
X182563152Y-103414822D02*
X182848866Y-104176726D01*
X182848866Y-104176726D02*
X183134580Y-103414822D01*
X183229819Y-101652917D02*
X183229819Y-102224345D01*
X183229819Y-101938631D02*
X182229819Y-101938631D01*
X182229819Y-101938631D02*
X182372676Y-102033869D01*
X182372676Y-102033869D02*
X182467914Y-102129107D01*
X182467914Y-102129107D02*
X182515533Y-102224345D01*
X182325057Y-101271964D02*
X182277438Y-101224345D01*
X182277438Y-101224345D02*
X182229819Y-101129107D01*
X182229819Y-101129107D02*
X182229819Y-100891012D01*
X182229819Y-100891012D02*
X182277438Y-100795774D01*
X182277438Y-100795774D02*
X182325057Y-100748155D01*
X182325057Y-100748155D02*
X182420295Y-100700536D01*
X182420295Y-100700536D02*
X182515533Y-100700536D01*
X182515533Y-100700536D02*
X182658390Y-100748155D01*
X182658390Y-100748155D02*
X183229819Y-101319583D01*
X183229819Y-101319583D02*
X183229819Y-100700536D01*
X182229819Y-100414821D02*
X183229819Y-100081488D01*
X183229819Y-100081488D02*
X182229819Y-99748155D01*
X182277438Y-98129107D02*
X182229819Y-98224345D01*
X182229819Y-98224345D02*
X182229819Y-98367202D01*
X182229819Y-98367202D02*
X182277438Y-98510059D01*
X182277438Y-98510059D02*
X182372676Y-98605297D01*
X182372676Y-98605297D02*
X182467914Y-98652916D01*
X182467914Y-98652916D02*
X182658390Y-98700535D01*
X182658390Y-98700535D02*
X182801247Y-98700535D01*
X182801247Y-98700535D02*
X182991723Y-98652916D01*
X182991723Y-98652916D02*
X183086961Y-98605297D01*
X183086961Y-98605297D02*
X183182200Y-98510059D01*
X183182200Y-98510059D02*
X183229819Y-98367202D01*
X183229819Y-98367202D02*
X183229819Y-98271964D01*
X183229819Y-98271964D02*
X183182200Y-98129107D01*
X183182200Y-98129107D02*
X183134580Y-98081488D01*
X183134580Y-98081488D02*
X182801247Y-98081488D01*
X182801247Y-98081488D02*
X182801247Y-98271964D01*
X183229819Y-97652916D02*
X182229819Y-97652916D01*
X182229819Y-97652916D02*
X183229819Y-97081488D01*
X183229819Y-97081488D02*
X182229819Y-97081488D01*
X183229819Y-96605297D02*
X182229819Y-96605297D01*
X182229819Y-96605297D02*
X182229819Y-96367202D01*
X182229819Y-96367202D02*
X182277438Y-96224345D01*
X182277438Y-96224345D02*
X182372676Y-96129107D01*
X182372676Y-96129107D02*
X182467914Y-96081488D01*
X182467914Y-96081488D02*
X182658390Y-96033869D01*
X182658390Y-96033869D02*
X182801247Y-96033869D01*
X182801247Y-96033869D02*
X182991723Y-96081488D01*
X182991723Y-96081488D02*
X183086961Y-96129107D01*
X183086961Y-96129107D02*
X183182200Y-96224345D01*
X183182200Y-96224345D02*
X183229819Y-96367202D01*
X183229819Y-96367202D02*
X183229819Y-96605297D01*
X182563152Y-94843392D02*
X182848866Y-94081488D01*
X182848866Y-94081488D02*
X183134580Y-94843392D01*
D11*
X208001092Y-67775278D02*
X208000000Y-80811168D01*
X217798693Y-101512864D02*
X221798693Y-101512864D01*
X221798693Y-103823313D01*
X217798693Y-103823313D01*
X217798693Y-101512864D01*
X222800000Y-72800000D02*
X222800000Y-72600000D01*
X180590000Y-61600000D02*
X193400000Y-61600000D01*
X193400000Y-62880000D01*
X180590000Y-62880000D01*
X180590000Y-61600000D01*
X217798693Y-96897711D02*
X221798693Y-96897711D01*
X221798693Y-99208160D01*
X217798693Y-99208160D01*
X217798693Y-96897711D01*
X208944659Y-80811722D02*
X208000000Y-80811168D01*
X196000000Y-57400000D02*
X197400000Y-57400000D01*
X210934817Y-56809386D02*
X224329991Y-56809386D01*
X224329991Y-62299576D01*
X210934817Y-62299576D01*
X210934817Y-56809386D01*
X208943262Y-67764539D02*
X208001092Y-67775278D01*
X204600000Y-85500000D02*
X204600000Y-89900968D01*
X203500000Y-60078166D02*
X209081195Y-60078166D01*
X209081195Y-63000000D01*
X203500000Y-63000000D01*
X203500000Y-60078166D01*
X204600000Y-96000000D02*
X213600000Y-96000000D01*
X213600000Y-105710000D01*
X204600000Y-105710000D01*
X204600000Y-96000000D01*
X194800000Y-83370000D02*
X194800000Y-91400000D01*
X208943262Y-67764539D02*
X227400000Y-67800000D01*
X197000000Y-57800000D02*
X197400000Y-57400000D01*
X191750000Y-95000000D02*
X191000000Y-95750000D01*
X214344659Y-73211722D02*
X214344659Y-80811722D01*
X179180000Y-69602869D02*
X194800000Y-69602869D01*
X194800000Y-93200000D01*
X179180000Y-93200000D01*
X179180000Y-69602869D01*
X190500000Y-71350000D02*
X192500000Y-71350000D01*
X192500000Y-91150000D01*
X190500000Y-91150000D01*
X190500000Y-71350000D01*
X180570797Y-68077843D02*
X193390797Y-68077843D01*
X193390797Y-69619226D01*
X180570797Y-69619226D01*
X180570797Y-68077843D01*
X228005000Y-105710000D02*
X228005000Y-89900000D01*
X180595631Y-60391804D02*
X193400000Y-60391804D01*
X193400000Y-61600000D01*
X180595631Y-61600000D01*
X180595631Y-60391804D01*
X214344659Y-80811722D02*
X208944659Y-80811722D01*
X221807217Y-89900968D02*
X204600000Y-89900968D01*
X180580000Y-70990000D02*
X180581118Y-69601801D01*
X194800000Y-72800000D02*
X194800000Y-80968084D01*
X204600000Y-85500000D02*
X202000000Y-85500000D01*
X191000000Y-95750000D02*
X191750000Y-95000000D01*
X191750000Y-95000000D02*
X191000000Y-94250000D01*
X222800000Y-81800000D02*
X222800000Y-72800000D01*
X214344659Y-73211722D02*
X214343262Y-72604728D01*
X227400000Y-72800000D02*
X227400000Y-67800000D01*
X184250000Y-95000000D02*
X191750000Y-95000000D01*
X221800000Y-92289551D02*
X221807217Y-89900968D01*
X186500000Y-71350000D02*
X188500000Y-71350000D01*
X188500000Y-91150000D01*
X186500000Y-91150000D01*
X186500000Y-71350000D01*
X217800000Y-92289551D02*
X221800000Y-92289551D01*
X221800000Y-94600000D01*
X217800000Y-94600000D01*
X217800000Y-92289551D01*
X204600000Y-96000000D02*
X202000000Y-96000000D01*
X217794145Y-99208785D02*
X221794145Y-99208785D01*
X221794145Y-101519234D01*
X217794145Y-101519234D01*
X217794145Y-99208785D01*
X227400000Y-72800000D02*
X227400000Y-81800000D01*
X191000000Y-94250000D02*
X191750000Y-95000000D01*
X188500000Y-71350000D02*
X190500000Y-71350000D01*
X190500000Y-91150000D01*
X188500000Y-91150000D01*
X188500000Y-71350000D01*
X213600000Y-105710000D02*
X213607394Y-92289612D01*
X214343262Y-72604728D02*
X222800000Y-72604728D01*
X222800000Y-81800000D01*
X214343262Y-81800000D01*
X214343262Y-72604728D01*
X221807217Y-89900968D02*
X228005000Y-89900000D01*
X202000000Y-96000000D02*
X202000000Y-85500000D01*
X217798693Y-94594142D02*
X221798693Y-94594142D01*
X221798693Y-96904591D01*
X217798693Y-96904591D01*
X217798693Y-94594142D01*
X194800000Y-80968084D02*
X194800000Y-83370000D01*
X227400000Y-81800000D02*
X222800000Y-81800000D01*
X193440958Y-61500000D02*
X199759363Y-61500000D01*
X199759363Y-69590999D01*
X193440958Y-69590999D01*
X193440958Y-61500000D01*
X185785724Y-90950000D02*
X185784239Y-91400000D01*
X228005000Y-105710000D02*
X213600000Y-105710000D01*
X217800000Y-92289551D02*
X213607394Y-92289612D01*
X197400000Y-57400000D02*
X197000000Y-57000000D01*
X222800000Y-81800000D02*
X227400000Y-81800000D01*
X227400000Y-83450000D01*
X222800000Y-83450000D01*
X222800000Y-81800000D01*
X214706900Y-99981377D02*
X214630710Y-99943282D01*
X214630710Y-99943282D02*
X214516424Y-99943282D01*
X214516424Y-99943282D02*
X214402138Y-99981377D01*
X214402138Y-99981377D02*
X214325948Y-100057567D01*
X214325948Y-100057567D02*
X214287853Y-100133758D01*
X214287853Y-100133758D02*
X214249757Y-100286139D01*
X214249757Y-100286139D02*
X214249757Y-100400425D01*
X214249757Y-100400425D02*
X214287853Y-100552806D01*
X214287853Y-100552806D02*
X214325948Y-100628996D01*
X214325948Y-100628996D02*
X214402138Y-100705187D01*
X214402138Y-100705187D02*
X214516424Y-100743282D01*
X214516424Y-100743282D02*
X214592615Y-100743282D01*
X214592615Y-100743282D02*
X214706900Y-100705187D01*
X214706900Y-100705187D02*
X214744996Y-100667091D01*
X214744996Y-100667091D02*
X214744996Y-100400425D01*
X214744996Y-100400425D02*
X214592615Y-100400425D01*
X215087853Y-100743282D02*
X215087853Y-99943282D01*
X215087853Y-99943282D02*
X215392615Y-99943282D01*
X215392615Y-99943282D02*
X215468805Y-99981377D01*
X215468805Y-99981377D02*
X215506900Y-100019472D01*
X215506900Y-100019472D02*
X215544996Y-100095663D01*
X215544996Y-100095663D02*
X215544996Y-100209948D01*
X215544996Y-100209948D02*
X215506900Y-100286139D01*
X215506900Y-100286139D02*
X215468805Y-100324234D01*
X215468805Y-100324234D02*
X215392615Y-100362329D01*
X215392615Y-100362329D02*
X215087853Y-100362329D01*
X215887853Y-100743282D02*
X215887853Y-99943282D01*
X216421186Y-99943282D02*
X216573567Y-99943282D01*
X216573567Y-99943282D02*
X216649757Y-99981377D01*
X216649757Y-99981377D02*
X216725948Y-100057567D01*
X216725948Y-100057567D02*
X216764043Y-100209948D01*
X216764043Y-100209948D02*
X216764043Y-100476615D01*
X216764043Y-100476615D02*
X216725948Y-100628996D01*
X216725948Y-100628996D02*
X216649757Y-100705187D01*
X216649757Y-100705187D02*
X216573567Y-100743282D01*
X216573567Y-100743282D02*
X216421186Y-100743282D01*
X216421186Y-100743282D02*
X216344995Y-100705187D01*
X216344995Y-100705187D02*
X216268805Y-100628996D01*
X216268805Y-100628996D02*
X216230709Y-100476615D01*
X216230709Y-100476615D02*
X216230709Y-100209948D01*
X216230709Y-100209948D02*
X216268805Y-100057567D01*
X216268805Y-100057567D02*
X216344995Y-99981377D01*
X216344995Y-99981377D02*
X216421186Y-99943282D01*
X217068804Y-100019472D02*
X217106900Y-99981377D01*
X217106900Y-99981377D02*
X217183090Y-99943282D01*
X217183090Y-99943282D02*
X217373566Y-99943282D01*
X217373566Y-99943282D02*
X217449757Y-99981377D01*
X217449757Y-99981377D02*
X217487852Y-100019472D01*
X217487852Y-100019472D02*
X217525947Y-100095663D01*
X217525947Y-100095663D02*
X217525947Y-100171853D01*
X217525947Y-100171853D02*
X217487852Y-100286139D01*
X217487852Y-100286139D02*
X217030709Y-100743282D01*
X217030709Y-100743282D02*
X217525947Y-100743282D01*
X204885890Y-101765102D02*
X205152557Y-102565102D01*
X205152557Y-102565102D02*
X205419223Y-101765102D01*
X205685890Y-102565102D02*
X205685890Y-101765102D01*
X205685890Y-101765102D02*
X205876366Y-101765102D01*
X205876366Y-101765102D02*
X205990652Y-101803197D01*
X205990652Y-101803197D02*
X206066842Y-101879387D01*
X206066842Y-101879387D02*
X206104937Y-101955578D01*
X206104937Y-101955578D02*
X206143033Y-102107959D01*
X206143033Y-102107959D02*
X206143033Y-102222245D01*
X206143033Y-102222245D02*
X206104937Y-102374626D01*
X206104937Y-102374626D02*
X206066842Y-102450816D01*
X206066842Y-102450816D02*
X205990652Y-102527007D01*
X205990652Y-102527007D02*
X205876366Y-102565102D01*
X205876366Y-102565102D02*
X205685890Y-102565102D01*
X206485890Y-102565102D02*
X206485890Y-101765102D01*
X206485890Y-101765102D02*
X206676366Y-101765102D01*
X206676366Y-101765102D02*
X206790652Y-101803197D01*
X206790652Y-101803197D02*
X206866842Y-101879387D01*
X206866842Y-101879387D02*
X206904937Y-101955578D01*
X206904937Y-101955578D02*
X206943033Y-102107959D01*
X206943033Y-102107959D02*
X206943033Y-102222245D01*
X206943033Y-102222245D02*
X206904937Y-102374626D01*
X206904937Y-102374626D02*
X206866842Y-102450816D01*
X206866842Y-102450816D02*
X206790652Y-102527007D01*
X206790652Y-102527007D02*
X206676366Y-102565102D01*
X206676366Y-102565102D02*
X206485890Y-102565102D01*
X207819223Y-101765102D02*
X208314461Y-101765102D01*
X208314461Y-101765102D02*
X208047795Y-102069864D01*
X208047795Y-102069864D02*
X208162080Y-102069864D01*
X208162080Y-102069864D02*
X208238271Y-102107959D01*
X208238271Y-102107959D02*
X208276366Y-102146054D01*
X208276366Y-102146054D02*
X208314461Y-102222245D01*
X208314461Y-102222245D02*
X208314461Y-102412721D01*
X208314461Y-102412721D02*
X208276366Y-102488911D01*
X208276366Y-102488911D02*
X208238271Y-102527007D01*
X208238271Y-102527007D02*
X208162080Y-102565102D01*
X208162080Y-102565102D02*
X207933509Y-102565102D01*
X207933509Y-102565102D02*
X207857318Y-102527007D01*
X207857318Y-102527007D02*
X207819223Y-102488911D01*
X208657319Y-102488911D02*
X208695414Y-102527007D01*
X208695414Y-102527007D02*
X208657319Y-102565102D01*
X208657319Y-102565102D02*
X208619223Y-102527007D01*
X208619223Y-102527007D02*
X208657319Y-102488911D01*
X208657319Y-102488911D02*
X208657319Y-102565102D01*
X208962080Y-101765102D02*
X209457318Y-101765102D01*
X209457318Y-101765102D02*
X209190652Y-102069864D01*
X209190652Y-102069864D02*
X209304937Y-102069864D01*
X209304937Y-102069864D02*
X209381128Y-102107959D01*
X209381128Y-102107959D02*
X209419223Y-102146054D01*
X209419223Y-102146054D02*
X209457318Y-102222245D01*
X209457318Y-102222245D02*
X209457318Y-102412721D01*
X209457318Y-102412721D02*
X209419223Y-102488911D01*
X209419223Y-102488911D02*
X209381128Y-102527007D01*
X209381128Y-102527007D02*
X209304937Y-102565102D01*
X209304937Y-102565102D02*
X209076366Y-102565102D01*
X209076366Y-102565102D02*
X209000175Y-102527007D01*
X209000175Y-102527007D02*
X208962080Y-102488911D01*
X209685890Y-101765102D02*
X209952557Y-102565102D01*
X209952557Y-102565102D02*
X210219223Y-101765102D01*
X211514461Y-101803197D02*
X211438271Y-101765102D01*
X211438271Y-101765102D02*
X211323985Y-101765102D01*
X211323985Y-101765102D02*
X211209699Y-101803197D01*
X211209699Y-101803197D02*
X211133509Y-101879387D01*
X211133509Y-101879387D02*
X211095414Y-101955578D01*
X211095414Y-101955578D02*
X211057318Y-102107959D01*
X211057318Y-102107959D02*
X211057318Y-102222245D01*
X211057318Y-102222245D02*
X211095414Y-102374626D01*
X211095414Y-102374626D02*
X211133509Y-102450816D01*
X211133509Y-102450816D02*
X211209699Y-102527007D01*
X211209699Y-102527007D02*
X211323985Y-102565102D01*
X211323985Y-102565102D02*
X211400176Y-102565102D01*
X211400176Y-102565102D02*
X211514461Y-102527007D01*
X211514461Y-102527007D02*
X211552557Y-102488911D01*
X211552557Y-102488911D02*
X211552557Y-102222245D01*
X211552557Y-102222245D02*
X211400176Y-102222245D01*
X211895414Y-102565102D02*
X211895414Y-101765102D01*
X211895414Y-101765102D02*
X212352557Y-102565102D01*
X212352557Y-102565102D02*
X212352557Y-101765102D01*
X212733509Y-102565102D02*
X212733509Y-101765102D01*
X212733509Y-101765102D02*
X212923985Y-101765102D01*
X212923985Y-101765102D02*
X213038271Y-101803197D01*
X213038271Y-101803197D02*
X213114461Y-101879387D01*
X213114461Y-101879387D02*
X213152556Y-101955578D01*
X213152556Y-101955578D02*
X213190652Y-102107959D01*
X213190652Y-102107959D02*
X213190652Y-102222245D01*
X213190652Y-102222245D02*
X213152556Y-102374626D01*
X213152556Y-102374626D02*
X213114461Y-102450816D01*
X213114461Y-102450816D02*
X213038271Y-102527007D01*
X213038271Y-102527007D02*
X212923985Y-102565102D01*
X212923985Y-102565102D02*
X212733509Y-102565102D01*
X216353864Y-61061871D02*
X216849102Y-61061871D01*
X216849102Y-61061871D02*
X216582436Y-61366633D01*
X216582436Y-61366633D02*
X216696721Y-61366633D01*
X216696721Y-61366633D02*
X216772912Y-61404728D01*
X216772912Y-61404728D02*
X216811007Y-61442823D01*
X216811007Y-61442823D02*
X216849102Y-61519014D01*
X216849102Y-61519014D02*
X216849102Y-61709490D01*
X216849102Y-61709490D02*
X216811007Y-61785680D01*
X216811007Y-61785680D02*
X216772912Y-61823776D01*
X216772912Y-61823776D02*
X216696721Y-61861871D01*
X216696721Y-61861871D02*
X216468150Y-61861871D01*
X216468150Y-61861871D02*
X216391959Y-61823776D01*
X216391959Y-61823776D02*
X216353864Y-61785680D01*
X217191960Y-61785680D02*
X217230055Y-61823776D01*
X217230055Y-61823776D02*
X217191960Y-61861871D01*
X217191960Y-61861871D02*
X217153864Y-61823776D01*
X217153864Y-61823776D02*
X217191960Y-61785680D01*
X217191960Y-61785680D02*
X217191960Y-61861871D01*
X217496721Y-61061871D02*
X217991959Y-61061871D01*
X217991959Y-61061871D02*
X217725293Y-61366633D01*
X217725293Y-61366633D02*
X217839578Y-61366633D01*
X217839578Y-61366633D02*
X217915769Y-61404728D01*
X217915769Y-61404728D02*
X217953864Y-61442823D01*
X217953864Y-61442823D02*
X217991959Y-61519014D01*
X217991959Y-61519014D02*
X217991959Y-61709490D01*
X217991959Y-61709490D02*
X217953864Y-61785680D01*
X217953864Y-61785680D02*
X217915769Y-61823776D01*
X217915769Y-61823776D02*
X217839578Y-61861871D01*
X217839578Y-61861871D02*
X217611007Y-61861871D01*
X217611007Y-61861871D02*
X217534816Y-61823776D01*
X217534816Y-61823776D02*
X217496721Y-61785680D01*
X218220531Y-61061871D02*
X218487198Y-61861871D01*
X218487198Y-61861871D02*
X218753864Y-61061871D01*
X180256200Y-89148935D02*
X180294295Y-89034649D01*
X180294295Y-89034649D02*
X180294295Y-88844173D01*
X180294295Y-88844173D02*
X180256200Y-88767982D01*
X180256200Y-88767982D02*
X180218104Y-88729887D01*
X180218104Y-88729887D02*
X180141914Y-88691792D01*
X180141914Y-88691792D02*
X180065723Y-88691792D01*
X180065723Y-88691792D02*
X179989533Y-88729887D01*
X179989533Y-88729887D02*
X179951438Y-88767982D01*
X179951438Y-88767982D02*
X179913342Y-88844173D01*
X179913342Y-88844173D02*
X179875247Y-88996554D01*
X179875247Y-88996554D02*
X179837152Y-89072744D01*
X179837152Y-89072744D02*
X179799057Y-89110839D01*
X179799057Y-89110839D02*
X179722866Y-89148935D01*
X179722866Y-89148935D02*
X179646676Y-89148935D01*
X179646676Y-89148935D02*
X179570485Y-89110839D01*
X179570485Y-89110839D02*
X179532390Y-89072744D01*
X179532390Y-89072744D02*
X179494295Y-88996554D01*
X179494295Y-88996554D02*
X179494295Y-88806077D01*
X179494295Y-88806077D02*
X179532390Y-88691792D01*
X180218104Y-87891791D02*
X180256200Y-87929887D01*
X180256200Y-87929887D02*
X180294295Y-88044172D01*
X180294295Y-88044172D02*
X180294295Y-88120363D01*
X180294295Y-88120363D02*
X180256200Y-88234649D01*
X180256200Y-88234649D02*
X180180009Y-88310839D01*
X180180009Y-88310839D02*
X180103819Y-88348934D01*
X180103819Y-88348934D02*
X179951438Y-88387030D01*
X179951438Y-88387030D02*
X179837152Y-88387030D01*
X179837152Y-88387030D02*
X179684771Y-88348934D01*
X179684771Y-88348934D02*
X179608580Y-88310839D01*
X179608580Y-88310839D02*
X179532390Y-88234649D01*
X179532390Y-88234649D02*
X179494295Y-88120363D01*
X179494295Y-88120363D02*
X179494295Y-88044172D01*
X179494295Y-88044172D02*
X179532390Y-87929887D01*
X179532390Y-87929887D02*
X179570485Y-87891791D01*
X180294295Y-87167982D02*
X180294295Y-87548934D01*
X180294295Y-87548934D02*
X179494295Y-87548934D01*
X180256200Y-77948935D02*
X180294295Y-77834649D01*
X180294295Y-77834649D02*
X180294295Y-77644173D01*
X180294295Y-77644173D02*
X180256200Y-77567982D01*
X180256200Y-77567982D02*
X180218104Y-77529887D01*
X180218104Y-77529887D02*
X180141914Y-77491792D01*
X180141914Y-77491792D02*
X180065723Y-77491792D01*
X180065723Y-77491792D02*
X179989533Y-77529887D01*
X179989533Y-77529887D02*
X179951438Y-77567982D01*
X179951438Y-77567982D02*
X179913342Y-77644173D01*
X179913342Y-77644173D02*
X179875247Y-77796554D01*
X179875247Y-77796554D02*
X179837152Y-77872744D01*
X179837152Y-77872744D02*
X179799057Y-77910839D01*
X179799057Y-77910839D02*
X179722866Y-77948935D01*
X179722866Y-77948935D02*
X179646676Y-77948935D01*
X179646676Y-77948935D02*
X179570485Y-77910839D01*
X179570485Y-77910839D02*
X179532390Y-77872744D01*
X179532390Y-77872744D02*
X179494295Y-77796554D01*
X179494295Y-77796554D02*
X179494295Y-77606077D01*
X179494295Y-77606077D02*
X179532390Y-77491792D01*
X180218104Y-76691791D02*
X180256200Y-76729887D01*
X180256200Y-76729887D02*
X180294295Y-76844172D01*
X180294295Y-76844172D02*
X180294295Y-76920363D01*
X180294295Y-76920363D02*
X180256200Y-77034649D01*
X180256200Y-77034649D02*
X180180009Y-77110839D01*
X180180009Y-77110839D02*
X180103819Y-77148934D01*
X180103819Y-77148934D02*
X179951438Y-77187030D01*
X179951438Y-77187030D02*
X179837152Y-77187030D01*
X179837152Y-77187030D02*
X179684771Y-77148934D01*
X179684771Y-77148934D02*
X179608580Y-77110839D01*
X179608580Y-77110839D02*
X179532390Y-77034649D01*
X179532390Y-77034649D02*
X179494295Y-76920363D01*
X179494295Y-76920363D02*
X179494295Y-76844172D01*
X179494295Y-76844172D02*
X179532390Y-76729887D01*
X179532390Y-76729887D02*
X179570485Y-76691791D01*
X180294295Y-75967982D02*
X180294295Y-76348934D01*
X180294295Y-76348934D02*
X179494295Y-76348934D01*
X180256200Y-91948935D02*
X180294295Y-91834649D01*
X180294295Y-91834649D02*
X180294295Y-91644173D01*
X180294295Y-91644173D02*
X180256200Y-91567982D01*
X180256200Y-91567982D02*
X180218104Y-91529887D01*
X180218104Y-91529887D02*
X180141914Y-91491792D01*
X180141914Y-91491792D02*
X180065723Y-91491792D01*
X180065723Y-91491792D02*
X179989533Y-91529887D01*
X179989533Y-91529887D02*
X179951438Y-91567982D01*
X179951438Y-91567982D02*
X179913342Y-91644173D01*
X179913342Y-91644173D02*
X179875247Y-91796554D01*
X179875247Y-91796554D02*
X179837152Y-91872744D01*
X179837152Y-91872744D02*
X179799057Y-91910839D01*
X179799057Y-91910839D02*
X179722866Y-91948935D01*
X179722866Y-91948935D02*
X179646676Y-91948935D01*
X179646676Y-91948935D02*
X179570485Y-91910839D01*
X179570485Y-91910839D02*
X179532390Y-91872744D01*
X179532390Y-91872744D02*
X179494295Y-91796554D01*
X179494295Y-91796554D02*
X179494295Y-91606077D01*
X179494295Y-91606077D02*
X179532390Y-91491792D01*
X180294295Y-91148934D02*
X179494295Y-91148934D01*
X179494295Y-91148934D02*
X179494295Y-90958458D01*
X179494295Y-90958458D02*
X179532390Y-90844172D01*
X179532390Y-90844172D02*
X179608580Y-90767982D01*
X179608580Y-90767982D02*
X179684771Y-90729887D01*
X179684771Y-90729887D02*
X179837152Y-90691791D01*
X179837152Y-90691791D02*
X179951438Y-90691791D01*
X179951438Y-90691791D02*
X180103819Y-90729887D01*
X180103819Y-90729887D02*
X180180009Y-90767982D01*
X180180009Y-90767982D02*
X180256200Y-90844172D01*
X180256200Y-90844172D02*
X180294295Y-90958458D01*
X180294295Y-90958458D02*
X180294295Y-91148934D01*
X180065723Y-90387030D02*
X180065723Y-90006077D01*
X180294295Y-90463220D02*
X179494295Y-90196553D01*
X179494295Y-90196553D02*
X180294295Y-89929887D01*
X180692329Y-92640333D02*
X180692329Y-91840333D01*
X180692329Y-91840333D02*
X180958995Y-92411761D01*
X180958995Y-92411761D02*
X181225662Y-91840333D01*
X181225662Y-91840333D02*
X181225662Y-92640333D01*
X181949472Y-92106999D02*
X181949472Y-92640333D01*
X181606615Y-92106999D02*
X181606615Y-92526047D01*
X181606615Y-92526047D02*
X181644710Y-92602238D01*
X181644710Y-92602238D02*
X181720900Y-92640333D01*
X181720900Y-92640333D02*
X181835186Y-92640333D01*
X181835186Y-92640333D02*
X181911377Y-92602238D01*
X181911377Y-92602238D02*
X181949472Y-92564142D01*
X182444710Y-92640333D02*
X182368520Y-92602238D01*
X182368520Y-92602238D02*
X182330425Y-92526047D01*
X182330425Y-92526047D02*
X182330425Y-91840333D01*
X182635187Y-92106999D02*
X182939949Y-92106999D01*
X182749473Y-91840333D02*
X182749473Y-92526047D01*
X182749473Y-92526047D02*
X182787568Y-92602238D01*
X182787568Y-92602238D02*
X182863758Y-92640333D01*
X182863758Y-92640333D02*
X182939949Y-92640333D01*
X183206616Y-92640333D02*
X183206616Y-92106999D01*
X183206616Y-91840333D02*
X183168520Y-91878428D01*
X183168520Y-91878428D02*
X183206616Y-91916523D01*
X183206616Y-91916523D02*
X183244711Y-91878428D01*
X183244711Y-91878428D02*
X183206616Y-91840333D01*
X183206616Y-91840333D02*
X183206616Y-91916523D01*
X183587568Y-92106999D02*
X183587568Y-92906999D01*
X183587568Y-92145095D02*
X183663758Y-92106999D01*
X183663758Y-92106999D02*
X183816139Y-92106999D01*
X183816139Y-92106999D02*
X183892330Y-92145095D01*
X183892330Y-92145095D02*
X183930425Y-92183190D01*
X183930425Y-92183190D02*
X183968520Y-92259380D01*
X183968520Y-92259380D02*
X183968520Y-92487952D01*
X183968520Y-92487952D02*
X183930425Y-92564142D01*
X183930425Y-92564142D02*
X183892330Y-92602238D01*
X183892330Y-92602238D02*
X183816139Y-92640333D01*
X183816139Y-92640333D02*
X183663758Y-92640333D01*
X183663758Y-92640333D02*
X183587568Y-92602238D01*
X184425663Y-92640333D02*
X184349473Y-92602238D01*
X184349473Y-92602238D02*
X184311378Y-92526047D01*
X184311378Y-92526047D02*
X184311378Y-91840333D01*
X185035188Y-92602238D02*
X184958997Y-92640333D01*
X184958997Y-92640333D02*
X184806616Y-92640333D01*
X184806616Y-92640333D02*
X184730426Y-92602238D01*
X184730426Y-92602238D02*
X184692330Y-92526047D01*
X184692330Y-92526047D02*
X184692330Y-92221285D01*
X184692330Y-92221285D02*
X184730426Y-92145095D01*
X184730426Y-92145095D02*
X184806616Y-92106999D01*
X184806616Y-92106999D02*
X184958997Y-92106999D01*
X184958997Y-92106999D02*
X185035188Y-92145095D01*
X185035188Y-92145095D02*
X185073283Y-92221285D01*
X185073283Y-92221285D02*
X185073283Y-92297476D01*
X185073283Y-92297476D02*
X184692330Y-92373666D01*
X185339949Y-92640333D02*
X185758997Y-92106999D01*
X185339949Y-92106999D02*
X185758997Y-92640333D01*
X186368521Y-92602238D02*
X186292330Y-92640333D01*
X186292330Y-92640333D02*
X186139949Y-92640333D01*
X186139949Y-92640333D02*
X186063759Y-92602238D01*
X186063759Y-92602238D02*
X186025663Y-92526047D01*
X186025663Y-92526047D02*
X186025663Y-92221285D01*
X186025663Y-92221285D02*
X186063759Y-92145095D01*
X186063759Y-92145095D02*
X186139949Y-92106999D01*
X186139949Y-92106999D02*
X186292330Y-92106999D01*
X186292330Y-92106999D02*
X186368521Y-92145095D01*
X186368521Y-92145095D02*
X186406616Y-92221285D01*
X186406616Y-92221285D02*
X186406616Y-92297476D01*
X186406616Y-92297476D02*
X186025663Y-92373666D01*
X186749473Y-92640333D02*
X186749473Y-92106999D01*
X186749473Y-92259380D02*
X186787568Y-92183190D01*
X186787568Y-92183190D02*
X186825663Y-92145095D01*
X186825663Y-92145095D02*
X186901854Y-92106999D01*
X186901854Y-92106999D02*
X186978044Y-92106999D01*
X187816139Y-92602238D02*
X187892330Y-92640333D01*
X187892330Y-92640333D02*
X188044711Y-92640333D01*
X188044711Y-92640333D02*
X188120901Y-92602238D01*
X188120901Y-92602238D02*
X188158997Y-92526047D01*
X188158997Y-92526047D02*
X188158997Y-92487952D01*
X188158997Y-92487952D02*
X188120901Y-92411761D01*
X188120901Y-92411761D02*
X188044711Y-92373666D01*
X188044711Y-92373666D02*
X187930425Y-92373666D01*
X187930425Y-92373666D02*
X187854235Y-92335571D01*
X187854235Y-92335571D02*
X187816139Y-92259380D01*
X187816139Y-92259380D02*
X187816139Y-92221285D01*
X187816139Y-92221285D02*
X187854235Y-92145095D01*
X187854235Y-92145095D02*
X187930425Y-92106999D01*
X187930425Y-92106999D02*
X188044711Y-92106999D01*
X188044711Y-92106999D02*
X188120901Y-92145095D01*
X188806616Y-92602238D02*
X188730425Y-92640333D01*
X188730425Y-92640333D02*
X188578044Y-92640333D01*
X188578044Y-92640333D02*
X188501854Y-92602238D01*
X188501854Y-92602238D02*
X188463758Y-92526047D01*
X188463758Y-92526047D02*
X188463758Y-92221285D01*
X188463758Y-92221285D02*
X188501854Y-92145095D01*
X188501854Y-92145095D02*
X188578044Y-92106999D01*
X188578044Y-92106999D02*
X188730425Y-92106999D01*
X188730425Y-92106999D02*
X188806616Y-92145095D01*
X188806616Y-92145095D02*
X188844711Y-92221285D01*
X188844711Y-92221285D02*
X188844711Y-92297476D01*
X188844711Y-92297476D02*
X188463758Y-92373666D01*
X189187568Y-92106999D02*
X189187568Y-92640333D01*
X189187568Y-92183190D02*
X189225663Y-92145095D01*
X189225663Y-92145095D02*
X189301853Y-92106999D01*
X189301853Y-92106999D02*
X189416139Y-92106999D01*
X189416139Y-92106999D02*
X189492330Y-92145095D01*
X189492330Y-92145095D02*
X189530425Y-92221285D01*
X189530425Y-92221285D02*
X189530425Y-92640333D01*
X189873282Y-92602238D02*
X189949473Y-92640333D01*
X189949473Y-92640333D02*
X190101854Y-92640333D01*
X190101854Y-92640333D02*
X190178044Y-92602238D01*
X190178044Y-92602238D02*
X190216140Y-92526047D01*
X190216140Y-92526047D02*
X190216140Y-92487952D01*
X190216140Y-92487952D02*
X190178044Y-92411761D01*
X190178044Y-92411761D02*
X190101854Y-92373666D01*
X190101854Y-92373666D02*
X189987568Y-92373666D01*
X189987568Y-92373666D02*
X189911378Y-92335571D01*
X189911378Y-92335571D02*
X189873282Y-92259380D01*
X189873282Y-92259380D02*
X189873282Y-92221285D01*
X189873282Y-92221285D02*
X189911378Y-92145095D01*
X189911378Y-92145095D02*
X189987568Y-92106999D01*
X189987568Y-92106999D02*
X190101854Y-92106999D01*
X190101854Y-92106999D02*
X190178044Y-92145095D01*
X190673282Y-92640333D02*
X190597092Y-92602238D01*
X190597092Y-92602238D02*
X190558997Y-92564142D01*
X190558997Y-92564142D02*
X190520901Y-92487952D01*
X190520901Y-92487952D02*
X190520901Y-92259380D01*
X190520901Y-92259380D02*
X190558997Y-92183190D01*
X190558997Y-92183190D02*
X190597092Y-92145095D01*
X190597092Y-92145095D02*
X190673282Y-92106999D01*
X190673282Y-92106999D02*
X190787568Y-92106999D01*
X190787568Y-92106999D02*
X190863759Y-92145095D01*
X190863759Y-92145095D02*
X190901854Y-92183190D01*
X190901854Y-92183190D02*
X190939949Y-92259380D01*
X190939949Y-92259380D02*
X190939949Y-92487952D01*
X190939949Y-92487952D02*
X190901854Y-92564142D01*
X190901854Y-92564142D02*
X190863759Y-92602238D01*
X190863759Y-92602238D02*
X190787568Y-92640333D01*
X190787568Y-92640333D02*
X190673282Y-92640333D01*
X191282807Y-92640333D02*
X191282807Y-92106999D01*
X191282807Y-92259380D02*
X191320902Y-92183190D01*
X191320902Y-92183190D02*
X191358997Y-92145095D01*
X191358997Y-92145095D02*
X191435188Y-92106999D01*
X191435188Y-92106999D02*
X191511378Y-92106999D01*
X192387569Y-92106999D02*
X192387569Y-92906999D01*
X192387569Y-92145095D02*
X192463759Y-92106999D01*
X192463759Y-92106999D02*
X192616140Y-92106999D01*
X192616140Y-92106999D02*
X192692331Y-92145095D01*
X192692331Y-92145095D02*
X192730426Y-92183190D01*
X192730426Y-92183190D02*
X192768521Y-92259380D01*
X192768521Y-92259380D02*
X192768521Y-92487952D01*
X192768521Y-92487952D02*
X192730426Y-92564142D01*
X192730426Y-92564142D02*
X192692331Y-92602238D01*
X192692331Y-92602238D02*
X192616140Y-92640333D01*
X192616140Y-92640333D02*
X192463759Y-92640333D01*
X192463759Y-92640333D02*
X192387569Y-92602238D01*
X193111379Y-92640333D02*
X193111379Y-92106999D01*
X193111379Y-91840333D02*
X193073283Y-91878428D01*
X193073283Y-91878428D02*
X193111379Y-91916523D01*
X193111379Y-91916523D02*
X193149474Y-91878428D01*
X193149474Y-91878428D02*
X193111379Y-91840333D01*
X193111379Y-91840333D02*
X193111379Y-91916523D01*
X193492331Y-92106999D02*
X193492331Y-92640333D01*
X193492331Y-92183190D02*
X193530426Y-92145095D01*
X193530426Y-92145095D02*
X193606616Y-92106999D01*
X193606616Y-92106999D02*
X193720902Y-92106999D01*
X193720902Y-92106999D02*
X193797093Y-92145095D01*
X193797093Y-92145095D02*
X193835188Y-92221285D01*
X193835188Y-92221285D02*
X193835188Y-92640333D01*
X194178045Y-92602238D02*
X194254236Y-92640333D01*
X194254236Y-92640333D02*
X194406617Y-92640333D01*
X194406617Y-92640333D02*
X194482807Y-92602238D01*
X194482807Y-92602238D02*
X194520903Y-92526047D01*
X194520903Y-92526047D02*
X194520903Y-92487952D01*
X194520903Y-92487952D02*
X194482807Y-92411761D01*
X194482807Y-92411761D02*
X194406617Y-92373666D01*
X194406617Y-92373666D02*
X194292331Y-92373666D01*
X194292331Y-92373666D02*
X194216141Y-92335571D01*
X194216141Y-92335571D02*
X194178045Y-92259380D01*
X194178045Y-92259380D02*
X194178045Y-92221285D01*
X194178045Y-92221285D02*
X194216141Y-92145095D01*
X194216141Y-92145095D02*
X194292331Y-92106999D01*
X194292331Y-92106999D02*
X194406617Y-92106999D01*
X194406617Y-92106999D02*
X194482807Y-92145095D01*
X179494295Y-83987030D02*
X179494295Y-83491792D01*
X179494295Y-83491792D02*
X179799057Y-83758458D01*
X179799057Y-83758458D02*
X179799057Y-83644173D01*
X179799057Y-83644173D02*
X179837152Y-83567982D01*
X179837152Y-83567982D02*
X179875247Y-83529887D01*
X179875247Y-83529887D02*
X179951438Y-83491792D01*
X179951438Y-83491792D02*
X180141914Y-83491792D01*
X180141914Y-83491792D02*
X180218104Y-83529887D01*
X180218104Y-83529887D02*
X180256200Y-83567982D01*
X180256200Y-83567982D02*
X180294295Y-83644173D01*
X180294295Y-83644173D02*
X180294295Y-83872744D01*
X180294295Y-83872744D02*
X180256200Y-83948935D01*
X180256200Y-83948935D02*
X180218104Y-83987030D01*
X180218104Y-83148934D02*
X180256200Y-83110839D01*
X180256200Y-83110839D02*
X180294295Y-83148934D01*
X180294295Y-83148934D02*
X180256200Y-83187030D01*
X180256200Y-83187030D02*
X180218104Y-83148934D01*
X180218104Y-83148934D02*
X180294295Y-83148934D01*
X179494295Y-82844173D02*
X179494295Y-82348935D01*
X179494295Y-82348935D02*
X179799057Y-82615601D01*
X179799057Y-82615601D02*
X179799057Y-82501316D01*
X179799057Y-82501316D02*
X179837152Y-82425125D01*
X179837152Y-82425125D02*
X179875247Y-82387030D01*
X179875247Y-82387030D02*
X179951438Y-82348935D01*
X179951438Y-82348935D02*
X180141914Y-82348935D01*
X180141914Y-82348935D02*
X180218104Y-82387030D01*
X180218104Y-82387030D02*
X180256200Y-82425125D01*
X180256200Y-82425125D02*
X180294295Y-82501316D01*
X180294295Y-82501316D02*
X180294295Y-82729887D01*
X180294295Y-82729887D02*
X180256200Y-82806078D01*
X180256200Y-82806078D02*
X180218104Y-82844173D01*
X179494295Y-82120363D02*
X180294295Y-81853696D01*
X180294295Y-81853696D02*
X179494295Y-81587030D01*
X215839160Y-79344295D02*
X215839160Y-78544295D01*
X215839160Y-78544295D02*
X216105826Y-79115723D01*
X216105826Y-79115723D02*
X216372493Y-78544295D01*
X216372493Y-78544295D02*
X216372493Y-79344295D01*
X217096303Y-78810961D02*
X217096303Y-79344295D01*
X216753446Y-78810961D02*
X216753446Y-79230009D01*
X216753446Y-79230009D02*
X216791541Y-79306200D01*
X216791541Y-79306200D02*
X216867731Y-79344295D01*
X216867731Y-79344295D02*
X216982017Y-79344295D01*
X216982017Y-79344295D02*
X217058208Y-79306200D01*
X217058208Y-79306200D02*
X217096303Y-79268104D01*
X217591541Y-79344295D02*
X217515351Y-79306200D01*
X217515351Y-79306200D02*
X217477256Y-79230009D01*
X217477256Y-79230009D02*
X217477256Y-78544295D01*
X217782018Y-78810961D02*
X218086780Y-78810961D01*
X217896304Y-78544295D02*
X217896304Y-79230009D01*
X217896304Y-79230009D02*
X217934399Y-79306200D01*
X217934399Y-79306200D02*
X218010589Y-79344295D01*
X218010589Y-79344295D02*
X218086780Y-79344295D01*
X218353447Y-79344295D02*
X218353447Y-78810961D01*
X218353447Y-78544295D02*
X218315351Y-78582390D01*
X218315351Y-78582390D02*
X218353447Y-78620485D01*
X218353447Y-78620485D02*
X218391542Y-78582390D01*
X218391542Y-78582390D02*
X218353447Y-78544295D01*
X218353447Y-78544295D02*
X218353447Y-78620485D01*
X218734399Y-78810961D02*
X218734399Y-79610961D01*
X218734399Y-78849057D02*
X218810589Y-78810961D01*
X218810589Y-78810961D02*
X218962970Y-78810961D01*
X218962970Y-78810961D02*
X219039161Y-78849057D01*
X219039161Y-78849057D02*
X219077256Y-78887152D01*
X219077256Y-78887152D02*
X219115351Y-78963342D01*
X219115351Y-78963342D02*
X219115351Y-79191914D01*
X219115351Y-79191914D02*
X219077256Y-79268104D01*
X219077256Y-79268104D02*
X219039161Y-79306200D01*
X219039161Y-79306200D02*
X218962970Y-79344295D01*
X218962970Y-79344295D02*
X218810589Y-79344295D01*
X218810589Y-79344295D02*
X218734399Y-79306200D01*
X219572494Y-79344295D02*
X219496304Y-79306200D01*
X219496304Y-79306200D02*
X219458209Y-79230009D01*
X219458209Y-79230009D02*
X219458209Y-78544295D01*
X220182019Y-79306200D02*
X220105828Y-79344295D01*
X220105828Y-79344295D02*
X219953447Y-79344295D01*
X219953447Y-79344295D02*
X219877257Y-79306200D01*
X219877257Y-79306200D02*
X219839161Y-79230009D01*
X219839161Y-79230009D02*
X219839161Y-78925247D01*
X219839161Y-78925247D02*
X219877257Y-78849057D01*
X219877257Y-78849057D02*
X219953447Y-78810961D01*
X219953447Y-78810961D02*
X220105828Y-78810961D01*
X220105828Y-78810961D02*
X220182019Y-78849057D01*
X220182019Y-78849057D02*
X220220114Y-78925247D01*
X220220114Y-78925247D02*
X220220114Y-79001438D01*
X220220114Y-79001438D02*
X219839161Y-79077628D01*
X220486780Y-79344295D02*
X220905828Y-78810961D01*
X220486780Y-78810961D02*
X220905828Y-79344295D01*
X221515352Y-79306200D02*
X221439161Y-79344295D01*
X221439161Y-79344295D02*
X221286780Y-79344295D01*
X221286780Y-79344295D02*
X221210590Y-79306200D01*
X221210590Y-79306200D02*
X221172494Y-79230009D01*
X221172494Y-79230009D02*
X221172494Y-78925247D01*
X221172494Y-78925247D02*
X221210590Y-78849057D01*
X221210590Y-78849057D02*
X221286780Y-78810961D01*
X221286780Y-78810961D02*
X221439161Y-78810961D01*
X221439161Y-78810961D02*
X221515352Y-78849057D01*
X221515352Y-78849057D02*
X221553447Y-78925247D01*
X221553447Y-78925247D02*
X221553447Y-79001438D01*
X221553447Y-79001438D02*
X221172494Y-79077628D01*
X221896304Y-79344295D02*
X221896304Y-78810961D01*
X221896304Y-78963342D02*
X221934399Y-78887152D01*
X221934399Y-78887152D02*
X221972494Y-78849057D01*
X221972494Y-78849057D02*
X222048685Y-78810961D01*
X222048685Y-78810961D02*
X222124875Y-78810961D01*
X184346303Y-69018104D02*
X184308207Y-69056200D01*
X184308207Y-69056200D02*
X184193922Y-69094295D01*
X184193922Y-69094295D02*
X184117731Y-69094295D01*
X184117731Y-69094295D02*
X184003445Y-69056200D01*
X184003445Y-69056200D02*
X183927255Y-68980009D01*
X183927255Y-68980009D02*
X183889160Y-68903819D01*
X183889160Y-68903819D02*
X183851064Y-68751438D01*
X183851064Y-68751438D02*
X183851064Y-68637152D01*
X183851064Y-68637152D02*
X183889160Y-68484771D01*
X183889160Y-68484771D02*
X183927255Y-68408580D01*
X183927255Y-68408580D02*
X184003445Y-68332390D01*
X184003445Y-68332390D02*
X184117731Y-68294295D01*
X184117731Y-68294295D02*
X184193922Y-68294295D01*
X184193922Y-68294295D02*
X184308207Y-68332390D01*
X184308207Y-68332390D02*
X184346303Y-68370485D01*
X184651064Y-69056200D02*
X184765350Y-69094295D01*
X184765350Y-69094295D02*
X184955826Y-69094295D01*
X184955826Y-69094295D02*
X185032017Y-69056200D01*
X185032017Y-69056200D02*
X185070112Y-69018104D01*
X185070112Y-69018104D02*
X185108207Y-68941914D01*
X185108207Y-68941914D02*
X185108207Y-68865723D01*
X185108207Y-68865723D02*
X185070112Y-68789533D01*
X185070112Y-68789533D02*
X185032017Y-68751438D01*
X185032017Y-68751438D02*
X184955826Y-68713342D01*
X184955826Y-68713342D02*
X184803445Y-68675247D01*
X184803445Y-68675247D02*
X184727255Y-68637152D01*
X184727255Y-68637152D02*
X184689160Y-68599057D01*
X184689160Y-68599057D02*
X184651064Y-68522866D01*
X184651064Y-68522866D02*
X184651064Y-68446676D01*
X184651064Y-68446676D02*
X184689160Y-68370485D01*
X184689160Y-68370485D02*
X184727255Y-68332390D01*
X184727255Y-68332390D02*
X184803445Y-68294295D01*
X184803445Y-68294295D02*
X184993922Y-68294295D01*
X184993922Y-68294295D02*
X185108207Y-68332390D01*
X203005548Y-95703356D02*
X202472214Y-95703356D01*
X202624595Y-95703356D02*
X202548405Y-95665261D01*
X202548405Y-95665261D02*
X202510310Y-95627166D01*
X202510310Y-95627166D02*
X202472214Y-95550975D01*
X202472214Y-95550975D02*
X202472214Y-95474785D01*
X202967453Y-94903356D02*
X203005548Y-94979547D01*
X203005548Y-94979547D02*
X203005548Y-95131928D01*
X203005548Y-95131928D02*
X202967453Y-95208118D01*
X202967453Y-95208118D02*
X202891262Y-95246214D01*
X202891262Y-95246214D02*
X202586500Y-95246214D01*
X202586500Y-95246214D02*
X202510310Y-95208118D01*
X202510310Y-95208118D02*
X202472214Y-95131928D01*
X202472214Y-95131928D02*
X202472214Y-94979547D01*
X202472214Y-94979547D02*
X202510310Y-94903356D01*
X202510310Y-94903356D02*
X202586500Y-94865261D01*
X202586500Y-94865261D02*
X202662691Y-94865261D01*
X202662691Y-94865261D02*
X202738881Y-95246214D01*
X202472214Y-94598595D02*
X203005548Y-94408119D01*
X203005548Y-94408119D02*
X202472214Y-94217642D01*
X202967453Y-93608118D02*
X203005548Y-93684309D01*
X203005548Y-93684309D02*
X203005548Y-93836690D01*
X203005548Y-93836690D02*
X202967453Y-93912880D01*
X202967453Y-93912880D02*
X202891262Y-93950976D01*
X202891262Y-93950976D02*
X202586500Y-93950976D01*
X202586500Y-93950976D02*
X202510310Y-93912880D01*
X202510310Y-93912880D02*
X202472214Y-93836690D01*
X202472214Y-93836690D02*
X202472214Y-93684309D01*
X202472214Y-93684309D02*
X202510310Y-93608118D01*
X202510310Y-93608118D02*
X202586500Y-93570023D01*
X202586500Y-93570023D02*
X202662691Y-93570023D01*
X202662691Y-93570023D02*
X202738881Y-93950976D01*
X203005548Y-93227166D02*
X202472214Y-93227166D01*
X202624595Y-93227166D02*
X202548405Y-93189071D01*
X202548405Y-93189071D02*
X202510310Y-93150976D01*
X202510310Y-93150976D02*
X202472214Y-93074785D01*
X202472214Y-93074785D02*
X202472214Y-92998595D01*
X202967453Y-92770024D02*
X203005548Y-92693833D01*
X203005548Y-92693833D02*
X203005548Y-92541452D01*
X203005548Y-92541452D02*
X202967453Y-92465262D01*
X202967453Y-92465262D02*
X202891262Y-92427166D01*
X202891262Y-92427166D02*
X202853167Y-92427166D01*
X202853167Y-92427166D02*
X202776976Y-92465262D01*
X202776976Y-92465262D02*
X202738881Y-92541452D01*
X202738881Y-92541452D02*
X202738881Y-92655738D01*
X202738881Y-92655738D02*
X202700786Y-92731928D01*
X202700786Y-92731928D02*
X202624595Y-92770024D01*
X202624595Y-92770024D02*
X202586500Y-92770024D01*
X202586500Y-92770024D02*
X202510310Y-92731928D01*
X202510310Y-92731928D02*
X202472214Y-92655738D01*
X202472214Y-92655738D02*
X202472214Y-92541452D01*
X202472214Y-92541452D02*
X202510310Y-92465262D01*
X202967453Y-91779547D02*
X203005548Y-91855738D01*
X203005548Y-91855738D02*
X203005548Y-92008119D01*
X203005548Y-92008119D02*
X202967453Y-92084309D01*
X202967453Y-92084309D02*
X202891262Y-92122405D01*
X202891262Y-92122405D02*
X202586500Y-92122405D01*
X202586500Y-92122405D02*
X202510310Y-92084309D01*
X202510310Y-92084309D02*
X202472214Y-92008119D01*
X202472214Y-92008119D02*
X202472214Y-91855738D01*
X202472214Y-91855738D02*
X202510310Y-91779547D01*
X202510310Y-91779547D02*
X202586500Y-91741452D01*
X202586500Y-91741452D02*
X202662691Y-91741452D01*
X202662691Y-91741452D02*
X202738881Y-92122405D01*
X203005548Y-91055738D02*
X202205548Y-91055738D01*
X202967453Y-91055738D02*
X203005548Y-91131929D01*
X203005548Y-91131929D02*
X203005548Y-91284310D01*
X203005548Y-91284310D02*
X202967453Y-91360500D01*
X202967453Y-91360500D02*
X202929357Y-91398595D01*
X202929357Y-91398595D02*
X202853167Y-91436691D01*
X202853167Y-91436691D02*
X202624595Y-91436691D01*
X202624595Y-91436691D02*
X202548405Y-91398595D01*
X202548405Y-91398595D02*
X202510310Y-91360500D01*
X202510310Y-91360500D02*
X202472214Y-91284310D01*
X202472214Y-91284310D02*
X202472214Y-91131929D01*
X202472214Y-91131929D02*
X202510310Y-91055738D01*
X202472214Y-90065261D02*
X203272214Y-90065261D01*
X202510310Y-90065261D02*
X202472214Y-89989071D01*
X202472214Y-89989071D02*
X202472214Y-89836690D01*
X202472214Y-89836690D02*
X202510310Y-89760499D01*
X202510310Y-89760499D02*
X202548405Y-89722404D01*
X202548405Y-89722404D02*
X202624595Y-89684309D01*
X202624595Y-89684309D02*
X202853167Y-89684309D01*
X202853167Y-89684309D02*
X202929357Y-89722404D01*
X202929357Y-89722404D02*
X202967453Y-89760499D01*
X202967453Y-89760499D02*
X203005548Y-89836690D01*
X203005548Y-89836690D02*
X203005548Y-89989071D01*
X203005548Y-89989071D02*
X202967453Y-90065261D01*
X203005548Y-89227166D02*
X202967453Y-89303356D01*
X202967453Y-89303356D02*
X202929357Y-89341451D01*
X202929357Y-89341451D02*
X202853167Y-89379547D01*
X202853167Y-89379547D02*
X202624595Y-89379547D01*
X202624595Y-89379547D02*
X202548405Y-89341451D01*
X202548405Y-89341451D02*
X202510310Y-89303356D01*
X202510310Y-89303356D02*
X202472214Y-89227166D01*
X202472214Y-89227166D02*
X202472214Y-89112880D01*
X202472214Y-89112880D02*
X202510310Y-89036689D01*
X202510310Y-89036689D02*
X202548405Y-88998594D01*
X202548405Y-88998594D02*
X202624595Y-88960499D01*
X202624595Y-88960499D02*
X202853167Y-88960499D01*
X202853167Y-88960499D02*
X202929357Y-88998594D01*
X202929357Y-88998594D02*
X202967453Y-89036689D01*
X202967453Y-89036689D02*
X203005548Y-89112880D01*
X203005548Y-89112880D02*
X203005548Y-89227166D01*
X203005548Y-88503356D02*
X202967453Y-88579546D01*
X202967453Y-88579546D02*
X202891262Y-88617641D01*
X202891262Y-88617641D02*
X202205548Y-88617641D01*
X203005548Y-87855736D02*
X202586500Y-87855736D01*
X202586500Y-87855736D02*
X202510310Y-87893831D01*
X202510310Y-87893831D02*
X202472214Y-87970022D01*
X202472214Y-87970022D02*
X202472214Y-88122403D01*
X202472214Y-88122403D02*
X202510310Y-88198593D01*
X202967453Y-87855736D02*
X203005548Y-87931927D01*
X203005548Y-87931927D02*
X203005548Y-88122403D01*
X203005548Y-88122403D02*
X202967453Y-88198593D01*
X202967453Y-88198593D02*
X202891262Y-88236689D01*
X202891262Y-88236689D02*
X202815072Y-88236689D01*
X202815072Y-88236689D02*
X202738881Y-88198593D01*
X202738881Y-88198593D02*
X202700786Y-88122403D01*
X202700786Y-88122403D02*
X202700786Y-87931927D01*
X202700786Y-87931927D02*
X202662691Y-87855736D01*
X203005548Y-87474783D02*
X202472214Y-87474783D01*
X202624595Y-87474783D02*
X202548405Y-87436688D01*
X202548405Y-87436688D02*
X202510310Y-87398593D01*
X202510310Y-87398593D02*
X202472214Y-87322402D01*
X202472214Y-87322402D02*
X202472214Y-87246212D01*
X203005548Y-86979545D02*
X202472214Y-86979545D01*
X202205548Y-86979545D02*
X202243643Y-87017641D01*
X202243643Y-87017641D02*
X202281738Y-86979545D01*
X202281738Y-86979545D02*
X202243643Y-86941450D01*
X202243643Y-86941450D02*
X202205548Y-86979545D01*
X202205548Y-86979545D02*
X202281738Y-86979545D01*
X202472214Y-86712879D02*
X202472214Y-86408117D01*
X202205548Y-86598593D02*
X202891262Y-86598593D01*
X202891262Y-86598593D02*
X202967453Y-86560498D01*
X202967453Y-86560498D02*
X203005548Y-86484308D01*
X203005548Y-86484308D02*
X203005548Y-86408117D01*
X202472214Y-86217641D02*
X203005548Y-86027165D01*
X202472214Y-85836688D02*
X203005548Y-86027165D01*
X203005548Y-86027165D02*
X203196024Y-86103355D01*
X203196024Y-86103355D02*
X203234119Y-86141450D01*
X203234119Y-86141450D02*
X203272214Y-86217641D01*
X203760169Y-95703356D02*
X204560169Y-95703356D01*
X203798265Y-95703356D02*
X203760169Y-95627166D01*
X203760169Y-95627166D02*
X203760169Y-95474785D01*
X203760169Y-95474785D02*
X203798265Y-95398594D01*
X203798265Y-95398594D02*
X203836360Y-95360499D01*
X203836360Y-95360499D02*
X203912550Y-95322404D01*
X203912550Y-95322404D02*
X204141122Y-95322404D01*
X204141122Y-95322404D02*
X204217312Y-95360499D01*
X204217312Y-95360499D02*
X204255408Y-95398594D01*
X204255408Y-95398594D02*
X204293503Y-95474785D01*
X204293503Y-95474785D02*
X204293503Y-95627166D01*
X204293503Y-95627166D02*
X204255408Y-95703356D01*
X204293503Y-94979546D02*
X203760169Y-94979546D01*
X203912550Y-94979546D02*
X203836360Y-94941451D01*
X203836360Y-94941451D02*
X203798265Y-94903356D01*
X203798265Y-94903356D02*
X203760169Y-94827165D01*
X203760169Y-94827165D02*
X203760169Y-94750975D01*
X204293503Y-94370023D02*
X204255408Y-94446213D01*
X204255408Y-94446213D02*
X204217312Y-94484308D01*
X204217312Y-94484308D02*
X204141122Y-94522404D01*
X204141122Y-94522404D02*
X203912550Y-94522404D01*
X203912550Y-94522404D02*
X203836360Y-94484308D01*
X203836360Y-94484308D02*
X203798265Y-94446213D01*
X203798265Y-94446213D02*
X203760169Y-94370023D01*
X203760169Y-94370023D02*
X203760169Y-94255737D01*
X203760169Y-94255737D02*
X203798265Y-94179546D01*
X203798265Y-94179546D02*
X203836360Y-94141451D01*
X203836360Y-94141451D02*
X203912550Y-94103356D01*
X203912550Y-94103356D02*
X204141122Y-94103356D01*
X204141122Y-94103356D02*
X204217312Y-94141451D01*
X204217312Y-94141451D02*
X204255408Y-94179546D01*
X204255408Y-94179546D02*
X204293503Y-94255737D01*
X204293503Y-94255737D02*
X204293503Y-94370023D01*
X203760169Y-93874784D02*
X203760169Y-93570022D01*
X203493503Y-93760498D02*
X204179217Y-93760498D01*
X204179217Y-93760498D02*
X204255408Y-93722403D01*
X204255408Y-93722403D02*
X204293503Y-93646213D01*
X204293503Y-93646213D02*
X204293503Y-93570022D01*
X204255408Y-92998593D02*
X204293503Y-93074784D01*
X204293503Y-93074784D02*
X204293503Y-93227165D01*
X204293503Y-93227165D02*
X204255408Y-93303355D01*
X204255408Y-93303355D02*
X204179217Y-93341451D01*
X204179217Y-93341451D02*
X203874455Y-93341451D01*
X203874455Y-93341451D02*
X203798265Y-93303355D01*
X203798265Y-93303355D02*
X203760169Y-93227165D01*
X203760169Y-93227165D02*
X203760169Y-93074784D01*
X203760169Y-93074784D02*
X203798265Y-92998593D01*
X203798265Y-92998593D02*
X203874455Y-92960498D01*
X203874455Y-92960498D02*
X203950646Y-92960498D01*
X203950646Y-92960498D02*
X204026836Y-93341451D01*
X204255408Y-92274784D02*
X204293503Y-92350975D01*
X204293503Y-92350975D02*
X204293503Y-92503356D01*
X204293503Y-92503356D02*
X204255408Y-92579546D01*
X204255408Y-92579546D02*
X204217312Y-92617641D01*
X204217312Y-92617641D02*
X204141122Y-92655737D01*
X204141122Y-92655737D02*
X203912550Y-92655737D01*
X203912550Y-92655737D02*
X203836360Y-92617641D01*
X203836360Y-92617641D02*
X203798265Y-92579546D01*
X203798265Y-92579546D02*
X203760169Y-92503356D01*
X203760169Y-92503356D02*
X203760169Y-92350975D01*
X203760169Y-92350975D02*
X203798265Y-92274784D01*
X203760169Y-92046213D02*
X203760169Y-91741451D01*
X203493503Y-91931927D02*
X204179217Y-91931927D01*
X204179217Y-91931927D02*
X204255408Y-91893832D01*
X204255408Y-91893832D02*
X204293503Y-91817642D01*
X204293503Y-91817642D02*
X204293503Y-91741451D01*
X204293503Y-91474784D02*
X203760169Y-91474784D01*
X203493503Y-91474784D02*
X203531598Y-91512880D01*
X203531598Y-91512880D02*
X203569693Y-91474784D01*
X203569693Y-91474784D02*
X203531598Y-91436689D01*
X203531598Y-91436689D02*
X203493503Y-91474784D01*
X203493503Y-91474784D02*
X203569693Y-91474784D01*
X204293503Y-90979547D02*
X204255408Y-91055737D01*
X204255408Y-91055737D02*
X204217312Y-91093832D01*
X204217312Y-91093832D02*
X204141122Y-91131928D01*
X204141122Y-91131928D02*
X203912550Y-91131928D01*
X203912550Y-91131928D02*
X203836360Y-91093832D01*
X203836360Y-91093832D02*
X203798265Y-91055737D01*
X203798265Y-91055737D02*
X203760169Y-90979547D01*
X203760169Y-90979547D02*
X203760169Y-90865261D01*
X203760169Y-90865261D02*
X203798265Y-90789070D01*
X203798265Y-90789070D02*
X203836360Y-90750975D01*
X203836360Y-90750975D02*
X203912550Y-90712880D01*
X203912550Y-90712880D02*
X204141122Y-90712880D01*
X204141122Y-90712880D02*
X204217312Y-90750975D01*
X204217312Y-90750975D02*
X204255408Y-90789070D01*
X204255408Y-90789070D02*
X204293503Y-90865261D01*
X204293503Y-90865261D02*
X204293503Y-90979547D01*
X203760169Y-90370022D02*
X204293503Y-90370022D01*
X203836360Y-90370022D02*
X203798265Y-90331927D01*
X203798265Y-90331927D02*
X203760169Y-90255737D01*
X203760169Y-90255737D02*
X203760169Y-90141451D01*
X203760169Y-90141451D02*
X203798265Y-90065260D01*
X203798265Y-90065260D02*
X203874455Y-90027165D01*
X203874455Y-90027165D02*
X204293503Y-90027165D01*
X179494295Y-72187030D02*
X179494295Y-71691792D01*
X179494295Y-71691792D02*
X179799057Y-71958458D01*
X179799057Y-71958458D02*
X179799057Y-71844173D01*
X179799057Y-71844173D02*
X179837152Y-71767982D01*
X179837152Y-71767982D02*
X179875247Y-71729887D01*
X179875247Y-71729887D02*
X179951438Y-71691792D01*
X179951438Y-71691792D02*
X180141914Y-71691792D01*
X180141914Y-71691792D02*
X180218104Y-71729887D01*
X180218104Y-71729887D02*
X180256200Y-71767982D01*
X180256200Y-71767982D02*
X180294295Y-71844173D01*
X180294295Y-71844173D02*
X180294295Y-72072744D01*
X180294295Y-72072744D02*
X180256200Y-72148935D01*
X180256200Y-72148935D02*
X180218104Y-72187030D01*
X180218104Y-71348934D02*
X180256200Y-71310839D01*
X180256200Y-71310839D02*
X180294295Y-71348934D01*
X180294295Y-71348934D02*
X180256200Y-71387030D01*
X180256200Y-71387030D02*
X180218104Y-71348934D01*
X180218104Y-71348934D02*
X180294295Y-71348934D01*
X179494295Y-71044173D02*
X179494295Y-70548935D01*
X179494295Y-70548935D02*
X179799057Y-70815601D01*
X179799057Y-70815601D02*
X179799057Y-70701316D01*
X179799057Y-70701316D02*
X179837152Y-70625125D01*
X179837152Y-70625125D02*
X179875247Y-70587030D01*
X179875247Y-70587030D02*
X179951438Y-70548935D01*
X179951438Y-70548935D02*
X180141914Y-70548935D01*
X180141914Y-70548935D02*
X180218104Y-70587030D01*
X180218104Y-70587030D02*
X180256200Y-70625125D01*
X180256200Y-70625125D02*
X180294295Y-70701316D01*
X180294295Y-70701316D02*
X180294295Y-70929887D01*
X180294295Y-70929887D02*
X180256200Y-71006078D01*
X180256200Y-71006078D02*
X180218104Y-71044173D01*
X179494295Y-70320363D02*
X180294295Y-70053696D01*
X180294295Y-70053696D02*
X179494295Y-69787030D01*
X210356200Y-75148935D02*
X210394295Y-75034649D01*
X210394295Y-75034649D02*
X210394295Y-74844173D01*
X210394295Y-74844173D02*
X210356200Y-74767982D01*
X210356200Y-74767982D02*
X210318104Y-74729887D01*
X210318104Y-74729887D02*
X210241914Y-74691792D01*
X210241914Y-74691792D02*
X210165723Y-74691792D01*
X210165723Y-74691792D02*
X210089533Y-74729887D01*
X210089533Y-74729887D02*
X210051438Y-74767982D01*
X210051438Y-74767982D02*
X210013342Y-74844173D01*
X210013342Y-74844173D02*
X209975247Y-74996554D01*
X209975247Y-74996554D02*
X209937152Y-75072744D01*
X209937152Y-75072744D02*
X209899057Y-75110839D01*
X209899057Y-75110839D02*
X209822866Y-75148935D01*
X209822866Y-75148935D02*
X209746676Y-75148935D01*
X209746676Y-75148935D02*
X209670485Y-75110839D01*
X209670485Y-75110839D02*
X209632390Y-75072744D01*
X209632390Y-75072744D02*
X209594295Y-74996554D01*
X209594295Y-74996554D02*
X209594295Y-74806077D01*
X209594295Y-74806077D02*
X209632390Y-74691792D01*
X210394295Y-74348934D02*
X209594295Y-74348934D01*
X209594295Y-74348934D02*
X209594295Y-74158458D01*
X209594295Y-74158458D02*
X209632390Y-74044172D01*
X209632390Y-74044172D02*
X209708580Y-73967982D01*
X209708580Y-73967982D02*
X209784771Y-73929887D01*
X209784771Y-73929887D02*
X209937152Y-73891791D01*
X209937152Y-73891791D02*
X210051438Y-73891791D01*
X210051438Y-73891791D02*
X210203819Y-73929887D01*
X210203819Y-73929887D02*
X210280009Y-73967982D01*
X210280009Y-73967982D02*
X210356200Y-74044172D01*
X210356200Y-74044172D02*
X210394295Y-74158458D01*
X210394295Y-74158458D02*
X210394295Y-74348934D01*
X210165723Y-73587030D02*
X210165723Y-73206077D01*
X210394295Y-73663220D02*
X209594295Y-73396553D01*
X209594295Y-73396553D02*
X210394295Y-73129887D01*
X186344112Y-99345809D02*
X186486969Y-99393428D01*
X186486969Y-99393428D02*
X186534588Y-99441047D01*
X186534588Y-99441047D02*
X186582207Y-99536285D01*
X186582207Y-99536285D02*
X186582207Y-99679142D01*
X186582207Y-99679142D02*
X186534588Y-99774380D01*
X186534588Y-99774380D02*
X186486969Y-99822000D01*
X186486969Y-99822000D02*
X186391731Y-99869619D01*
X186391731Y-99869619D02*
X186010779Y-99869619D01*
X186010779Y-99869619D02*
X186010779Y-98869619D01*
X186010779Y-98869619D02*
X186344112Y-98869619D01*
X186344112Y-98869619D02*
X186439350Y-98917238D01*
X186439350Y-98917238D02*
X186486969Y-98964857D01*
X186486969Y-98964857D02*
X186534588Y-99060095D01*
X186534588Y-99060095D02*
X186534588Y-99155333D01*
X186534588Y-99155333D02*
X186486969Y-99250571D01*
X186486969Y-99250571D02*
X186439350Y-99298190D01*
X186439350Y-99298190D02*
X186344112Y-99345809D01*
X186344112Y-99345809D02*
X186010779Y-99345809D01*
X187439350Y-99202952D02*
X187439350Y-99869619D01*
X187010779Y-99202952D02*
X187010779Y-99726761D01*
X187010779Y-99726761D02*
X187058398Y-99822000D01*
X187058398Y-99822000D02*
X187153636Y-99869619D01*
X187153636Y-99869619D02*
X187296493Y-99869619D01*
X187296493Y-99869619D02*
X187391731Y-99822000D01*
X187391731Y-99822000D02*
X187439350Y-99774380D01*
X188344112Y-99822000D02*
X188248874Y-99869619D01*
X188248874Y-99869619D02*
X188058398Y-99869619D01*
X188058398Y-99869619D02*
X187963160Y-99822000D01*
X187963160Y-99822000D02*
X187915541Y-99774380D01*
X187915541Y-99774380D02*
X187867922Y-99679142D01*
X187867922Y-99679142D02*
X187867922Y-99393428D01*
X187867922Y-99393428D02*
X187915541Y-99298190D01*
X187915541Y-99298190D02*
X187963160Y-99250571D01*
X187963160Y-99250571D02*
X188058398Y-99202952D01*
X188058398Y-99202952D02*
X188248874Y-99202952D01*
X188248874Y-99202952D02*
X188344112Y-99250571D01*
X188772684Y-99869619D02*
X188772684Y-98869619D01*
X188867922Y-99488666D02*
X189153636Y-99869619D01*
X189153636Y-99202952D02*
X188772684Y-99583904D01*
X190915541Y-99774380D02*
X190867922Y-99822000D01*
X190867922Y-99822000D02*
X190725065Y-99869619D01*
X190725065Y-99869619D02*
X190629827Y-99869619D01*
X190629827Y-99869619D02*
X190486970Y-99822000D01*
X190486970Y-99822000D02*
X190391732Y-99726761D01*
X190391732Y-99726761D02*
X190344113Y-99631523D01*
X190344113Y-99631523D02*
X190296494Y-99441047D01*
X190296494Y-99441047D02*
X190296494Y-99298190D01*
X190296494Y-99298190D02*
X190344113Y-99107714D01*
X190344113Y-99107714D02*
X190391732Y-99012476D01*
X190391732Y-99012476D02*
X190486970Y-98917238D01*
X190486970Y-98917238D02*
X190629827Y-98869619D01*
X190629827Y-98869619D02*
X190725065Y-98869619D01*
X190725065Y-98869619D02*
X190867922Y-98917238D01*
X190867922Y-98917238D02*
X190915541Y-98964857D01*
X191486970Y-99869619D02*
X191391732Y-99822000D01*
X191391732Y-99822000D02*
X191344113Y-99774380D01*
X191344113Y-99774380D02*
X191296494Y-99679142D01*
X191296494Y-99679142D02*
X191296494Y-99393428D01*
X191296494Y-99393428D02*
X191344113Y-99298190D01*
X191344113Y-99298190D02*
X191391732Y-99250571D01*
X191391732Y-99250571D02*
X191486970Y-99202952D01*
X191486970Y-99202952D02*
X191629827Y-99202952D01*
X191629827Y-99202952D02*
X191725065Y-99250571D01*
X191725065Y-99250571D02*
X191772684Y-99298190D01*
X191772684Y-99298190D02*
X191820303Y-99393428D01*
X191820303Y-99393428D02*
X191820303Y-99679142D01*
X191820303Y-99679142D02*
X191772684Y-99774380D01*
X191772684Y-99774380D02*
X191725065Y-99822000D01*
X191725065Y-99822000D02*
X191629827Y-99869619D01*
X191629827Y-99869619D02*
X191486970Y-99869619D01*
X192248875Y-99202952D02*
X192248875Y-99869619D01*
X192248875Y-99298190D02*
X192296494Y-99250571D01*
X192296494Y-99250571D02*
X192391732Y-99202952D01*
X192391732Y-99202952D02*
X192534589Y-99202952D01*
X192534589Y-99202952D02*
X192629827Y-99250571D01*
X192629827Y-99250571D02*
X192677446Y-99345809D01*
X192677446Y-99345809D02*
X192677446Y-99869619D01*
X193058399Y-99202952D02*
X193296494Y-99869619D01*
X193296494Y-99869619D02*
X193534589Y-99202952D01*
X194296494Y-99822000D02*
X194201256Y-99869619D01*
X194201256Y-99869619D02*
X194010780Y-99869619D01*
X194010780Y-99869619D02*
X193915542Y-99822000D01*
X193915542Y-99822000D02*
X193867923Y-99726761D01*
X193867923Y-99726761D02*
X193867923Y-99345809D01*
X193867923Y-99345809D02*
X193915542Y-99250571D01*
X193915542Y-99250571D02*
X194010780Y-99202952D01*
X194010780Y-99202952D02*
X194201256Y-99202952D01*
X194201256Y-99202952D02*
X194296494Y-99250571D01*
X194296494Y-99250571D02*
X194344113Y-99345809D01*
X194344113Y-99345809D02*
X194344113Y-99441047D01*
X194344113Y-99441047D02*
X193867923Y-99536285D01*
X194772685Y-99869619D02*
X194772685Y-99202952D01*
X194772685Y-99393428D02*
X194820304Y-99298190D01*
X194820304Y-99298190D02*
X194867923Y-99250571D01*
X194867923Y-99250571D02*
X194963161Y-99202952D01*
X194963161Y-99202952D02*
X195058399Y-99202952D01*
X195248876Y-99202952D02*
X195629828Y-99202952D01*
X195391733Y-98869619D02*
X195391733Y-99726761D01*
X195391733Y-99726761D02*
X195439352Y-99822000D01*
X195439352Y-99822000D02*
X195534590Y-99869619D01*
X195534590Y-99869619D02*
X195629828Y-99869619D01*
X196106019Y-99869619D02*
X196010781Y-99822000D01*
X196010781Y-99822000D02*
X195963162Y-99774380D01*
X195963162Y-99774380D02*
X195915543Y-99679142D01*
X195915543Y-99679142D02*
X195915543Y-99393428D01*
X195915543Y-99393428D02*
X195963162Y-99298190D01*
X195963162Y-99298190D02*
X196010781Y-99250571D01*
X196010781Y-99250571D02*
X196106019Y-99202952D01*
X196106019Y-99202952D02*
X196248876Y-99202952D01*
X196248876Y-99202952D02*
X196344114Y-99250571D01*
X196344114Y-99250571D02*
X196391733Y-99298190D01*
X196391733Y-99298190D02*
X196439352Y-99393428D01*
X196439352Y-99393428D02*
X196439352Y-99679142D01*
X196439352Y-99679142D02*
X196391733Y-99774380D01*
X196391733Y-99774380D02*
X196344114Y-99822000D01*
X196344114Y-99822000D02*
X196248876Y-99869619D01*
X196248876Y-99869619D02*
X196106019Y-99869619D01*
X196867924Y-99869619D02*
X196867924Y-99202952D01*
X196867924Y-99393428D02*
X196915543Y-99298190D01*
X196915543Y-99298190D02*
X196963162Y-99250571D01*
X196963162Y-99250571D02*
X197058400Y-99202952D01*
X197058400Y-99202952D02*
X197153638Y-99202952D01*
X209033000Y-80294139D02*
X208233000Y-80294139D01*
X208233000Y-80294139D02*
X208233000Y-79989377D01*
X208233000Y-79989377D02*
X208271095Y-79913187D01*
X208271095Y-79913187D02*
X208309190Y-79875092D01*
X208309190Y-79875092D02*
X208385381Y-79836996D01*
X208385381Y-79836996D02*
X208499666Y-79836996D01*
X208499666Y-79836996D02*
X208575857Y-79875092D01*
X208575857Y-79875092D02*
X208613952Y-79913187D01*
X208613952Y-79913187D02*
X208652047Y-79989377D01*
X208652047Y-79989377D02*
X208652047Y-80294139D01*
X208499666Y-79151282D02*
X209033000Y-79151282D01*
X208499666Y-79494139D02*
X208918714Y-79494139D01*
X208918714Y-79494139D02*
X208994905Y-79456044D01*
X208994905Y-79456044D02*
X209033000Y-79379854D01*
X209033000Y-79379854D02*
X209033000Y-79265568D01*
X209033000Y-79265568D02*
X208994905Y-79189377D01*
X208994905Y-79189377D02*
X208956809Y-79151282D01*
X209033000Y-78656044D02*
X208994905Y-78732234D01*
X208994905Y-78732234D02*
X208918714Y-78770329D01*
X208918714Y-78770329D02*
X208233000Y-78770329D01*
X209033000Y-78236996D02*
X208994905Y-78313186D01*
X208994905Y-78313186D02*
X208918714Y-78351281D01*
X208918714Y-78351281D02*
X208233000Y-78351281D01*
X208499666Y-76979852D02*
X209033000Y-76979852D01*
X208499666Y-77322709D02*
X208918714Y-77322709D01*
X208918714Y-77322709D02*
X208994905Y-77284614D01*
X208994905Y-77284614D02*
X209033000Y-77208424D01*
X209033000Y-77208424D02*
X209033000Y-77094138D01*
X209033000Y-77094138D02*
X208994905Y-77017947D01*
X208994905Y-77017947D02*
X208956809Y-76979852D01*
X208499666Y-76598899D02*
X209299666Y-76598899D01*
X208537762Y-76598899D02*
X208499666Y-76522709D01*
X208499666Y-76522709D02*
X208499666Y-76370328D01*
X208499666Y-76370328D02*
X208537762Y-76294137D01*
X208537762Y-76294137D02*
X208575857Y-76256042D01*
X208575857Y-76256042D02*
X208652047Y-76217947D01*
X208652047Y-76217947D02*
X208880619Y-76217947D01*
X208880619Y-76217947D02*
X208956809Y-76256042D01*
X208956809Y-76256042D02*
X208994905Y-76294137D01*
X208994905Y-76294137D02*
X209033000Y-76370328D01*
X209033000Y-76370328D02*
X209033000Y-76522709D01*
X209033000Y-76522709D02*
X208994905Y-76598899D01*
X209033000Y-75265565D02*
X208233000Y-75265565D01*
X208233000Y-75265565D02*
X208804428Y-74998899D01*
X208804428Y-74998899D02*
X208233000Y-74732232D01*
X208233000Y-74732232D02*
X209033000Y-74732232D01*
X208499666Y-74008422D02*
X209033000Y-74008422D01*
X208499666Y-74351279D02*
X208918714Y-74351279D01*
X208918714Y-74351279D02*
X208994905Y-74313184D01*
X208994905Y-74313184D02*
X209033000Y-74236994D01*
X209033000Y-74236994D02*
X209033000Y-74122708D01*
X209033000Y-74122708D02*
X208994905Y-74046517D01*
X208994905Y-74046517D02*
X208956809Y-74008422D01*
X209033000Y-73513184D02*
X208994905Y-73589374D01*
X208994905Y-73589374D02*
X208918714Y-73627469D01*
X208918714Y-73627469D02*
X208233000Y-73627469D01*
X208499666Y-73322707D02*
X208499666Y-73017945D01*
X208233000Y-73208421D02*
X208918714Y-73208421D01*
X208918714Y-73208421D02*
X208994905Y-73170326D01*
X208994905Y-73170326D02*
X209033000Y-73094136D01*
X209033000Y-73094136D02*
X209033000Y-73017945D01*
X209033000Y-72751278D02*
X208499666Y-72751278D01*
X208233000Y-72751278D02*
X208271095Y-72789374D01*
X208271095Y-72789374D02*
X208309190Y-72751278D01*
X208309190Y-72751278D02*
X208271095Y-72713183D01*
X208271095Y-72713183D02*
X208233000Y-72751278D01*
X208233000Y-72751278D02*
X208309190Y-72751278D01*
X208499666Y-72370326D02*
X209299666Y-72370326D01*
X208537762Y-72370326D02*
X208499666Y-72294136D01*
X208499666Y-72294136D02*
X208499666Y-72141755D01*
X208499666Y-72141755D02*
X208537762Y-72065564D01*
X208537762Y-72065564D02*
X208575857Y-72027469D01*
X208575857Y-72027469D02*
X208652047Y-71989374D01*
X208652047Y-71989374D02*
X208880619Y-71989374D01*
X208880619Y-71989374D02*
X208956809Y-72027469D01*
X208956809Y-72027469D02*
X208994905Y-72065564D01*
X208994905Y-72065564D02*
X209033000Y-72141755D01*
X209033000Y-72141755D02*
X209033000Y-72294136D01*
X209033000Y-72294136D02*
X208994905Y-72370326D01*
X209033000Y-71532231D02*
X208994905Y-71608421D01*
X208994905Y-71608421D02*
X208918714Y-71646516D01*
X208918714Y-71646516D02*
X208233000Y-71646516D01*
X208994905Y-70922706D02*
X209033000Y-70998897D01*
X209033000Y-70998897D02*
X209033000Y-71151278D01*
X209033000Y-71151278D02*
X208994905Y-71227468D01*
X208994905Y-71227468D02*
X208918714Y-71265564D01*
X208918714Y-71265564D02*
X208613952Y-71265564D01*
X208613952Y-71265564D02*
X208537762Y-71227468D01*
X208537762Y-71227468D02*
X208499666Y-71151278D01*
X208499666Y-71151278D02*
X208499666Y-70998897D01*
X208499666Y-70998897D02*
X208537762Y-70922706D01*
X208537762Y-70922706D02*
X208613952Y-70884611D01*
X208613952Y-70884611D02*
X208690143Y-70884611D01*
X208690143Y-70884611D02*
X208766333Y-71265564D01*
X209033000Y-70617945D02*
X208499666Y-70198897D01*
X208499666Y-70617945D02*
X209033000Y-70198897D01*
X208994905Y-69589373D02*
X209033000Y-69665564D01*
X209033000Y-69665564D02*
X209033000Y-69817945D01*
X209033000Y-69817945D02*
X208994905Y-69894135D01*
X208994905Y-69894135D02*
X208918714Y-69932231D01*
X208918714Y-69932231D02*
X208613952Y-69932231D01*
X208613952Y-69932231D02*
X208537762Y-69894135D01*
X208537762Y-69894135D02*
X208499666Y-69817945D01*
X208499666Y-69817945D02*
X208499666Y-69665564D01*
X208499666Y-69665564D02*
X208537762Y-69589373D01*
X208537762Y-69589373D02*
X208613952Y-69551278D01*
X208613952Y-69551278D02*
X208690143Y-69551278D01*
X208690143Y-69551278D02*
X208766333Y-69932231D01*
X209033000Y-69208421D02*
X208499666Y-69208421D01*
X208652047Y-69208421D02*
X208575857Y-69170326D01*
X208575857Y-69170326D02*
X208537762Y-69132231D01*
X208537762Y-69132231D02*
X208499666Y-69056040D01*
X208499666Y-69056040D02*
X208499666Y-68979850D01*
X191374874Y-68294295D02*
X191832017Y-68294295D01*
X191603445Y-69094295D02*
X191603445Y-68294295D01*
X192022493Y-68294295D02*
X192555827Y-69094295D01*
X192555827Y-68294295D02*
X192022493Y-69094295D01*
X179532390Y-86091792D02*
X179494295Y-86167982D01*
X179494295Y-86167982D02*
X179494295Y-86282268D01*
X179494295Y-86282268D02*
X179532390Y-86396554D01*
X179532390Y-86396554D02*
X179608580Y-86472744D01*
X179608580Y-86472744D02*
X179684771Y-86510839D01*
X179684771Y-86510839D02*
X179837152Y-86548935D01*
X179837152Y-86548935D02*
X179951438Y-86548935D01*
X179951438Y-86548935D02*
X180103819Y-86510839D01*
X180103819Y-86510839D02*
X180180009Y-86472744D01*
X180180009Y-86472744D02*
X180256200Y-86396554D01*
X180256200Y-86396554D02*
X180294295Y-86282268D01*
X180294295Y-86282268D02*
X180294295Y-86206077D01*
X180294295Y-86206077D02*
X180256200Y-86091792D01*
X180256200Y-86091792D02*
X180218104Y-86053696D01*
X180218104Y-86053696D02*
X179951438Y-86053696D01*
X179951438Y-86053696D02*
X179951438Y-86206077D01*
X180294295Y-85710839D02*
X179494295Y-85710839D01*
X179494295Y-85710839D02*
X180294295Y-85253696D01*
X180294295Y-85253696D02*
X179494295Y-85253696D01*
X180294295Y-84872744D02*
X179494295Y-84872744D01*
X179494295Y-84872744D02*
X179494295Y-84682268D01*
X179494295Y-84682268D02*
X179532390Y-84567982D01*
X179532390Y-84567982D02*
X179608580Y-84491792D01*
X179608580Y-84491792D02*
X179684771Y-84453697D01*
X179684771Y-84453697D02*
X179837152Y-84415601D01*
X179837152Y-84415601D02*
X179951438Y-84415601D01*
X179951438Y-84415601D02*
X180103819Y-84453697D01*
X180103819Y-84453697D02*
X180180009Y-84491792D01*
X180180009Y-84491792D02*
X180256200Y-84567982D01*
X180256200Y-84567982D02*
X180294295Y-84682268D01*
X180294295Y-84682268D02*
X180294295Y-84872744D01*
X181651064Y-68865723D02*
X182032017Y-68865723D01*
X181574874Y-69094295D02*
X181841541Y-68294295D01*
X181841541Y-68294295D02*
X182108207Y-69094295D01*
X182755826Y-68294295D02*
X182374874Y-68294295D01*
X182374874Y-68294295D02*
X182336778Y-68675247D01*
X182336778Y-68675247D02*
X182374874Y-68637152D01*
X182374874Y-68637152D02*
X182451064Y-68599057D01*
X182451064Y-68599057D02*
X182641540Y-68599057D01*
X182641540Y-68599057D02*
X182717731Y-68637152D01*
X182717731Y-68637152D02*
X182755826Y-68675247D01*
X182755826Y-68675247D02*
X182793921Y-68751438D01*
X182793921Y-68751438D02*
X182793921Y-68941914D01*
X182793921Y-68941914D02*
X182755826Y-69018104D01*
X182755826Y-69018104D02*
X182717731Y-69056200D01*
X182717731Y-69056200D02*
X182641540Y-69094295D01*
X182641540Y-69094295D02*
X182451064Y-69094295D01*
X182451064Y-69094295D02*
X182374874Y-69056200D01*
X182374874Y-69056200D02*
X182336778Y-69018104D01*
X179532390Y-74891792D02*
X179494295Y-74967982D01*
X179494295Y-74967982D02*
X179494295Y-75082268D01*
X179494295Y-75082268D02*
X179532390Y-75196554D01*
X179532390Y-75196554D02*
X179608580Y-75272744D01*
X179608580Y-75272744D02*
X179684771Y-75310839D01*
X179684771Y-75310839D02*
X179837152Y-75348935D01*
X179837152Y-75348935D02*
X179951438Y-75348935D01*
X179951438Y-75348935D02*
X180103819Y-75310839D01*
X180103819Y-75310839D02*
X180180009Y-75272744D01*
X180180009Y-75272744D02*
X180256200Y-75196554D01*
X180256200Y-75196554D02*
X180294295Y-75082268D01*
X180294295Y-75082268D02*
X180294295Y-75006077D01*
X180294295Y-75006077D02*
X180256200Y-74891792D01*
X180256200Y-74891792D02*
X180218104Y-74853696D01*
X180218104Y-74853696D02*
X179951438Y-74853696D01*
X179951438Y-74853696D02*
X179951438Y-75006077D01*
X180294295Y-74510839D02*
X179494295Y-74510839D01*
X179494295Y-74510839D02*
X180294295Y-74053696D01*
X180294295Y-74053696D02*
X179494295Y-74053696D01*
X180294295Y-73672744D02*
X179494295Y-73672744D01*
X179494295Y-73672744D02*
X179494295Y-73482268D01*
X179494295Y-73482268D02*
X179532390Y-73367982D01*
X179532390Y-73367982D02*
X179608580Y-73291792D01*
X179608580Y-73291792D02*
X179684771Y-73253697D01*
X179684771Y-73253697D02*
X179837152Y-73215601D01*
X179837152Y-73215601D02*
X179951438Y-73215601D01*
X179951438Y-73215601D02*
X180103819Y-73253697D01*
X180103819Y-73253697D02*
X180180009Y-73291792D01*
X180180009Y-73291792D02*
X180256200Y-73367982D01*
X180256200Y-73367982D02*
X180294295Y-73482268D01*
X180294295Y-73482268D02*
X180294295Y-73672744D01*
X213668150Y-61061871D02*
X213934817Y-61861871D01*
X213934817Y-61861871D02*
X214201483Y-61061871D01*
X214468150Y-61861871D02*
X214468150Y-61061871D01*
X214468150Y-61061871D02*
X214658626Y-61061871D01*
X214658626Y-61061871D02*
X214772912Y-61099966D01*
X214772912Y-61099966D02*
X214849102Y-61176156D01*
X214849102Y-61176156D02*
X214887197Y-61252347D01*
X214887197Y-61252347D02*
X214925293Y-61404728D01*
X214925293Y-61404728D02*
X214925293Y-61519014D01*
X214925293Y-61519014D02*
X214887197Y-61671395D01*
X214887197Y-61671395D02*
X214849102Y-61747585D01*
X214849102Y-61747585D02*
X214772912Y-61823776D01*
X214772912Y-61823776D02*
X214658626Y-61861871D01*
X214658626Y-61861871D02*
X214468150Y-61861871D01*
X215268150Y-61861871D02*
X215268150Y-61061871D01*
X215268150Y-61061871D02*
X215458626Y-61061871D01*
X215458626Y-61061871D02*
X215572912Y-61099966D01*
X215572912Y-61099966D02*
X215649102Y-61176156D01*
X215649102Y-61176156D02*
X215687197Y-61252347D01*
X215687197Y-61252347D02*
X215725293Y-61404728D01*
X215725293Y-61404728D02*
X215725293Y-61519014D01*
X215725293Y-61519014D02*
X215687197Y-61671395D01*
X215687197Y-61671395D02*
X215649102Y-61747585D01*
X215649102Y-61747585D02*
X215572912Y-61823776D01*
X215572912Y-61823776D02*
X215458626Y-61861871D01*
X215458626Y-61861871D02*
X215268150Y-61861871D01*
X214706900Y-102276532D02*
X214630710Y-102238437D01*
X214630710Y-102238437D02*
X214516424Y-102238437D01*
X214516424Y-102238437D02*
X214402138Y-102276532D01*
X214402138Y-102276532D02*
X214325948Y-102352722D01*
X214325948Y-102352722D02*
X214287853Y-102428913D01*
X214287853Y-102428913D02*
X214249757Y-102581294D01*
X214249757Y-102581294D02*
X214249757Y-102695580D01*
X214249757Y-102695580D02*
X214287853Y-102847961D01*
X214287853Y-102847961D02*
X214325948Y-102924151D01*
X214325948Y-102924151D02*
X214402138Y-103000342D01*
X214402138Y-103000342D02*
X214516424Y-103038437D01*
X214516424Y-103038437D02*
X214592615Y-103038437D01*
X214592615Y-103038437D02*
X214706900Y-103000342D01*
X214706900Y-103000342D02*
X214744996Y-102962246D01*
X214744996Y-102962246D02*
X214744996Y-102695580D01*
X214744996Y-102695580D02*
X214592615Y-102695580D01*
X215087853Y-103038437D02*
X215087853Y-102238437D01*
X215087853Y-102238437D02*
X215392615Y-102238437D01*
X215392615Y-102238437D02*
X215468805Y-102276532D01*
X215468805Y-102276532D02*
X215506900Y-102314627D01*
X215506900Y-102314627D02*
X215544996Y-102390818D01*
X215544996Y-102390818D02*
X215544996Y-102505103D01*
X215544996Y-102505103D02*
X215506900Y-102581294D01*
X215506900Y-102581294D02*
X215468805Y-102619389D01*
X215468805Y-102619389D02*
X215392615Y-102657484D01*
X215392615Y-102657484D02*
X215087853Y-102657484D01*
X215887853Y-103038437D02*
X215887853Y-102238437D01*
X216421186Y-102238437D02*
X216573567Y-102238437D01*
X216573567Y-102238437D02*
X216649757Y-102276532D01*
X216649757Y-102276532D02*
X216725948Y-102352722D01*
X216725948Y-102352722D02*
X216764043Y-102505103D01*
X216764043Y-102505103D02*
X216764043Y-102771770D01*
X216764043Y-102771770D02*
X216725948Y-102924151D01*
X216725948Y-102924151D02*
X216649757Y-103000342D01*
X216649757Y-103000342D02*
X216573567Y-103038437D01*
X216573567Y-103038437D02*
X216421186Y-103038437D01*
X216421186Y-103038437D02*
X216344995Y-103000342D01*
X216344995Y-103000342D02*
X216268805Y-102924151D01*
X216268805Y-102924151D02*
X216230709Y-102771770D01*
X216230709Y-102771770D02*
X216230709Y-102505103D01*
X216230709Y-102505103D02*
X216268805Y-102352722D01*
X216268805Y-102352722D02*
X216344995Y-102276532D01*
X216344995Y-102276532D02*
X216421186Y-102238437D01*
X217030709Y-102238437D02*
X217525947Y-102238437D01*
X217525947Y-102238437D02*
X217259281Y-102543199D01*
X217259281Y-102543199D02*
X217373566Y-102543199D01*
X217373566Y-102543199D02*
X217449757Y-102581294D01*
X217449757Y-102581294D02*
X217487852Y-102619389D01*
X217487852Y-102619389D02*
X217525947Y-102695580D01*
X217525947Y-102695580D02*
X217525947Y-102886056D01*
X217525947Y-102886056D02*
X217487852Y-102962246D01*
X217487852Y-102962246D02*
X217449757Y-103000342D01*
X217449757Y-103000342D02*
X217373566Y-103038437D01*
X217373566Y-103038437D02*
X217144995Y-103038437D01*
X217144995Y-103038437D02*
X217068804Y-103000342D01*
X217068804Y-103000342D02*
X217030709Y-102962246D01*
X189346303Y-69094295D02*
X189079636Y-68713342D01*
X188889160Y-69094295D02*
X188889160Y-68294295D01*
X188889160Y-68294295D02*
X189193922Y-68294295D01*
X189193922Y-68294295D02*
X189270112Y-68332390D01*
X189270112Y-68332390D02*
X189308207Y-68370485D01*
X189308207Y-68370485D02*
X189346303Y-68446676D01*
X189346303Y-68446676D02*
X189346303Y-68560961D01*
X189346303Y-68560961D02*
X189308207Y-68637152D01*
X189308207Y-68637152D02*
X189270112Y-68675247D01*
X189270112Y-68675247D02*
X189193922Y-68713342D01*
X189193922Y-68713342D02*
X188889160Y-68713342D01*
X189612969Y-68294295D02*
X190146303Y-69094295D01*
X190146303Y-68294295D02*
X189612969Y-69094295D01*
X180256200Y-80748935D02*
X180294295Y-80634649D01*
X180294295Y-80634649D02*
X180294295Y-80444173D01*
X180294295Y-80444173D02*
X180256200Y-80367982D01*
X180256200Y-80367982D02*
X180218104Y-80329887D01*
X180218104Y-80329887D02*
X180141914Y-80291792D01*
X180141914Y-80291792D02*
X180065723Y-80291792D01*
X180065723Y-80291792D02*
X179989533Y-80329887D01*
X179989533Y-80329887D02*
X179951438Y-80367982D01*
X179951438Y-80367982D02*
X179913342Y-80444173D01*
X179913342Y-80444173D02*
X179875247Y-80596554D01*
X179875247Y-80596554D02*
X179837152Y-80672744D01*
X179837152Y-80672744D02*
X179799057Y-80710839D01*
X179799057Y-80710839D02*
X179722866Y-80748935D01*
X179722866Y-80748935D02*
X179646676Y-80748935D01*
X179646676Y-80748935D02*
X179570485Y-80710839D01*
X179570485Y-80710839D02*
X179532390Y-80672744D01*
X179532390Y-80672744D02*
X179494295Y-80596554D01*
X179494295Y-80596554D02*
X179494295Y-80406077D01*
X179494295Y-80406077D02*
X179532390Y-80291792D01*
X180294295Y-79948934D02*
X179494295Y-79948934D01*
X179494295Y-79948934D02*
X179494295Y-79758458D01*
X179494295Y-79758458D02*
X179532390Y-79644172D01*
X179532390Y-79644172D02*
X179608580Y-79567982D01*
X179608580Y-79567982D02*
X179684771Y-79529887D01*
X179684771Y-79529887D02*
X179837152Y-79491791D01*
X179837152Y-79491791D02*
X179951438Y-79491791D01*
X179951438Y-79491791D02*
X180103819Y-79529887D01*
X180103819Y-79529887D02*
X180180009Y-79567982D01*
X180180009Y-79567982D02*
X180256200Y-79644172D01*
X180256200Y-79644172D02*
X180294295Y-79758458D01*
X180294295Y-79758458D02*
X180294295Y-79948934D01*
X180065723Y-79187030D02*
X180065723Y-78806077D01*
X180294295Y-79263220D02*
X179494295Y-78996553D01*
X179494295Y-78996553D02*
X180294295Y-78729887D01*
X189389160Y-90844295D02*
X189389160Y-90044295D01*
X189389160Y-90044295D02*
X189579636Y-90044295D01*
X189579636Y-90044295D02*
X189693922Y-90082390D01*
X189693922Y-90082390D02*
X189770112Y-90158580D01*
X189770112Y-90158580D02*
X189808207Y-90234771D01*
X189808207Y-90234771D02*
X189846303Y-90387152D01*
X189846303Y-90387152D02*
X189846303Y-90501438D01*
X189846303Y-90501438D02*
X189808207Y-90653819D01*
X189808207Y-90653819D02*
X189770112Y-90730009D01*
X189770112Y-90730009D02*
X189693922Y-90806200D01*
X189693922Y-90806200D02*
X189579636Y-90844295D01*
X189579636Y-90844295D02*
X189389160Y-90844295D01*
X214738406Y-95391069D02*
X214662216Y-95352974D01*
X214662216Y-95352974D02*
X214547930Y-95352974D01*
X214547930Y-95352974D02*
X214433644Y-95391069D01*
X214433644Y-95391069D02*
X214357454Y-95467259D01*
X214357454Y-95467259D02*
X214319359Y-95543450D01*
X214319359Y-95543450D02*
X214281263Y-95695831D01*
X214281263Y-95695831D02*
X214281263Y-95810117D01*
X214281263Y-95810117D02*
X214319359Y-95962498D01*
X214319359Y-95962498D02*
X214357454Y-96038688D01*
X214357454Y-96038688D02*
X214433644Y-96114879D01*
X214433644Y-96114879D02*
X214547930Y-96152974D01*
X214547930Y-96152974D02*
X214624121Y-96152974D01*
X214624121Y-96152974D02*
X214738406Y-96114879D01*
X214738406Y-96114879D02*
X214776502Y-96076783D01*
X214776502Y-96076783D02*
X214776502Y-95810117D01*
X214776502Y-95810117D02*
X214624121Y-95810117D01*
X215119359Y-96152974D02*
X215119359Y-95352974D01*
X215119359Y-95352974D02*
X215424121Y-95352974D01*
X215424121Y-95352974D02*
X215500311Y-95391069D01*
X215500311Y-95391069D02*
X215538406Y-95429164D01*
X215538406Y-95429164D02*
X215576502Y-95505355D01*
X215576502Y-95505355D02*
X215576502Y-95619640D01*
X215576502Y-95619640D02*
X215538406Y-95695831D01*
X215538406Y-95695831D02*
X215500311Y-95733926D01*
X215500311Y-95733926D02*
X215424121Y-95772021D01*
X215424121Y-95772021D02*
X215119359Y-95772021D01*
X215919359Y-96152974D02*
X215919359Y-95352974D01*
X216452692Y-95352974D02*
X216605073Y-95352974D01*
X216605073Y-95352974D02*
X216681263Y-95391069D01*
X216681263Y-95391069D02*
X216757454Y-95467259D01*
X216757454Y-95467259D02*
X216795549Y-95619640D01*
X216795549Y-95619640D02*
X216795549Y-95886307D01*
X216795549Y-95886307D02*
X216757454Y-96038688D01*
X216757454Y-96038688D02*
X216681263Y-96114879D01*
X216681263Y-96114879D02*
X216605073Y-96152974D01*
X216605073Y-96152974D02*
X216452692Y-96152974D01*
X216452692Y-96152974D02*
X216376501Y-96114879D01*
X216376501Y-96114879D02*
X216300311Y-96038688D01*
X216300311Y-96038688D02*
X216262215Y-95886307D01*
X216262215Y-95886307D02*
X216262215Y-95619640D01*
X216262215Y-95619640D02*
X216300311Y-95467259D01*
X216300311Y-95467259D02*
X216376501Y-95391069D01*
X216376501Y-95391069D02*
X216452692Y-95352974D01*
X217290787Y-95352974D02*
X217366977Y-95352974D01*
X217366977Y-95352974D02*
X217443168Y-95391069D01*
X217443168Y-95391069D02*
X217481263Y-95429164D01*
X217481263Y-95429164D02*
X217519358Y-95505355D01*
X217519358Y-95505355D02*
X217557453Y-95657736D01*
X217557453Y-95657736D02*
X217557453Y-95848212D01*
X217557453Y-95848212D02*
X217519358Y-96000593D01*
X217519358Y-96000593D02*
X217481263Y-96076783D01*
X217481263Y-96076783D02*
X217443168Y-96114879D01*
X217443168Y-96114879D02*
X217366977Y-96152974D01*
X217366977Y-96152974D02*
X217290787Y-96152974D01*
X217290787Y-96152974D02*
X217214596Y-96114879D01*
X217214596Y-96114879D02*
X217176501Y-96076783D01*
X217176501Y-96076783D02*
X217138406Y-96000593D01*
X217138406Y-96000593D02*
X217100310Y-95848212D01*
X217100310Y-95848212D02*
X217100310Y-95657736D01*
X217100310Y-95657736D02*
X217138406Y-95505355D01*
X217138406Y-95505355D02*
X217176501Y-95429164D01*
X217176501Y-95429164D02*
X217214596Y-95391069D01*
X217214596Y-95391069D02*
X217290787Y-95352974D01*
X222708207Y-90487827D02*
X222632017Y-90449732D01*
X222632017Y-90449732D02*
X222517731Y-90449732D01*
X222517731Y-90449732D02*
X222403445Y-90487827D01*
X222403445Y-90487827D02*
X222327255Y-90564017D01*
X222327255Y-90564017D02*
X222289160Y-90640208D01*
X222289160Y-90640208D02*
X222251064Y-90792589D01*
X222251064Y-90792589D02*
X222251064Y-90906875D01*
X222251064Y-90906875D02*
X222289160Y-91059256D01*
X222289160Y-91059256D02*
X222327255Y-91135446D01*
X222327255Y-91135446D02*
X222403445Y-91211637D01*
X222403445Y-91211637D02*
X222517731Y-91249732D01*
X222517731Y-91249732D02*
X222593922Y-91249732D01*
X222593922Y-91249732D02*
X222708207Y-91211637D01*
X222708207Y-91211637D02*
X222746303Y-91173541D01*
X222746303Y-91173541D02*
X222746303Y-90906875D01*
X222746303Y-90906875D02*
X222593922Y-90906875D01*
X223089160Y-91249732D02*
X223089160Y-90449732D01*
X223089160Y-90449732D02*
X223393922Y-90449732D01*
X223393922Y-90449732D02*
X223470112Y-90487827D01*
X223470112Y-90487827D02*
X223508207Y-90525922D01*
X223508207Y-90525922D02*
X223546303Y-90602113D01*
X223546303Y-90602113D02*
X223546303Y-90716398D01*
X223546303Y-90716398D02*
X223508207Y-90792589D01*
X223508207Y-90792589D02*
X223470112Y-90830684D01*
X223470112Y-90830684D02*
X223393922Y-90868779D01*
X223393922Y-90868779D02*
X223089160Y-90868779D01*
X223889160Y-91249732D02*
X223889160Y-90449732D01*
X224422493Y-90449732D02*
X224498683Y-90449732D01*
X224498683Y-90449732D02*
X224574874Y-90487827D01*
X224574874Y-90487827D02*
X224612969Y-90525922D01*
X224612969Y-90525922D02*
X224651064Y-90602113D01*
X224651064Y-90602113D02*
X224689159Y-90754494D01*
X224689159Y-90754494D02*
X224689159Y-90944970D01*
X224689159Y-90944970D02*
X224651064Y-91097351D01*
X224651064Y-91097351D02*
X224612969Y-91173541D01*
X224612969Y-91173541D02*
X224574874Y-91211637D01*
X224574874Y-91211637D02*
X224498683Y-91249732D01*
X224498683Y-91249732D02*
X224422493Y-91249732D01*
X224422493Y-91249732D02*
X224346302Y-91211637D01*
X224346302Y-91211637D02*
X224308207Y-91173541D01*
X224308207Y-91173541D02*
X224270112Y-91097351D01*
X224270112Y-91097351D02*
X224232016Y-90944970D01*
X224232016Y-90944970D02*
X224232016Y-90754494D01*
X224232016Y-90754494D02*
X224270112Y-90602113D01*
X224270112Y-90602113D02*
X224308207Y-90525922D01*
X224308207Y-90525922D02*
X224346302Y-90487827D01*
X224346302Y-90487827D02*
X224422493Y-90449732D01*
X226060588Y-90487827D02*
X225984398Y-90449732D01*
X225984398Y-90449732D02*
X225870112Y-90449732D01*
X225870112Y-90449732D02*
X225755826Y-90487827D01*
X225755826Y-90487827D02*
X225679636Y-90564017D01*
X225679636Y-90564017D02*
X225641541Y-90640208D01*
X225641541Y-90640208D02*
X225603445Y-90792589D01*
X225603445Y-90792589D02*
X225603445Y-90906875D01*
X225603445Y-90906875D02*
X225641541Y-91059256D01*
X225641541Y-91059256D02*
X225679636Y-91135446D01*
X225679636Y-91135446D02*
X225755826Y-91211637D01*
X225755826Y-91211637D02*
X225870112Y-91249732D01*
X225870112Y-91249732D02*
X225946303Y-91249732D01*
X225946303Y-91249732D02*
X226060588Y-91211637D01*
X226060588Y-91211637D02*
X226098684Y-91173541D01*
X226098684Y-91173541D02*
X226098684Y-90906875D01*
X226098684Y-90906875D02*
X225946303Y-90906875D01*
X226441541Y-91249732D02*
X226441541Y-90449732D01*
X226441541Y-90449732D02*
X226898684Y-91249732D01*
X226898684Y-91249732D02*
X226898684Y-90449732D01*
X227279636Y-91249732D02*
X227279636Y-90449732D01*
X227279636Y-90449732D02*
X227470112Y-90449732D01*
X227470112Y-90449732D02*
X227584398Y-90487827D01*
X227584398Y-90487827D02*
X227660588Y-90564017D01*
X227660588Y-90564017D02*
X227698683Y-90640208D01*
X227698683Y-90640208D02*
X227736779Y-90792589D01*
X227736779Y-90792589D02*
X227736779Y-90906875D01*
X227736779Y-90906875D02*
X227698683Y-91059256D01*
X227698683Y-91059256D02*
X227660588Y-91135446D01*
X227660588Y-91135446D02*
X227584398Y-91211637D01*
X227584398Y-91211637D02*
X227470112Y-91249732D01*
X227470112Y-91249732D02*
X227279636Y-91249732D01*
X210342337Y-77898935D02*
X210380432Y-77784649D01*
X210380432Y-77784649D02*
X210380432Y-77594173D01*
X210380432Y-77594173D02*
X210342337Y-77517982D01*
X210342337Y-77517982D02*
X210304241Y-77479887D01*
X210304241Y-77479887D02*
X210228051Y-77441792D01*
X210228051Y-77441792D02*
X210151860Y-77441792D01*
X210151860Y-77441792D02*
X210075670Y-77479887D01*
X210075670Y-77479887D02*
X210037575Y-77517982D01*
X210037575Y-77517982D02*
X209999479Y-77594173D01*
X209999479Y-77594173D02*
X209961384Y-77746554D01*
X209961384Y-77746554D02*
X209923289Y-77822744D01*
X209923289Y-77822744D02*
X209885194Y-77860839D01*
X209885194Y-77860839D02*
X209809003Y-77898935D01*
X209809003Y-77898935D02*
X209732813Y-77898935D01*
X209732813Y-77898935D02*
X209656622Y-77860839D01*
X209656622Y-77860839D02*
X209618527Y-77822744D01*
X209618527Y-77822744D02*
X209580432Y-77746554D01*
X209580432Y-77746554D02*
X209580432Y-77556077D01*
X209580432Y-77556077D02*
X209618527Y-77441792D01*
X210304241Y-76641791D02*
X210342337Y-76679887D01*
X210342337Y-76679887D02*
X210380432Y-76794172D01*
X210380432Y-76794172D02*
X210380432Y-76870363D01*
X210380432Y-76870363D02*
X210342337Y-76984649D01*
X210342337Y-76984649D02*
X210266146Y-77060839D01*
X210266146Y-77060839D02*
X210189956Y-77098934D01*
X210189956Y-77098934D02*
X210037575Y-77137030D01*
X210037575Y-77137030D02*
X209923289Y-77137030D01*
X209923289Y-77137030D02*
X209770908Y-77098934D01*
X209770908Y-77098934D02*
X209694717Y-77060839D01*
X209694717Y-77060839D02*
X209618527Y-76984649D01*
X209618527Y-76984649D02*
X209580432Y-76870363D01*
X209580432Y-76870363D02*
X209580432Y-76794172D01*
X209580432Y-76794172D02*
X209618527Y-76679887D01*
X209618527Y-76679887D02*
X209656622Y-76641791D01*
X210380432Y-75917982D02*
X210380432Y-76298934D01*
X210380432Y-76298934D02*
X209580432Y-76298934D01*
X214706900Y-97686223D02*
X214630710Y-97648128D01*
X214630710Y-97648128D02*
X214516424Y-97648128D01*
X214516424Y-97648128D02*
X214402138Y-97686223D01*
X214402138Y-97686223D02*
X214325948Y-97762413D01*
X214325948Y-97762413D02*
X214287853Y-97838604D01*
X214287853Y-97838604D02*
X214249757Y-97990985D01*
X214249757Y-97990985D02*
X214249757Y-98105271D01*
X214249757Y-98105271D02*
X214287853Y-98257652D01*
X214287853Y-98257652D02*
X214325948Y-98333842D01*
X214325948Y-98333842D02*
X214402138Y-98410033D01*
X214402138Y-98410033D02*
X214516424Y-98448128D01*
X214516424Y-98448128D02*
X214592615Y-98448128D01*
X214592615Y-98448128D02*
X214706900Y-98410033D01*
X214706900Y-98410033D02*
X214744996Y-98371937D01*
X214744996Y-98371937D02*
X214744996Y-98105271D01*
X214744996Y-98105271D02*
X214592615Y-98105271D01*
X215087853Y-98448128D02*
X215087853Y-97648128D01*
X215087853Y-97648128D02*
X215392615Y-97648128D01*
X215392615Y-97648128D02*
X215468805Y-97686223D01*
X215468805Y-97686223D02*
X215506900Y-97724318D01*
X215506900Y-97724318D02*
X215544996Y-97800509D01*
X215544996Y-97800509D02*
X215544996Y-97914794D01*
X215544996Y-97914794D02*
X215506900Y-97990985D01*
X215506900Y-97990985D02*
X215468805Y-98029080D01*
X215468805Y-98029080D02*
X215392615Y-98067175D01*
X215392615Y-98067175D02*
X215087853Y-98067175D01*
X215887853Y-98448128D02*
X215887853Y-97648128D01*
X216421186Y-97648128D02*
X216573567Y-97648128D01*
X216573567Y-97648128D02*
X216649757Y-97686223D01*
X216649757Y-97686223D02*
X216725948Y-97762413D01*
X216725948Y-97762413D02*
X216764043Y-97914794D01*
X216764043Y-97914794D02*
X216764043Y-98181461D01*
X216764043Y-98181461D02*
X216725948Y-98333842D01*
X216725948Y-98333842D02*
X216649757Y-98410033D01*
X216649757Y-98410033D02*
X216573567Y-98448128D01*
X216573567Y-98448128D02*
X216421186Y-98448128D01*
X216421186Y-98448128D02*
X216344995Y-98410033D01*
X216344995Y-98410033D02*
X216268805Y-98333842D01*
X216268805Y-98333842D02*
X216230709Y-98181461D01*
X216230709Y-98181461D02*
X216230709Y-97914794D01*
X216230709Y-97914794D02*
X216268805Y-97762413D01*
X216268805Y-97762413D02*
X216344995Y-97686223D01*
X216344995Y-97686223D02*
X216421186Y-97648128D01*
X217525947Y-98448128D02*
X217068804Y-98448128D01*
X217297376Y-98448128D02*
X217297376Y-97648128D01*
X217297376Y-97648128D02*
X217221185Y-97762413D01*
X217221185Y-97762413D02*
X217144995Y-97838604D01*
X217144995Y-97838604D02*
X217068804Y-97876699D01*
X181089200Y-61860233D02*
X181584438Y-61860233D01*
X181584438Y-61860233D02*
X181317772Y-62164995D01*
X181317772Y-62164995D02*
X181432057Y-62164995D01*
X181432057Y-62164995D02*
X181508248Y-62203090D01*
X181508248Y-62203090D02*
X181546343Y-62241185D01*
X181546343Y-62241185D02*
X181584438Y-62317376D01*
X181584438Y-62317376D02*
X181584438Y-62507852D01*
X181584438Y-62507852D02*
X181546343Y-62584042D01*
X181546343Y-62584042D02*
X181508248Y-62622138D01*
X181508248Y-62622138D02*
X181432057Y-62660233D01*
X181432057Y-62660233D02*
X181203486Y-62660233D01*
X181203486Y-62660233D02*
X181127295Y-62622138D01*
X181127295Y-62622138D02*
X181089200Y-62584042D01*
X181927296Y-62584042D02*
X181965391Y-62622138D01*
X181965391Y-62622138D02*
X181927296Y-62660233D01*
X181927296Y-62660233D02*
X181889200Y-62622138D01*
X181889200Y-62622138D02*
X181927296Y-62584042D01*
X181927296Y-62584042D02*
X181927296Y-62660233D01*
X182232057Y-61860233D02*
X182727295Y-61860233D01*
X182727295Y-61860233D02*
X182460629Y-62164995D01*
X182460629Y-62164995D02*
X182574914Y-62164995D01*
X182574914Y-62164995D02*
X182651105Y-62203090D01*
X182651105Y-62203090D02*
X182689200Y-62241185D01*
X182689200Y-62241185D02*
X182727295Y-62317376D01*
X182727295Y-62317376D02*
X182727295Y-62507852D01*
X182727295Y-62507852D02*
X182689200Y-62584042D01*
X182689200Y-62584042D02*
X182651105Y-62622138D01*
X182651105Y-62622138D02*
X182574914Y-62660233D01*
X182574914Y-62660233D02*
X182346343Y-62660233D01*
X182346343Y-62660233D02*
X182270152Y-62622138D01*
X182270152Y-62622138D02*
X182232057Y-62584042D01*
X182955867Y-61860233D02*
X183222534Y-62660233D01*
X183222534Y-62660233D02*
X183489200Y-61860233D01*
X184784438Y-61898328D02*
X184708248Y-61860233D01*
X184708248Y-61860233D02*
X184593962Y-61860233D01*
X184593962Y-61860233D02*
X184479676Y-61898328D01*
X184479676Y-61898328D02*
X184403486Y-61974518D01*
X184403486Y-61974518D02*
X184365391Y-62050709D01*
X184365391Y-62050709D02*
X184327295Y-62203090D01*
X184327295Y-62203090D02*
X184327295Y-62317376D01*
X184327295Y-62317376D02*
X184365391Y-62469757D01*
X184365391Y-62469757D02*
X184403486Y-62545947D01*
X184403486Y-62545947D02*
X184479676Y-62622138D01*
X184479676Y-62622138D02*
X184593962Y-62660233D01*
X184593962Y-62660233D02*
X184670153Y-62660233D01*
X184670153Y-62660233D02*
X184784438Y-62622138D01*
X184784438Y-62622138D02*
X184822534Y-62584042D01*
X184822534Y-62584042D02*
X184822534Y-62317376D01*
X184822534Y-62317376D02*
X184670153Y-62317376D01*
X185165391Y-62660233D02*
X185165391Y-61860233D01*
X185165391Y-61860233D02*
X185622534Y-62660233D01*
X185622534Y-62660233D02*
X185622534Y-61860233D01*
X186003486Y-62660233D02*
X186003486Y-61860233D01*
X186003486Y-61860233D02*
X186193962Y-61860233D01*
X186193962Y-61860233D02*
X186308248Y-61898328D01*
X186308248Y-61898328D02*
X186384438Y-61974518D01*
X186384438Y-61974518D02*
X186422533Y-62050709D01*
X186422533Y-62050709D02*
X186460629Y-62203090D01*
X186460629Y-62203090D02*
X186460629Y-62317376D01*
X186460629Y-62317376D02*
X186422533Y-62469757D01*
X186422533Y-62469757D02*
X186384438Y-62545947D01*
X186384438Y-62545947D02*
X186308248Y-62622138D01*
X186308248Y-62622138D02*
X186193962Y-62660233D01*
X186193962Y-62660233D02*
X186003486Y-62660233D01*
X187374914Y-62622138D02*
X187489200Y-62660233D01*
X187489200Y-62660233D02*
X187679676Y-62660233D01*
X187679676Y-62660233D02*
X187755867Y-62622138D01*
X187755867Y-62622138D02*
X187793962Y-62584042D01*
X187793962Y-62584042D02*
X187832057Y-62507852D01*
X187832057Y-62507852D02*
X187832057Y-62431661D01*
X187832057Y-62431661D02*
X187793962Y-62355471D01*
X187793962Y-62355471D02*
X187755867Y-62317376D01*
X187755867Y-62317376D02*
X187679676Y-62279280D01*
X187679676Y-62279280D02*
X187527295Y-62241185D01*
X187527295Y-62241185D02*
X187451105Y-62203090D01*
X187451105Y-62203090D02*
X187413010Y-62164995D01*
X187413010Y-62164995D02*
X187374914Y-62088804D01*
X187374914Y-62088804D02*
X187374914Y-62012614D01*
X187374914Y-62012614D02*
X187413010Y-61936423D01*
X187413010Y-61936423D02*
X187451105Y-61898328D01*
X187451105Y-61898328D02*
X187527295Y-61860233D01*
X187527295Y-61860233D02*
X187717772Y-61860233D01*
X187717772Y-61860233D02*
X187832057Y-61898328D01*
X188174915Y-62660233D02*
X188174915Y-61860233D01*
X188174915Y-61860233D02*
X188365391Y-61860233D01*
X188365391Y-61860233D02*
X188479677Y-61898328D01*
X188479677Y-61898328D02*
X188555867Y-61974518D01*
X188555867Y-61974518D02*
X188593962Y-62050709D01*
X188593962Y-62050709D02*
X188632058Y-62203090D01*
X188632058Y-62203090D02*
X188632058Y-62317376D01*
X188632058Y-62317376D02*
X188593962Y-62469757D01*
X188593962Y-62469757D02*
X188555867Y-62545947D01*
X188555867Y-62545947D02*
X188479677Y-62622138D01*
X188479677Y-62622138D02*
X188365391Y-62660233D01*
X188365391Y-62660233D02*
X188174915Y-62660233D01*
X188936819Y-62431661D02*
X189317772Y-62431661D01*
X188860629Y-62660233D02*
X189127296Y-61860233D01*
X189127296Y-61860233D02*
X189393962Y-62660233D01*
X190232057Y-62622138D02*
X190346343Y-62660233D01*
X190346343Y-62660233D02*
X190536819Y-62660233D01*
X190536819Y-62660233D02*
X190613010Y-62622138D01*
X190613010Y-62622138D02*
X190651105Y-62584042D01*
X190651105Y-62584042D02*
X190689200Y-62507852D01*
X190689200Y-62507852D02*
X190689200Y-62431661D01*
X190689200Y-62431661D02*
X190651105Y-62355471D01*
X190651105Y-62355471D02*
X190613010Y-62317376D01*
X190613010Y-62317376D02*
X190536819Y-62279280D01*
X190536819Y-62279280D02*
X190384438Y-62241185D01*
X190384438Y-62241185D02*
X190308248Y-62203090D01*
X190308248Y-62203090D02*
X190270153Y-62164995D01*
X190270153Y-62164995D02*
X190232057Y-62088804D01*
X190232057Y-62088804D02*
X190232057Y-62012614D01*
X190232057Y-62012614D02*
X190270153Y-61936423D01*
X190270153Y-61936423D02*
X190308248Y-61898328D01*
X190308248Y-61898328D02*
X190384438Y-61860233D01*
X190384438Y-61860233D02*
X190574915Y-61860233D01*
X190574915Y-61860233D02*
X190689200Y-61898328D01*
X191489201Y-62584042D02*
X191451105Y-62622138D01*
X191451105Y-62622138D02*
X191336820Y-62660233D01*
X191336820Y-62660233D02*
X191260629Y-62660233D01*
X191260629Y-62660233D02*
X191146343Y-62622138D01*
X191146343Y-62622138D02*
X191070153Y-62545947D01*
X191070153Y-62545947D02*
X191032058Y-62469757D01*
X191032058Y-62469757D02*
X190993962Y-62317376D01*
X190993962Y-62317376D02*
X190993962Y-62203090D01*
X190993962Y-62203090D02*
X191032058Y-62050709D01*
X191032058Y-62050709D02*
X191070153Y-61974518D01*
X191070153Y-61974518D02*
X191146343Y-61898328D01*
X191146343Y-61898328D02*
X191260629Y-61860233D01*
X191260629Y-61860233D02*
X191336820Y-61860233D01*
X191336820Y-61860233D02*
X191451105Y-61898328D01*
X191451105Y-61898328D02*
X191489201Y-61936423D01*
X192213010Y-62660233D02*
X191832058Y-62660233D01*
X191832058Y-62660233D02*
X191832058Y-61860233D01*
X219725293Y-61099966D02*
X219649103Y-61061871D01*
X219649103Y-61061871D02*
X219534817Y-61061871D01*
X219534817Y-61061871D02*
X219420531Y-61099966D01*
X219420531Y-61099966D02*
X219344341Y-61176156D01*
X219344341Y-61176156D02*
X219306246Y-61252347D01*
X219306246Y-61252347D02*
X219268150Y-61404728D01*
X219268150Y-61404728D02*
X219268150Y-61519014D01*
X219268150Y-61519014D02*
X219306246Y-61671395D01*
X219306246Y-61671395D02*
X219344341Y-61747585D01*
X219344341Y-61747585D02*
X219420531Y-61823776D01*
X219420531Y-61823776D02*
X219534817Y-61861871D01*
X219534817Y-61861871D02*
X219611008Y-61861871D01*
X219611008Y-61861871D02*
X219725293Y-61823776D01*
X219725293Y-61823776D02*
X219763389Y-61785680D01*
X219763389Y-61785680D02*
X219763389Y-61519014D01*
X219763389Y-61519014D02*
X219611008Y-61519014D01*
X220106246Y-61861871D02*
X220106246Y-61061871D01*
X220106246Y-61061871D02*
X220563389Y-61861871D01*
X220563389Y-61861871D02*
X220563389Y-61061871D01*
X220944341Y-61861871D02*
X220944341Y-61061871D01*
X220944341Y-61061871D02*
X221134817Y-61061871D01*
X221134817Y-61061871D02*
X221249103Y-61099966D01*
X221249103Y-61099966D02*
X221325293Y-61176156D01*
X221325293Y-61176156D02*
X221363388Y-61252347D01*
X221363388Y-61252347D02*
X221401484Y-61404728D01*
X221401484Y-61404728D02*
X221401484Y-61519014D01*
X221401484Y-61519014D02*
X221363388Y-61671395D01*
X221363388Y-61671395D02*
X221325293Y-61747585D01*
X221325293Y-61747585D02*
X221249103Y-61823776D01*
X221249103Y-61823776D02*
X221134817Y-61861871D01*
X221134817Y-61861871D02*
X220944341Y-61861871D01*
X193894295Y-89593927D02*
X193856200Y-89670117D01*
X193856200Y-89670117D02*
X193780009Y-89708212D01*
X193780009Y-89708212D02*
X193094295Y-89708212D01*
X193894295Y-89174879D02*
X193856200Y-89251069D01*
X193856200Y-89251069D02*
X193818104Y-89289164D01*
X193818104Y-89289164D02*
X193741914Y-89327260D01*
X193741914Y-89327260D02*
X193513342Y-89327260D01*
X193513342Y-89327260D02*
X193437152Y-89289164D01*
X193437152Y-89289164D02*
X193399057Y-89251069D01*
X193399057Y-89251069D02*
X193360961Y-89174879D01*
X193360961Y-89174879D02*
X193360961Y-89060593D01*
X193360961Y-89060593D02*
X193399057Y-88984402D01*
X193399057Y-88984402D02*
X193437152Y-88946307D01*
X193437152Y-88946307D02*
X193513342Y-88908212D01*
X193513342Y-88908212D02*
X193741914Y-88908212D01*
X193741914Y-88908212D02*
X193818104Y-88946307D01*
X193818104Y-88946307D02*
X193856200Y-88984402D01*
X193856200Y-88984402D02*
X193894295Y-89060593D01*
X193894295Y-89060593D02*
X193894295Y-89174879D01*
X193360961Y-88565354D02*
X193894295Y-88565354D01*
X193437152Y-88565354D02*
X193399057Y-88527259D01*
X193399057Y-88527259D02*
X193360961Y-88451069D01*
X193360961Y-88451069D02*
X193360961Y-88336783D01*
X193360961Y-88336783D02*
X193399057Y-88260592D01*
X193399057Y-88260592D02*
X193475247Y-88222497D01*
X193475247Y-88222497D02*
X193894295Y-88222497D01*
X193360961Y-87498687D02*
X194008580Y-87498687D01*
X194008580Y-87498687D02*
X194084771Y-87536782D01*
X194084771Y-87536782D02*
X194122866Y-87574878D01*
X194122866Y-87574878D02*
X194160961Y-87651068D01*
X194160961Y-87651068D02*
X194160961Y-87765354D01*
X194160961Y-87765354D02*
X194122866Y-87841544D01*
X193856200Y-87498687D02*
X193894295Y-87574878D01*
X193894295Y-87574878D02*
X193894295Y-87727259D01*
X193894295Y-87727259D02*
X193856200Y-87803449D01*
X193856200Y-87803449D02*
X193818104Y-87841544D01*
X193818104Y-87841544D02*
X193741914Y-87879640D01*
X193741914Y-87879640D02*
X193513342Y-87879640D01*
X193513342Y-87879640D02*
X193437152Y-87841544D01*
X193437152Y-87841544D02*
X193399057Y-87803449D01*
X193399057Y-87803449D02*
X193360961Y-87727259D01*
X193360961Y-87727259D02*
X193360961Y-87574878D01*
X193360961Y-87574878D02*
X193399057Y-87498687D01*
X193894295Y-86165353D02*
X193094295Y-86165353D01*
X193856200Y-86165353D02*
X193894295Y-86241544D01*
X193894295Y-86241544D02*
X193894295Y-86393925D01*
X193894295Y-86393925D02*
X193856200Y-86470115D01*
X193856200Y-86470115D02*
X193818104Y-86508210D01*
X193818104Y-86508210D02*
X193741914Y-86546306D01*
X193741914Y-86546306D02*
X193513342Y-86546306D01*
X193513342Y-86546306D02*
X193437152Y-86508210D01*
X193437152Y-86508210D02*
X193399057Y-86470115D01*
X193399057Y-86470115D02*
X193360961Y-86393925D01*
X193360961Y-86393925D02*
X193360961Y-86241544D01*
X193360961Y-86241544D02*
X193399057Y-86165353D01*
X193894295Y-85784400D02*
X193360961Y-85784400D01*
X193094295Y-85784400D02*
X193132390Y-85822496D01*
X193132390Y-85822496D02*
X193170485Y-85784400D01*
X193170485Y-85784400D02*
X193132390Y-85746305D01*
X193132390Y-85746305D02*
X193094295Y-85784400D01*
X193094295Y-85784400D02*
X193170485Y-85784400D01*
X193856200Y-85441544D02*
X193894295Y-85365353D01*
X193894295Y-85365353D02*
X193894295Y-85212972D01*
X193894295Y-85212972D02*
X193856200Y-85136782D01*
X193856200Y-85136782D02*
X193780009Y-85098686D01*
X193780009Y-85098686D02*
X193741914Y-85098686D01*
X193741914Y-85098686D02*
X193665723Y-85136782D01*
X193665723Y-85136782D02*
X193627628Y-85212972D01*
X193627628Y-85212972D02*
X193627628Y-85327258D01*
X193627628Y-85327258D02*
X193589533Y-85403448D01*
X193589533Y-85403448D02*
X193513342Y-85441544D01*
X193513342Y-85441544D02*
X193475247Y-85441544D01*
X193475247Y-85441544D02*
X193399057Y-85403448D01*
X193399057Y-85403448D02*
X193360961Y-85327258D01*
X193360961Y-85327258D02*
X193360961Y-85212972D01*
X193360961Y-85212972D02*
X193399057Y-85136782D01*
X193360961Y-84870115D02*
X193360961Y-84565353D01*
X193094295Y-84755829D02*
X193780009Y-84755829D01*
X193780009Y-84755829D02*
X193856200Y-84717734D01*
X193856200Y-84717734D02*
X193894295Y-84641544D01*
X193894295Y-84641544D02*
X193894295Y-84565353D01*
X193894295Y-83955829D02*
X193475247Y-83955829D01*
X193475247Y-83955829D02*
X193399057Y-83993924D01*
X193399057Y-83993924D02*
X193360961Y-84070115D01*
X193360961Y-84070115D02*
X193360961Y-84222496D01*
X193360961Y-84222496D02*
X193399057Y-84298686D01*
X193856200Y-83955829D02*
X193894295Y-84032020D01*
X193894295Y-84032020D02*
X193894295Y-84222496D01*
X193894295Y-84222496D02*
X193856200Y-84298686D01*
X193856200Y-84298686D02*
X193780009Y-84336782D01*
X193780009Y-84336782D02*
X193703819Y-84336782D01*
X193703819Y-84336782D02*
X193627628Y-84298686D01*
X193627628Y-84298686D02*
X193589533Y-84222496D01*
X193589533Y-84222496D02*
X193589533Y-84032020D01*
X193589533Y-84032020D02*
X193551438Y-83955829D01*
X193360961Y-83574876D02*
X193894295Y-83574876D01*
X193437152Y-83574876D02*
X193399057Y-83536781D01*
X193399057Y-83536781D02*
X193360961Y-83460591D01*
X193360961Y-83460591D02*
X193360961Y-83346305D01*
X193360961Y-83346305D02*
X193399057Y-83270114D01*
X193399057Y-83270114D02*
X193475247Y-83232019D01*
X193475247Y-83232019D02*
X193894295Y-83232019D01*
X193856200Y-82508209D02*
X193894295Y-82584400D01*
X193894295Y-82584400D02*
X193894295Y-82736781D01*
X193894295Y-82736781D02*
X193856200Y-82812971D01*
X193856200Y-82812971D02*
X193818104Y-82851066D01*
X193818104Y-82851066D02*
X193741914Y-82889162D01*
X193741914Y-82889162D02*
X193513342Y-82889162D01*
X193513342Y-82889162D02*
X193437152Y-82851066D01*
X193437152Y-82851066D02*
X193399057Y-82812971D01*
X193399057Y-82812971D02*
X193360961Y-82736781D01*
X193360961Y-82736781D02*
X193360961Y-82584400D01*
X193360961Y-82584400D02*
X193399057Y-82508209D01*
X193856200Y-81860590D02*
X193894295Y-81936781D01*
X193894295Y-81936781D02*
X193894295Y-82089162D01*
X193894295Y-82089162D02*
X193856200Y-82165352D01*
X193856200Y-82165352D02*
X193780009Y-82203448D01*
X193780009Y-82203448D02*
X193475247Y-82203448D01*
X193475247Y-82203448D02*
X193399057Y-82165352D01*
X193399057Y-82165352D02*
X193360961Y-82089162D01*
X193360961Y-82089162D02*
X193360961Y-81936781D01*
X193360961Y-81936781D02*
X193399057Y-81860590D01*
X193399057Y-81860590D02*
X193475247Y-81822495D01*
X193475247Y-81822495D02*
X193551438Y-81822495D01*
X193551438Y-81822495D02*
X193627628Y-82203448D01*
X193856200Y-80527257D02*
X193894295Y-80603448D01*
X193894295Y-80603448D02*
X193894295Y-80755829D01*
X193894295Y-80755829D02*
X193856200Y-80832019D01*
X193856200Y-80832019D02*
X193818104Y-80870114D01*
X193818104Y-80870114D02*
X193741914Y-80908210D01*
X193741914Y-80908210D02*
X193513342Y-80908210D01*
X193513342Y-80908210D02*
X193437152Y-80870114D01*
X193437152Y-80870114D02*
X193399057Y-80832019D01*
X193399057Y-80832019D02*
X193360961Y-80755829D01*
X193360961Y-80755829D02*
X193360961Y-80603448D01*
X193360961Y-80603448D02*
X193399057Y-80527257D01*
X193894295Y-80070115D02*
X193856200Y-80146305D01*
X193856200Y-80146305D02*
X193818104Y-80184400D01*
X193818104Y-80184400D02*
X193741914Y-80222496D01*
X193741914Y-80222496D02*
X193513342Y-80222496D01*
X193513342Y-80222496D02*
X193437152Y-80184400D01*
X193437152Y-80184400D02*
X193399057Y-80146305D01*
X193399057Y-80146305D02*
X193360961Y-80070115D01*
X193360961Y-80070115D02*
X193360961Y-79955829D01*
X193360961Y-79955829D02*
X193399057Y-79879638D01*
X193399057Y-79879638D02*
X193437152Y-79841543D01*
X193437152Y-79841543D02*
X193513342Y-79803448D01*
X193513342Y-79803448D02*
X193741914Y-79803448D01*
X193741914Y-79803448D02*
X193818104Y-79841543D01*
X193818104Y-79841543D02*
X193856200Y-79879638D01*
X193856200Y-79879638D02*
X193894295Y-79955829D01*
X193894295Y-79955829D02*
X193894295Y-80070115D01*
X193894295Y-79460590D02*
X193360961Y-79460590D01*
X193437152Y-79460590D02*
X193399057Y-79422495D01*
X193399057Y-79422495D02*
X193360961Y-79346305D01*
X193360961Y-79346305D02*
X193360961Y-79232019D01*
X193360961Y-79232019D02*
X193399057Y-79155828D01*
X193399057Y-79155828D02*
X193475247Y-79117733D01*
X193475247Y-79117733D02*
X193894295Y-79117733D01*
X193475247Y-79117733D02*
X193399057Y-79079638D01*
X193399057Y-79079638D02*
X193360961Y-79003447D01*
X193360961Y-79003447D02*
X193360961Y-78889162D01*
X193360961Y-78889162D02*
X193399057Y-78812971D01*
X193399057Y-78812971D02*
X193475247Y-78774876D01*
X193475247Y-78774876D02*
X193894295Y-78774876D01*
X193894295Y-77670114D02*
X193856200Y-77746304D01*
X193856200Y-77746304D02*
X193818104Y-77784399D01*
X193818104Y-77784399D02*
X193741914Y-77822495D01*
X193741914Y-77822495D02*
X193513342Y-77822495D01*
X193513342Y-77822495D02*
X193437152Y-77784399D01*
X193437152Y-77784399D02*
X193399057Y-77746304D01*
X193399057Y-77746304D02*
X193360961Y-77670114D01*
X193360961Y-77670114D02*
X193360961Y-77555828D01*
X193360961Y-77555828D02*
X193399057Y-77479637D01*
X193399057Y-77479637D02*
X193437152Y-77441542D01*
X193437152Y-77441542D02*
X193513342Y-77403447D01*
X193513342Y-77403447D02*
X193741914Y-77403447D01*
X193741914Y-77403447D02*
X193818104Y-77441542D01*
X193818104Y-77441542D02*
X193856200Y-77479637D01*
X193856200Y-77479637D02*
X193894295Y-77555828D01*
X193894295Y-77555828D02*
X193894295Y-77670114D01*
X193360961Y-77060589D02*
X193894295Y-77060589D01*
X193437152Y-77060589D02*
X193399057Y-77022494D01*
X193399057Y-77022494D02*
X193360961Y-76946304D01*
X193360961Y-76946304D02*
X193360961Y-76832018D01*
X193360961Y-76832018D02*
X193399057Y-76755827D01*
X193399057Y-76755827D02*
X193475247Y-76717732D01*
X193475247Y-76717732D02*
X193894295Y-76717732D01*
X193894295Y-75727255D02*
X193360961Y-75727255D01*
X193513342Y-75727255D02*
X193437152Y-75689160D01*
X193437152Y-75689160D02*
X193399057Y-75651065D01*
X193399057Y-75651065D02*
X193360961Y-75574874D01*
X193360961Y-75574874D02*
X193360961Y-75498684D01*
X193894295Y-75117732D02*
X193856200Y-75193922D01*
X193856200Y-75193922D02*
X193818104Y-75232017D01*
X193818104Y-75232017D02*
X193741914Y-75270113D01*
X193741914Y-75270113D02*
X193513342Y-75270113D01*
X193513342Y-75270113D02*
X193437152Y-75232017D01*
X193437152Y-75232017D02*
X193399057Y-75193922D01*
X193399057Y-75193922D02*
X193360961Y-75117732D01*
X193360961Y-75117732D02*
X193360961Y-75003446D01*
X193360961Y-75003446D02*
X193399057Y-74927255D01*
X193399057Y-74927255D02*
X193437152Y-74889160D01*
X193437152Y-74889160D02*
X193513342Y-74851065D01*
X193513342Y-74851065D02*
X193741914Y-74851065D01*
X193741914Y-74851065D02*
X193818104Y-74889160D01*
X193818104Y-74889160D02*
X193856200Y-74927255D01*
X193856200Y-74927255D02*
X193894295Y-75003446D01*
X193894295Y-75003446D02*
X193894295Y-75117732D01*
X193360961Y-74584398D02*
X193894295Y-74432017D01*
X193894295Y-74432017D02*
X193513342Y-74279636D01*
X193513342Y-74279636D02*
X193894295Y-74127255D01*
X193894295Y-74127255D02*
X193360961Y-73974874D01*
X193894295Y-73251065D02*
X193894295Y-73708208D01*
X193894295Y-73479636D02*
X193094295Y-73479636D01*
X193094295Y-73479636D02*
X193208580Y-73555827D01*
X193208580Y-73555827D02*
X193284771Y-73632017D01*
X193284771Y-73632017D02*
X193322866Y-73708208D01*
X191846303Y-90844295D02*
X191579636Y-90463342D01*
X191389160Y-90844295D02*
X191389160Y-90044295D01*
X191389160Y-90044295D02*
X191693922Y-90044295D01*
X191693922Y-90044295D02*
X191770112Y-90082390D01*
X191770112Y-90082390D02*
X191808207Y-90120485D01*
X191808207Y-90120485D02*
X191846303Y-90196676D01*
X191846303Y-90196676D02*
X191846303Y-90310961D01*
X191846303Y-90310961D02*
X191808207Y-90387152D01*
X191808207Y-90387152D02*
X191770112Y-90425247D01*
X191770112Y-90425247D02*
X191693922Y-90463342D01*
X191693922Y-90463342D02*
X191389160Y-90463342D01*
X199236933Y-62379838D02*
X198436933Y-62379838D01*
X198436933Y-62379838D02*
X198436933Y-62189362D01*
X198436933Y-62189362D02*
X198475028Y-62075076D01*
X198475028Y-62075076D02*
X198551218Y-61998886D01*
X198551218Y-61998886D02*
X198627409Y-61960791D01*
X198627409Y-61960791D02*
X198779790Y-61922695D01*
X198779790Y-61922695D02*
X198894076Y-61922695D01*
X198894076Y-61922695D02*
X199046457Y-61960791D01*
X199046457Y-61960791D02*
X199122647Y-61998886D01*
X199122647Y-61998886D02*
X199198838Y-62075076D01*
X199198838Y-62075076D02*
X199236933Y-62189362D01*
X199236933Y-62189362D02*
X199236933Y-62379838D01*
X199209160Y-68710839D02*
X198409160Y-68710839D01*
X198409160Y-68710839D02*
X198409160Y-68520363D01*
X198409160Y-68520363D02*
X198447255Y-68406077D01*
X198447255Y-68406077D02*
X198523445Y-68329887D01*
X198523445Y-68329887D02*
X198599636Y-68291792D01*
X198599636Y-68291792D02*
X198752017Y-68253696D01*
X198752017Y-68253696D02*
X198866303Y-68253696D01*
X198866303Y-68253696D02*
X199018684Y-68291792D01*
X199018684Y-68291792D02*
X199094874Y-68329887D01*
X199094874Y-68329887D02*
X199171065Y-68406077D01*
X199171065Y-68406077D02*
X199209160Y-68520363D01*
X199209160Y-68520363D02*
X199209160Y-68710839D01*
X217051064Y-105225723D02*
X217432017Y-105225723D01*
X216974874Y-105454295D02*
X217241541Y-104654295D01*
X217241541Y-104654295D02*
X217508207Y-105454295D01*
X217774874Y-105454295D02*
X217774874Y-104654295D01*
X217774874Y-104654295D02*
X218232017Y-105454295D01*
X218232017Y-105454295D02*
X218232017Y-104654295D01*
X218574873Y-105225723D02*
X218955826Y-105225723D01*
X218498683Y-105454295D02*
X218765350Y-104654295D01*
X218765350Y-104654295D02*
X219032016Y-105454295D01*
X219679635Y-105454295D02*
X219298683Y-105454295D01*
X219298683Y-105454295D02*
X219298683Y-104654295D01*
X220098683Y-104654295D02*
X220251064Y-104654295D01*
X220251064Y-104654295D02*
X220327254Y-104692390D01*
X220327254Y-104692390D02*
X220403445Y-104768580D01*
X220403445Y-104768580D02*
X220441540Y-104920961D01*
X220441540Y-104920961D02*
X220441540Y-105187628D01*
X220441540Y-105187628D02*
X220403445Y-105340009D01*
X220403445Y-105340009D02*
X220327254Y-105416200D01*
X220327254Y-105416200D02*
X220251064Y-105454295D01*
X220251064Y-105454295D02*
X220098683Y-105454295D01*
X220098683Y-105454295D02*
X220022492Y-105416200D01*
X220022492Y-105416200D02*
X219946302Y-105340009D01*
X219946302Y-105340009D02*
X219908206Y-105187628D01*
X219908206Y-105187628D02*
X219908206Y-104920961D01*
X219908206Y-104920961D02*
X219946302Y-104768580D01*
X219946302Y-104768580D02*
X220022492Y-104692390D01*
X220022492Y-104692390D02*
X220098683Y-104654295D01*
X221203444Y-104692390D02*
X221127254Y-104654295D01*
X221127254Y-104654295D02*
X221012968Y-104654295D01*
X221012968Y-104654295D02*
X220898682Y-104692390D01*
X220898682Y-104692390D02*
X220822492Y-104768580D01*
X220822492Y-104768580D02*
X220784397Y-104844771D01*
X220784397Y-104844771D02*
X220746301Y-104997152D01*
X220746301Y-104997152D02*
X220746301Y-105111438D01*
X220746301Y-105111438D02*
X220784397Y-105263819D01*
X220784397Y-105263819D02*
X220822492Y-105340009D01*
X220822492Y-105340009D02*
X220898682Y-105416200D01*
X220898682Y-105416200D02*
X221012968Y-105454295D01*
X221012968Y-105454295D02*
X221089159Y-105454295D01*
X221089159Y-105454295D02*
X221203444Y-105416200D01*
X221203444Y-105416200D02*
X221241540Y-105378104D01*
X221241540Y-105378104D02*
X221241540Y-105111438D01*
X221241540Y-105111438D02*
X221089159Y-105111438D01*
X222155825Y-105416200D02*
X222270111Y-105454295D01*
X222270111Y-105454295D02*
X222460587Y-105454295D01*
X222460587Y-105454295D02*
X222536778Y-105416200D01*
X222536778Y-105416200D02*
X222574873Y-105378104D01*
X222574873Y-105378104D02*
X222612968Y-105301914D01*
X222612968Y-105301914D02*
X222612968Y-105225723D01*
X222612968Y-105225723D02*
X222574873Y-105149533D01*
X222574873Y-105149533D02*
X222536778Y-105111438D01*
X222536778Y-105111438D02*
X222460587Y-105073342D01*
X222460587Y-105073342D02*
X222308206Y-105035247D01*
X222308206Y-105035247D02*
X222232016Y-104997152D01*
X222232016Y-104997152D02*
X222193921Y-104959057D01*
X222193921Y-104959057D02*
X222155825Y-104882866D01*
X222155825Y-104882866D02*
X222155825Y-104806676D01*
X222155825Y-104806676D02*
X222193921Y-104730485D01*
X222193921Y-104730485D02*
X222232016Y-104692390D01*
X222232016Y-104692390D02*
X222308206Y-104654295D01*
X222308206Y-104654295D02*
X222498683Y-104654295D01*
X222498683Y-104654295D02*
X222612968Y-104692390D01*
X222955826Y-105035247D02*
X223222492Y-105035247D01*
X223336778Y-105454295D02*
X222955826Y-105454295D01*
X222955826Y-105454295D02*
X222955826Y-104654295D01*
X222955826Y-104654295D02*
X223336778Y-104654295D01*
X223679636Y-105454295D02*
X223679636Y-104654295D01*
X223679636Y-104654295D02*
X224136779Y-105454295D01*
X224136779Y-105454295D02*
X224136779Y-104654295D01*
X224479635Y-105416200D02*
X224593921Y-105454295D01*
X224593921Y-105454295D02*
X224784397Y-105454295D01*
X224784397Y-105454295D02*
X224860588Y-105416200D01*
X224860588Y-105416200D02*
X224898683Y-105378104D01*
X224898683Y-105378104D02*
X224936778Y-105301914D01*
X224936778Y-105301914D02*
X224936778Y-105225723D01*
X224936778Y-105225723D02*
X224898683Y-105149533D01*
X224898683Y-105149533D02*
X224860588Y-105111438D01*
X224860588Y-105111438D02*
X224784397Y-105073342D01*
X224784397Y-105073342D02*
X224632016Y-105035247D01*
X224632016Y-105035247D02*
X224555826Y-104997152D01*
X224555826Y-104997152D02*
X224517731Y-104959057D01*
X224517731Y-104959057D02*
X224479635Y-104882866D01*
X224479635Y-104882866D02*
X224479635Y-104806676D01*
X224479635Y-104806676D02*
X224517731Y-104730485D01*
X224517731Y-104730485D02*
X224555826Y-104692390D01*
X224555826Y-104692390D02*
X224632016Y-104654295D01*
X224632016Y-104654295D02*
X224822493Y-104654295D01*
X224822493Y-104654295D02*
X224936778Y-104692390D01*
X225432017Y-104654295D02*
X225584398Y-104654295D01*
X225584398Y-104654295D02*
X225660588Y-104692390D01*
X225660588Y-104692390D02*
X225736779Y-104768580D01*
X225736779Y-104768580D02*
X225774874Y-104920961D01*
X225774874Y-104920961D02*
X225774874Y-105187628D01*
X225774874Y-105187628D02*
X225736779Y-105340009D01*
X225736779Y-105340009D02*
X225660588Y-105416200D01*
X225660588Y-105416200D02*
X225584398Y-105454295D01*
X225584398Y-105454295D02*
X225432017Y-105454295D01*
X225432017Y-105454295D02*
X225355826Y-105416200D01*
X225355826Y-105416200D02*
X225279636Y-105340009D01*
X225279636Y-105340009D02*
X225241540Y-105187628D01*
X225241540Y-105187628D02*
X225241540Y-104920961D01*
X225241540Y-104920961D02*
X225279636Y-104768580D01*
X225279636Y-104768580D02*
X225355826Y-104692390D01*
X225355826Y-104692390D02*
X225432017Y-104654295D01*
X226574874Y-105454295D02*
X226308207Y-105073342D01*
X226117731Y-105454295D02*
X226117731Y-104654295D01*
X226117731Y-104654295D02*
X226422493Y-104654295D01*
X226422493Y-104654295D02*
X226498683Y-104692390D01*
X226498683Y-104692390D02*
X226536778Y-104730485D01*
X226536778Y-104730485D02*
X226574874Y-104806676D01*
X226574874Y-104806676D02*
X226574874Y-104920961D01*
X226574874Y-104920961D02*
X226536778Y-104997152D01*
X226536778Y-104997152D02*
X226498683Y-105035247D01*
X226498683Y-105035247D02*
X226422493Y-105073342D01*
X226422493Y-105073342D02*
X226117731Y-105073342D01*
X226879635Y-105416200D02*
X226993921Y-105454295D01*
X226993921Y-105454295D02*
X227184397Y-105454295D01*
X227184397Y-105454295D02*
X227260588Y-105416200D01*
X227260588Y-105416200D02*
X227298683Y-105378104D01*
X227298683Y-105378104D02*
X227336778Y-105301914D01*
X227336778Y-105301914D02*
X227336778Y-105225723D01*
X227336778Y-105225723D02*
X227298683Y-105149533D01*
X227298683Y-105149533D02*
X227260588Y-105111438D01*
X227260588Y-105111438D02*
X227184397Y-105073342D01*
X227184397Y-105073342D02*
X227032016Y-105035247D01*
X227032016Y-105035247D02*
X226955826Y-104997152D01*
X226955826Y-104997152D02*
X226917731Y-104959057D01*
X226917731Y-104959057D02*
X226879635Y-104882866D01*
X226879635Y-104882866D02*
X226879635Y-104806676D01*
X226879635Y-104806676D02*
X226917731Y-104730485D01*
X226917731Y-104730485D02*
X226955826Y-104692390D01*
X226955826Y-104692390D02*
X227032016Y-104654295D01*
X227032016Y-104654295D02*
X227222493Y-104654295D01*
X227222493Y-104654295D02*
X227336778Y-104692390D01*
X203901674Y-62715931D02*
X203901674Y-62220693D01*
X203901674Y-62220693D02*
X204206436Y-62487359D01*
X204206436Y-62487359D02*
X204206436Y-62373074D01*
X204206436Y-62373074D02*
X204244531Y-62296883D01*
X204244531Y-62296883D02*
X204282626Y-62258788D01*
X204282626Y-62258788D02*
X204358817Y-62220693D01*
X204358817Y-62220693D02*
X204549293Y-62220693D01*
X204549293Y-62220693D02*
X204625483Y-62258788D01*
X204625483Y-62258788D02*
X204663579Y-62296883D01*
X204663579Y-62296883D02*
X204701674Y-62373074D01*
X204701674Y-62373074D02*
X204701674Y-62601645D01*
X204701674Y-62601645D02*
X204663579Y-62677836D01*
X204663579Y-62677836D02*
X204625483Y-62715931D01*
X204625483Y-61877835D02*
X204663579Y-61839740D01*
X204663579Y-61839740D02*
X204701674Y-61877835D01*
X204701674Y-61877835D02*
X204663579Y-61915931D01*
X204663579Y-61915931D02*
X204625483Y-61877835D01*
X204625483Y-61877835D02*
X204701674Y-61877835D01*
X203901674Y-61573074D02*
X203901674Y-61077836D01*
X203901674Y-61077836D02*
X204206436Y-61344502D01*
X204206436Y-61344502D02*
X204206436Y-61230217D01*
X204206436Y-61230217D02*
X204244531Y-61154026D01*
X204244531Y-61154026D02*
X204282626Y-61115931D01*
X204282626Y-61115931D02*
X204358817Y-61077836D01*
X204358817Y-61077836D02*
X204549293Y-61077836D01*
X204549293Y-61077836D02*
X204625483Y-61115931D01*
X204625483Y-61115931D02*
X204663579Y-61154026D01*
X204663579Y-61154026D02*
X204701674Y-61230217D01*
X204701674Y-61230217D02*
X204701674Y-61458788D01*
X204701674Y-61458788D02*
X204663579Y-61534979D01*
X204663579Y-61534979D02*
X204625483Y-61573074D01*
X203901674Y-60849264D02*
X204701674Y-60582597D01*
X204701674Y-60582597D02*
X203901674Y-60315931D01*
X205227724Y-62220693D02*
X205189629Y-62296883D01*
X205189629Y-62296883D02*
X205189629Y-62411169D01*
X205189629Y-62411169D02*
X205227724Y-62525455D01*
X205227724Y-62525455D02*
X205303914Y-62601645D01*
X205303914Y-62601645D02*
X205380105Y-62639740D01*
X205380105Y-62639740D02*
X205532486Y-62677836D01*
X205532486Y-62677836D02*
X205646772Y-62677836D01*
X205646772Y-62677836D02*
X205799153Y-62639740D01*
X205799153Y-62639740D02*
X205875343Y-62601645D01*
X205875343Y-62601645D02*
X205951534Y-62525455D01*
X205951534Y-62525455D02*
X205989629Y-62411169D01*
X205989629Y-62411169D02*
X205989629Y-62334978D01*
X205989629Y-62334978D02*
X205951534Y-62220693D01*
X205951534Y-62220693D02*
X205913438Y-62182597D01*
X205913438Y-62182597D02*
X205646772Y-62182597D01*
X205646772Y-62182597D02*
X205646772Y-62334978D01*
X205989629Y-61839740D02*
X205189629Y-61839740D01*
X205189629Y-61839740D02*
X205989629Y-61382597D01*
X205989629Y-61382597D02*
X205189629Y-61382597D01*
X205989629Y-61001645D02*
X205189629Y-61001645D01*
X205189629Y-61001645D02*
X205189629Y-60811169D01*
X205189629Y-60811169D02*
X205227724Y-60696883D01*
X205227724Y-60696883D02*
X205303914Y-60620693D01*
X205303914Y-60620693D02*
X205380105Y-60582598D01*
X205380105Y-60582598D02*
X205532486Y-60544502D01*
X205532486Y-60544502D02*
X205646772Y-60544502D01*
X205646772Y-60544502D02*
X205799153Y-60582598D01*
X205799153Y-60582598D02*
X205875343Y-60620693D01*
X205875343Y-60620693D02*
X205951534Y-60696883D01*
X205951534Y-60696883D02*
X205989629Y-60811169D01*
X205989629Y-60811169D02*
X205989629Y-61001645D01*
X207239489Y-62677836D02*
X207277584Y-62563550D01*
X207277584Y-62563550D02*
X207277584Y-62373074D01*
X207277584Y-62373074D02*
X207239489Y-62296883D01*
X207239489Y-62296883D02*
X207201393Y-62258788D01*
X207201393Y-62258788D02*
X207125203Y-62220693D01*
X207125203Y-62220693D02*
X207049012Y-62220693D01*
X207049012Y-62220693D02*
X206972822Y-62258788D01*
X206972822Y-62258788D02*
X206934727Y-62296883D01*
X206934727Y-62296883D02*
X206896631Y-62373074D01*
X206896631Y-62373074D02*
X206858536Y-62525455D01*
X206858536Y-62525455D02*
X206820441Y-62601645D01*
X206820441Y-62601645D02*
X206782346Y-62639740D01*
X206782346Y-62639740D02*
X206706155Y-62677836D01*
X206706155Y-62677836D02*
X206629965Y-62677836D01*
X206629965Y-62677836D02*
X206553774Y-62639740D01*
X206553774Y-62639740D02*
X206515679Y-62601645D01*
X206515679Y-62601645D02*
X206477584Y-62525455D01*
X206477584Y-62525455D02*
X206477584Y-62334978D01*
X206477584Y-62334978D02*
X206515679Y-62220693D01*
X207201393Y-61420692D02*
X207239489Y-61458788D01*
X207239489Y-61458788D02*
X207277584Y-61573073D01*
X207277584Y-61573073D02*
X207277584Y-61649264D01*
X207277584Y-61649264D02*
X207239489Y-61763550D01*
X207239489Y-61763550D02*
X207163298Y-61839740D01*
X207163298Y-61839740D02*
X207087108Y-61877835D01*
X207087108Y-61877835D02*
X206934727Y-61915931D01*
X206934727Y-61915931D02*
X206820441Y-61915931D01*
X206820441Y-61915931D02*
X206668060Y-61877835D01*
X206668060Y-61877835D02*
X206591869Y-61839740D01*
X206591869Y-61839740D02*
X206515679Y-61763550D01*
X206515679Y-61763550D02*
X206477584Y-61649264D01*
X206477584Y-61649264D02*
X206477584Y-61573073D01*
X206477584Y-61573073D02*
X206515679Y-61458788D01*
X206515679Y-61458788D02*
X206553774Y-61420692D01*
X207277584Y-60696883D02*
X207277584Y-61077835D01*
X207277584Y-61077835D02*
X206477584Y-61077835D01*
X208527444Y-62677836D02*
X208565539Y-62563550D01*
X208565539Y-62563550D02*
X208565539Y-62373074D01*
X208565539Y-62373074D02*
X208527444Y-62296883D01*
X208527444Y-62296883D02*
X208489348Y-62258788D01*
X208489348Y-62258788D02*
X208413158Y-62220693D01*
X208413158Y-62220693D02*
X208336967Y-62220693D01*
X208336967Y-62220693D02*
X208260777Y-62258788D01*
X208260777Y-62258788D02*
X208222682Y-62296883D01*
X208222682Y-62296883D02*
X208184586Y-62373074D01*
X208184586Y-62373074D02*
X208146491Y-62525455D01*
X208146491Y-62525455D02*
X208108396Y-62601645D01*
X208108396Y-62601645D02*
X208070301Y-62639740D01*
X208070301Y-62639740D02*
X207994110Y-62677836D01*
X207994110Y-62677836D02*
X207917920Y-62677836D01*
X207917920Y-62677836D02*
X207841729Y-62639740D01*
X207841729Y-62639740D02*
X207803634Y-62601645D01*
X207803634Y-62601645D02*
X207765539Y-62525455D01*
X207765539Y-62525455D02*
X207765539Y-62334978D01*
X207765539Y-62334978D02*
X207803634Y-62220693D01*
X208565539Y-61877835D02*
X207765539Y-61877835D01*
X207765539Y-61877835D02*
X207765539Y-61687359D01*
X207765539Y-61687359D02*
X207803634Y-61573073D01*
X207803634Y-61573073D02*
X207879824Y-61496883D01*
X207879824Y-61496883D02*
X207956015Y-61458788D01*
X207956015Y-61458788D02*
X208108396Y-61420692D01*
X208108396Y-61420692D02*
X208222682Y-61420692D01*
X208222682Y-61420692D02*
X208375063Y-61458788D01*
X208375063Y-61458788D02*
X208451253Y-61496883D01*
X208451253Y-61496883D02*
X208527444Y-61573073D01*
X208527444Y-61573073D02*
X208565539Y-61687359D01*
X208565539Y-61687359D02*
X208565539Y-61877835D01*
X208336967Y-61115931D02*
X208336967Y-60734978D01*
X208565539Y-61192121D02*
X207765539Y-60925454D01*
X207765539Y-60925454D02*
X208565539Y-60658788D01*
X181346303Y-70694295D02*
X181079636Y-70313342D01*
X180889160Y-70694295D02*
X180889160Y-69894295D01*
X180889160Y-69894295D02*
X181193922Y-69894295D01*
X181193922Y-69894295D02*
X181270112Y-69932390D01*
X181270112Y-69932390D02*
X181308207Y-69970485D01*
X181308207Y-69970485D02*
X181346303Y-70046676D01*
X181346303Y-70046676D02*
X181346303Y-70160961D01*
X181346303Y-70160961D02*
X181308207Y-70237152D01*
X181308207Y-70237152D02*
X181270112Y-70275247D01*
X181270112Y-70275247D02*
X181193922Y-70313342D01*
X181193922Y-70313342D02*
X180889160Y-70313342D01*
X181803445Y-70694295D02*
X181727255Y-70656200D01*
X181727255Y-70656200D02*
X181689160Y-70618104D01*
X181689160Y-70618104D02*
X181651064Y-70541914D01*
X181651064Y-70541914D02*
X181651064Y-70313342D01*
X181651064Y-70313342D02*
X181689160Y-70237152D01*
X181689160Y-70237152D02*
X181727255Y-70199057D01*
X181727255Y-70199057D02*
X181803445Y-70160961D01*
X181803445Y-70160961D02*
X181917731Y-70160961D01*
X181917731Y-70160961D02*
X181993922Y-70199057D01*
X181993922Y-70199057D02*
X182032017Y-70237152D01*
X182032017Y-70237152D02*
X182070112Y-70313342D01*
X182070112Y-70313342D02*
X182070112Y-70541914D01*
X182070112Y-70541914D02*
X182032017Y-70618104D01*
X182032017Y-70618104D02*
X181993922Y-70656200D01*
X181993922Y-70656200D02*
X181917731Y-70694295D01*
X181917731Y-70694295D02*
X181803445Y-70694295D01*
X182336779Y-70160961D02*
X182489160Y-70694295D01*
X182489160Y-70694295D02*
X182641541Y-70313342D01*
X182641541Y-70313342D02*
X182793922Y-70694295D01*
X182793922Y-70694295D02*
X182946303Y-70160961D01*
X183670112Y-70694295D02*
X183212969Y-70694295D01*
X183441541Y-70694295D02*
X183441541Y-69894295D01*
X183441541Y-69894295D02*
X183365350Y-70008580D01*
X183365350Y-70008580D02*
X183289160Y-70084771D01*
X183289160Y-70084771D02*
X183212969Y-70122866D01*
X186470112Y-69094295D02*
X186089160Y-69094295D01*
X186089160Y-69094295D02*
X186089160Y-68294295D01*
X186736779Y-68675247D02*
X187003445Y-68675247D01*
X187117731Y-69094295D02*
X186736779Y-69094295D01*
X186736779Y-69094295D02*
X186736779Y-68294295D01*
X186736779Y-68294295D02*
X187117731Y-68294295D01*
X187460589Y-69094295D02*
X187460589Y-68294295D01*
X187460589Y-68294295D02*
X187651065Y-68294295D01*
X187651065Y-68294295D02*
X187765351Y-68332390D01*
X187765351Y-68332390D02*
X187841541Y-68408580D01*
X187841541Y-68408580D02*
X187879636Y-68484771D01*
X187879636Y-68484771D02*
X187917732Y-68637152D01*
X187917732Y-68637152D02*
X187917732Y-68751438D01*
X187917732Y-68751438D02*
X187879636Y-68903819D01*
X187879636Y-68903819D02*
X187841541Y-68980009D01*
X187841541Y-68980009D02*
X187765351Y-69056200D01*
X187765351Y-69056200D02*
X187651065Y-69094295D01*
X187651065Y-69094295D02*
X187460589Y-69094295D01*
X214739713Y-93095915D02*
X214663523Y-93057820D01*
X214663523Y-93057820D02*
X214549237Y-93057820D01*
X214549237Y-93057820D02*
X214434951Y-93095915D01*
X214434951Y-93095915D02*
X214358761Y-93172105D01*
X214358761Y-93172105D02*
X214320666Y-93248296D01*
X214320666Y-93248296D02*
X214282570Y-93400677D01*
X214282570Y-93400677D02*
X214282570Y-93514963D01*
X214282570Y-93514963D02*
X214320666Y-93667344D01*
X214320666Y-93667344D02*
X214358761Y-93743534D01*
X214358761Y-93743534D02*
X214434951Y-93819725D01*
X214434951Y-93819725D02*
X214549237Y-93857820D01*
X214549237Y-93857820D02*
X214625428Y-93857820D01*
X214625428Y-93857820D02*
X214739713Y-93819725D01*
X214739713Y-93819725D02*
X214777809Y-93781629D01*
X214777809Y-93781629D02*
X214777809Y-93514963D01*
X214777809Y-93514963D02*
X214625428Y-93514963D01*
X215120666Y-93857820D02*
X215120666Y-93057820D01*
X215120666Y-93057820D02*
X215425428Y-93057820D01*
X215425428Y-93057820D02*
X215501618Y-93095915D01*
X215501618Y-93095915D02*
X215539713Y-93134010D01*
X215539713Y-93134010D02*
X215577809Y-93210201D01*
X215577809Y-93210201D02*
X215577809Y-93324486D01*
X215577809Y-93324486D02*
X215539713Y-93400677D01*
X215539713Y-93400677D02*
X215501618Y-93438772D01*
X215501618Y-93438772D02*
X215425428Y-93476867D01*
X215425428Y-93476867D02*
X215120666Y-93476867D01*
X215920666Y-93857820D02*
X215920666Y-93057820D01*
X216453999Y-93057820D02*
X216606380Y-93057820D01*
X216606380Y-93057820D02*
X216682570Y-93095915D01*
X216682570Y-93095915D02*
X216758761Y-93172105D01*
X216758761Y-93172105D02*
X216796856Y-93324486D01*
X216796856Y-93324486D02*
X216796856Y-93591153D01*
X216796856Y-93591153D02*
X216758761Y-93743534D01*
X216758761Y-93743534D02*
X216682570Y-93819725D01*
X216682570Y-93819725D02*
X216606380Y-93857820D01*
X216606380Y-93857820D02*
X216453999Y-93857820D01*
X216453999Y-93857820D02*
X216377808Y-93819725D01*
X216377808Y-93819725D02*
X216301618Y-93743534D01*
X216301618Y-93743534D02*
X216263522Y-93591153D01*
X216263522Y-93591153D02*
X216263522Y-93324486D01*
X216263522Y-93324486D02*
X216301618Y-93172105D01*
X216301618Y-93172105D02*
X216377808Y-93095915D01*
X216377808Y-93095915D02*
X216453999Y-93057820D01*
X217482570Y-93324486D02*
X217482570Y-93857820D01*
X217292094Y-93019725D02*
X217101617Y-93591153D01*
X217101617Y-93591153D02*
X217596856Y-93591153D01*
X184346303Y-70694295D02*
X184079636Y-70313342D01*
X183889160Y-70694295D02*
X183889160Y-69894295D01*
X183889160Y-69894295D02*
X184193922Y-69894295D01*
X184193922Y-69894295D02*
X184270112Y-69932390D01*
X184270112Y-69932390D02*
X184308207Y-69970485D01*
X184308207Y-69970485D02*
X184346303Y-70046676D01*
X184346303Y-70046676D02*
X184346303Y-70160961D01*
X184346303Y-70160961D02*
X184308207Y-70237152D01*
X184308207Y-70237152D02*
X184270112Y-70275247D01*
X184270112Y-70275247D02*
X184193922Y-70313342D01*
X184193922Y-70313342D02*
X183889160Y-70313342D01*
X184803445Y-70694295D02*
X184727255Y-70656200D01*
X184727255Y-70656200D02*
X184689160Y-70618104D01*
X184689160Y-70618104D02*
X184651064Y-70541914D01*
X184651064Y-70541914D02*
X184651064Y-70313342D01*
X184651064Y-70313342D02*
X184689160Y-70237152D01*
X184689160Y-70237152D02*
X184727255Y-70199057D01*
X184727255Y-70199057D02*
X184803445Y-70160961D01*
X184803445Y-70160961D02*
X184917731Y-70160961D01*
X184917731Y-70160961D02*
X184993922Y-70199057D01*
X184993922Y-70199057D02*
X185032017Y-70237152D01*
X185032017Y-70237152D02*
X185070112Y-70313342D01*
X185070112Y-70313342D02*
X185070112Y-70541914D01*
X185070112Y-70541914D02*
X185032017Y-70618104D01*
X185032017Y-70618104D02*
X184993922Y-70656200D01*
X184993922Y-70656200D02*
X184917731Y-70694295D01*
X184917731Y-70694295D02*
X184803445Y-70694295D01*
X185336779Y-70160961D02*
X185489160Y-70694295D01*
X185489160Y-70694295D02*
X185641541Y-70313342D01*
X185641541Y-70313342D02*
X185793922Y-70694295D01*
X185793922Y-70694295D02*
X185946303Y-70160961D01*
X186212969Y-69970485D02*
X186251065Y-69932390D01*
X186251065Y-69932390D02*
X186327255Y-69894295D01*
X186327255Y-69894295D02*
X186517731Y-69894295D01*
X186517731Y-69894295D02*
X186593922Y-69932390D01*
X186593922Y-69932390D02*
X186632017Y-69970485D01*
X186632017Y-69970485D02*
X186670112Y-70046676D01*
X186670112Y-70046676D02*
X186670112Y-70122866D01*
X186670112Y-70122866D02*
X186632017Y-70237152D01*
X186632017Y-70237152D02*
X186174874Y-70694295D01*
X186174874Y-70694295D02*
X186670112Y-70694295D01*
X210394295Y-79953696D02*
X210013342Y-80220363D01*
X210394295Y-80410839D02*
X209594295Y-80410839D01*
X209594295Y-80410839D02*
X209594295Y-80106077D01*
X209594295Y-80106077D02*
X209632390Y-80029887D01*
X209632390Y-80029887D02*
X209670485Y-79991792D01*
X209670485Y-79991792D02*
X209746676Y-79953696D01*
X209746676Y-79953696D02*
X209860961Y-79953696D01*
X209860961Y-79953696D02*
X209937152Y-79991792D01*
X209937152Y-79991792D02*
X209975247Y-80029887D01*
X209975247Y-80029887D02*
X210013342Y-80106077D01*
X210013342Y-80106077D02*
X210013342Y-80410839D01*
X210356200Y-79648935D02*
X210394295Y-79534649D01*
X210394295Y-79534649D02*
X210394295Y-79344173D01*
X210394295Y-79344173D02*
X210356200Y-79267982D01*
X210356200Y-79267982D02*
X210318104Y-79229887D01*
X210318104Y-79229887D02*
X210241914Y-79191792D01*
X210241914Y-79191792D02*
X210165723Y-79191792D01*
X210165723Y-79191792D02*
X210089533Y-79229887D01*
X210089533Y-79229887D02*
X210051438Y-79267982D01*
X210051438Y-79267982D02*
X210013342Y-79344173D01*
X210013342Y-79344173D02*
X209975247Y-79496554D01*
X209975247Y-79496554D02*
X209937152Y-79572744D01*
X209937152Y-79572744D02*
X209899057Y-79610839D01*
X209899057Y-79610839D02*
X209822866Y-79648935D01*
X209822866Y-79648935D02*
X209746676Y-79648935D01*
X209746676Y-79648935D02*
X209670485Y-79610839D01*
X209670485Y-79610839D02*
X209632390Y-79572744D01*
X209632390Y-79572744D02*
X209594295Y-79496554D01*
X209594295Y-79496554D02*
X209594295Y-79306077D01*
X209594295Y-79306077D02*
X209632390Y-79191792D01*
X209594295Y-78963220D02*
X209594295Y-78506077D01*
X210394295Y-78734649D02*
X209594295Y-78734649D01*
X187255826Y-90425247D02*
X186989160Y-90425247D01*
X186989160Y-90844295D02*
X186989160Y-90044295D01*
X186989160Y-90044295D02*
X187370112Y-90044295D01*
X187941540Y-90425247D02*
X188055826Y-90463342D01*
X188055826Y-90463342D02*
X188093921Y-90501438D01*
X188093921Y-90501438D02*
X188132017Y-90577628D01*
X188132017Y-90577628D02*
X188132017Y-90691914D01*
X188132017Y-90691914D02*
X188093921Y-90768104D01*
X188093921Y-90768104D02*
X188055826Y-90806200D01*
X188055826Y-90806200D02*
X187979636Y-90844295D01*
X187979636Y-90844295D02*
X187674874Y-90844295D01*
X187674874Y-90844295D02*
X187674874Y-90044295D01*
X187674874Y-90044295D02*
X187941540Y-90044295D01*
X187941540Y-90044295D02*
X188017731Y-90082390D01*
X188017731Y-90082390D02*
X188055826Y-90120485D01*
X188055826Y-90120485D02*
X188093921Y-90196676D01*
X188093921Y-90196676D02*
X188093921Y-90272866D01*
X188093921Y-90272866D02*
X188055826Y-90349057D01*
X188055826Y-90349057D02*
X188017731Y-90387152D01*
X188017731Y-90387152D02*
X187941540Y-90425247D01*
X187941540Y-90425247D02*
X187674874Y-90425247D01*
X223089160Y-82868318D02*
X223089160Y-82068318D01*
X223089160Y-82068318D02*
X223393922Y-82068318D01*
X223393922Y-82068318D02*
X223470112Y-82106413D01*
X223470112Y-82106413D02*
X223508207Y-82144508D01*
X223508207Y-82144508D02*
X223546303Y-82220699D01*
X223546303Y-82220699D02*
X223546303Y-82334984D01*
X223546303Y-82334984D02*
X223508207Y-82411175D01*
X223508207Y-82411175D02*
X223470112Y-82449270D01*
X223470112Y-82449270D02*
X223393922Y-82487365D01*
X223393922Y-82487365D02*
X223089160Y-82487365D01*
X224232017Y-82334984D02*
X224232017Y-82868318D01*
X223889160Y-82334984D02*
X223889160Y-82754032D01*
X223889160Y-82754032D02*
X223927255Y-82830223D01*
X223927255Y-82830223D02*
X224003445Y-82868318D01*
X224003445Y-82868318D02*
X224117731Y-82868318D01*
X224117731Y-82868318D02*
X224193922Y-82830223D01*
X224193922Y-82830223D02*
X224232017Y-82792127D01*
X224727255Y-82868318D02*
X224651065Y-82830223D01*
X224651065Y-82830223D02*
X224612970Y-82754032D01*
X224612970Y-82754032D02*
X224612970Y-82068318D01*
X225146303Y-82868318D02*
X225070113Y-82830223D01*
X225070113Y-82830223D02*
X225032018Y-82754032D01*
X225032018Y-82754032D02*
X225032018Y-82068318D01*
X226403447Y-82334984D02*
X226403447Y-82868318D01*
X226060590Y-82334984D02*
X226060590Y-82754032D01*
X226060590Y-82754032D02*
X226098685Y-82830223D01*
X226098685Y-82830223D02*
X226174875Y-82868318D01*
X226174875Y-82868318D02*
X226289161Y-82868318D01*
X226289161Y-82868318D02*
X226365352Y-82830223D01*
X226365352Y-82830223D02*
X226403447Y-82792127D01*
X226784400Y-82334984D02*
X226784400Y-83134984D01*
X226784400Y-82373080D02*
X226860590Y-82334984D01*
X226860590Y-82334984D02*
X227012971Y-82334984D01*
X227012971Y-82334984D02*
X227089162Y-82373080D01*
X227089162Y-82373080D02*
X227127257Y-82411175D01*
X227127257Y-82411175D02*
X227165352Y-82487365D01*
X227165352Y-82487365D02*
X227165352Y-82715937D01*
X227165352Y-82715937D02*
X227127257Y-82792127D01*
X227127257Y-82792127D02*
X227089162Y-82830223D01*
X227089162Y-82830223D02*
X227012971Y-82868318D01*
X227012971Y-82868318D02*
X226860590Y-82868318D01*
X226860590Y-82868318D02*
X226784400Y-82830223D01*
X186432988Y-101342819D02*
X185861560Y-101342819D01*
X186147274Y-101342819D02*
X186147274Y-100342819D01*
X186147274Y-100342819D02*
X186052036Y-100485676D01*
X186052036Y-100485676D02*
X185956798Y-100580914D01*
X185956798Y-100580914D02*
X185861560Y-100628533D01*
X187004417Y-100771390D02*
X186909179Y-100723771D01*
X186909179Y-100723771D02*
X186861560Y-100676152D01*
X186861560Y-100676152D02*
X186813941Y-100580914D01*
X186813941Y-100580914D02*
X186813941Y-100533295D01*
X186813941Y-100533295D02*
X186861560Y-100438057D01*
X186861560Y-100438057D02*
X186909179Y-100390438D01*
X186909179Y-100390438D02*
X187004417Y-100342819D01*
X187004417Y-100342819D02*
X187194893Y-100342819D01*
X187194893Y-100342819D02*
X187290131Y-100390438D01*
X187290131Y-100390438D02*
X187337750Y-100438057D01*
X187337750Y-100438057D02*
X187385369Y-100533295D01*
X187385369Y-100533295D02*
X187385369Y-100580914D01*
X187385369Y-100580914D02*
X187337750Y-100676152D01*
X187337750Y-100676152D02*
X187290131Y-100723771D01*
X187290131Y-100723771D02*
X187194893Y-100771390D01*
X187194893Y-100771390D02*
X187004417Y-100771390D01*
X187004417Y-100771390D02*
X186909179Y-100819009D01*
X186909179Y-100819009D02*
X186861560Y-100866628D01*
X186861560Y-100866628D02*
X186813941Y-100961866D01*
X186813941Y-100961866D02*
X186813941Y-101152342D01*
X186813941Y-101152342D02*
X186861560Y-101247580D01*
X186861560Y-101247580D02*
X186909179Y-101295200D01*
X186909179Y-101295200D02*
X187004417Y-101342819D01*
X187004417Y-101342819D02*
X187194893Y-101342819D01*
X187194893Y-101342819D02*
X187290131Y-101295200D01*
X187290131Y-101295200D02*
X187337750Y-101247580D01*
X187337750Y-101247580D02*
X187385369Y-101152342D01*
X187385369Y-101152342D02*
X187385369Y-100961866D01*
X187385369Y-100961866D02*
X187337750Y-100866628D01*
X187337750Y-100866628D02*
X187290131Y-100819009D01*
X187290131Y-100819009D02*
X187194893Y-100771390D01*
X187718703Y-101342819D02*
X188242512Y-100676152D01*
X187718703Y-100676152D02*
X188242512Y-101342819D01*
X189147274Y-101342819D02*
X188575846Y-101342819D01*
X188861560Y-101342819D02*
X188861560Y-100342819D01*
X188861560Y-100342819D02*
X188766322Y-100485676D01*
X188766322Y-100485676D02*
X188671084Y-100580914D01*
X188671084Y-100580914D02*
X188575846Y-100628533D01*
X189528227Y-100438057D02*
X189575846Y-100390438D01*
X189575846Y-100390438D02*
X189671084Y-100342819D01*
X189671084Y-100342819D02*
X189909179Y-100342819D01*
X189909179Y-100342819D02*
X190004417Y-100390438D01*
X190004417Y-100390438D02*
X190052036Y-100438057D01*
X190052036Y-100438057D02*
X190099655Y-100533295D01*
X190099655Y-100533295D02*
X190099655Y-100628533D01*
X190099655Y-100628533D02*
X190052036Y-100771390D01*
X190052036Y-100771390D02*
X189480608Y-101342819D01*
X189480608Y-101342819D02*
X190099655Y-101342819D01*
D10*
X185928095Y-97445419D02*
X185928095Y-98254942D01*
X185928095Y-98254942D02*
X185975714Y-98350180D01*
X185975714Y-98350180D02*
X186023333Y-98397800D01*
X186023333Y-98397800D02*
X186118571Y-98445419D01*
X186118571Y-98445419D02*
X186309047Y-98445419D01*
X186309047Y-98445419D02*
X186404285Y-98397800D01*
X186404285Y-98397800D02*
X186451904Y-98350180D01*
X186451904Y-98350180D02*
X186499523Y-98254942D01*
X186499523Y-98254942D02*
X186499523Y-97445419D01*
X186928095Y-97540657D02*
X186975714Y-97493038D01*
X186975714Y-97493038D02*
X187070952Y-97445419D01*
X187070952Y-97445419D02*
X187309047Y-97445419D01*
X187309047Y-97445419D02*
X187404285Y-97493038D01*
X187404285Y-97493038D02*
X187451904Y-97540657D01*
X187451904Y-97540657D02*
X187499523Y-97635895D01*
X187499523Y-97635895D02*
X187499523Y-97731133D01*
X187499523Y-97731133D02*
X187451904Y-97873990D01*
X187451904Y-97873990D02*
X186880476Y-98445419D01*
X186880476Y-98445419D02*
X187499523Y-98445419D01*
D11*
X218038095Y-76054819D02*
X218038095Y-76864342D01*
X218038095Y-76864342D02*
X218085714Y-76959580D01*
X218085714Y-76959580D02*
X218133333Y-77007200D01*
X218133333Y-77007200D02*
X218228571Y-77054819D01*
X218228571Y-77054819D02*
X218419047Y-77054819D01*
X218419047Y-77054819D02*
X218514285Y-77007200D01*
X218514285Y-77007200D02*
X218561904Y-76959580D01*
X218561904Y-76959580D02*
X218609523Y-76864342D01*
X218609523Y-76864342D02*
X218609523Y-76054819D01*
X219609523Y-77054819D02*
X219038095Y-77054819D01*
X219323809Y-77054819D02*
X219323809Y-76054819D01*
X219323809Y-76054819D02*
X219228571Y-76197676D01*
X219228571Y-76197676D02*
X219133333Y-76292914D01*
X219133333Y-76292914D02*
X219038095Y-76340533D01*
X211988095Y-92954819D02*
X212559523Y-92954819D01*
X212273809Y-93954819D02*
X212273809Y-92954819D01*
X213416666Y-93954819D02*
X212845238Y-93954819D01*
X213130952Y-93954819D02*
X213130952Y-92954819D01*
X213130952Y-92954819D02*
X213035714Y-93097676D01*
X213035714Y-93097676D02*
X212940476Y-93192914D01*
X212940476Y-93192914D02*
X212845238Y-93240533D01*
X180778571Y-61362295D02*
X180778571Y-60562295D01*
X180778571Y-60562295D02*
X181045237Y-61133723D01*
X181045237Y-61133723D02*
X181311904Y-60562295D01*
X181311904Y-60562295D02*
X181311904Y-61362295D01*
X182035714Y-61362295D02*
X182035714Y-60943247D01*
X182035714Y-60943247D02*
X181997619Y-60867057D01*
X181997619Y-60867057D02*
X181921428Y-60828961D01*
X181921428Y-60828961D02*
X181769047Y-60828961D01*
X181769047Y-60828961D02*
X181692857Y-60867057D01*
X182035714Y-61324200D02*
X181959523Y-61362295D01*
X181959523Y-61362295D02*
X181769047Y-61362295D01*
X181769047Y-61362295D02*
X181692857Y-61324200D01*
X181692857Y-61324200D02*
X181654761Y-61248009D01*
X181654761Y-61248009D02*
X181654761Y-61171819D01*
X181654761Y-61171819D02*
X181692857Y-61095628D01*
X181692857Y-61095628D02*
X181769047Y-61057533D01*
X181769047Y-61057533D02*
X181959523Y-61057533D01*
X181959523Y-61057533D02*
X182035714Y-61019438D01*
X182759524Y-60828961D02*
X182759524Y-61476580D01*
X182759524Y-61476580D02*
X182721429Y-61552771D01*
X182721429Y-61552771D02*
X182683333Y-61590866D01*
X182683333Y-61590866D02*
X182607143Y-61628961D01*
X182607143Y-61628961D02*
X182492857Y-61628961D01*
X182492857Y-61628961D02*
X182416667Y-61590866D01*
X182759524Y-61324200D02*
X182683333Y-61362295D01*
X182683333Y-61362295D02*
X182530952Y-61362295D01*
X182530952Y-61362295D02*
X182454762Y-61324200D01*
X182454762Y-61324200D02*
X182416667Y-61286104D01*
X182416667Y-61286104D02*
X182378571Y-61209914D01*
X182378571Y-61209914D02*
X182378571Y-60981342D01*
X182378571Y-60981342D02*
X182416667Y-60905152D01*
X182416667Y-60905152D02*
X182454762Y-60867057D01*
X182454762Y-60867057D02*
X182530952Y-60828961D01*
X182530952Y-60828961D02*
X182683333Y-60828961D01*
X182683333Y-60828961D02*
X182759524Y-60867057D01*
X183140477Y-60828961D02*
X183140477Y-61362295D01*
X183140477Y-60905152D02*
X183178572Y-60867057D01*
X183178572Y-60867057D02*
X183254762Y-60828961D01*
X183254762Y-60828961D02*
X183369048Y-60828961D01*
X183369048Y-60828961D02*
X183445239Y-60867057D01*
X183445239Y-60867057D02*
X183483334Y-60943247D01*
X183483334Y-60943247D02*
X183483334Y-61362295D01*
X184169049Y-61324200D02*
X184092858Y-61362295D01*
X184092858Y-61362295D02*
X183940477Y-61362295D01*
X183940477Y-61362295D02*
X183864287Y-61324200D01*
X183864287Y-61324200D02*
X183826191Y-61248009D01*
X183826191Y-61248009D02*
X183826191Y-60943247D01*
X183826191Y-60943247D02*
X183864287Y-60867057D01*
X183864287Y-60867057D02*
X183940477Y-60828961D01*
X183940477Y-60828961D02*
X184092858Y-60828961D01*
X184092858Y-60828961D02*
X184169049Y-60867057D01*
X184169049Y-60867057D02*
X184207144Y-60943247D01*
X184207144Y-60943247D02*
X184207144Y-61019438D01*
X184207144Y-61019438D02*
X183826191Y-61095628D01*
X184435715Y-60828961D02*
X184740477Y-60828961D01*
X184550001Y-60562295D02*
X184550001Y-61248009D01*
X184550001Y-61248009D02*
X184588096Y-61324200D01*
X184588096Y-61324200D02*
X184664286Y-61362295D01*
X184664286Y-61362295D02*
X184740477Y-61362295D01*
X185007144Y-61362295D02*
X185007144Y-60828961D01*
X185007144Y-60562295D02*
X184969048Y-60600390D01*
X184969048Y-60600390D02*
X185007144Y-60638485D01*
X185007144Y-60638485D02*
X185045239Y-60600390D01*
X185045239Y-60600390D02*
X185007144Y-60562295D01*
X185007144Y-60562295D02*
X185007144Y-60638485D01*
X185730953Y-61324200D02*
X185654762Y-61362295D01*
X185654762Y-61362295D02*
X185502381Y-61362295D01*
X185502381Y-61362295D02*
X185426191Y-61324200D01*
X185426191Y-61324200D02*
X185388096Y-61286104D01*
X185388096Y-61286104D02*
X185350000Y-61209914D01*
X185350000Y-61209914D02*
X185350000Y-60981342D01*
X185350000Y-60981342D02*
X185388096Y-60905152D01*
X185388096Y-60905152D02*
X185426191Y-60867057D01*
X185426191Y-60867057D02*
X185502381Y-60828961D01*
X185502381Y-60828961D02*
X185654762Y-60828961D01*
X185654762Y-60828961D02*
X185730953Y-60867057D01*
X186073810Y-61362295D02*
X186073810Y-60562295D01*
X186454762Y-60828961D02*
X186454762Y-61362295D01*
X186454762Y-60905152D02*
X186492857Y-60867057D01*
X186492857Y-60867057D02*
X186569047Y-60828961D01*
X186569047Y-60828961D02*
X186683333Y-60828961D01*
X186683333Y-60828961D02*
X186759524Y-60867057D01*
X186759524Y-60867057D02*
X186797619Y-60943247D01*
X186797619Y-60943247D02*
X186797619Y-61362295D01*
X187064286Y-60828961D02*
X187369048Y-60828961D01*
X187178572Y-60562295D02*
X187178572Y-61248009D01*
X187178572Y-61248009D02*
X187216667Y-61324200D01*
X187216667Y-61324200D02*
X187292857Y-61362295D01*
X187292857Y-61362295D02*
X187369048Y-61362295D01*
X187940477Y-61324200D02*
X187864286Y-61362295D01*
X187864286Y-61362295D02*
X187711905Y-61362295D01*
X187711905Y-61362295D02*
X187635715Y-61324200D01*
X187635715Y-61324200D02*
X187597619Y-61248009D01*
X187597619Y-61248009D02*
X187597619Y-60943247D01*
X187597619Y-60943247D02*
X187635715Y-60867057D01*
X187635715Y-60867057D02*
X187711905Y-60828961D01*
X187711905Y-60828961D02*
X187864286Y-60828961D01*
X187864286Y-60828961D02*
X187940477Y-60867057D01*
X187940477Y-60867057D02*
X187978572Y-60943247D01*
X187978572Y-60943247D02*
X187978572Y-61019438D01*
X187978572Y-61019438D02*
X187597619Y-61095628D01*
X188321429Y-61362295D02*
X188321429Y-60828961D01*
X188321429Y-60981342D02*
X188359524Y-60905152D01*
X188359524Y-60905152D02*
X188397619Y-60867057D01*
X188397619Y-60867057D02*
X188473810Y-60828961D01*
X188473810Y-60828961D02*
X188550000Y-60828961D01*
X189159524Y-61324200D02*
X189083333Y-61362295D01*
X189083333Y-61362295D02*
X188930952Y-61362295D01*
X188930952Y-61362295D02*
X188854762Y-61324200D01*
X188854762Y-61324200D02*
X188816667Y-61286104D01*
X188816667Y-61286104D02*
X188778571Y-61209914D01*
X188778571Y-61209914D02*
X188778571Y-60981342D01*
X188778571Y-60981342D02*
X188816667Y-60905152D01*
X188816667Y-60905152D02*
X188854762Y-60867057D01*
X188854762Y-60867057D02*
X188930952Y-60828961D01*
X188930952Y-60828961D02*
X189083333Y-60828961D01*
X189083333Y-60828961D02*
X189159524Y-60867057D01*
X189616666Y-61362295D02*
X189540476Y-61324200D01*
X189540476Y-61324200D02*
X189502381Y-61286104D01*
X189502381Y-61286104D02*
X189464285Y-61209914D01*
X189464285Y-61209914D02*
X189464285Y-60981342D01*
X189464285Y-60981342D02*
X189502381Y-60905152D01*
X189502381Y-60905152D02*
X189540476Y-60867057D01*
X189540476Y-60867057D02*
X189616666Y-60828961D01*
X189616666Y-60828961D02*
X189730952Y-60828961D01*
X189730952Y-60828961D02*
X189807143Y-60867057D01*
X189807143Y-60867057D02*
X189845238Y-60905152D01*
X189845238Y-60905152D02*
X189883333Y-60981342D01*
X189883333Y-60981342D02*
X189883333Y-61209914D01*
X189883333Y-61209914D02*
X189845238Y-61286104D01*
X189845238Y-61286104D02*
X189807143Y-61324200D01*
X189807143Y-61324200D02*
X189730952Y-61362295D01*
X189730952Y-61362295D02*
X189616666Y-61362295D01*
X190226191Y-60828961D02*
X190226191Y-61362295D01*
X190226191Y-60905152D02*
X190264286Y-60867057D01*
X190264286Y-60867057D02*
X190340476Y-60828961D01*
X190340476Y-60828961D02*
X190454762Y-60828961D01*
X190454762Y-60828961D02*
X190530953Y-60867057D01*
X190530953Y-60867057D02*
X190569048Y-60943247D01*
X190569048Y-60943247D02*
X190569048Y-61362295D01*
X190950001Y-60828961D02*
X190950001Y-61362295D01*
X190950001Y-60905152D02*
X190988096Y-60867057D01*
X190988096Y-60867057D02*
X191064286Y-60828961D01*
X191064286Y-60828961D02*
X191178572Y-60828961D01*
X191178572Y-60828961D02*
X191254763Y-60867057D01*
X191254763Y-60867057D02*
X191292858Y-60943247D01*
X191292858Y-60943247D02*
X191292858Y-61362295D01*
X191978573Y-61324200D02*
X191902382Y-61362295D01*
X191902382Y-61362295D02*
X191750001Y-61362295D01*
X191750001Y-61362295D02*
X191673811Y-61324200D01*
X191673811Y-61324200D02*
X191635715Y-61248009D01*
X191635715Y-61248009D02*
X191635715Y-60943247D01*
X191635715Y-60943247D02*
X191673811Y-60867057D01*
X191673811Y-60867057D02*
X191750001Y-60828961D01*
X191750001Y-60828961D02*
X191902382Y-60828961D01*
X191902382Y-60828961D02*
X191978573Y-60867057D01*
X191978573Y-60867057D02*
X192016668Y-60943247D01*
X192016668Y-60943247D02*
X192016668Y-61019438D01*
X192016668Y-61019438D02*
X191635715Y-61095628D01*
X192702382Y-61324200D02*
X192626191Y-61362295D01*
X192626191Y-61362295D02*
X192473810Y-61362295D01*
X192473810Y-61362295D02*
X192397620Y-61324200D01*
X192397620Y-61324200D02*
X192359525Y-61286104D01*
X192359525Y-61286104D02*
X192321429Y-61209914D01*
X192321429Y-61209914D02*
X192321429Y-60981342D01*
X192321429Y-60981342D02*
X192359525Y-60905152D01*
X192359525Y-60905152D02*
X192397620Y-60867057D01*
X192397620Y-60867057D02*
X192473810Y-60828961D01*
X192473810Y-60828961D02*
X192626191Y-60828961D01*
X192626191Y-60828961D02*
X192702382Y-60867057D01*
X192930953Y-60828961D02*
X193235715Y-60828961D01*
X193045239Y-60562295D02*
X193045239Y-61248009D01*
X193045239Y-61248009D02*
X193083334Y-61324200D01*
X193083334Y-61324200D02*
X193159524Y-61362295D01*
X193159524Y-61362295D02*
X193235715Y-61362295D01*
X207023809Y-97254819D02*
X207023809Y-96254819D01*
X207023809Y-96254819D02*
X207404761Y-96254819D01*
X207404761Y-96254819D02*
X207499999Y-96302438D01*
X207499999Y-96302438D02*
X207547618Y-96350057D01*
X207547618Y-96350057D02*
X207595237Y-96445295D01*
X207595237Y-96445295D02*
X207595237Y-96588152D01*
X207595237Y-96588152D02*
X207547618Y-96683390D01*
X207547618Y-96683390D02*
X207499999Y-96731009D01*
X207499999Y-96731009D02*
X207404761Y-96778628D01*
X207404761Y-96778628D02*
X207023809Y-96778628D01*
X208166666Y-97254819D02*
X208071428Y-97207200D01*
X208071428Y-97207200D02*
X208023809Y-97159580D01*
X208023809Y-97159580D02*
X207976190Y-97064342D01*
X207976190Y-97064342D02*
X207976190Y-96778628D01*
X207976190Y-96778628D02*
X208023809Y-96683390D01*
X208023809Y-96683390D02*
X208071428Y-96635771D01*
X208071428Y-96635771D02*
X208166666Y-96588152D01*
X208166666Y-96588152D02*
X208309523Y-96588152D01*
X208309523Y-96588152D02*
X208404761Y-96635771D01*
X208404761Y-96635771D02*
X208452380Y-96683390D01*
X208452380Y-96683390D02*
X208499999Y-96778628D01*
X208499999Y-96778628D02*
X208499999Y-97064342D01*
X208499999Y-97064342D02*
X208452380Y-97159580D01*
X208452380Y-97159580D02*
X208404761Y-97207200D01*
X208404761Y-97207200D02*
X208309523Y-97254819D01*
X208309523Y-97254819D02*
X208166666Y-97254819D01*
X208833333Y-96588152D02*
X209023809Y-97254819D01*
X209023809Y-97254819D02*
X209214285Y-96778628D01*
X209214285Y-96778628D02*
X209404761Y-97254819D01*
X209404761Y-97254819D02*
X209595237Y-96588152D01*
X210357142Y-97207200D02*
X210261904Y-97254819D01*
X210261904Y-97254819D02*
X210071428Y-97254819D01*
X210071428Y-97254819D02*
X209976190Y-97207200D01*
X209976190Y-97207200D02*
X209928571Y-97111961D01*
X209928571Y-97111961D02*
X209928571Y-96731009D01*
X209928571Y-96731009D02*
X209976190Y-96635771D01*
X209976190Y-96635771D02*
X210071428Y-96588152D01*
X210071428Y-96588152D02*
X210261904Y-96588152D01*
X210261904Y-96588152D02*
X210357142Y-96635771D01*
X210357142Y-96635771D02*
X210404761Y-96731009D01*
X210404761Y-96731009D02*
X210404761Y-96826247D01*
X210404761Y-96826247D02*
X209928571Y-96921485D01*
X210833333Y-97254819D02*
X210833333Y-96588152D01*
X210833333Y-96778628D02*
X210880952Y-96683390D01*
X210880952Y-96683390D02*
X210928571Y-96635771D01*
X210928571Y-96635771D02*
X211023809Y-96588152D01*
X211023809Y-96588152D02*
X211119047Y-96588152D01*
X212026896Y-57905023D02*
X211988800Y-57943119D01*
X211988800Y-57943119D02*
X211874515Y-57981214D01*
X211874515Y-57981214D02*
X211798324Y-57981214D01*
X211798324Y-57981214D02*
X211684038Y-57943119D01*
X211684038Y-57943119D02*
X211607848Y-57866928D01*
X211607848Y-57866928D02*
X211569753Y-57790738D01*
X211569753Y-57790738D02*
X211531657Y-57638357D01*
X211531657Y-57638357D02*
X211531657Y-57524071D01*
X211531657Y-57524071D02*
X211569753Y-57371690D01*
X211569753Y-57371690D02*
X211607848Y-57295499D01*
X211607848Y-57295499D02*
X211684038Y-57219309D01*
X211684038Y-57219309D02*
X211798324Y-57181214D01*
X211798324Y-57181214D02*
X211874515Y-57181214D01*
X211874515Y-57181214D02*
X211988800Y-57219309D01*
X211988800Y-57219309D02*
X212026896Y-57257404D01*
X212788800Y-57981214D02*
X212331657Y-57981214D01*
X212560229Y-57981214D02*
X212560229Y-57181214D01*
X212560229Y-57181214D02*
X212484038Y-57295499D01*
X212484038Y-57295499D02*
X212407848Y-57371690D01*
X212407848Y-57371690D02*
X212331657Y-57409785D01*
X198816298Y-67061509D02*
X198816298Y-67328175D01*
X199235346Y-67328175D02*
X198435346Y-67328175D01*
X198435346Y-67328175D02*
X198435346Y-66947223D01*
X198816298Y-66375795D02*
X198854393Y-66261509D01*
X198854393Y-66261509D02*
X198892489Y-66223414D01*
X198892489Y-66223414D02*
X198968679Y-66185318D01*
X198968679Y-66185318D02*
X199082965Y-66185318D01*
X199082965Y-66185318D02*
X199159155Y-66223414D01*
X199159155Y-66223414D02*
X199197251Y-66261509D01*
X199197251Y-66261509D02*
X199235346Y-66337699D01*
X199235346Y-66337699D02*
X199235346Y-66642461D01*
X199235346Y-66642461D02*
X198435346Y-66642461D01*
X198435346Y-66642461D02*
X198435346Y-66375795D01*
X198435346Y-66375795D02*
X198473441Y-66299604D01*
X198473441Y-66299604D02*
X198511536Y-66261509D01*
X198511536Y-66261509D02*
X198587727Y-66223414D01*
X198587727Y-66223414D02*
X198663917Y-66223414D01*
X198663917Y-66223414D02*
X198740108Y-66261509D01*
X198740108Y-66261509D02*
X198778203Y-66299604D01*
X198778203Y-66299604D02*
X198816298Y-66375795D01*
X198816298Y-66375795D02*
X198816298Y-66642461D01*
X199235346Y-65423414D02*
X199235346Y-65880557D01*
X199235346Y-65651985D02*
X198435346Y-65651985D01*
X198435346Y-65651985D02*
X198549631Y-65728176D01*
X198549631Y-65728176D02*
X198625822Y-65804366D01*
X198625822Y-65804366D02*
X198663917Y-65880557D01*
X217416666Y-91181009D02*
X217083333Y-91181009D01*
X217083333Y-91704819D02*
X217083333Y-90704819D01*
X217083333Y-90704819D02*
X217559523Y-90704819D01*
X218464285Y-91704819D02*
X217892857Y-91704819D01*
X218178571Y-91704819D02*
X218178571Y-90704819D01*
X218178571Y-90704819D02*
X218083333Y-90847676D01*
X218083333Y-90847676D02*
X217988095Y-90942914D01*
X217988095Y-90942914D02*
X217892857Y-90990533D01*
X208569580Y-99616666D02*
X208617200Y-99664285D01*
X208617200Y-99664285D02*
X208664819Y-99807142D01*
X208664819Y-99807142D02*
X208664819Y-99902380D01*
X208664819Y-99902380D02*
X208617200Y-100045237D01*
X208617200Y-100045237D02*
X208521961Y-100140475D01*
X208521961Y-100140475D02*
X208426723Y-100188094D01*
X208426723Y-100188094D02*
X208236247Y-100235713D01*
X208236247Y-100235713D02*
X208093390Y-100235713D01*
X208093390Y-100235713D02*
X207902914Y-100188094D01*
X207902914Y-100188094D02*
X207807676Y-100140475D01*
X207807676Y-100140475D02*
X207712438Y-100045237D01*
X207712438Y-100045237D02*
X207664819Y-99902380D01*
X207664819Y-99902380D02*
X207664819Y-99807142D01*
X207664819Y-99807142D02*
X207712438Y-99664285D01*
X207712438Y-99664285D02*
X207760057Y-99616666D01*
X207998152Y-98759523D02*
X208664819Y-98759523D01*
X207617200Y-98997618D02*
X208331485Y-99235713D01*
X208331485Y-99235713D02*
X208331485Y-98616666D01*
X207443988Y-80860576D02*
X207443988Y-81336766D01*
X207443988Y-81336766D02*
X206443988Y-81336766D01*
X206443988Y-80336766D02*
X206443988Y-80146290D01*
X206443988Y-80146290D02*
X206491607Y-80051052D01*
X206491607Y-80051052D02*
X206586845Y-79955814D01*
X206586845Y-79955814D02*
X206777321Y-79908195D01*
X206777321Y-79908195D02*
X207110654Y-79908195D01*
X207110654Y-79908195D02*
X207301130Y-79955814D01*
X207301130Y-79955814D02*
X207396369Y-80051052D01*
X207396369Y-80051052D02*
X207443988Y-80146290D01*
X207443988Y-80146290D02*
X207443988Y-80336766D01*
X207443988Y-80336766D02*
X207396369Y-80432004D01*
X207396369Y-80432004D02*
X207301130Y-80527242D01*
X207301130Y-80527242D02*
X207110654Y-80574861D01*
X207110654Y-80574861D02*
X206777321Y-80574861D01*
X206777321Y-80574861D02*
X206586845Y-80527242D01*
X206586845Y-80527242D02*
X206491607Y-80432004D01*
X206491607Y-80432004D02*
X206443988Y-80336766D01*
X207443988Y-79003433D02*
X207443988Y-79479623D01*
X207443988Y-79479623D02*
X206443988Y-79479623D01*
X207443988Y-78670099D02*
X206443988Y-78670099D01*
X207443988Y-78193909D02*
X206443988Y-78193909D01*
X206443988Y-78193909D02*
X207443988Y-77622481D01*
X207443988Y-77622481D02*
X206443988Y-77622481D01*
X207539226Y-77384386D02*
X207539226Y-76622481D01*
X207348749Y-75812957D02*
X207396369Y-75860576D01*
X207396369Y-75860576D02*
X207443988Y-76003433D01*
X207443988Y-76003433D02*
X207443988Y-76098671D01*
X207443988Y-76098671D02*
X207396369Y-76241528D01*
X207396369Y-76241528D02*
X207301130Y-76336766D01*
X207301130Y-76336766D02*
X207205892Y-76384385D01*
X207205892Y-76384385D02*
X207015416Y-76432004D01*
X207015416Y-76432004D02*
X206872559Y-76432004D01*
X206872559Y-76432004D02*
X206682083Y-76384385D01*
X206682083Y-76384385D02*
X206586845Y-76336766D01*
X206586845Y-76336766D02*
X206491607Y-76241528D01*
X206491607Y-76241528D02*
X206443988Y-76098671D01*
X206443988Y-76098671D02*
X206443988Y-76003433D01*
X206443988Y-76003433D02*
X206491607Y-75860576D01*
X206491607Y-75860576D02*
X206539226Y-75812957D01*
X206443988Y-75479623D02*
X206443988Y-74860576D01*
X206443988Y-74860576D02*
X206824940Y-75193909D01*
X206824940Y-75193909D02*
X206824940Y-75051052D01*
X206824940Y-75051052D02*
X206872559Y-74955814D01*
X206872559Y-74955814D02*
X206920178Y-74908195D01*
X206920178Y-74908195D02*
X207015416Y-74860576D01*
X207015416Y-74860576D02*
X207253511Y-74860576D01*
X207253511Y-74860576D02*
X207348749Y-74908195D01*
X207348749Y-74908195D02*
X207396369Y-74955814D01*
X207396369Y-74955814D02*
X207443988Y-75051052D01*
X207443988Y-75051052D02*
X207443988Y-75336766D01*
X207443988Y-75336766D02*
X207396369Y-75432004D01*
X207396369Y-75432004D02*
X207348749Y-75479623D01*
X207539226Y-74670100D02*
X207539226Y-73908195D01*
X207443988Y-73670099D02*
X206443988Y-73670099D01*
X206443988Y-73670099D02*
X206443988Y-73289147D01*
X206443988Y-73289147D02*
X206491607Y-73193909D01*
X206491607Y-73193909D02*
X206539226Y-73146290D01*
X206539226Y-73146290D02*
X206634464Y-73098671D01*
X206634464Y-73098671D02*
X206777321Y-73098671D01*
X206777321Y-73098671D02*
X206872559Y-73146290D01*
X206872559Y-73146290D02*
X206920178Y-73193909D01*
X206920178Y-73193909D02*
X206967797Y-73289147D01*
X206967797Y-73289147D02*
X206967797Y-73670099D01*
X207443988Y-72670099D02*
X206443988Y-72670099D01*
X207348749Y-71622481D02*
X207396369Y-71670100D01*
X207396369Y-71670100D02*
X207443988Y-71812957D01*
X207443988Y-71812957D02*
X207443988Y-71908195D01*
X207443988Y-71908195D02*
X207396369Y-72051052D01*
X207396369Y-72051052D02*
X207301130Y-72146290D01*
X207301130Y-72146290D02*
X207205892Y-72193909D01*
X207205892Y-72193909D02*
X207015416Y-72241528D01*
X207015416Y-72241528D02*
X206872559Y-72241528D01*
X206872559Y-72241528D02*
X206682083Y-72193909D01*
X206682083Y-72193909D02*
X206586845Y-72146290D01*
X206586845Y-72146290D02*
X206491607Y-72051052D01*
X206491607Y-72051052D02*
X206443988Y-71908195D01*
X206443988Y-71908195D02*
X206443988Y-71812957D01*
X206443988Y-71812957D02*
X206491607Y-71670100D01*
X206491607Y-71670100D02*
X206539226Y-71622481D01*
X206443988Y-71003433D02*
X206443988Y-70812957D01*
X206443988Y-70812957D02*
X206491607Y-70717719D01*
X206491607Y-70717719D02*
X206586845Y-70622481D01*
X206586845Y-70622481D02*
X206777321Y-70574862D01*
X206777321Y-70574862D02*
X207110654Y-70574862D01*
X207110654Y-70574862D02*
X207301130Y-70622481D01*
X207301130Y-70622481D02*
X207396369Y-70717719D01*
X207396369Y-70717719D02*
X207443988Y-70812957D01*
X207443988Y-70812957D02*
X207443988Y-71003433D01*
X207443988Y-71003433D02*
X207396369Y-71098671D01*
X207396369Y-71098671D02*
X207301130Y-71193909D01*
X207301130Y-71193909D02*
X207110654Y-71241528D01*
X207110654Y-71241528D02*
X206777321Y-71241528D01*
X206777321Y-71241528D02*
X206586845Y-71193909D01*
X206586845Y-71193909D02*
X206491607Y-71098671D01*
X206491607Y-71098671D02*
X206443988Y-71003433D01*
X207443988Y-69622481D02*
X207443988Y-70193909D01*
X207443988Y-69908195D02*
X206443988Y-69908195D01*
X206443988Y-69908195D02*
X206586845Y-70003433D01*
X206586845Y-70003433D02*
X206682083Y-70098671D01*
X206682083Y-70098671D02*
X206729702Y-70193909D01*
X223026896Y-57786104D02*
X222988800Y-57824200D01*
X222988800Y-57824200D02*
X222874515Y-57862295D01*
X222874515Y-57862295D02*
X222798324Y-57862295D01*
X222798324Y-57862295D02*
X222684038Y-57824200D01*
X222684038Y-57824200D02*
X222607848Y-57748009D01*
X222607848Y-57748009D02*
X222569753Y-57671819D01*
X222569753Y-57671819D02*
X222531657Y-57519438D01*
X222531657Y-57519438D02*
X222531657Y-57405152D01*
X222531657Y-57405152D02*
X222569753Y-57252771D01*
X222569753Y-57252771D02*
X222607848Y-57176580D01*
X222607848Y-57176580D02*
X222684038Y-57100390D01*
X222684038Y-57100390D02*
X222798324Y-57062295D01*
X222798324Y-57062295D02*
X222874515Y-57062295D01*
X222874515Y-57062295D02*
X222988800Y-57100390D01*
X222988800Y-57100390D02*
X223026896Y-57138485D01*
X223331657Y-57138485D02*
X223369753Y-57100390D01*
X223369753Y-57100390D02*
X223445943Y-57062295D01*
X223445943Y-57062295D02*
X223636419Y-57062295D01*
X223636419Y-57062295D02*
X223712610Y-57100390D01*
X223712610Y-57100390D02*
X223750705Y-57138485D01*
X223750705Y-57138485D02*
X223788800Y-57214676D01*
X223788800Y-57214676D02*
X223788800Y-57290866D01*
X223788800Y-57290866D02*
X223750705Y-57405152D01*
X223750705Y-57405152D02*
X223293562Y-57862295D01*
X223293562Y-57862295D02*
X223788800Y-57862295D01*
X216114277Y-57781214D02*
X216114277Y-56981214D01*
X216114277Y-56981214D02*
X216419039Y-56981214D01*
X216419039Y-56981214D02*
X216495229Y-57019309D01*
X216495229Y-57019309D02*
X216533324Y-57057404D01*
X216533324Y-57057404D02*
X216571420Y-57133595D01*
X216571420Y-57133595D02*
X216571420Y-57247880D01*
X216571420Y-57247880D02*
X216533324Y-57324071D01*
X216533324Y-57324071D02*
X216495229Y-57362166D01*
X216495229Y-57362166D02*
X216419039Y-57400261D01*
X216419039Y-57400261D02*
X216114277Y-57400261D01*
X217028562Y-57781214D02*
X216952372Y-57743119D01*
X216952372Y-57743119D02*
X216914277Y-57705023D01*
X216914277Y-57705023D02*
X216876181Y-57628833D01*
X216876181Y-57628833D02*
X216876181Y-57400261D01*
X216876181Y-57400261D02*
X216914277Y-57324071D01*
X216914277Y-57324071D02*
X216952372Y-57285976D01*
X216952372Y-57285976D02*
X217028562Y-57247880D01*
X217028562Y-57247880D02*
X217142848Y-57247880D01*
X217142848Y-57247880D02*
X217219039Y-57285976D01*
X217219039Y-57285976D02*
X217257134Y-57324071D01*
X217257134Y-57324071D02*
X217295229Y-57400261D01*
X217295229Y-57400261D02*
X217295229Y-57628833D01*
X217295229Y-57628833D02*
X217257134Y-57705023D01*
X217257134Y-57705023D02*
X217219039Y-57743119D01*
X217219039Y-57743119D02*
X217142848Y-57781214D01*
X217142848Y-57781214D02*
X217028562Y-57781214D01*
X217561896Y-57247880D02*
X217714277Y-57781214D01*
X217714277Y-57781214D02*
X217866658Y-57400261D01*
X217866658Y-57400261D02*
X218019039Y-57781214D01*
X218019039Y-57781214D02*
X218171420Y-57247880D01*
X218780944Y-57743119D02*
X218704753Y-57781214D01*
X218704753Y-57781214D02*
X218552372Y-57781214D01*
X218552372Y-57781214D02*
X218476182Y-57743119D01*
X218476182Y-57743119D02*
X218438086Y-57666928D01*
X218438086Y-57666928D02*
X218438086Y-57362166D01*
X218438086Y-57362166D02*
X218476182Y-57285976D01*
X218476182Y-57285976D02*
X218552372Y-57247880D01*
X218552372Y-57247880D02*
X218704753Y-57247880D01*
X218704753Y-57247880D02*
X218780944Y-57285976D01*
X218780944Y-57285976D02*
X218819039Y-57362166D01*
X218819039Y-57362166D02*
X218819039Y-57438357D01*
X218819039Y-57438357D02*
X218438086Y-57514547D01*
X219161896Y-57781214D02*
X219161896Y-57247880D01*
X219161896Y-57400261D02*
X219199991Y-57324071D01*
X219199991Y-57324071D02*
X219238086Y-57285976D01*
X219238086Y-57285976D02*
X219314277Y-57247880D01*
X219314277Y-57247880D02*
X219390467Y-57247880D01*
X198816298Y-64666666D02*
X198816298Y-64933332D01*
X199235346Y-64933332D02*
X198435346Y-64933332D01*
X198435346Y-64933332D02*
X198435346Y-64552380D01*
X198816298Y-63980952D02*
X198854393Y-63866666D01*
X198854393Y-63866666D02*
X198892489Y-63828571D01*
X198892489Y-63828571D02*
X198968679Y-63790475D01*
X198968679Y-63790475D02*
X199082965Y-63790475D01*
X199082965Y-63790475D02*
X199159155Y-63828571D01*
X199159155Y-63828571D02*
X199197251Y-63866666D01*
X199197251Y-63866666D02*
X199235346Y-63942856D01*
X199235346Y-63942856D02*
X199235346Y-64247618D01*
X199235346Y-64247618D02*
X198435346Y-64247618D01*
X198435346Y-64247618D02*
X198435346Y-63980952D01*
X198435346Y-63980952D02*
X198473441Y-63904761D01*
X198473441Y-63904761D02*
X198511536Y-63866666D01*
X198511536Y-63866666D02*
X198587727Y-63828571D01*
X198587727Y-63828571D02*
X198663917Y-63828571D01*
X198663917Y-63828571D02*
X198740108Y-63866666D01*
X198740108Y-63866666D02*
X198778203Y-63904761D01*
X198778203Y-63904761D02*
X198816298Y-63980952D01*
X198816298Y-63980952D02*
X198816298Y-64247618D01*
X198511536Y-63485714D02*
X198473441Y-63447618D01*
X198473441Y-63447618D02*
X198435346Y-63371428D01*
X198435346Y-63371428D02*
X198435346Y-63180952D01*
X198435346Y-63180952D02*
X198473441Y-63104761D01*
X198473441Y-63104761D02*
X198511536Y-63066666D01*
X198511536Y-63066666D02*
X198587727Y-63028571D01*
X198587727Y-63028571D02*
X198663917Y-63028571D01*
X198663917Y-63028571D02*
X198778203Y-63066666D01*
X198778203Y-63066666D02*
X199235346Y-63523809D01*
X199235346Y-63523809D02*
X199235346Y-63028571D01*
X222359580Y-84666666D02*
X222407200Y-84714285D01*
X222407200Y-84714285D02*
X222454819Y-84857142D01*
X222454819Y-84857142D02*
X222454819Y-84952380D01*
X222454819Y-84952380D02*
X222407200Y-85095237D01*
X222407200Y-85095237D02*
X222311961Y-85190475D01*
X222311961Y-85190475D02*
X222216723Y-85238094D01*
X222216723Y-85238094D02*
X222026247Y-85285713D01*
X222026247Y-85285713D02*
X221883390Y-85285713D01*
X221883390Y-85285713D02*
X221692914Y-85238094D01*
X221692914Y-85238094D02*
X221597676Y-85190475D01*
X221597676Y-85190475D02*
X221502438Y-85095237D01*
X221502438Y-85095237D02*
X221454819Y-84952380D01*
X221454819Y-84952380D02*
X221454819Y-84857142D01*
X221454819Y-84857142D02*
X221502438Y-84714285D01*
X221502438Y-84714285D02*
X221550057Y-84666666D01*
X221454819Y-84333332D02*
X221454819Y-83714285D01*
X221454819Y-83714285D02*
X221835771Y-84047618D01*
X221835771Y-84047618D02*
X221835771Y-83904761D01*
X221835771Y-83904761D02*
X221883390Y-83809523D01*
X221883390Y-83809523D02*
X221931009Y-83761904D01*
X221931009Y-83761904D02*
X222026247Y-83714285D01*
X222026247Y-83714285D02*
X222264342Y-83714285D01*
X222264342Y-83714285D02*
X222359580Y-83761904D01*
X222359580Y-83761904D02*
X222407200Y-83809523D01*
X222407200Y-83809523D02*
X222454819Y-83904761D01*
X222454819Y-83904761D02*
X222454819Y-84190475D01*
X222454819Y-84190475D02*
X222407200Y-84285713D01*
X222407200Y-84285713D02*
X222359580Y-84333332D01*
X210179580Y-99616666D02*
X210227200Y-99664285D01*
X210227200Y-99664285D02*
X210274819Y-99807142D01*
X210274819Y-99807142D02*
X210274819Y-99902380D01*
X210274819Y-99902380D02*
X210227200Y-100045237D01*
X210227200Y-100045237D02*
X210131961Y-100140475D01*
X210131961Y-100140475D02*
X210036723Y-100188094D01*
X210036723Y-100188094D02*
X209846247Y-100235713D01*
X209846247Y-100235713D02*
X209703390Y-100235713D01*
X209703390Y-100235713D02*
X209512914Y-100188094D01*
X209512914Y-100188094D02*
X209417676Y-100140475D01*
X209417676Y-100140475D02*
X209322438Y-100045237D01*
X209322438Y-100045237D02*
X209274819Y-99902380D01*
X209274819Y-99902380D02*
X209274819Y-99807142D01*
X209274819Y-99807142D02*
X209322438Y-99664285D01*
X209322438Y-99664285D02*
X209370057Y-99616666D01*
X209274819Y-98711904D02*
X209274819Y-99188094D01*
X209274819Y-99188094D02*
X209751009Y-99235713D01*
X209751009Y-99235713D02*
X209703390Y-99188094D01*
X209703390Y-99188094D02*
X209655771Y-99092856D01*
X209655771Y-99092856D02*
X209655771Y-98854761D01*
X209655771Y-98854761D02*
X209703390Y-98759523D01*
X209703390Y-98759523D02*
X209751009Y-98711904D01*
X209751009Y-98711904D02*
X209846247Y-98664285D01*
X209846247Y-98664285D02*
X210084342Y-98664285D01*
X210084342Y-98664285D02*
X210179580Y-98711904D01*
X210179580Y-98711904D02*
X210227200Y-98759523D01*
X210227200Y-98759523D02*
X210274819Y-98854761D01*
X210274819Y-98854761D02*
X210274819Y-99092856D01*
X210274819Y-99092856D02*
X210227200Y-99188094D01*
X210227200Y-99188094D02*
X210179580Y-99235713D01*
D12*
%TO.C,R16*%
X219998680Y-99616675D02*
X219544552Y-99616675D01*
X219998680Y-101086675D02*
X219544552Y-101086675D01*
%TO.C,R25*%
X225265000Y-70272936D02*
X225265000Y-70727064D01*
X226735000Y-70272936D02*
X226735000Y-70727064D01*
%TO.C,R8*%
X190815000Y-73148095D02*
X190815000Y-73602223D01*
X192285000Y-73148095D02*
X192285000Y-73602223D01*
%TO.C,J1*%
X222405000Y-104320000D02*
X222405000Y-91500000D01*
X225005000Y-104320000D02*
X222405000Y-104320000D01*
X227605000Y-91500000D02*
X222405000Y-91500000D01*
X227605000Y-101720000D02*
X227605000Y-91500000D01*
X227605000Y-101720000D02*
X227605000Y-104320000D01*
X227605000Y-102990000D02*
X227605000Y-104320000D01*
X227605000Y-104320000D02*
X225005000Y-104320000D01*
X227605000Y-104320000D02*
X226275000Y-104320000D01*
%TO.C,R17*%
X220038573Y-101963100D02*
X219584445Y-101963100D01*
X220038573Y-103433100D02*
X219584445Y-103433100D01*
%TO.C,R4*%
X212172936Y-74065000D02*
X212627064Y-74065000D01*
X212172936Y-75535000D02*
X212627064Y-75535000D01*
%TO.C,R27*%
X220765000Y-70272936D02*
X220765000Y-70727064D01*
X222235000Y-70272936D02*
X222235000Y-70727064D01*
%TO.C,D5*%
X189027500Y-88104724D02*
X189027500Y-87595276D01*
X190072500Y-88104724D02*
X190072500Y-87595276D01*
%TO.C,R10*%
X225227064Y-75665000D02*
X224772936Y-75665000D01*
X225227064Y-77135000D02*
X224772936Y-77135000D01*
D13*
%TO.C,U2*%
X179750000Y-93250000D02*
X181750000Y-93250000D01*
X179750000Y-95250000D02*
X179750000Y-93250000D01*
X179750000Y-103250000D02*
X179750000Y-105250000D01*
X179750000Y-105250000D02*
X181750000Y-105250000D01*
X181750000Y-93250000D02*
X181750000Y-95250000D01*
X181750000Y-95250000D02*
X179750000Y-95250000D01*
X181750000Y-103250000D02*
X179750000Y-103250000D01*
X181750000Y-105250000D02*
X181750000Y-103250000D01*
X195750000Y-93250000D02*
X195750000Y-95250000D01*
X195750000Y-95250000D02*
X197750000Y-95250000D01*
X195750000Y-103250000D02*
X197750000Y-103250000D01*
X195750000Y-105250000D02*
X195750000Y-103250000D01*
X197750000Y-93250000D02*
X195750000Y-93250000D01*
X197750000Y-95250000D02*
X197750000Y-93250000D01*
X197750000Y-103250000D02*
X197750000Y-105250000D01*
X197750000Y-105250000D02*
X195750000Y-105250000D01*
X179750000Y-93250000D02*
X197750000Y-93250000D01*
X197750000Y-105250000D01*
X179750000Y-105250000D01*
X179750000Y-93250000D01*
D12*
%TO.C,U1*%
X214565000Y-77600000D02*
X214565000Y-75400000D01*
X214565000Y-77600000D02*
X214565000Y-79800000D01*
X222635000Y-77600000D02*
X222635000Y-75400000D01*
X222635000Y-77600000D02*
X222635000Y-79800000D01*
X215265000Y-81790000D02*
X214785000Y-81790000D01*
X215025000Y-81460000D01*
X215265000Y-81790000D01*
G36*
X215265000Y-81790000D02*
G01*
X214785000Y-81790000D01*
X215025000Y-81460000D01*
X215265000Y-81790000D01*
G37*
%TO.C,R21*%
X216265000Y-70272936D02*
X216265000Y-70727064D01*
X217735000Y-70272936D02*
X217735000Y-70727064D01*
%TO.C,R18*%
X225227064Y-77665000D02*
X224772936Y-77665000D01*
X225227064Y-79135000D02*
X224772936Y-79135000D01*
%TO.C,T1*%
X211580000Y-90221813D02*
X205580000Y-90221813D01*
X211580000Y-95546813D02*
X205580000Y-95546813D01*
X204893173Y-90996813D02*
X204563173Y-91236813D01*
X204563173Y-90756813D01*
X204893173Y-90996813D01*
G36*
X204893173Y-90996813D02*
G01*
X204563173Y-91236813D01*
X204563173Y-90756813D01*
X204893173Y-90996813D01*
G37*
%TO.C,J4-OffTheShelf-Digital1*%
X180590000Y-62880000D02*
X193410000Y-62880000D01*
X180590000Y-65480000D02*
X180590000Y-62880000D01*
X180590000Y-68080000D02*
X180590000Y-66750000D01*
X181920000Y-68080000D02*
X180590000Y-68080000D01*
X183190000Y-65480000D02*
X180590000Y-65480000D01*
X183190000Y-68080000D02*
X183190000Y-65480000D01*
X183190000Y-68080000D02*
X193410000Y-68080000D01*
X193410000Y-68080000D02*
X193410000Y-62880000D01*
%TO.C,R24*%
X223015000Y-70272936D02*
X223015000Y-70727064D01*
X224485000Y-70272936D02*
X224485000Y-70727064D01*
%TO.C,R23*%
X211765000Y-70272936D02*
X211765000Y-70727064D01*
X213235000Y-70272936D02*
X213235000Y-70727064D01*
%TO.C,MagneticInterconnect*%
X179810000Y-58490000D02*
X180410000Y-58790000D01*
X179810000Y-59090000D02*
X179810000Y-58490000D01*
X180410000Y-58790000D02*
X179810000Y-59090000D01*
X180617212Y-57183280D02*
X191773952Y-57189770D01*
X180618881Y-60391804D02*
X180617212Y-57183280D01*
X191768638Y-60376802D02*
X180618881Y-60391804D01*
D13*
X191773952Y-57189770D02*
X191768638Y-60376802D01*
D12*
%TO.C,Power*%
X205130000Y-102920000D02*
X206460000Y-102920000D01*
X205130000Y-104250000D02*
X205130000Y-102920000D01*
X207730000Y-102920000D02*
X212870000Y-102920000D01*
X207730000Y-105580000D02*
X207730000Y-102920000D01*
X207730000Y-105580000D02*
X212870000Y-105580000D01*
X212870000Y-105580000D02*
X212870000Y-102920000D01*
%TO.C,R9*%
X225227064Y-73665000D02*
X224772936Y-73665000D01*
X225227064Y-75135000D02*
X224772936Y-75135000D01*
%TO.C,R26*%
X218515000Y-70272936D02*
X218515000Y-70727064D01*
X219985000Y-70272936D02*
X219985000Y-70727064D01*
%TO.C,D2*%
X196254724Y-67977500D02*
X195745276Y-67977500D01*
X196254724Y-69022500D02*
X195745276Y-69022500D01*
%TO.C,R7*%
X190815000Y-77577064D02*
X190815000Y-77122936D01*
X192285000Y-77577064D02*
X192285000Y-77122936D01*
%TO.C,J4*%
X180580000Y-70990000D02*
X181910000Y-70990000D01*
X180580000Y-72320000D02*
X180580000Y-70990000D01*
X180580000Y-73590000D02*
X180580000Y-91430000D01*
X180580000Y-73590000D02*
X183180000Y-73590000D01*
X180580000Y-91430000D02*
X185780000Y-91430000D01*
X183180000Y-70990000D02*
X185780000Y-70990000D01*
X183180000Y-73590000D02*
X183180000Y-70990000D01*
X185780000Y-70990000D02*
X185780000Y-91430000D01*
%TO.C,C1*%
X211449817Y-60560828D02*
X211449817Y-60038324D01*
X212919817Y-60560828D02*
X212919817Y-60038324D01*
%TO.C,R14*%
X220038573Y-95097038D02*
X219584445Y-95097038D01*
X220038573Y-96567038D02*
X219584445Y-96567038D01*
%TO.C,FB1*%
X196227064Y-65765000D02*
X195772936Y-65765000D01*
X196227064Y-67235000D02*
X195772936Y-67235000D01*
%TO.C,F1*%
X215261252Y-90540000D02*
X214738748Y-90540000D01*
X215261252Y-91960000D02*
X214738748Y-91960000D01*
%TO.C,C4*%
X205795000Y-99188748D02*
X205795000Y-99711252D01*
X207265000Y-99188748D02*
X207265000Y-99711252D01*
%TO.C,D3*%
X189020028Y-73131855D02*
X189020028Y-73641303D01*
X190065028Y-73131855D02*
X190065028Y-73641303D01*
%TO.C,D4*%
X189027500Y-77604724D02*
X189027500Y-77095276D01*
X190072500Y-77604724D02*
X190072500Y-77095276D01*
%TO.C,R13*%
X220025757Y-92669591D02*
X219571629Y-92669591D01*
X220025757Y-94139591D02*
X219571629Y-94139591D01*
%TO.C,D1*%
X196260327Y-61977500D02*
X195750879Y-61977500D01*
X196260327Y-63022500D02*
X195750879Y-63022500D01*
%TO.C,R15*%
X220025344Y-97323578D02*
X219571216Y-97323578D01*
X220025344Y-98793578D02*
X219571216Y-98793578D01*
%TO.C,FB5*%
X186815000Y-88077064D02*
X186815000Y-87622936D01*
X188285000Y-88077064D02*
X188285000Y-87622936D01*
%TO.C,FB6*%
X186815000Y-83622936D02*
X186815000Y-84077064D01*
X188285000Y-83622936D02*
X188285000Y-84077064D01*
%TO.C,LOLIN_C3_PICO1*%
D13*
X205151092Y-67775278D02*
X208001092Y-67775278D01*
X208001092Y-83015278D01*
X205151092Y-83015278D01*
X205151092Y-67775278D01*
D12*
%TO.C,C2*%
X222467941Y-60160828D02*
X222467941Y-59638324D01*
X223937941Y-60160828D02*
X223937941Y-59638324D01*
%TO.C,R1*%
X212167595Y-76665000D02*
X212621723Y-76665000D01*
X212167595Y-78135000D02*
X212621723Y-78135000D01*
%TO.C,R11*%
X190815000Y-88077064D02*
X190815000Y-87622936D01*
X192285000Y-88077064D02*
X192285000Y-87622936D01*
%TO.C,FB4*%
X186815000Y-77577064D02*
X186815000Y-77122936D01*
X188285000Y-77577064D02*
X188285000Y-77122936D01*
%TO.C,R12*%
X190815000Y-83622936D02*
X190815000Y-84077064D01*
X192285000Y-83622936D02*
X192285000Y-84077064D01*
%TO.C,R19*%
X225227064Y-79665000D02*
X224772936Y-79665000D01*
X225227064Y-81135000D02*
X224772936Y-81135000D01*
%TO.C,Power*%
X213814817Y-57994976D02*
X215144817Y-57994976D01*
X213814817Y-59324976D02*
X213814817Y-57994976D01*
X216414817Y-57994976D02*
X221554817Y-57994976D01*
X216414817Y-60654976D02*
X216414817Y-57994976D01*
X216414817Y-60654976D02*
X221554817Y-60654976D01*
X221554817Y-60654976D02*
X221554817Y-57994976D01*
%TO.C,FB3*%
X186807528Y-73159515D02*
X186807528Y-73613643D01*
X188277528Y-73159515D02*
X188277528Y-73613643D01*
%TO.C,J3*%
X197922860Y-57420000D02*
X209081195Y-57418166D01*
X197922860Y-60080000D02*
X197922860Y-57420000D01*
X197922860Y-60080000D02*
X209081195Y-60078166D01*
X209081195Y-60078166D02*
X209081195Y-57418166D01*
%TO.C,FB2*%
X195778539Y-63765000D02*
X196232667Y-63765000D01*
X195778539Y-65235000D02*
X196232667Y-65235000D01*
%TO.C,C3*%
X225261252Y-83765000D02*
X224738748Y-83765000D01*
X225261252Y-85235000D02*
X224738748Y-85235000D01*
%TO.C,R22*%
X209515000Y-70272936D02*
X209515000Y-70727064D01*
X210985000Y-70272936D02*
X210985000Y-70727064D01*
%TO.C,D6*%
X189027500Y-83595276D02*
X189027500Y-84104724D01*
X190072500Y-83595276D02*
X190072500Y-84104724D01*
%TO.C,R5*%
X212167595Y-78665000D02*
X212621723Y-78665000D01*
X212167595Y-80135000D02*
X212621723Y-80135000D01*
%TO.C,C5*%
X210835000Y-99188748D02*
X210835000Y-99711252D01*
X212305000Y-99188748D02*
X212305000Y-99711252D01*
%TO.C,R20*%
X214015000Y-70272936D02*
X214015000Y-70727064D01*
X215485000Y-70272936D02*
X215485000Y-70727064D01*
%TD*%
M02*
