%TF.GenerationSoftware,KiCad,Pcbnew,8.0.1*%
%TF.CreationDate,2024-03-29T13:37:13+01:00*%
%TF.ProjectId,EHealth_PCB,45486561-6c74-4685-9f50-43422e6b6963,rev?*%
%TF.SameCoordinates,Original*%
%TF.FileFunction,Soldermask,Bot*%
%TF.FilePolarity,Negative*%
%FSLAX46Y46*%
G04 Gerber Fmt 4.6, Leading zero omitted, Abs format (unit mm)*
G04 Created by KiCad (PCBNEW 8.0.1) date 2024-03-29 13:37:13*
%MOMM*%
%LPD*%
G01*
G04 APERTURE LIST*
G04 APERTURE END LIST*
G36*
X181600000Y-105100000D02*
G01*
X179900000Y-105100000D01*
X179900000Y-103400000D01*
X181600000Y-103400000D01*
X181600000Y-105100000D01*
G37*
G36*
X197600000Y-105100000D02*
G01*
X195900000Y-105100000D01*
X195900000Y-103400000D01*
X197600000Y-103400000D01*
X197600000Y-105100000D01*
G37*
G36*
X207310000Y-105100000D02*
G01*
X205610000Y-105100000D01*
X205610000Y-103400000D01*
X207310000Y-103400000D01*
X207310000Y-105100000D01*
G37*
G36*
X209262664Y-103441602D02*
G01*
X209425000Y-103513878D01*
X209568761Y-103618327D01*
X209687664Y-103750383D01*
X209776514Y-103904274D01*
X209831425Y-104073275D01*
X209850000Y-104250000D01*
X209831425Y-104426725D01*
X209776514Y-104595726D01*
X209687664Y-104749617D01*
X209568761Y-104881673D01*
X209425000Y-104986122D01*
X209262664Y-105058398D01*
X209088849Y-105095344D01*
X208911151Y-105095344D01*
X208737336Y-105058398D01*
X208575000Y-104986122D01*
X208431239Y-104881673D01*
X208312336Y-104749617D01*
X208223486Y-104595726D01*
X208168575Y-104426725D01*
X208150000Y-104250000D01*
X208168575Y-104073275D01*
X208223486Y-103904274D01*
X208312336Y-103750383D01*
X208431239Y-103618327D01*
X208575000Y-103513878D01*
X208737336Y-103441602D01*
X208911151Y-103404656D01*
X209088849Y-103404656D01*
X209262664Y-103441602D01*
G37*
G36*
X211802664Y-103441602D02*
G01*
X211965000Y-103513878D01*
X212108761Y-103618327D01*
X212227664Y-103750383D01*
X212316514Y-103904274D01*
X212371425Y-104073275D01*
X212390000Y-104250000D01*
X212371425Y-104426725D01*
X212316514Y-104595726D01*
X212227664Y-104749617D01*
X212108761Y-104881673D01*
X211965000Y-104986122D01*
X211802664Y-105058398D01*
X211628849Y-105095344D01*
X211451151Y-105095344D01*
X211277336Y-105058398D01*
X211115000Y-104986122D01*
X210971239Y-104881673D01*
X210852336Y-104749617D01*
X210763486Y-104595726D01*
X210708575Y-104426725D01*
X210690000Y-104250000D01*
X210708575Y-104073275D01*
X210763486Y-103904274D01*
X210852336Y-103750383D01*
X210971239Y-103618327D01*
X211115000Y-103513878D01*
X211277336Y-103441602D01*
X211451151Y-103404656D01*
X211628849Y-103404656D01*
X211802664Y-103441602D01*
G37*
G36*
X223997664Y-102181602D02*
G01*
X224160000Y-102253878D01*
X224303761Y-102358327D01*
X224422664Y-102490383D01*
X224511514Y-102644274D01*
X224566425Y-102813275D01*
X224585000Y-102990000D01*
X224566425Y-103166725D01*
X224511514Y-103335726D01*
X224422664Y-103489617D01*
X224303761Y-103621673D01*
X224160000Y-103726122D01*
X223997664Y-103798398D01*
X223823849Y-103835344D01*
X223646151Y-103835344D01*
X223472336Y-103798398D01*
X223310000Y-103726122D01*
X223166239Y-103621673D01*
X223047336Y-103489617D01*
X222958486Y-103335726D01*
X222903575Y-103166725D01*
X222885000Y-102990000D01*
X222903575Y-102813275D01*
X222958486Y-102644274D01*
X223047336Y-102490383D01*
X223166239Y-102358327D01*
X223310000Y-102253878D01*
X223472336Y-102181602D01*
X223646151Y-102144656D01*
X223823849Y-102144656D01*
X223997664Y-102181602D01*
G37*
G36*
X226537664Y-102181602D02*
G01*
X226700000Y-102253878D01*
X226843761Y-102358327D01*
X226962664Y-102490383D01*
X227051514Y-102644274D01*
X227106425Y-102813275D01*
X227125000Y-102990000D01*
X227106425Y-103166725D01*
X227051514Y-103335726D01*
X226962664Y-103489617D01*
X226843761Y-103621673D01*
X226700000Y-103726122D01*
X226537664Y-103798398D01*
X226363849Y-103835344D01*
X226186151Y-103835344D01*
X226012336Y-103798398D01*
X225850000Y-103726122D01*
X225706239Y-103621673D01*
X225587336Y-103489617D01*
X225498486Y-103335726D01*
X225443575Y-103166725D01*
X225425000Y-102990000D01*
X225443575Y-102813275D01*
X225498486Y-102644274D01*
X225587336Y-102490383D01*
X225706239Y-102358327D01*
X225850000Y-102253878D01*
X226012336Y-102181602D01*
X226186151Y-102144656D01*
X226363849Y-102144656D01*
X226537664Y-102181602D01*
G37*
G36*
X223997664Y-99641602D02*
G01*
X224160000Y-99713878D01*
X224303761Y-99818327D01*
X224422664Y-99950383D01*
X224511514Y-100104274D01*
X224566425Y-100273275D01*
X224585000Y-100450000D01*
X224566425Y-100626725D01*
X224511514Y-100795726D01*
X224422664Y-100949617D01*
X224303761Y-101081673D01*
X224160000Y-101186122D01*
X223997664Y-101258398D01*
X223823849Y-101295344D01*
X223646151Y-101295344D01*
X223472336Y-101258398D01*
X223310000Y-101186122D01*
X223166239Y-101081673D01*
X223047336Y-100949617D01*
X222958486Y-100795726D01*
X222903575Y-100626725D01*
X222885000Y-100450000D01*
X222903575Y-100273275D01*
X222958486Y-100104274D01*
X223047336Y-99950383D01*
X223166239Y-99818327D01*
X223310000Y-99713878D01*
X223472336Y-99641602D01*
X223646151Y-99604656D01*
X223823849Y-99604656D01*
X223997664Y-99641602D01*
G37*
G36*
X226537664Y-99641602D02*
G01*
X226700000Y-99713878D01*
X226843761Y-99818327D01*
X226962664Y-99950383D01*
X227051514Y-100104274D01*
X227106425Y-100273275D01*
X227125000Y-100450000D01*
X227106425Y-100626725D01*
X227051514Y-100795726D01*
X226962664Y-100949617D01*
X226843761Y-101081673D01*
X226700000Y-101186122D01*
X226537664Y-101258398D01*
X226363849Y-101295344D01*
X226186151Y-101295344D01*
X226012336Y-101258398D01*
X225850000Y-101186122D01*
X225706239Y-101081673D01*
X225587336Y-100949617D01*
X225498486Y-100795726D01*
X225443575Y-100626725D01*
X225425000Y-100450000D01*
X225443575Y-100273275D01*
X225498486Y-100104274D01*
X225587336Y-99950383D01*
X225706239Y-99818327D01*
X225850000Y-99713878D01*
X226012336Y-99641602D01*
X226186151Y-99604656D01*
X226363849Y-99604656D01*
X226537664Y-99641602D01*
G37*
G36*
X223997664Y-97101602D02*
G01*
X224160000Y-97173878D01*
X224303761Y-97278327D01*
X224422664Y-97410383D01*
X224511514Y-97564274D01*
X224566425Y-97733275D01*
X224585000Y-97910000D01*
X224566425Y-98086725D01*
X224511514Y-98255726D01*
X224422664Y-98409617D01*
X224303761Y-98541673D01*
X224160000Y-98646122D01*
X223997664Y-98718398D01*
X223823849Y-98755344D01*
X223646151Y-98755344D01*
X223472336Y-98718398D01*
X223310000Y-98646122D01*
X223166239Y-98541673D01*
X223047336Y-98409617D01*
X222958486Y-98255726D01*
X222903575Y-98086725D01*
X222885000Y-97910000D01*
X222903575Y-97733275D01*
X222958486Y-97564274D01*
X223047336Y-97410383D01*
X223166239Y-97278327D01*
X223310000Y-97173878D01*
X223472336Y-97101602D01*
X223646151Y-97064656D01*
X223823849Y-97064656D01*
X223997664Y-97101602D01*
G37*
G36*
X226537664Y-97101602D02*
G01*
X226700000Y-97173878D01*
X226843761Y-97278327D01*
X226962664Y-97410383D01*
X227051514Y-97564274D01*
X227106425Y-97733275D01*
X227125000Y-97910000D01*
X227106425Y-98086725D01*
X227051514Y-98255726D01*
X226962664Y-98409617D01*
X226843761Y-98541673D01*
X226700000Y-98646122D01*
X226537664Y-98718398D01*
X226363849Y-98755344D01*
X226186151Y-98755344D01*
X226012336Y-98718398D01*
X225850000Y-98646122D01*
X225706239Y-98541673D01*
X225587336Y-98409617D01*
X225498486Y-98255726D01*
X225443575Y-98086725D01*
X225425000Y-97910000D01*
X225443575Y-97733275D01*
X225498486Y-97564274D01*
X225587336Y-97410383D01*
X225706239Y-97278327D01*
X225850000Y-97173878D01*
X226012336Y-97101602D01*
X226186151Y-97064656D01*
X226363849Y-97064656D01*
X226537664Y-97101602D01*
G37*
G36*
X223997664Y-94561602D02*
G01*
X224160000Y-94633878D01*
X224303761Y-94738327D01*
X224422664Y-94870383D01*
X224511514Y-95024274D01*
X224566425Y-95193275D01*
X224585000Y-95370000D01*
X224566425Y-95546725D01*
X224511514Y-95715726D01*
X224422664Y-95869617D01*
X224303761Y-96001673D01*
X224160000Y-96106122D01*
X223997664Y-96178398D01*
X223823849Y-96215344D01*
X223646151Y-96215344D01*
X223472336Y-96178398D01*
X223310000Y-96106122D01*
X223166239Y-96001673D01*
X223047336Y-95869617D01*
X222958486Y-95715726D01*
X222903575Y-95546725D01*
X222885000Y-95370000D01*
X222903575Y-95193275D01*
X222958486Y-95024274D01*
X223047336Y-94870383D01*
X223166239Y-94738327D01*
X223310000Y-94633878D01*
X223472336Y-94561602D01*
X223646151Y-94524656D01*
X223823849Y-94524656D01*
X223997664Y-94561602D01*
G37*
G36*
X226537664Y-94561602D02*
G01*
X226700000Y-94633878D01*
X226843761Y-94738327D01*
X226962664Y-94870383D01*
X227051514Y-95024274D01*
X227106425Y-95193275D01*
X227125000Y-95370000D01*
X227106425Y-95546725D01*
X227051514Y-95715726D01*
X226962664Y-95869617D01*
X226843761Y-96001673D01*
X226700000Y-96106122D01*
X226537664Y-96178398D01*
X226363849Y-96215344D01*
X226186151Y-96215344D01*
X226012336Y-96178398D01*
X225850000Y-96106122D01*
X225706239Y-96001673D01*
X225587336Y-95869617D01*
X225498486Y-95715726D01*
X225443575Y-95546725D01*
X225425000Y-95370000D01*
X225443575Y-95193275D01*
X225498486Y-95024274D01*
X225587336Y-94870383D01*
X225706239Y-94738327D01*
X225850000Y-94633878D01*
X226012336Y-94561602D01*
X226186151Y-94524656D01*
X226363849Y-94524656D01*
X226537664Y-94561602D01*
G37*
G36*
X181600000Y-95100000D02*
G01*
X179900000Y-95100000D01*
X179900000Y-93400000D01*
X181600000Y-93400000D01*
X181600000Y-95100000D01*
G37*
G36*
X197600000Y-95100000D02*
G01*
X195900000Y-95100000D01*
X195900000Y-93400000D01*
X197600000Y-93400000D01*
X197600000Y-95100000D01*
G37*
G36*
X223997664Y-92021602D02*
G01*
X224160000Y-92093878D01*
X224303761Y-92198327D01*
X224422664Y-92330383D01*
X224511514Y-92484274D01*
X224566425Y-92653275D01*
X224585000Y-92830000D01*
X224566425Y-93006725D01*
X224511514Y-93175726D01*
X224422664Y-93329617D01*
X224303761Y-93461673D01*
X224160000Y-93566122D01*
X223997664Y-93638398D01*
X223823849Y-93675344D01*
X223646151Y-93675344D01*
X223472336Y-93638398D01*
X223310000Y-93566122D01*
X223166239Y-93461673D01*
X223047336Y-93329617D01*
X222958486Y-93175726D01*
X222903575Y-93006725D01*
X222885000Y-92830000D01*
X222903575Y-92653275D01*
X222958486Y-92484274D01*
X223047336Y-92330383D01*
X223166239Y-92198327D01*
X223310000Y-92093878D01*
X223472336Y-92021602D01*
X223646151Y-91984656D01*
X223823849Y-91984656D01*
X223997664Y-92021602D01*
G37*
G36*
X226537664Y-92021602D02*
G01*
X226700000Y-92093878D01*
X226843761Y-92198327D01*
X226962664Y-92330383D01*
X227051514Y-92484274D01*
X227106425Y-92653275D01*
X227125000Y-92830000D01*
X227106425Y-93006725D01*
X227051514Y-93175726D01*
X226962664Y-93329617D01*
X226843761Y-93461673D01*
X226700000Y-93566122D01*
X226537664Y-93638398D01*
X226363849Y-93675344D01*
X226186151Y-93675344D01*
X226012336Y-93638398D01*
X225850000Y-93566122D01*
X225706239Y-93461673D01*
X225587336Y-93329617D01*
X225498486Y-93175726D01*
X225443575Y-93006725D01*
X225425000Y-92830000D01*
X225443575Y-92653275D01*
X225498486Y-92484274D01*
X225587336Y-92330383D01*
X225706239Y-92198327D01*
X225850000Y-92093878D01*
X226012336Y-92021602D01*
X226186151Y-91984656D01*
X226363849Y-91984656D01*
X226537664Y-92021602D01*
G37*
G36*
X182172664Y-89291602D02*
G01*
X182335000Y-89363878D01*
X182478761Y-89468327D01*
X182597664Y-89600383D01*
X182686514Y-89754274D01*
X182741425Y-89923275D01*
X182760000Y-90100000D01*
X182741425Y-90276725D01*
X182686514Y-90445726D01*
X182597664Y-90599617D01*
X182478761Y-90731673D01*
X182335000Y-90836122D01*
X182172664Y-90908398D01*
X181998849Y-90945344D01*
X181821151Y-90945344D01*
X181647336Y-90908398D01*
X181485000Y-90836122D01*
X181341239Y-90731673D01*
X181222336Y-90599617D01*
X181133486Y-90445726D01*
X181078575Y-90276725D01*
X181060000Y-90100000D01*
X181078575Y-89923275D01*
X181133486Y-89754274D01*
X181222336Y-89600383D01*
X181341239Y-89468327D01*
X181485000Y-89363878D01*
X181647336Y-89291602D01*
X181821151Y-89254656D01*
X181998849Y-89254656D01*
X182172664Y-89291602D01*
G37*
G36*
X184712664Y-89291602D02*
G01*
X184875000Y-89363878D01*
X185018761Y-89468327D01*
X185137664Y-89600383D01*
X185226514Y-89754274D01*
X185281425Y-89923275D01*
X185300000Y-90100000D01*
X185281425Y-90276725D01*
X185226514Y-90445726D01*
X185137664Y-90599617D01*
X185018761Y-90731673D01*
X184875000Y-90836122D01*
X184712664Y-90908398D01*
X184538849Y-90945344D01*
X184361151Y-90945344D01*
X184187336Y-90908398D01*
X184025000Y-90836122D01*
X183881239Y-90731673D01*
X183762336Y-90599617D01*
X183673486Y-90445726D01*
X183618575Y-90276725D01*
X183600000Y-90100000D01*
X183618575Y-89923275D01*
X183673486Y-89754274D01*
X183762336Y-89600383D01*
X183881239Y-89468327D01*
X184025000Y-89363878D01*
X184187336Y-89291602D01*
X184361151Y-89254656D01*
X184538849Y-89254656D01*
X184712664Y-89291602D01*
G37*
G36*
X208614587Y-87393446D02*
G01*
X208776923Y-87465722D01*
X208920684Y-87570171D01*
X209039587Y-87702227D01*
X209128437Y-87856118D01*
X209183348Y-88025119D01*
X209201923Y-88201844D01*
X209183348Y-88378569D01*
X209128437Y-88547570D01*
X209039587Y-88701461D01*
X208920684Y-88833517D01*
X208776923Y-88937966D01*
X208614587Y-89010242D01*
X208440772Y-89047188D01*
X208263074Y-89047188D01*
X208089259Y-89010242D01*
X207926923Y-88937966D01*
X207783162Y-88833517D01*
X207664259Y-88701461D01*
X207575409Y-88547570D01*
X207520498Y-88378569D01*
X207501923Y-88201844D01*
X207520498Y-88025119D01*
X207575409Y-87856118D01*
X207664259Y-87702227D01*
X207783162Y-87570171D01*
X207926923Y-87465722D01*
X208089259Y-87393446D01*
X208263074Y-87356500D01*
X208440772Y-87356500D01*
X208614587Y-87393446D01*
G37*
G36*
X211154587Y-87393446D02*
G01*
X211316923Y-87465722D01*
X211460684Y-87570171D01*
X211579587Y-87702227D01*
X211668437Y-87856118D01*
X211723348Y-88025119D01*
X211741923Y-88201844D01*
X211723348Y-88378569D01*
X211668437Y-88547570D01*
X211579587Y-88701461D01*
X211460684Y-88833517D01*
X211316923Y-88937966D01*
X211154587Y-89010242D01*
X210980772Y-89047188D01*
X210803074Y-89047188D01*
X210629259Y-89010242D01*
X210466923Y-88937966D01*
X210323162Y-88833517D01*
X210204259Y-88701461D01*
X210115409Y-88547570D01*
X210060498Y-88378569D01*
X210041923Y-88201844D01*
X210060498Y-88025119D01*
X210115409Y-87856118D01*
X210204259Y-87702227D01*
X210323162Y-87570171D01*
X210466923Y-87465722D01*
X210629259Y-87393446D01*
X210803074Y-87356500D01*
X210980772Y-87356500D01*
X211154587Y-87393446D01*
G37*
G36*
X213694587Y-87393446D02*
G01*
X213856923Y-87465722D01*
X214000684Y-87570171D01*
X214119587Y-87702227D01*
X214208437Y-87856118D01*
X214263348Y-88025119D01*
X214281923Y-88201844D01*
X214263348Y-88378569D01*
X214208437Y-88547570D01*
X214119587Y-88701461D01*
X214000684Y-88833517D01*
X213856923Y-88937966D01*
X213694587Y-89010242D01*
X213520772Y-89047188D01*
X213343074Y-89047188D01*
X213169259Y-89010242D01*
X213006923Y-88937966D01*
X212863162Y-88833517D01*
X212744259Y-88701461D01*
X212655409Y-88547570D01*
X212600498Y-88378569D01*
X212581923Y-88201844D01*
X212600498Y-88025119D01*
X212655409Y-87856118D01*
X212744259Y-87702227D01*
X212863162Y-87570171D01*
X213006923Y-87465722D01*
X213169259Y-87393446D01*
X213343074Y-87356500D01*
X213520772Y-87356500D01*
X213694587Y-87393446D01*
G37*
G36*
X216234587Y-87393446D02*
G01*
X216396923Y-87465722D01*
X216540684Y-87570171D01*
X216659587Y-87702227D01*
X216748437Y-87856118D01*
X216803348Y-88025119D01*
X216821923Y-88201844D01*
X216803348Y-88378569D01*
X216748437Y-88547570D01*
X216659587Y-88701461D01*
X216540684Y-88833517D01*
X216396923Y-88937966D01*
X216234587Y-89010242D01*
X216060772Y-89047188D01*
X215883074Y-89047188D01*
X215709259Y-89010242D01*
X215546923Y-88937966D01*
X215403162Y-88833517D01*
X215284259Y-88701461D01*
X215195409Y-88547570D01*
X215140498Y-88378569D01*
X215121923Y-88201844D01*
X215140498Y-88025119D01*
X215195409Y-87856118D01*
X215284259Y-87702227D01*
X215403162Y-87570171D01*
X215546923Y-87465722D01*
X215709259Y-87393446D01*
X215883074Y-87356500D01*
X216060772Y-87356500D01*
X216234587Y-87393446D01*
G37*
G36*
X218774587Y-87393446D02*
G01*
X218936923Y-87465722D01*
X219080684Y-87570171D01*
X219199587Y-87702227D01*
X219288437Y-87856118D01*
X219343348Y-88025119D01*
X219361923Y-88201844D01*
X219343348Y-88378569D01*
X219288437Y-88547570D01*
X219199587Y-88701461D01*
X219080684Y-88833517D01*
X218936923Y-88937966D01*
X218774587Y-89010242D01*
X218600772Y-89047188D01*
X218423074Y-89047188D01*
X218249259Y-89010242D01*
X218086923Y-88937966D01*
X217943162Y-88833517D01*
X217824259Y-88701461D01*
X217735409Y-88547570D01*
X217680498Y-88378569D01*
X217661923Y-88201844D01*
X217680498Y-88025119D01*
X217735409Y-87856118D01*
X217824259Y-87702227D01*
X217943162Y-87570171D01*
X218086923Y-87465722D01*
X218249259Y-87393446D01*
X218423074Y-87356500D01*
X218600772Y-87356500D01*
X218774587Y-87393446D01*
G37*
G36*
X221314587Y-87393446D02*
G01*
X221476923Y-87465722D01*
X221620684Y-87570171D01*
X221739587Y-87702227D01*
X221828437Y-87856118D01*
X221883348Y-88025119D01*
X221901923Y-88201844D01*
X221883348Y-88378569D01*
X221828437Y-88547570D01*
X221739587Y-88701461D01*
X221620684Y-88833517D01*
X221476923Y-88937966D01*
X221314587Y-89010242D01*
X221140772Y-89047188D01*
X220963074Y-89047188D01*
X220789259Y-89010242D01*
X220626923Y-88937966D01*
X220483162Y-88833517D01*
X220364259Y-88701461D01*
X220275409Y-88547570D01*
X220220498Y-88378569D01*
X220201923Y-88201844D01*
X220220498Y-88025119D01*
X220275409Y-87856118D01*
X220364259Y-87702227D01*
X220483162Y-87570171D01*
X220626923Y-87465722D01*
X220789259Y-87393446D01*
X220963074Y-87356500D01*
X221140772Y-87356500D01*
X221314587Y-87393446D01*
G37*
G36*
X223854587Y-87393446D02*
G01*
X224016923Y-87465722D01*
X224160684Y-87570171D01*
X224279587Y-87702227D01*
X224368437Y-87856118D01*
X224423348Y-88025119D01*
X224441923Y-88201844D01*
X224423348Y-88378569D01*
X224368437Y-88547570D01*
X224279587Y-88701461D01*
X224160684Y-88833517D01*
X224016923Y-88937966D01*
X223854587Y-89010242D01*
X223680772Y-89047188D01*
X223503074Y-89047188D01*
X223329259Y-89010242D01*
X223166923Y-88937966D01*
X223023162Y-88833517D01*
X222904259Y-88701461D01*
X222815409Y-88547570D01*
X222760498Y-88378569D01*
X222741923Y-88201844D01*
X222760498Y-88025119D01*
X222815409Y-87856118D01*
X222904259Y-87702227D01*
X223023162Y-87570171D01*
X223166923Y-87465722D01*
X223329259Y-87393446D01*
X223503074Y-87356500D01*
X223680772Y-87356500D01*
X223854587Y-87393446D01*
G37*
G36*
X226394587Y-87393446D02*
G01*
X226556923Y-87465722D01*
X226700684Y-87570171D01*
X226819587Y-87702227D01*
X226908437Y-87856118D01*
X226963348Y-88025119D01*
X226981923Y-88201844D01*
X226963348Y-88378569D01*
X226908437Y-88547570D01*
X226819587Y-88701461D01*
X226700684Y-88833517D01*
X226556923Y-88937966D01*
X226394587Y-89010242D01*
X226220772Y-89047188D01*
X226043074Y-89047188D01*
X225869259Y-89010242D01*
X225706923Y-88937966D01*
X225563162Y-88833517D01*
X225444259Y-88701461D01*
X225355409Y-88547570D01*
X225300498Y-88378569D01*
X225281923Y-88201844D01*
X225300498Y-88025119D01*
X225355409Y-87856118D01*
X225444259Y-87702227D01*
X225563162Y-87570171D01*
X225706923Y-87465722D01*
X225869259Y-87393446D01*
X226043074Y-87356500D01*
X226220772Y-87356500D01*
X226394587Y-87393446D01*
G37*
G36*
X182172664Y-86751602D02*
G01*
X182335000Y-86823878D01*
X182478761Y-86928327D01*
X182597664Y-87060383D01*
X182686514Y-87214274D01*
X182741425Y-87383275D01*
X182760000Y-87560000D01*
X182741425Y-87736725D01*
X182686514Y-87905726D01*
X182597664Y-88059617D01*
X182478761Y-88191673D01*
X182335000Y-88296122D01*
X182172664Y-88368398D01*
X181998849Y-88405344D01*
X181821151Y-88405344D01*
X181647336Y-88368398D01*
X181485000Y-88296122D01*
X181341239Y-88191673D01*
X181222336Y-88059617D01*
X181133486Y-87905726D01*
X181078575Y-87736725D01*
X181060000Y-87560000D01*
X181078575Y-87383275D01*
X181133486Y-87214274D01*
X181222336Y-87060383D01*
X181341239Y-86928327D01*
X181485000Y-86823878D01*
X181647336Y-86751602D01*
X181821151Y-86714656D01*
X181998849Y-86714656D01*
X182172664Y-86751602D01*
G37*
G36*
X184712664Y-86751602D02*
G01*
X184875000Y-86823878D01*
X185018761Y-86928327D01*
X185137664Y-87060383D01*
X185226514Y-87214274D01*
X185281425Y-87383275D01*
X185300000Y-87560000D01*
X185281425Y-87736725D01*
X185226514Y-87905726D01*
X185137664Y-88059617D01*
X185018761Y-88191673D01*
X184875000Y-88296122D01*
X184712664Y-88368398D01*
X184538849Y-88405344D01*
X184361151Y-88405344D01*
X184187336Y-88368398D01*
X184025000Y-88296122D01*
X183881239Y-88191673D01*
X183762336Y-88059617D01*
X183673486Y-87905726D01*
X183618575Y-87736725D01*
X183600000Y-87560000D01*
X183618575Y-87383275D01*
X183673486Y-87214274D01*
X183762336Y-87060383D01*
X183881239Y-86928327D01*
X184025000Y-86823878D01*
X184187336Y-86751602D01*
X184361151Y-86714656D01*
X184538849Y-86714656D01*
X184712664Y-86751602D01*
G37*
G36*
X182172664Y-84211602D02*
G01*
X182335000Y-84283878D01*
X182478761Y-84388327D01*
X182597664Y-84520383D01*
X182686514Y-84674274D01*
X182741425Y-84843275D01*
X182760000Y-85020000D01*
X182741425Y-85196725D01*
X182686514Y-85365726D01*
X182597664Y-85519617D01*
X182478761Y-85651673D01*
X182335000Y-85756122D01*
X182172664Y-85828398D01*
X181998849Y-85865344D01*
X181821151Y-85865344D01*
X181647336Y-85828398D01*
X181485000Y-85756122D01*
X181341239Y-85651673D01*
X181222336Y-85519617D01*
X181133486Y-85365726D01*
X181078575Y-85196725D01*
X181060000Y-85020000D01*
X181078575Y-84843275D01*
X181133486Y-84674274D01*
X181222336Y-84520383D01*
X181341239Y-84388327D01*
X181485000Y-84283878D01*
X181647336Y-84211602D01*
X181821151Y-84174656D01*
X181998849Y-84174656D01*
X182172664Y-84211602D01*
G37*
G36*
X184712664Y-84211602D02*
G01*
X184875000Y-84283878D01*
X185018761Y-84388327D01*
X185137664Y-84520383D01*
X185226514Y-84674274D01*
X185281425Y-84843275D01*
X185300000Y-85020000D01*
X185281425Y-85196725D01*
X185226514Y-85365726D01*
X185137664Y-85519617D01*
X185018761Y-85651673D01*
X184875000Y-85756122D01*
X184712664Y-85828398D01*
X184538849Y-85865344D01*
X184361151Y-85865344D01*
X184187336Y-85828398D01*
X184025000Y-85756122D01*
X183881239Y-85651673D01*
X183762336Y-85519617D01*
X183673486Y-85365726D01*
X183618575Y-85196725D01*
X183600000Y-85020000D01*
X183618575Y-84843275D01*
X183673486Y-84674274D01*
X183762336Y-84520383D01*
X183881239Y-84388327D01*
X184025000Y-84283878D01*
X184187336Y-84211602D01*
X184361151Y-84174656D01*
X184538849Y-84174656D01*
X184712664Y-84211602D01*
G37*
G36*
X182172664Y-81671602D02*
G01*
X182335000Y-81743878D01*
X182478761Y-81848327D01*
X182597664Y-81980383D01*
X182686514Y-82134274D01*
X182741425Y-82303275D01*
X182760000Y-82480000D01*
X182741425Y-82656725D01*
X182686514Y-82825726D01*
X182597664Y-82979617D01*
X182478761Y-83111673D01*
X182335000Y-83216122D01*
X182172664Y-83288398D01*
X181998849Y-83325344D01*
X181821151Y-83325344D01*
X181647336Y-83288398D01*
X181485000Y-83216122D01*
X181341239Y-83111673D01*
X181222336Y-82979617D01*
X181133486Y-82825726D01*
X181078575Y-82656725D01*
X181060000Y-82480000D01*
X181078575Y-82303275D01*
X181133486Y-82134274D01*
X181222336Y-81980383D01*
X181341239Y-81848327D01*
X181485000Y-81743878D01*
X181647336Y-81671602D01*
X181821151Y-81634656D01*
X181998849Y-81634656D01*
X182172664Y-81671602D01*
G37*
G36*
X184712664Y-81671602D02*
G01*
X184875000Y-81743878D01*
X185018761Y-81848327D01*
X185137664Y-81980383D01*
X185226514Y-82134274D01*
X185281425Y-82303275D01*
X185300000Y-82480000D01*
X185281425Y-82656725D01*
X185226514Y-82825726D01*
X185137664Y-82979617D01*
X185018761Y-83111673D01*
X184875000Y-83216122D01*
X184712664Y-83288398D01*
X184538849Y-83325344D01*
X184361151Y-83325344D01*
X184187336Y-83288398D01*
X184025000Y-83216122D01*
X183881239Y-83111673D01*
X183762336Y-82979617D01*
X183673486Y-82825726D01*
X183618575Y-82656725D01*
X183600000Y-82480000D01*
X183618575Y-82303275D01*
X183673486Y-82134274D01*
X183762336Y-81980383D01*
X183881239Y-81848327D01*
X184025000Y-81743878D01*
X184187336Y-81671602D01*
X184361151Y-81634656D01*
X184538849Y-81634656D01*
X184712664Y-81671602D01*
G37*
G36*
X182172664Y-79131602D02*
G01*
X182335000Y-79203878D01*
X182478761Y-79308327D01*
X182597664Y-79440383D01*
X182686514Y-79594274D01*
X182741425Y-79763275D01*
X182760000Y-79940000D01*
X182741425Y-80116725D01*
X182686514Y-80285726D01*
X182597664Y-80439617D01*
X182478761Y-80571673D01*
X182335000Y-80676122D01*
X182172664Y-80748398D01*
X181998849Y-80785344D01*
X181821151Y-80785344D01*
X181647336Y-80748398D01*
X181485000Y-80676122D01*
X181341239Y-80571673D01*
X181222336Y-80439617D01*
X181133486Y-80285726D01*
X181078575Y-80116725D01*
X181060000Y-79940000D01*
X181078575Y-79763275D01*
X181133486Y-79594274D01*
X181222336Y-79440383D01*
X181341239Y-79308327D01*
X181485000Y-79203878D01*
X181647336Y-79131602D01*
X181821151Y-79094656D01*
X181998849Y-79094656D01*
X182172664Y-79131602D01*
G37*
G36*
X184712664Y-79131602D02*
G01*
X184875000Y-79203878D01*
X185018761Y-79308327D01*
X185137664Y-79440383D01*
X185226514Y-79594274D01*
X185281425Y-79763275D01*
X185300000Y-79940000D01*
X185281425Y-80116725D01*
X185226514Y-80285726D01*
X185137664Y-80439617D01*
X185018761Y-80571673D01*
X184875000Y-80676122D01*
X184712664Y-80748398D01*
X184538849Y-80785344D01*
X184361151Y-80785344D01*
X184187336Y-80748398D01*
X184025000Y-80676122D01*
X183881239Y-80571673D01*
X183762336Y-80439617D01*
X183673486Y-80285726D01*
X183618575Y-80116725D01*
X183600000Y-79940000D01*
X183618575Y-79763275D01*
X183673486Y-79594274D01*
X183762336Y-79440383D01*
X183881239Y-79308327D01*
X184025000Y-79203878D01*
X184187336Y-79131602D01*
X184361151Y-79094656D01*
X184538849Y-79094656D01*
X184712664Y-79131602D01*
G37*
G36*
X182172664Y-76591602D02*
G01*
X182335000Y-76663878D01*
X182478761Y-76768327D01*
X182597664Y-76900383D01*
X182686514Y-77054274D01*
X182741425Y-77223275D01*
X182760000Y-77400000D01*
X182741425Y-77576725D01*
X182686514Y-77745726D01*
X182597664Y-77899617D01*
X182478761Y-78031673D01*
X182335000Y-78136122D01*
X182172664Y-78208398D01*
X181998849Y-78245344D01*
X181821151Y-78245344D01*
X181647336Y-78208398D01*
X181485000Y-78136122D01*
X181341239Y-78031673D01*
X181222336Y-77899617D01*
X181133486Y-77745726D01*
X181078575Y-77576725D01*
X181060000Y-77400000D01*
X181078575Y-77223275D01*
X181133486Y-77054274D01*
X181222336Y-76900383D01*
X181341239Y-76768327D01*
X181485000Y-76663878D01*
X181647336Y-76591602D01*
X181821151Y-76554656D01*
X181998849Y-76554656D01*
X182172664Y-76591602D01*
G37*
G36*
X184712664Y-76591602D02*
G01*
X184875000Y-76663878D01*
X185018761Y-76768327D01*
X185137664Y-76900383D01*
X185226514Y-77054274D01*
X185281425Y-77223275D01*
X185300000Y-77400000D01*
X185281425Y-77576725D01*
X185226514Y-77745726D01*
X185137664Y-77899617D01*
X185018761Y-78031673D01*
X184875000Y-78136122D01*
X184712664Y-78208398D01*
X184538849Y-78245344D01*
X184361151Y-78245344D01*
X184187336Y-78208398D01*
X184025000Y-78136122D01*
X183881239Y-78031673D01*
X183762336Y-77899617D01*
X183673486Y-77745726D01*
X183618575Y-77576725D01*
X183600000Y-77400000D01*
X183618575Y-77223275D01*
X183673486Y-77054274D01*
X183762336Y-76900383D01*
X183881239Y-76768327D01*
X184025000Y-76663878D01*
X184187336Y-76591602D01*
X184361151Y-76554656D01*
X184538849Y-76554656D01*
X184712664Y-76591602D01*
G37*
G36*
X182172664Y-74051602D02*
G01*
X182335000Y-74123878D01*
X182478761Y-74228327D01*
X182597664Y-74360383D01*
X182686514Y-74514274D01*
X182741425Y-74683275D01*
X182760000Y-74860000D01*
X182741425Y-75036725D01*
X182686514Y-75205726D01*
X182597664Y-75359617D01*
X182478761Y-75491673D01*
X182335000Y-75596122D01*
X182172664Y-75668398D01*
X181998849Y-75705344D01*
X181821151Y-75705344D01*
X181647336Y-75668398D01*
X181485000Y-75596122D01*
X181341239Y-75491673D01*
X181222336Y-75359617D01*
X181133486Y-75205726D01*
X181078575Y-75036725D01*
X181060000Y-74860000D01*
X181078575Y-74683275D01*
X181133486Y-74514274D01*
X181222336Y-74360383D01*
X181341239Y-74228327D01*
X181485000Y-74123878D01*
X181647336Y-74051602D01*
X181821151Y-74014656D01*
X181998849Y-74014656D01*
X182172664Y-74051602D01*
G37*
G36*
X184712664Y-74051602D02*
G01*
X184875000Y-74123878D01*
X185018761Y-74228327D01*
X185137664Y-74360383D01*
X185226514Y-74514274D01*
X185281425Y-74683275D01*
X185300000Y-74860000D01*
X185281425Y-75036725D01*
X185226514Y-75205726D01*
X185137664Y-75359617D01*
X185018761Y-75491673D01*
X184875000Y-75596122D01*
X184712664Y-75668398D01*
X184538849Y-75705344D01*
X184361151Y-75705344D01*
X184187336Y-75668398D01*
X184025000Y-75596122D01*
X183881239Y-75491673D01*
X183762336Y-75359617D01*
X183673486Y-75205726D01*
X183618575Y-75036725D01*
X183600000Y-74860000D01*
X183618575Y-74683275D01*
X183673486Y-74514274D01*
X183762336Y-74360383D01*
X183881239Y-74228327D01*
X184025000Y-74123878D01*
X184187336Y-74051602D01*
X184361151Y-74014656D01*
X184538849Y-74014656D01*
X184712664Y-74051602D01*
G37*
G36*
X182760000Y-73170000D02*
G01*
X181060000Y-73170000D01*
X181060000Y-71470000D01*
X182760000Y-71470000D01*
X182760000Y-73170000D01*
G37*
G36*
X184712664Y-71511602D02*
G01*
X184875000Y-71583878D01*
X185018761Y-71688327D01*
X185137664Y-71820383D01*
X185226514Y-71974274D01*
X185281425Y-72143275D01*
X185300000Y-72320000D01*
X185281425Y-72496725D01*
X185226514Y-72665726D01*
X185137664Y-72819617D01*
X185018761Y-72951673D01*
X184875000Y-73056122D01*
X184712664Y-73128398D01*
X184538849Y-73165344D01*
X184361151Y-73165344D01*
X184187336Y-73128398D01*
X184025000Y-73056122D01*
X183881239Y-72951673D01*
X183762336Y-72819617D01*
X183673486Y-72665726D01*
X183618575Y-72496725D01*
X183600000Y-72320000D01*
X183618575Y-72143275D01*
X183673486Y-71974274D01*
X183762336Y-71820383D01*
X183881239Y-71688327D01*
X184025000Y-71583878D01*
X184187336Y-71511602D01*
X184361151Y-71474656D01*
X184538849Y-71474656D01*
X184712664Y-71511602D01*
G37*
G36*
X182770000Y-67600000D02*
G01*
X181070000Y-67600000D01*
X181070000Y-65900000D01*
X182770000Y-65900000D01*
X182770000Y-67600000D01*
G37*
G36*
X184722664Y-65941602D02*
G01*
X184885000Y-66013878D01*
X185028761Y-66118327D01*
X185147664Y-66250383D01*
X185236514Y-66404274D01*
X185291425Y-66573275D01*
X185310000Y-66750000D01*
X185291425Y-66926725D01*
X185236514Y-67095726D01*
X185147664Y-67249617D01*
X185028761Y-67381673D01*
X184885000Y-67486122D01*
X184722664Y-67558398D01*
X184548849Y-67595344D01*
X184371151Y-67595344D01*
X184197336Y-67558398D01*
X184035000Y-67486122D01*
X183891239Y-67381673D01*
X183772336Y-67249617D01*
X183683486Y-67095726D01*
X183628575Y-66926725D01*
X183610000Y-66750000D01*
X183628575Y-66573275D01*
X183683486Y-66404274D01*
X183772336Y-66250383D01*
X183891239Y-66118327D01*
X184035000Y-66013878D01*
X184197336Y-65941602D01*
X184371151Y-65904656D01*
X184548849Y-65904656D01*
X184722664Y-65941602D01*
G37*
G36*
X187262664Y-65941602D02*
G01*
X187425000Y-66013878D01*
X187568761Y-66118327D01*
X187687664Y-66250383D01*
X187776514Y-66404274D01*
X187831425Y-66573275D01*
X187850000Y-66750000D01*
X187831425Y-66926725D01*
X187776514Y-67095726D01*
X187687664Y-67249617D01*
X187568761Y-67381673D01*
X187425000Y-67486122D01*
X187262664Y-67558398D01*
X187088849Y-67595344D01*
X186911151Y-67595344D01*
X186737336Y-67558398D01*
X186575000Y-67486122D01*
X186431239Y-67381673D01*
X186312336Y-67249617D01*
X186223486Y-67095726D01*
X186168575Y-66926725D01*
X186150000Y-66750000D01*
X186168575Y-66573275D01*
X186223486Y-66404274D01*
X186312336Y-66250383D01*
X186431239Y-66118327D01*
X186575000Y-66013878D01*
X186737336Y-65941602D01*
X186911151Y-65904656D01*
X187088849Y-65904656D01*
X187262664Y-65941602D01*
G37*
G36*
X189802664Y-65941602D02*
G01*
X189965000Y-66013878D01*
X190108761Y-66118327D01*
X190227664Y-66250383D01*
X190316514Y-66404274D01*
X190371425Y-66573275D01*
X190390000Y-66750000D01*
X190371425Y-66926725D01*
X190316514Y-67095726D01*
X190227664Y-67249617D01*
X190108761Y-67381673D01*
X189965000Y-67486122D01*
X189802664Y-67558398D01*
X189628849Y-67595344D01*
X189451151Y-67595344D01*
X189277336Y-67558398D01*
X189115000Y-67486122D01*
X188971239Y-67381673D01*
X188852336Y-67249617D01*
X188763486Y-67095726D01*
X188708575Y-66926725D01*
X188690000Y-66750000D01*
X188708575Y-66573275D01*
X188763486Y-66404274D01*
X188852336Y-66250383D01*
X188971239Y-66118327D01*
X189115000Y-66013878D01*
X189277336Y-65941602D01*
X189451151Y-65904656D01*
X189628849Y-65904656D01*
X189802664Y-65941602D01*
G37*
G36*
X192342664Y-65941602D02*
G01*
X192505000Y-66013878D01*
X192648761Y-66118327D01*
X192767664Y-66250383D01*
X192856514Y-66404274D01*
X192911425Y-66573275D01*
X192930000Y-66750000D01*
X192911425Y-66926725D01*
X192856514Y-67095726D01*
X192767664Y-67249617D01*
X192648761Y-67381673D01*
X192505000Y-67486122D01*
X192342664Y-67558398D01*
X192168849Y-67595344D01*
X191991151Y-67595344D01*
X191817336Y-67558398D01*
X191655000Y-67486122D01*
X191511239Y-67381673D01*
X191392336Y-67249617D01*
X191303486Y-67095726D01*
X191248575Y-66926725D01*
X191230000Y-66750000D01*
X191248575Y-66573275D01*
X191303486Y-66404274D01*
X191392336Y-66250383D01*
X191511239Y-66118327D01*
X191655000Y-66013878D01*
X191817336Y-65941602D01*
X191991151Y-65904656D01*
X192168849Y-65904656D01*
X192342664Y-65941602D01*
G37*
G36*
X208614587Y-64533446D02*
G01*
X208776923Y-64605722D01*
X208920684Y-64710171D01*
X209039587Y-64842227D01*
X209128437Y-64996118D01*
X209183348Y-65165119D01*
X209201923Y-65341844D01*
X209183348Y-65518569D01*
X209128437Y-65687570D01*
X209039587Y-65841461D01*
X208920684Y-65973517D01*
X208776923Y-66077966D01*
X208614587Y-66150242D01*
X208440772Y-66187188D01*
X208263074Y-66187188D01*
X208089259Y-66150242D01*
X207926923Y-66077966D01*
X207783162Y-65973517D01*
X207664259Y-65841461D01*
X207575409Y-65687570D01*
X207520498Y-65518569D01*
X207501923Y-65341844D01*
X207520498Y-65165119D01*
X207575409Y-64996118D01*
X207664259Y-64842227D01*
X207783162Y-64710171D01*
X207926923Y-64605722D01*
X208089259Y-64533446D01*
X208263074Y-64496500D01*
X208440772Y-64496500D01*
X208614587Y-64533446D01*
G37*
G36*
X211154587Y-64533446D02*
G01*
X211316923Y-64605722D01*
X211460684Y-64710171D01*
X211579587Y-64842227D01*
X211668437Y-64996118D01*
X211723348Y-65165119D01*
X211741923Y-65341844D01*
X211723348Y-65518569D01*
X211668437Y-65687570D01*
X211579587Y-65841461D01*
X211460684Y-65973517D01*
X211316923Y-66077966D01*
X211154587Y-66150242D01*
X210980772Y-66187188D01*
X210803074Y-66187188D01*
X210629259Y-66150242D01*
X210466923Y-66077966D01*
X210323162Y-65973517D01*
X210204259Y-65841461D01*
X210115409Y-65687570D01*
X210060498Y-65518569D01*
X210041923Y-65341844D01*
X210060498Y-65165119D01*
X210115409Y-64996118D01*
X210204259Y-64842227D01*
X210323162Y-64710171D01*
X210466923Y-64605722D01*
X210629259Y-64533446D01*
X210803074Y-64496500D01*
X210980772Y-64496500D01*
X211154587Y-64533446D01*
G37*
G36*
X213694587Y-64533446D02*
G01*
X213856923Y-64605722D01*
X214000684Y-64710171D01*
X214119587Y-64842227D01*
X214208437Y-64996118D01*
X214263348Y-65165119D01*
X214281923Y-65341844D01*
X214263348Y-65518569D01*
X214208437Y-65687570D01*
X214119587Y-65841461D01*
X214000684Y-65973517D01*
X213856923Y-66077966D01*
X213694587Y-66150242D01*
X213520772Y-66187188D01*
X213343074Y-66187188D01*
X213169259Y-66150242D01*
X213006923Y-66077966D01*
X212863162Y-65973517D01*
X212744259Y-65841461D01*
X212655409Y-65687570D01*
X212600498Y-65518569D01*
X212581923Y-65341844D01*
X212600498Y-65165119D01*
X212655409Y-64996118D01*
X212744259Y-64842227D01*
X212863162Y-64710171D01*
X213006923Y-64605722D01*
X213169259Y-64533446D01*
X213343074Y-64496500D01*
X213520772Y-64496500D01*
X213694587Y-64533446D01*
G37*
G36*
X216234587Y-64533446D02*
G01*
X216396923Y-64605722D01*
X216540684Y-64710171D01*
X216659587Y-64842227D01*
X216748437Y-64996118D01*
X216803348Y-65165119D01*
X216821923Y-65341844D01*
X216803348Y-65518569D01*
X216748437Y-65687570D01*
X216659587Y-65841461D01*
X216540684Y-65973517D01*
X216396923Y-66077966D01*
X216234587Y-66150242D01*
X216060772Y-66187188D01*
X215883074Y-66187188D01*
X215709259Y-66150242D01*
X215546923Y-66077966D01*
X215403162Y-65973517D01*
X215284259Y-65841461D01*
X215195409Y-65687570D01*
X215140498Y-65518569D01*
X215121923Y-65341844D01*
X215140498Y-65165119D01*
X215195409Y-64996118D01*
X215284259Y-64842227D01*
X215403162Y-64710171D01*
X215546923Y-64605722D01*
X215709259Y-64533446D01*
X215883074Y-64496500D01*
X216060772Y-64496500D01*
X216234587Y-64533446D01*
G37*
G36*
X218774587Y-64533446D02*
G01*
X218936923Y-64605722D01*
X219080684Y-64710171D01*
X219199587Y-64842227D01*
X219288437Y-64996118D01*
X219343348Y-65165119D01*
X219361923Y-65341844D01*
X219343348Y-65518569D01*
X219288437Y-65687570D01*
X219199587Y-65841461D01*
X219080684Y-65973517D01*
X218936923Y-66077966D01*
X218774587Y-66150242D01*
X218600772Y-66187188D01*
X218423074Y-66187188D01*
X218249259Y-66150242D01*
X218086923Y-66077966D01*
X217943162Y-65973517D01*
X217824259Y-65841461D01*
X217735409Y-65687570D01*
X217680498Y-65518569D01*
X217661923Y-65341844D01*
X217680498Y-65165119D01*
X217735409Y-64996118D01*
X217824259Y-64842227D01*
X217943162Y-64710171D01*
X218086923Y-64605722D01*
X218249259Y-64533446D01*
X218423074Y-64496500D01*
X218600772Y-64496500D01*
X218774587Y-64533446D01*
G37*
G36*
X221314587Y-64533446D02*
G01*
X221476923Y-64605722D01*
X221620684Y-64710171D01*
X221739587Y-64842227D01*
X221828437Y-64996118D01*
X221883348Y-65165119D01*
X221901923Y-65341844D01*
X221883348Y-65518569D01*
X221828437Y-65687570D01*
X221739587Y-65841461D01*
X221620684Y-65973517D01*
X221476923Y-66077966D01*
X221314587Y-66150242D01*
X221140772Y-66187188D01*
X220963074Y-66187188D01*
X220789259Y-66150242D01*
X220626923Y-66077966D01*
X220483162Y-65973517D01*
X220364259Y-65841461D01*
X220275409Y-65687570D01*
X220220498Y-65518569D01*
X220201923Y-65341844D01*
X220220498Y-65165119D01*
X220275409Y-64996118D01*
X220364259Y-64842227D01*
X220483162Y-64710171D01*
X220626923Y-64605722D01*
X220789259Y-64533446D01*
X220963074Y-64496500D01*
X221140772Y-64496500D01*
X221314587Y-64533446D01*
G37*
G36*
X223854587Y-64533446D02*
G01*
X224016923Y-64605722D01*
X224160684Y-64710171D01*
X224279587Y-64842227D01*
X224368437Y-64996118D01*
X224423348Y-65165119D01*
X224441923Y-65341844D01*
X224423348Y-65518569D01*
X224368437Y-65687570D01*
X224279587Y-65841461D01*
X224160684Y-65973517D01*
X224016923Y-66077966D01*
X223854587Y-66150242D01*
X223680772Y-66187188D01*
X223503074Y-66187188D01*
X223329259Y-66150242D01*
X223166923Y-66077966D01*
X223023162Y-65973517D01*
X222904259Y-65841461D01*
X222815409Y-65687570D01*
X222760498Y-65518569D01*
X222741923Y-65341844D01*
X222760498Y-65165119D01*
X222815409Y-64996118D01*
X222904259Y-64842227D01*
X223023162Y-64710171D01*
X223166923Y-64605722D01*
X223329259Y-64533446D01*
X223503074Y-64496500D01*
X223680772Y-64496500D01*
X223854587Y-64533446D01*
G37*
G36*
X226394587Y-64533446D02*
G01*
X226556923Y-64605722D01*
X226700684Y-64710171D01*
X226819587Y-64842227D01*
X226908437Y-64996118D01*
X226963348Y-65165119D01*
X226981923Y-65341844D01*
X226963348Y-65518569D01*
X226908437Y-65687570D01*
X226819587Y-65841461D01*
X226700684Y-65973517D01*
X226556923Y-66077966D01*
X226394587Y-66150242D01*
X226220772Y-66187188D01*
X226043074Y-66187188D01*
X225869259Y-66150242D01*
X225706923Y-66077966D01*
X225563162Y-65973517D01*
X225444259Y-65841461D01*
X225355409Y-65687570D01*
X225300498Y-65518569D01*
X225281923Y-65341844D01*
X225300498Y-65165119D01*
X225355409Y-64996118D01*
X225444259Y-64842227D01*
X225563162Y-64710171D01*
X225706923Y-64605722D01*
X225869259Y-64533446D01*
X226043074Y-64496500D01*
X226220772Y-64496500D01*
X226394587Y-64533446D01*
G37*
G36*
X182182664Y-63401602D02*
G01*
X182345000Y-63473878D01*
X182488761Y-63578327D01*
X182607664Y-63710383D01*
X182696514Y-63864274D01*
X182751425Y-64033275D01*
X182770000Y-64210000D01*
X182751425Y-64386725D01*
X182696514Y-64555726D01*
X182607664Y-64709617D01*
X182488761Y-64841673D01*
X182345000Y-64946122D01*
X182182664Y-65018398D01*
X182008849Y-65055344D01*
X181831151Y-65055344D01*
X181657336Y-65018398D01*
X181495000Y-64946122D01*
X181351239Y-64841673D01*
X181232336Y-64709617D01*
X181143486Y-64555726D01*
X181088575Y-64386725D01*
X181070000Y-64210000D01*
X181088575Y-64033275D01*
X181143486Y-63864274D01*
X181232336Y-63710383D01*
X181351239Y-63578327D01*
X181495000Y-63473878D01*
X181657336Y-63401602D01*
X181831151Y-63364656D01*
X182008849Y-63364656D01*
X182182664Y-63401602D01*
G37*
G36*
X184722664Y-63401602D02*
G01*
X184885000Y-63473878D01*
X185028761Y-63578327D01*
X185147664Y-63710383D01*
X185236514Y-63864274D01*
X185291425Y-64033275D01*
X185310000Y-64210000D01*
X185291425Y-64386725D01*
X185236514Y-64555726D01*
X185147664Y-64709617D01*
X185028761Y-64841673D01*
X184885000Y-64946122D01*
X184722664Y-65018398D01*
X184548849Y-65055344D01*
X184371151Y-65055344D01*
X184197336Y-65018398D01*
X184035000Y-64946122D01*
X183891239Y-64841673D01*
X183772336Y-64709617D01*
X183683486Y-64555726D01*
X183628575Y-64386725D01*
X183610000Y-64210000D01*
X183628575Y-64033275D01*
X183683486Y-63864274D01*
X183772336Y-63710383D01*
X183891239Y-63578327D01*
X184035000Y-63473878D01*
X184197336Y-63401602D01*
X184371151Y-63364656D01*
X184548849Y-63364656D01*
X184722664Y-63401602D01*
G37*
G36*
X187262664Y-63401602D02*
G01*
X187425000Y-63473878D01*
X187568761Y-63578327D01*
X187687664Y-63710383D01*
X187776514Y-63864274D01*
X187831425Y-64033275D01*
X187850000Y-64210000D01*
X187831425Y-64386725D01*
X187776514Y-64555726D01*
X187687664Y-64709617D01*
X187568761Y-64841673D01*
X187425000Y-64946122D01*
X187262664Y-65018398D01*
X187088849Y-65055344D01*
X186911151Y-65055344D01*
X186737336Y-65018398D01*
X186575000Y-64946122D01*
X186431239Y-64841673D01*
X186312336Y-64709617D01*
X186223486Y-64555726D01*
X186168575Y-64386725D01*
X186150000Y-64210000D01*
X186168575Y-64033275D01*
X186223486Y-63864274D01*
X186312336Y-63710383D01*
X186431239Y-63578327D01*
X186575000Y-63473878D01*
X186737336Y-63401602D01*
X186911151Y-63364656D01*
X187088849Y-63364656D01*
X187262664Y-63401602D01*
G37*
G36*
X189802664Y-63401602D02*
G01*
X189965000Y-63473878D01*
X190108761Y-63578327D01*
X190227664Y-63710383D01*
X190316514Y-63864274D01*
X190371425Y-64033275D01*
X190390000Y-64210000D01*
X190371425Y-64386725D01*
X190316514Y-64555726D01*
X190227664Y-64709617D01*
X190108761Y-64841673D01*
X189965000Y-64946122D01*
X189802664Y-65018398D01*
X189628849Y-65055344D01*
X189451151Y-65055344D01*
X189277336Y-65018398D01*
X189115000Y-64946122D01*
X188971239Y-64841673D01*
X188852336Y-64709617D01*
X188763486Y-64555726D01*
X188708575Y-64386725D01*
X188690000Y-64210000D01*
X188708575Y-64033275D01*
X188763486Y-63864274D01*
X188852336Y-63710383D01*
X188971239Y-63578327D01*
X189115000Y-63473878D01*
X189277336Y-63401602D01*
X189451151Y-63364656D01*
X189628849Y-63364656D01*
X189802664Y-63401602D01*
G37*
G36*
X215994817Y-60174976D02*
G01*
X214294817Y-60174976D01*
X214294817Y-58474976D01*
X215994817Y-58474976D01*
X215994817Y-60174976D01*
G37*
G36*
X217947481Y-58516578D02*
G01*
X218109817Y-58588854D01*
X218253578Y-58693303D01*
X218372481Y-58825359D01*
X218461331Y-58979250D01*
X218516242Y-59148251D01*
X218534817Y-59324976D01*
X218516242Y-59501701D01*
X218461331Y-59670702D01*
X218372481Y-59824593D01*
X218253578Y-59956649D01*
X218109817Y-60061098D01*
X217947481Y-60133374D01*
X217773666Y-60170320D01*
X217595968Y-60170320D01*
X217422153Y-60133374D01*
X217259817Y-60061098D01*
X217116056Y-59956649D01*
X216997153Y-59824593D01*
X216908303Y-59670702D01*
X216853392Y-59501701D01*
X216834817Y-59324976D01*
X216853392Y-59148251D01*
X216908303Y-58979250D01*
X216997153Y-58825359D01*
X217116056Y-58693303D01*
X217259817Y-58588854D01*
X217422153Y-58516578D01*
X217595968Y-58479632D01*
X217773666Y-58479632D01*
X217947481Y-58516578D01*
G37*
G36*
X220487481Y-58516578D02*
G01*
X220649817Y-58588854D01*
X220793578Y-58693303D01*
X220912481Y-58825359D01*
X221001331Y-58979250D01*
X221056242Y-59148251D01*
X221074817Y-59324976D01*
X221056242Y-59501701D01*
X221001331Y-59670702D01*
X220912481Y-59824593D01*
X220793578Y-59956649D01*
X220649817Y-60061098D01*
X220487481Y-60133374D01*
X220313666Y-60170320D01*
X220135968Y-60170320D01*
X219962153Y-60133374D01*
X219799817Y-60061098D01*
X219656056Y-59956649D01*
X219537153Y-59824593D01*
X219448303Y-59670702D01*
X219393392Y-59501701D01*
X219374817Y-59324976D01*
X219393392Y-59148251D01*
X219448303Y-58979250D01*
X219537153Y-58825359D01*
X219656056Y-58693303D01*
X219799817Y-58588854D01*
X219962153Y-58516578D01*
X220135968Y-58479632D01*
X220313666Y-58479632D01*
X220487481Y-58516578D01*
G37*
G36*
X199100000Y-59741484D02*
G01*
X198100000Y-59741484D01*
X198100000Y-57741484D01*
X199100000Y-57741484D01*
X199100000Y-59741484D01*
G37*
G36*
X200481432Y-59741484D02*
G01*
X199481432Y-59741484D01*
X199481432Y-57741484D01*
X200481432Y-57741484D01*
X200481432Y-59741484D01*
G37*
G36*
X201862860Y-59741484D02*
G01*
X200862860Y-59741484D01*
X200862860Y-57741484D01*
X201862860Y-57741484D01*
X201862860Y-59741484D01*
G37*
G36*
X203244288Y-59741484D02*
G01*
X202244288Y-59741484D01*
X202244288Y-57741484D01*
X203244288Y-57741484D01*
X203244288Y-59741484D01*
G37*
G36*
X204625716Y-59741484D02*
G01*
X203625716Y-59741484D01*
X203625716Y-57741484D01*
X204625716Y-57741484D01*
X204625716Y-59741484D01*
G37*
G36*
X206007144Y-59741484D02*
G01*
X205007144Y-59741484D01*
X205007144Y-57741484D01*
X206007144Y-57741484D01*
X206007144Y-59741484D01*
G37*
G36*
X207388572Y-59741484D02*
G01*
X206388572Y-59741484D01*
X206388572Y-57741484D01*
X207388572Y-57741484D01*
X207388572Y-59741484D01*
G37*
G36*
X208770000Y-59741484D02*
G01*
X207770000Y-59741484D01*
X207770000Y-57741484D01*
X208770000Y-57741484D01*
X208770000Y-59741484D01*
G37*
G36*
X182932664Y-57981602D02*
G01*
X183095000Y-58053878D01*
X183238761Y-58158327D01*
X183357664Y-58290383D01*
X183446514Y-58444274D01*
X183501425Y-58613275D01*
X183520000Y-58790000D01*
X183501425Y-58966725D01*
X183446514Y-59135726D01*
X183357664Y-59289617D01*
X183238761Y-59421673D01*
X183095000Y-59526122D01*
X182932664Y-59598398D01*
X182758849Y-59635344D01*
X182581151Y-59635344D01*
X182407336Y-59598398D01*
X182245000Y-59526122D01*
X182101239Y-59421673D01*
X181982336Y-59289617D01*
X181893486Y-59135726D01*
X181838575Y-58966725D01*
X181820000Y-58790000D01*
X181838575Y-58613275D01*
X181893486Y-58444274D01*
X181982336Y-58290383D01*
X182101239Y-58158327D01*
X182245000Y-58053878D01*
X182407336Y-57981602D01*
X182581151Y-57944656D01*
X182758849Y-57944656D01*
X182932664Y-57981602D01*
G37*
G36*
X185432664Y-57981602D02*
G01*
X185595000Y-58053878D01*
X185738761Y-58158327D01*
X185857664Y-58290383D01*
X185946514Y-58444274D01*
X186001425Y-58613275D01*
X186020000Y-58790000D01*
X186001425Y-58966725D01*
X185946514Y-59135726D01*
X185857664Y-59289617D01*
X185738761Y-59421673D01*
X185595000Y-59526122D01*
X185432664Y-59598398D01*
X185258849Y-59635344D01*
X185081151Y-59635344D01*
X184907336Y-59598398D01*
X184745000Y-59526122D01*
X184601239Y-59421673D01*
X184482336Y-59289617D01*
X184393486Y-59135726D01*
X184338575Y-58966725D01*
X184320000Y-58790000D01*
X184338575Y-58613275D01*
X184393486Y-58444274D01*
X184482336Y-58290383D01*
X184601239Y-58158327D01*
X184745000Y-58053878D01*
X184907336Y-57981602D01*
X185081151Y-57944656D01*
X185258849Y-57944656D01*
X185432664Y-57981602D01*
G37*
G36*
X187932664Y-57981602D02*
G01*
X188095000Y-58053878D01*
X188238761Y-58158327D01*
X188357664Y-58290383D01*
X188446514Y-58444274D01*
X188501425Y-58613275D01*
X188520000Y-58790000D01*
X188501425Y-58966725D01*
X188446514Y-59135726D01*
X188357664Y-59289617D01*
X188238761Y-59421673D01*
X188095000Y-59526122D01*
X187932664Y-59598398D01*
X187758849Y-59635344D01*
X187581151Y-59635344D01*
X187407336Y-59598398D01*
X187245000Y-59526122D01*
X187101239Y-59421673D01*
X186982336Y-59289617D01*
X186893486Y-59135726D01*
X186838575Y-58966725D01*
X186820000Y-58790000D01*
X186838575Y-58613275D01*
X186893486Y-58444274D01*
X186982336Y-58290383D01*
X187101239Y-58158327D01*
X187245000Y-58053878D01*
X187407336Y-57981602D01*
X187581151Y-57944656D01*
X187758849Y-57944656D01*
X187932664Y-57981602D01*
G37*
G36*
X190432664Y-57981602D02*
G01*
X190595000Y-58053878D01*
X190738761Y-58158327D01*
X190857664Y-58290383D01*
X190946514Y-58444274D01*
X191001425Y-58613275D01*
X191020000Y-58790000D01*
X191001425Y-58966725D01*
X190946514Y-59135726D01*
X190857664Y-59289617D01*
X190738761Y-59421673D01*
X190595000Y-59526122D01*
X190432664Y-59598398D01*
X190258849Y-59635344D01*
X190081151Y-59635344D01*
X189907336Y-59598398D01*
X189745000Y-59526122D01*
X189601239Y-59421673D01*
X189482336Y-59289617D01*
X189393486Y-59135726D01*
X189338575Y-58966725D01*
X189320000Y-58790000D01*
X189338575Y-58613275D01*
X189393486Y-58444274D01*
X189482336Y-58290383D01*
X189601239Y-58158327D01*
X189745000Y-58053878D01*
X189907336Y-57981602D01*
X190081151Y-57944656D01*
X190258849Y-57944656D01*
X190432664Y-57981602D01*
G37*
M02*
