M48
; DRILL file {KiCad 8.0.1} date 2024-04-28T21:45:43+0200
; FORMAT={-:-/ absolute / inch / decimal}
; #@! TF.CreationDate,2024-04-28T21:45:43+02:00
; #@! TF.GenerationSoftware,Kicad,Pcbnew,8.0.1
; #@! TF.FileFunction,Plated,1,2,PTH
FMAT,2
INCH
; #@! TA.AperFunction,Plated,PTH,ViaDrill
T1C0.0157
; #@! TA.AperFunction,Plated,PTH,ComponentDrill
T2C0.0394
%
G90
G05
T1
X7.3577Y-2.4459
X7.372Y-2.7559
X7.4311Y-2.7854
X7.4626Y-3.1339
X7.4724Y-3.2126
X7.4878Y-3.5728
X7.5098Y-2.7854
X7.5413Y-3.1339
X7.5413Y-3.2087
X7.5811Y-3.5201
X7.661Y-3.5154
X7.6772Y-3.2168
X7.6969Y-3.6024
X7.7008Y-3.3701
X7.7165Y-3.4094
X7.7264Y-3.2168
X7.7559Y-2.3951
X7.8005Y-2.6783
X7.8839Y-2.3951
X7.8839Y-2.5
X7.8839Y-2.5394
X7.9504Y-2.8181
X7.9528Y-2.7756
X7.9823Y-2.4803
X7.9823Y-2.5178
X7.9823Y-2.5616
X7.9823Y-2.6054
X7.9823Y-2.6491
X7.9823Y-2.6929
X8.0188Y-3.0787
X8.0188Y-3.1426
X8.0236Y-3.3937
X8.1024Y-3.8268
X8.1201Y-2.3917
X8.1969Y-2.8268
X8.248Y-2.6863
X8.2756Y-2.3071
X8.2756Y-2.3951
X8.3563Y-2.6863
X8.4094Y-3.2126
X8.4252Y-3.3039
X8.4449Y-2.6863
X8.4646Y-3.3465
X8.4803Y-3.0018
X8.4843Y-3.0512
X8.5166Y-3.304
X8.5335Y-2.6863
X8.5434Y-3.0018
X8.5587Y-3.3461
X8.566Y-3.0807
X8.5827Y-3.3749
X8.6024Y-2.687
X8.622Y-3.0512
X8.6614Y-3.4016
X8.6909Y-2.687
X8.7303Y-3.2677
X8.7697Y-3.4055
X8.7795Y-2.687
X8.8605Y-2.4109
X8.8681Y-2.687
T2
X7.1161Y-3.7106
X7.1161Y-4.1043
X7.1618Y-2.8472
X7.1618Y-2.9472
X7.1618Y-3.0472
X7.1618Y-3.1472
X7.1618Y-3.2472
X7.1618Y-3.3472
X7.1618Y-3.4472
X7.1618Y-3.5472
X7.1622Y-2.528
X7.1622Y-2.628
X7.1917Y-2.3146
X7.2618Y-2.8472
X7.2618Y-2.9472
X7.2618Y-3.0472
X7.2618Y-3.1472
X7.2618Y-3.2472
X7.2618Y-3.3472
X7.2618Y-3.4472
X7.2618Y-3.5472
X7.2622Y-2.528
X7.2622Y-2.628
X7.2902Y-2.3146
X7.3622Y-2.528
X7.3622Y-2.628
X7.3886Y-2.3146
X7.4622Y-2.528
X7.4622Y-2.628
X7.487Y-2.3146
X7.5622Y-2.628
X7.7461Y-3.7106
X7.7461Y-4.1043
X8.1283Y-4.1043
X8.2028Y-2.5725
X8.2028Y-3.4725
X8.2283Y-4.1043
X8.3028Y-2.5725
X8.3028Y-3.4725
X8.3283Y-4.1043
X8.4028Y-2.5725
X8.4028Y-3.4725
X8.4703Y-2.3356
X8.5028Y-2.5725
X8.5028Y-3.4725
X8.5703Y-2.3356
X8.6028Y-2.5725
X8.6028Y-3.4725
X8.6703Y-2.3356
X8.7028Y-2.5725
X8.7028Y-3.4725
X8.8028Y-2.5725
X8.8028Y-3.4725
X8.8085Y-3.6547
X8.8085Y-3.7547
X8.8085Y-3.8547
X8.8085Y-3.9547
X8.8085Y-4.0547
X8.9028Y-2.5725
X8.9028Y-3.4725
X8.9085Y-3.6547
X8.9085Y-3.7547
X8.9085Y-3.8547
X8.9085Y-3.9547
X8.9085Y-4.0547
M30
