<?xml version="1.0" encoding="UTF-8" standalone="no"?>
<!-- Created with Inkscape (http://www.inkscape.org/) -->

<svg
   width="300mm"
   height="600mm"
   viewBox="0 0 300 600"
   version="1.1"
   id="svg1"
   inkscape:version="1.3.2 (091e20e, 2023-11-25, custom)"
   sodipodi:docname="DemonstratorBacking.svg"
   xmlns:inkscape="http://www.inkscape.org/namespaces/inkscape"
   xmlns:sodipodi="http://sodipodi.sourceforge.net/DTD/sodipodi-0.dtd"
   xmlns="http://www.w3.org/2000/svg"
   xmlns:svg="http://www.w3.org/2000/svg">
  <sodipodi:namedview
     id="namedview1"
     pagecolor="#ffffff"
     bordercolor="#000000"
     borderopacity="0.25"
     inkscape:showpageshadow="2"
     inkscape:pageopacity="0.0"
     inkscape:pagecheckerboard="0"
     inkscape:deskcolor="#d1d1d1"
     inkscape:document-units="mm"
     inkscape:zoom="2.9255612"
     inkscape:cx="782.24309"
     inkscape:cy="796.25749"
     inkscape:window-width="1920"
     inkscape:window-height="1017"
     inkscape:window-x="-8"
     inkscape:window-y="-8"
     inkscape:window-maximized="1"
     inkscape:current-layer="layer1" />
  <defs
     id="defs1">
    <rect
       x="269.35003"
       y="519.55844"
       width="243.37211"
       height="42.385031"
       id="rect5" />
    <rect
       x="278.92085"
       y="196.8853"
       width="234.82674"
       height="98.784467"
       id="rect3" />
    <rect
       x="278.92084"
       y="196.8853"
       width="234.82674"
       height="98.78447"
       id="rect3-5" />
    <rect
       x="269.35004"
       y="519.55841"
       width="244.05575"
       height="131.20966"
       id="rect5-4" />
    <rect
       x="269.35004"
       y="519.55841"
       width="244.05576"
       height="131.20966"
       id="rect5-4-0" />
    <rect
       x="269.35004"
       y="519.55841"
       width="244.05576"
       height="131.20966"
       id="rect5-4-0-7" />
  </defs>
  <g
     inkscape:label="Laag 1"
     inkscape:groupmode="layer"
     id="layer1">
    <rect
       style="vector-effect:non-scaling-stroke;fill:none;stroke:#000000;stroke-width:0.264583;stroke-dasharray:none;stroke-opacity:1;-inkscape-stroke:hairline"
       id="rect1"
       width="50"
       height="50"
       x="193.41959"
       y="226.27707" />
    <rect
       style="vector-effect:non-scaling-stroke;fill:none;stroke:#000000;stroke-width:0.29068;stroke-dasharray:none;stroke-opacity:1;-inkscape-stroke:hairline"
       id="rect2"
       width="60"
       height="60"
       x="188.59093"
       y="221.27707"
       ry="5.5642347" />
    <text
       xml:space="preserve"
       transform="matrix(0.26458333,0,0,0.26458333,116.55642,152.49835)"
       id="text2"
       style="font-style:normal;font-variant:normal;font-weight:normal;font-stretch:normal;font-family:Calibri;-inkscape-font-specification:Calibri;white-space:pre;shape-inside:url(#rect3);display:inline;vector-effect:non-scaling-stroke;fill:#000000;fill-opacity:1;stroke:none;stroke-width:1;stroke-dasharray:none;stroke-opacity:1;-inkscape-stroke:hairline"><tspan
         x="278.91992"
         y="207.38477"
         id="tspan1">Uitleg over de ESP32-C3 sensorhub, Digitaal </tspan><tspan
         x="278.91992"
         y="222.38477"
         id="tspan4">protocol, analoge sensors, off-the-shelf-sensors, </tspan><tspan
         x="278.91992"
         y="237.38477"
         id="tspan6">batterij, flexibel substraat
</tspan><tspan
         x="278.91992"
         y="252.38477"
         id="tspan7">Magnetic interconnect</tspan></text>
    <text
       xml:space="preserve"
       transform="matrix(0.26458333,0,0,0.26458333,126.30974,183.85842)"
       id="text2-5"
       style="font-style:normal;font-variant:normal;font-weight:normal;font-stretch:normal;font-family:Calibri;-inkscape-font-specification:Calibri;white-space:pre;shape-inside:url(#rect3-5);display:inline;vector-effect:non-scaling-stroke;fill:#000000;fill-opacity:1;stroke:none;stroke-width:1;stroke-dasharray:none;stroke-opacity:1;-inkscape-stroke:hairline"><tspan
         x="278.91992"
         y="207.38477"
         id="tspan8">Foto PCB toevoegen</tspan></text>
    <rect
       style="vector-effect:non-scaling-stroke;fill:#000000;fill-opacity:1;stroke:none;stroke-width:0.257327;stroke-dasharray:none;stroke-opacity:1;-inkscape-stroke:hairline"
       id="rect4"
       width="50"
       height="50"
       x="193.41959"
       y="294.30591"
       ry="4.5751638" />
    <text
       xml:space="preserve"
       transform="matrix(0.26458333,0,0,0.26458333,132.4736,164.43623)"
       id="text4"
       style="font-style:normal;font-variant:normal;font-weight:normal;font-stretch:normal;font-family:Calibri;-inkscape-font-specification:Calibri;white-space:pre;shape-inside:url(#rect5);display:inline;vector-effect:non-scaling-stroke;fill:#000000;fill-opacity:1;stroke:none;stroke-width:1;stroke-dasharray:none;stroke-opacity:1;-inkscape-stroke:hairline"><tspan
         x="269.34961"
         y="530.05859"
         id="tspan10"><tspan
           style="fill:#fdfdfd"
           id="tspan9">Analoge sensoren</tspan></tspan></text>
    <g
       id="g6"
       transform="translate(26.458344)">
      <path
         id="path5"
         style="vector-effect:non-scaling-stroke;fill:#020202;fill-opacity:1;stroke:none;stroke-width:0.264583;stroke-dasharray:none;stroke-opacity:1;-inkscape-stroke:hairline"
         d="m 138.68792,76.18243 a 11.510941,14.836323 0 0 0 -11.47837,14.197067 h 22.97844 A 11.510941,14.836323 0 0 0 138.68792,76.18243 Z" />
      <path
         id="path5-8"
         style="vector-effect:non-scaling-stroke;fill:#020202;fill-opacity:1;stroke:none;stroke-width:0.264583;stroke-dasharray:none;stroke-opacity:1;-inkscape-stroke:hairline"
         d="M 92.731034,76.18243 A 11.510941,14.836323 0 0 0 81.252664,90.379497 H 104.23111 A 11.510941,14.836323 0 0 0 92.731034,76.18243 Z" />
      <path
         id="path5-5"
         style="vector-effect:non-scaling-stroke;fill:#020202;fill-opacity:1;stroke:none;stroke-width:0.264583;stroke-dasharray:none;stroke-opacity:1;-inkscape-stroke:hairline"
         d="m 46.774154,76.18243 a 11.510941,14.836323 0 0 0 -11.47837,14.197067 h 22.97844 A 11.510941,14.836323 0 0 0 46.774154,76.18243 Z" />
    </g>
    <g
       id="g7"
       transform="translate(26.458344,439.20855)">
      <path
         id="path5-52"
         style="vector-effect:non-scaling-stroke;fill:#020202;fill-opacity:1;stroke:none;stroke-width:0.264583;stroke-dasharray:none;stroke-opacity:1;-inkscape-stroke:hairline"
         d="m 23.817422,104.57657 a 11.510941,14.836323 0 0 0 11.47837,-14.197071 h -22.97844 a 11.510941,14.836323 0 0 0 11.50007,14.197071 z" />
      <path
         id="path5-8-5"
         style="vector-effect:non-scaling-stroke;fill:#020202;fill-opacity:1;stroke:none;stroke-width:0.264583;stroke-dasharray:none;stroke-opacity:1;-inkscape-stroke:hairline"
         d="M 69.774292,104.57657 A 11.510941,14.836323 0 0 0 81.252664,90.379497 H 58.274216 a 11.510941,14.836323 0 0 0 11.500076,14.197073 z" />
      <path
         id="path5-5-9"
         style="vector-effect:non-scaling-stroke;fill:#020202;fill-opacity:1;stroke:none;stroke-width:0.264583;stroke-dasharray:none;stroke-opacity:1;-inkscape-stroke:hairline"
         d="m 115.73118,104.14488 a 11.510941,14.836323 0 0 0 11.47837,-14.197069 h -22.97844 a 11.510941,14.836323 0 0 0 11.50007,14.197069 z" />
    </g>
    <rect
       style="vector-effect:non-scaling-stroke;fill:#020202;fill-opacity:1;stroke:none;stroke-width:0.264583;stroke-dasharray:none;stroke-opacity:1;-inkscape-stroke:hairline"
       id="rect7"
       width="55.966064"
       height="75.895615"
       x="3.4366624"
       y="134.64519"
       ry="5.0645556" />
    <text
       xml:space="preserve"
       transform="matrix(0.26458333,0,0,0.26458333,-60.20718,12.462805)"
       id="text4-3"
       style="font-style:normal;font-variant:normal;font-weight:normal;font-stretch:normal;font-family:Calibri;-inkscape-font-specification:Calibri;white-space:pre;shape-inside:url(#rect5-4);display:inline;vector-effect:non-scaling-stroke;fill:#fdfdfd;fill-opacity:1;stroke:none;stroke-width:1;stroke-dasharray:none;stroke-opacity:1;-inkscape-stroke:hairline"><tspan
         x="269.34961"
         y="530.05859"
         id="tspan11">Off the shelf sensor, 
</tspan><tspan
         x="269.34961"
         y="545.05859"
         id="tspan12">lange afstand + processor, 
</tspan><tspan
         x="269.34961"
         y="560.05859"
         id="tspan13">step down</tspan></text>
    <rect
       style="vector-effect:non-scaling-stroke;fill:#020202;fill-opacity:1;stroke:none;stroke-width:0.198928;stroke-dasharray:none;stroke-opacity:1;-inkscape-stroke:hairline"
       id="rect7-6"
       width="55.966064"
       height="42.902805"
       x="129.11667"
       y="2.6458273"
       ry="2.8629274" />
    <rect
       style="vector-effect:non-scaling-stroke;fill:#020202;fill-opacity:1;stroke:none;stroke-width:0.198928;stroke-dasharray:none;stroke-opacity:1;-inkscape-stroke:hairline"
       id="rect7-6-1"
       width="55.966064"
       height="42.902805"
       x="70.069618"
       y="2.6458273"
       ry="2.8629274" />
    <text
       xml:space="preserve"
       transform="matrix(0.26458333,0,0,0.26458333,65.47282,-119.53655)"
       id="text4-3-1"
       style="font-style:normal;font-variant:normal;font-weight:normal;font-stretch:normal;font-family:Calibri;-inkscape-font-specification:Calibri;white-space:pre;shape-inside:url(#rect5-4-0);display:inline;vector-effect:non-scaling-stroke;fill:#fdfdfd;fill-opacity:1;stroke:none;stroke-width:1;stroke-dasharray:none;stroke-opacity:1;-inkscape-stroke:hairline"><tspan
         x="269.34961"
         y="530.05859"
         id="tspan14">I2c MUX
</tspan><tspan
         x="269.34961"
         y="545.05859"
         id="tspan15">5V --&gt; 12V step-up</tspan></text>
    <text
       xml:space="preserve"
       transform="matrix(0.26458333,0,0,0.26458333,15.09675,-123.12788)"
       id="text4-3-1-2"
       style="font-style:normal;font-variant:normal;font-weight:normal;font-stretch:normal;font-family:Calibri;-inkscape-font-specification:Calibri;white-space:pre;shape-inside:url(#rect5-4-0-7);display:inline;vector-effect:non-scaling-stroke;fill:#fdfdfd;fill-opacity:1;stroke:none;stroke-width:1;stroke-dasharray:none;stroke-opacity:1;-inkscape-stroke:hairline"><tspan
         x="269.34961"
         y="530.05859"
         id="tspan16">BMP280
</tspan><tspan
         x="269.34961"
         y="545.05859"
         id="tspan17">Lichtsensor</tspan></text>
    <path
       style="vector-effect:non-scaling-stroke;fill:#fdfdfd;fill-opacity:1;stroke:#ff0000;stroke-width:0.264583;stroke-dasharray:none;stroke-opacity:1;-inkscape-stroke:hairline"
       d="m 169.59452,44.50897 c 0,0.69746 0.77475,0.77475 1.0232,1.023194 0.0603,0.06029 -0.0317,0.176629 0,0.255799 0.14161,0.354049 0.29292,0.710803 0.51159,1.023194 2.79819,3.997449 -0.3799,-1.683941 2.81379,4.348578 4.471,8.445222 8.23995,17.359045 10.74354,26.603063 0.52464,1.937138 0.80465,3.933301 1.279,5.88337 0.29343,1.20632 0.68212,2.387451 1.02319,3.58118 -2.76831,9.476132 0.56311,19.921762 -1.7708,29.257422 -0.23397,0.93588 0.30505,1.97886 0,2.89404 -0.10786,0.32356 -0.61566,0.39994 -0.72351,0.7235 -0.15253,0.45759 0.15253,0.98943 0,1.44702 -0.21571,0.64713 -1.14196,0.8369 -1.44702,1.44702 -1.48921,2.97841 -2.83639,4.56128 -5.06455,7.23508 -0.6183,0.74195 -2.41462,1.93519 -2.89403,2.89403 -0.80706,1.61411 0.0775,7.75175 0,8.68209 -0.10213,1.22548 -0.57098,2.39731 -0.72351,3.61754 -0.56105,4.48835 0.74301,9.28856 0,13.74665 -0.12538,0.75227 -0.62892,1.41377 -0.72351,2.17053 -0.14957,1.19653 0.26158,2.4404 0,3.61754 -0.23397,1.05285 -1.1371,1.86097 -1.44702,2.89403 -0.84306,2.81021 -0.67504,5.85152 -1.44701,8.68209 -2.31094,8.47346 -1.09997,-2.42935 -2.89403,10.12911 -0.17054,1.19373 0.17053,2.42381 0,3.61754 -0.0763,0.53385 -0.61775,0.91822 -0.72351,1.44702 -0.3708,1.85398 -0.28406,3.59084 -0.72351,5.78806 -0.18919,0.94595 0.23397,1.95816 0,2.89403 -0.13079,0.52317 -0.61775,0.91822 -0.72351,1.44702 -0.41192,2.0596 -0.54024,10.86216 0,13.02314 0.42697,1.70787 1.10196,3.33926 1.44702,5.06456 0.0946,0.47297 -0.21571,1.0156 0,1.44701 0.10785,0.21571 0.61565,-0.21571 0.72351,0 0.54995,1.0999 0.23909,2.48724 0.7235,3.61754 0.15274,0.35637 4.11316,8.37823 4.34105,8.6821 0.1447,0.19293 0.48234,0 0.72351,0 0.24117,0.24117 0.57098,0.41845 0.72351,0.72351 0.21571,0.43141 -0.34107,1.10595 0,1.44701 1.3462,1.3462 3.08637,1.94463 4.34105,3.61754 1.29412,1.72549 3.88259,5.24126 5.78806,6.51157 0.4487,0.29914 1.06569,0.34219 1.44701,0.72351 0.17054,0.17053 -0.17053,0.55298 0,0.72351 0.34107,0.34106 0.98943,-0.15253 1.44702,0 0.61032,0.20344 4.0194,1.84887 4.34105,2.17052 1.49346,1.49346 -2.47283,1.12537 1.68999,1.66684"
       id="path7" />
    <path
       style="vector-effect:non-scaling-stroke;fill:none;fill-opacity:1;stroke:#ff0000;stroke-width:0.264583;stroke-dasharray:none;stroke-opacity:1;-inkscape-stroke:hairline"
       d="m 129.11667,24.09723 c -1.90431,-2.577946 -1.40324,-2.354343 -3.51952,-2.354343 -0.17193,0 -0.61643,-0.07548 -0.7674,0 -0.3426,0.171303 -0.35444,0.610241 -0.51159,0.767396 -0.0603,0.06029 -0.31843,-0.05786 -0.2558,0 0.61996,0.57283 1.31555,1.057965 1.97332,1.586947"
       id="path8" />
    <path
       style="vector-effect:non-scaling-stroke;fill:none;fill-opacity:1;stroke:#ff0000;stroke-width:0.264583;stroke-dasharray:none;stroke-opacity:1;-inkscape-stroke:hairline"
       d="m 157.0997,45.548634 c 0.7103,2.463824 -0.71336,-2.252316 1.23968,2.541516 3.21195,7.88389 0.87635,2.629056 2.30219,6.906564 1.00203,3.00609 0.41506,1.061784 1.53479,3.581183 0.40764,0.917189 0.56862,1.904646 1.02319,2.813786 0.13749,0.274973 0.39742,0.481952 0.5116,0.767395 0.12667,0.316672 -0.12667,0.706524 0,1.023194 0.32604,0.815083 0.85863,1.531511 1.279,2.302189 1.7305,3.172587 -0.0885,-0.567819 1.27899,2.557987 1.22989,2.811169 2.04639,3.806677 2.04639,6.650765 0,0.171931 0.0755,0.616431 0,0.767395 -0.14663,0.293253 -0.53373,0.355819 -0.7674,0.511598 -0.10033,0.06689 -0.13567,0.245285 -0.2558,0.255799 -0.71279,0.06239 -1.43071,-0.03038 -2.14607,-0.04558"
       id="path9" />
    <path
       style="vector-effect:non-scaling-stroke;fill:none;fill-opacity:1;stroke:#ff0000;stroke-width:0.264583;stroke-dasharray:none;stroke-opacity:1;-inkscape-stroke:hairline"
       d="m 165.15711,90.379496 c -1.16412,3.979992 -2.78337,7.854286 -3.49235,11.939974 -1.04963,6.04877 0.45351,12.29511 0,18.4175 -0.93765,12.65825 -2.09853,25.32292 -4.09278,37.85821 -1.31368,8.25746 -3.55147,16.34303 -5.11597,24.55667 -6.55204,34.39818 -6.13917,69.47413 -6.13917,104.36585 0,12.61941 0,25.23882 0,37.8582 0,5.43388 -0.82537,12.02941 0,17.39432 0.37756,2.45411 1.69524,4.70434 2.04639,7.16237 0.76498,5.35485 -0.71488,11.0095 0,16.3711 1.04381,7.82854 2.04639,12.38051 2.04639,19.44071 0,11.10924 0.91935,22.73324 0,33.76543 -0.23356,2.80276 -1.7358,5.39025 -2.04639,8.18555 -0.34106,3.06959 -0.71588,6.13561 -1.02319,9.20874 -1.16937,11.69366 1.63711,-2.45565 0,12.27836 -0.2742,2.4678 -1.73842,4.69853 -2.04639,7.16235 -0.23573,1.88582 -0.49238,15.30948 -1.0232,16.37112 -0.21571,0.43141 -0.90621,0.55526 -1.02319,1.0232 -1.13014,4.52054 0.91496,9.7499 0,14.32473 -0.21152,1.05759 -0.88942,1.99935 -1.0232,3.06956 -0.21152,1.69217 0.16969,3.41913 0,5.11598 -0.53284,5.3284 -3.8875,19.03334 -2.04639,24.55667 0.46502,1.39507 1.01017,6.11312 1.0232,6.13918 2.41586,4.83172 -0.5381,-6.2452 2.04639,4.09279 0.16544,0.66175 0.2355,2.68658 0,2.04636 -0.46847,-1.27349 -0.71239,-2.61871 -1.06859,-3.92808 -2.09489,-9.19028 -1.87001,-18.55748 -3.02419,-27.79093 -1.70905,-13.67237 -0.42085,7.04666 -2.04639,-9.20876 -0.3551,-3.55101 0.70645,-7.7229 0,-11.25514 -2.86617,-14.33087 -1.02319,-30.34809 -1.02319,-45.02056 0,-30.01372 0,-60.02743 0,-90.04114 0,-11.59621 0,-23.19241 0,-34.78862 0,-4.12787 0.59253,-9.15383 0,-13.30153 -0.97581,-6.83062 -1.35961,-13.59602 -2.04639,-20.46389 -0.3461,-3.46094 -1.66229,-6.77503 -2.04639,-10.23195 -0.26365,-2.37285 0.33763,-4.7989 0,-7.16236 -0.78322,-5.48255 -2.56287,-10.79729 -3.06959,-16.37112 -0.53223,-5.85458 -1.2154,-11.57742 -2.04639,-17.39431 -0.6637,-4.64591 0.38839,-9.66409 0,-14.32473 -1.12349,-13.48188 -2.49201,-26.78477 -5.11597,-39.90459 -0.83294,-4.16471 1.16605,-9.22036 0,-13.30153 -0.41903,-1.4666 -1.56405,-2.64576 -2.04639,-4.09278 -1.61021,-4.83062 0.99697,-11.38629 0,-16.37111 -0.99782,-4.98913 -2.55553,-10.20736 -3.06958,-15.34793 -0.16969,-1.69686 0.21152,-3.42381 0,-5.11597 -0.614,-4.91197 -2.04639,-5.74368 -2.04639,-11.25514 0,-2.89613 0.91263,-7.494043 0,-10.231947 -1.26437,-3.793092 -1.0232,1.247224 -1.0232,-2.04639 0,-2.047733 -0.0162,-5.116946 0,-5.115973 1.92587,0.115834 3.75041,0.907705 5.62562,1.361557"
       id="path10" />
    <path
       style="vector-effect:non-scaling-stroke;fill:none;fill-opacity:1;stroke:#ff0000;stroke-width:0.264583;stroke-dasharray:none;stroke-opacity:1;-inkscape-stroke:hairline"
       d="m 113.57461,89.01794 c -1.76281,3.395649 -2.20193,6.761318 -3.06958,10.231945 -0.79187,3.167485 0.46243,6.994895 0,10.231945 -2.22916,15.60407 -1.0232,32.20788 -1.0232,48.09015 0,6.53023 1.01649,14.34485 -1.02319,20.4639 -1.0746,3.2238 0.42384,7.86439 0,11.25514 -0.58026,4.64202 -0.90804,9.77133 -2.04639,14.32473 -1.56269,6.25077 -1.39708,12.94757 -2.04639,19.44069 -0.36692,3.66917 0.60587,7.6199 0,11.25514 -1.35154,8.10922 -2.50965,16.1576 -3.06958,24.55668 -0.15235,2.28511 0.73655,5.9759 0,8.18556 -3.895375,11.68609 -2.046395,32.78638 -2.046395,46.04375 0,13.30153 0,26.60306 0,39.90459 0,4.77491 -0.47512,9.57352 0,14.32472 0.173048,1.73049 0.831145,3.38752 1.023195,5.11599 0.95958,8.63621 0,17.91155 0,26.60306 0,19.09963 0,38.19927 0,57.2989 0,5.79811 0,11.59622 0,17.39432 0,2.04639 0,4.09276 0,6.13915 0,0.68215 0,2.72852 0,2.0464 0,-0.68212 0,-2.72852 0,-2.0464 0,12.96049 0,25.92094 0,38.8814 0,1.36451 0.64932,4.84055 0,6.13918 -0.507541,1.01507 -1.693107,2.00975 -2.046389,3.06959 -1.476682,4.43002 1.956039,-0.37608 -1.023194,4.09278 -0.164499,0.24673 -3.205475,2.62324 -3.069585,2.04637 0.380516,-1.61528 1.391915,-3.01305 2.08787,-4.51958 -2.517859,-5.03256 -0.412457,-10.72656 -1.064674,-15.9443 -1.137516,-9.10013 -0.731965,-1.3222 -2.04639,-9.20875 -1.015336,-6.09202 0,-13.24273 0,-19.4407 0,-17.87696 1.189753,-36.38303 0,-54.22932 -0.461635,-6.92453 -1.023194,-13.54036 -1.023194,-20.46389 0,-7.86958 -1.185748,-15.78771 -2.04639,-23.53348 -0.561719,-5.05548 0.506229,-10.28563 0,-15.34792 -0.752917,-7.52918 -0.810049,-15.09224 -2.046389,-22.51028 -1.023804,-6.14283 0.440342,-13.27592 0,-19.4407 -0.14781,-2.06935 -0.816763,-4.07485 -1.023195,-6.13917 -0.723147,-7.23147 0.01233,-14.2384 -1.023195,-21.48709 -1.335798,-9.35059 0.940301,-19.24645 0,-28.64945 -0.139926,-1.39927 -0.848771,-2.69739 -1.023194,-4.09278 -0.380735,-3.04588 0.305435,-6.1544 0,-9.20875 -0.173047,-1.73047 -0.850148,-3.38551 -1.023195,-5.11598 -1.268014,-12.68014 0,-26.16133 0,-38.8814 0,-4.19016 0.816261,-9.22022 0,-13.30153 -1.18141,-5.90705 -2.674197,-11.71998 -4.092779,-17.39431 -0.552316,-2.20926 0.373063,-4.92398 0,-7.16236 -0.709715,-4.25829 -0.933052,-1.77596 -2.046389,-5.11597 -0.473041,-1.41913 0.332101,-3.78757 0,-5.11598 -0.116984,-0.46794 -0.68213,-0.68213 -1.023195,-1.02319 -0.341065,-1.36426 -0.867901,-2.69514 -1.023195,-4.09278 -0.487493,-4.38745 0.539702,-5.05977 -1.023194,-8.18556 -1.561978,-3.12395 1.251396,-12.61692 0,-16.37111 -0.24117,-0.72351 -0.897817,-1.29413 -1.023195,-2.04639 -0.224283,-1.3457 0.267553,-2.75502 0,-4.09278 -0.09459,-0.47297 -0.870666,-0.56561 -1.023195,-1.0232 -0.547958,-1.64387 -0.547294,-7.23375 -1.023194,-8.18556 -0.215709,-0.43141 -0.906211,-0.55525 -1.023195,-1.02319 -0.882756,-3.53102 0.882756,-7.72412 0,-11.25514 -0.116984,-0.46794 -0.870666,-0.56561 -1.023195,-1.0232 -0.414032,-1.24209 0,-3.728 0,-5.11597 0,-2.45568 -0.06861,-3.2068 -1.023195,-5.115973 -0.997088,-1.994177 0,-7.017231 0,-9.208753 0,-1.705324 -1.239482,-6.287218 0,-5.115973 1.7427,1.646758 3.126202,3.636224 4.689303,5.454336"
       id="path11" />
    <path
       style="vector-effect:non-scaling-stroke;fill:none;fill-opacity:1;stroke:#ff0000;stroke-width:0.264583;stroke-dasharray:none;stroke-opacity:1;-inkscape-stroke:hairline"
       d="m 68.554044,84.925161 c -0.682131,1.705324 -1.786642,3.29774 -2.046389,5.115973 -0.01707,0.119414 1.895917,7.58367 2.046389,8.185557 0.481504,1.926009 -0.481502,4.213149 0,6.139169 1.874652,7.4986 2.04639,7.76669 2.04639,15.34792 0,8.86769 0,17.73537 0,26.60306 0,4.81334 0.788247,10.61844 0,15.34792 -0.341064,1.36426 -0.68213,2.72852 -1.023194,4.09278 -0.341066,0.68213 -0.838226,1.30652 -1.023196,2.04639 -0.962504,3.85002 0.04071,13.17941 -1.023194,16.37112 -0.388874,1.16662 -1.722827,1.88318 -2.046389,3.06958 -0.723508,2.65286 -0.483925,5.4892 -1.023196,8.18556 -0.409311,2.04655 -1.637078,4.09261 -2.046388,6.13916 -1.432983,7.16492 0.806884,15.24832 0,22.51029 -0.567264,5.10537 -1.211583,10.33908 -2.046391,15.34792 -1.094436,6.56662 -0.195683,13.84382 -1.023194,20.46389 3.691805,3.92941 -1.686184,3.31495 -2.046388,5.11598 -0.267554,1.33776 0.224282,2.74709 0,4.09279 -0.125378,0.75226 -0.897818,1.2941 -1.023197,2.04636 -0.224282,1.3457 0.13575,2.73529 0,4.09279 -0.617296,6.17297 -2.554459,12.23603 -3.069582,18.41751 -0.728257,8.73909 -1.733573,17.84417 -2.04639,26.60306 -0.424887,11.89681 0,23.90228 0,35.81181 0,4.56792 0.507748,9.755 0,14.32472 -1.175531,10.57979 -2.778231,21.20265 -4.092779,31.71905 -0.754978,6.03983 0.860497,12.39403 0,18.41751 -0.800063,5.60044 -1.023194,10.64668 -1.023194,16.37109 0,8.29244 -1.907188,15.39672 -3.069585,23.5335 -1.065855,7.46099 0,16.01441 0,23.53347 0,6.35286 -1.273175,16.14443 0,22.51027 1.851023,9.25513 0.09679,-2.77921 2.046388,3.06959 0.493684,1.48106 0.350298,2.74699 1.023197,4.09279 1.037664,2.07534 4.696116,2.9514 6.139167,5.11596 0.378378,0.56758 -0.482338,1.56406 0,2.04639 0.24117,0.24117 0.782026,-0.24117 1.023196,0 0.304504,0.30451 0.208153,8.07096 0,8.18557 -0.876286,0.48253 -1.960805,0.39759 -2.941208,0.59638"
       id="path12" />
    <path
       style="vector-effect:non-scaling-stroke;fill:none;fill-opacity:1;stroke:#ff0000;stroke-width:0.264583;stroke-dasharray:none;stroke-opacity:1;-inkscape-stroke:hairline"
       d="m 38.775695,529.58804 c 1.399495,-1.9041 3.632626,-3.418 4.198482,-5.71236 0.338297,-1.37168 -2.995228,-16.89859 -3.069584,-17.39432 -1.905016,-12.7001 -3.17667,-26.05584 -4.092779,-38.88139 -0.218699,-3.06178 0.434105,-6.17 0,-9.20874 -0.533807,-3.73666 -1.504058,-7.45884 -2.046388,-11.25514 -0.746731,-5.22713 0,-12.52659 0,-17.39432 0,-15.74731 0.02217,-31.38651 -1.023197,-47.06696 -0.334348,-5.01523 0.62492,-10.34857 0,-15.34793 -0.431416,-3.45133 -1.731488,-6.76801 -2.046388,-10.23194 -1.241782,-13.65959 -2.391994,-27.30788 -5.115974,-40.92778 -1.023194,-5.11599 -1.804205,-10.28639 -3.069584,-15.34793 -0.445463,-1.78183 -1.647955,-3.323 -2.046389,-5.11595 -0.29595,-1.33178 0.224283,-2.74709 0,-4.09279 -0.745116,-4.47069 -3.341435,-8.79348 -4.092779,-13.30153 -0.951447,-5.70868 -1.322496,-11.60317 -2.046389,-17.39431 -0.338432,-2.70745 0.535106,-5.51003 0,-8.18556 -0.09459,-0.47297 -0.870666,-0.56561 -1.023195,-1.02319 -0.584221,-1.75267 -0.555981,-22.33275 0,-24.55668 0.672244,-2.68898 3.099719,-5.70291 4.092779,-8.18555 0.126668,-0.31668 -0.24117,-0.78203 0,-1.0232 0.241169,-0.24117 0.782025,0.24117 1.023195,0 0.241169,-0.24117 -0.152529,-0.71814 0,-1.02319 0.431416,-0.86284 1.614972,-1.18356 2.046389,-2.04639 0.545704,-1.09141 -0.545704,-3.00138 0,-4.09278 0.152529,-0.30506 0.782025,0.24117 1.023195,0 0.482338,-0.48234 -0.482339,-1.56405 0,-2.04639 0.270845,-0.27085 2.648268,0 3.069584,0 0.762644,0 1.317899,-1.24887 2.04639,-1.0232 1.779132,0.55115 3.211086,1.88819 4.816631,2.83228"
       id="path13" />
    <path
       style="vector-effect:non-scaling-stroke;fill:none;fill-opacity:1;stroke:#0000ff;stroke-width:0.264583;stroke-dasharray:none;stroke-opacity:1;-inkscape-stroke:hairline"
       d="m 218.59092,281.27706 c -1.71869,0.94233 -3.64704,1.57612 -5.15608,2.82701 -0.36686,0.3041 0.15429,10.84291 0.7235,10.85262 1.43668,0.0245 2.84083,-0.43386 4.26124,-0.65079"
       id="path14" />
  </g>
</svg>
